solid OpenSCAD_Model
  facet normal 1 0 0
    outer loop
      vertex 59.6 62.8 34.8
      vertex 59.6 0 34.8
      vertex 59.6 62.8 0.799999
    endloop
  endfacet
  facet normal 1 -0 0
    outer loop
      vertex 59.6 62.8 0.799999
      vertex 59.6 90.6 0
      vertex 59.6 90.6 0.799999
    endloop
  endfacet
  facet normal 1 0 0
    outer loop
      vertex 59.6 62.8 0.799999
      vertex 59.6 0 0
      vertex 59.6 90.6 0
    endloop
  endfacet
  facet normal 1 0 0
    outer loop
      vertex 59.6 0 0
      vertex 59.6 62.8 0.799999
      vertex 59.6 0 34.8
    endloop
  endfacet
  facet normal 0 0 1
    outer loop
      vertex 31.8 90.6 34.8
      vertex 0.799999 89.8 34.8
      vertex 31.8 89.8 34.8
    endloop
  endfacet
  facet normal -0 0 1
    outer loop
      vertex 0 90.6 34.8
      vertex 0.799999 89.8 34.8
      vertex 31.8 90.6 34.8
    endloop
  endfacet
  facet normal 0 0 1
    outer loop
      vertex 0 28 34.8
      vertex 0.799999 89.8 34.8
      vertex 0 90.6 34.8
    endloop
  endfacet
  facet normal 0 0 1
    outer loop
      vertex 0.799999 89.8 34.8
      vertex 0 28 34.8
      vertex 0.799999 28 34.8
    endloop
  endfacet
  facet normal 0 0 1
    outer loop
      vertex 58.8 0.799999 34.8
      vertex 59.6 62.8 34.8
      vertex 58.8 62.8 34.8
    endloop
  endfacet
  facet normal 0 0 1
    outer loop
      vertex 59.6 62.8 34.8
      vertex 58.8 0.799999 34.8
      vertex 59.6 0 34.8
    endloop
  endfacet
  facet normal 0 0 1
    outer loop
      vertex 28 0 34.8
      vertex 58.8 0.799999 34.8
      vertex 28 0.799999 34.8
    endloop
  endfacet
  facet normal 0 0 1
    outer loop
      vertex 58.8 0.799999 34.8
      vertex 28 0 34.8
      vertex 59.6 0 34.8
    endloop
  endfacet
  facet normal 0 0 -1
    outer loop
      vertex 0 0 0
      vertex 59.6 90.6 0
      vertex 59.6 0 0
    endloop
  endfacet
  facet normal -0 0 -1
    outer loop
      vertex 59.6 90.6 0
      vertex 0 0 0
      vertex 0 90.6 0
    endloop
  endfacet
  facet normal -1 0 0
    outer loop
      vertex 0 90.6 0
      vertex 0 28 0.799999
      vertex 0 90.6 34.8
    endloop
  endfacet
  facet normal -1 0 0
    outer loop
      vertex 0 0 0
      vertex 0 28 0.799999
      vertex 0 90.6 0
    endloop
  endfacet
  facet normal -1 -0 0
    outer loop
      vertex 0 28 0.799999
      vertex 0 0 0
      vertex 0 0 0.799999
    endloop
  endfacet
  facet normal -1 -0 0
    outer loop
      vertex 0 90.6 34.8
      vertex 0 28 0.799999
      vertex 0 28 34.8
    endloop
  endfacet
  facet normal 0 1 0
    outer loop
      vertex 59.6 90.6 0.799999
      vertex 59.6 90.6 0
      vertex 31.8 90.6 0.799999
    endloop
  endfacet
  facet normal 0 1 -0
    outer loop
      vertex 31.8 90.6 0.799999
      vertex 0 90.6 34.8
      vertex 31.8 90.6 34.8
    endloop
  endfacet
  facet normal 0 1 0
    outer loop
      vertex 31.8 90.6 0.799999
      vertex 0 90.6 0
      vertex 0 90.6 34.8
    endloop
  endfacet
  facet normal 0 1 0
    outer loop
      vertex 0 90.6 0
      vertex 31.8 90.6 0.799999
      vertex 59.6 90.6 0
    endloop
  endfacet
  facet normal 0 -1 0
    outer loop
      vertex 0 0 0.799999
      vertex 0 0 0
      vertex 28 0 0.799999
    endloop
  endfacet
  facet normal 0 -1 0
    outer loop
      vertex 28 0 0.799999
      vertex 59.6 0 34.8
      vertex 28 0 34.8
    endloop
  endfacet
  facet normal 0 -1 0
    outer loop
      vertex 28 0 0.799999
      vertex 59.6 0 0
      vertex 59.6 0 34.8
    endloop
  endfacet
  facet normal 0 -1 0
    outer loop
      vertex 59.6 0 0
      vertex 28 0 0.799999
      vertex 0 0 0
    endloop
  endfacet
  facet normal -1 0 0
    outer loop
      vertex 58.8 0.799999 0.799999
      vertex 58.8 62.8 34.8
      vertex 58.8 62.8 0.799999
    endloop
  endfacet
  facet normal -1 -0 0
    outer loop
      vertex 58.8 62.8 34.8
      vertex 58.8 0.799999 0.799999
      vertex 58.8 0.799999 34.8
    endloop
  endfacet
  facet normal -0 0 1
    outer loop
      vertex 15.0605 11.5637 0.799999
      vertex 28 0.799999 0.799999
      vertex 16.3002 12.963 0.799999
    endloop
  endfacet
  facet normal -0 0 1
    outer loop
      vertex 15.0455 11.5468 0.799999
      vertex 28 0.799999 0.799999
      vertex 15.0605 11.5637 0.799999
    endloop
  endfacet
  facet normal -0 0 1
    outer loop
      vertex 13.2975 10.8839 0.799999
      vertex 28 0.799999 0.799999
      vertex 15.0455 11.5468 0.799999
    endloop
  endfacet
  facet normal -0 0 1
    outer loop
      vertex 13.2765 10.8759 0.799999
      vertex 28 0.799999 0.799999
      vertex 13.2975 10.8839 0.799999
    endloop
  endfacet
  facet normal 0 0 1
    outer loop
      vertex 28 0.799999 0.799999
      vertex 13.2765 10.8759 0.799999
      vertex 28 0 0.799999
    endloop
  endfacet
  facet normal 0 0 1
    outer loop
      vertex 0 0 0.799999
      vertex 13.2765 10.8759 0.799999
      vertex 13.2541 10.8786 0.799999
    endloop
  endfacet
  facet normal 0 0 1
    outer loop
      vertex 0 0 0.799999
      vertex 13.2541 10.8786 0.799999
      vertex 11.3983 11.1039 0.799999
    endloop
  endfacet
  facet normal 0 0 1
    outer loop
      vertex 0 0 0.799999
      vertex 11.3797 11.1167 0.799999
      vertex 9.84118 12.1787 0.799999
    endloop
  endfacet
  facet normal 0 0 1
    outer loop
      vertex 0 0 0.799999
      vertex 8.97239 13.8341 0.799999
      vertex 8.96192 13.854 0.799999
    endloop
  endfacet
  facet normal -0 0 1
    outer loop
      vertex 0 28 0.799999
      vertex 8.96192 15.746 0.799999
      vertex 0.799999 28 0.799999
    endloop
  endfacet
  facet normal 0 0 1
    outer loop
      vertex 8.96192 15.746 0.799999
      vertex 0 28 0.799999
      vertex 8.96192 13.854 0.799999
    endloop
  endfacet
  facet normal 0 0 1
    outer loop
      vertex 0 0 0.799999
      vertex 8.96192 13.854 0.799999
      vertex 0 28 0.799999
    endloop
  endfacet
  facet normal 0 0 1
    outer loop
      vertex 13.2765 10.8759 0.799999
      vertex 0 0 0.799999
      vertex 28 0 0.799999
    endloop
  endfacet
  facet normal 0 0 1
    outer loop
      vertex 11.3797 11.1167 0.799999
      vertex 0 0 0.799999
      vertex 11.3983 11.1039 0.799999
    endloop
  endfacet
  facet normal 0 0 1
    outer loop
      vertex 8.97239 13.8341 0.799999
      vertex 0 0 0.799999
      vertex 9.84118 12.1787 0.799999
    endloop
  endfacet
  facet normal -0 0 1
    outer loop
      vertex 50.7529 75.8 0.799999
      vertex 59.6 62.8 0.799999
      vertex 59.6 90.6 0.799999
    endloop
  endfacet
  facet normal 0 0 1
    outer loop
      vertex 59.6 62.8 0.799999
      vertex 50.3002 73.963 0.799999
      vertex 58.8 62.8 0.799999
    endloop
  endfacet
  facet normal -0 0 1
    outer loop
      vertex 50.3002 73.963 0.799999
      vertex 59.6 62.8 0.799999
      vertex 50.7529 75.8 0.799999
    endloop
  endfacet
  facet normal 0 0 1
    outer loop
      vertex 59.6 90.6 0.799999
      vertex 50.3055 77.6152 0.799999
      vertex 50.7529 75.8 0.799999
    endloop
  endfacet
  facet normal 0 0 1
    outer loop
      vertex 59.6 90.6 0.799999
      vertex 50.3002 77.637 0.799999
      vertex 50.3055 77.6152 0.799999
    endloop
  endfacet
  facet normal 0 0 1
    outer loop
      vertex 59.6 90.6 0.799999
      vertex 50.2852 77.6539 0.799999
      vertex 50.3002 77.637 0.799999
    endloop
  endfacet
  facet normal 0 0 1
    outer loop
      vertex 59.6 90.6 0.799999
      vertex 49.0455 79.0532 0.799999
      vertex 50.2852 77.6539 0.799999
    endloop
  endfacet
  facet normal 0 0 1
    outer loop
      vertex 59.6 90.6 0.799999
      vertex 49.0245 79.0612 0.799999
      vertex 49.0455 79.0532 0.799999
    endloop
  endfacet
  facet normal 0 0 1
    outer loop
      vertex 59.6 90.6 0.799999
      vertex 47.2765 79.7241 0.799999
      vertex 49.0245 79.0612 0.799999
    endloop
  endfacet
  facet normal -0 0 1
    outer loop
      vertex 31.8 90.6 0.799999
      vertex 47.2765 79.7241 0.799999
      vertex 59.6 90.6 0.799999
    endloop
  endfacet
  facet normal 0 0 1
    outer loop
      vertex 47.2765 79.7241 0.799999
      vertex 31.8 90.6 0.799999
      vertex 45.4206 79.4988 0.799999
    endloop
  endfacet
  facet normal 0 0 1
    outer loop
      vertex 45.4206 79.4988 0.799999
      vertex 31.8 90.6 0.799999
      vertex 45.3983 79.4961 0.799999
    endloop
  endfacet
  facet normal -0 0 1
    outer loop
      vertex 31.8 89.8 0.799999
      vertex 45.3983 79.4961 0.799999
      vertex 31.8 90.6 0.799999
    endloop
  endfacet
  facet normal 0 0 1
    outer loop
      vertex 31.8 89.8 0.799999
      vertex 42.9724 76.7659 0.799999
      vertex 43.8412 78.4213 0.799999
    endloop
  endfacet
  facet normal 0 0 1
    outer loop
      vertex 42.9724 76.7659 0.799999
      vertex 31.8 89.8 0.799999
      vertex 42.9619 76.746 0.799999
    endloop
  endfacet
  facet normal 0 0 1
    outer loop
      vertex 45.3797 79.4833 0.799999
      vertex 31.8 89.8 0.799999
      vertex 43.8412 78.4213 0.799999
    endloop
  endfacet
  facet normal 0 0 1
    outer loop
      vertex 45.3983 79.4961 0.799999
      vertex 31.8 89.8 0.799999
      vertex 45.3797 79.4833 0.799999
    endloop
  endfacet
  facet normal -0 0 1
    outer loop
      vertex 49.0605 72.5637 0.799999
      vertex 58.8 62.8 0.799999
      vertex 50.3002 73.963 0.799999
    endloop
  endfacet
  facet normal -0 0 1
    outer loop
      vertex 49.0455 72.5468 0.799999
      vertex 58.8 62.8 0.799999
      vertex 49.0605 72.5637 0.799999
    endloop
  endfacet
  facet normal -0 0 1
    outer loop
      vertex 47.2975 71.8839 0.799999
      vertex 58.8 62.8 0.799999
      vertex 49.0455 72.5468 0.799999
    endloop
  endfacet
  facet normal -0 0 1
    outer loop
      vertex 47.2765 71.8759 0.799999
      vertex 58.8 62.8 0.799999
      vertex 47.2975 71.8839 0.799999
    endloop
  endfacet
  facet normal 0 0 1
    outer loop
      vertex 47.2541 71.8786 0.799999
      vertex 58.8 62.8 0.799999
      vertex 47.2765 71.8759 0.799999
    endloop
  endfacet
  facet normal 0 0 1
    outer loop
      vertex 45.3983 72.1039 0.799999
      vertex 58.8 62.8 0.799999
      vertex 47.2541 71.8786 0.799999
    endloop
  endfacet
  facet normal 0 0 1
    outer loop
      vertex 15.0455 18.0532 0.799999
      vertex 58.8 62.8 0.799999
      vertex 45.3983 72.1039 0.799999
    endloop
  endfacet
  facet normal 0 0 1
    outer loop
      vertex 15.0455 18.0532 0.799999
      vertex 45.3983 72.1039 0.799999
      vertex 45.3797 72.1167 0.799999
    endloop
  endfacet
  facet normal 0 0 1
    outer loop
      vertex 15.0455 18.0532 0.799999
      vertex 45.3797 72.1167 0.799999
      vertex 43.8412 73.1787 0.799999
    endloop
  endfacet
  facet normal 0 0 1
    outer loop
      vertex 0.799999 28 0.799999
      vertex 42.9724 74.8341 0.799999
      vertex 0.799999 89.8 0.799999
    endloop
  endfacet
  facet normal 0 0 1
    outer loop
      vertex 0.799999 89.8 0.799999
      vertex 42.9724 74.8341 0.799999
      vertex 42.9619 74.854 0.799999
    endloop
  endfacet
  facet normal 0 0 1
    outer loop
      vertex 42.9619 76.746 0.799999
      vertex 31.8 89.8 0.799999
      vertex 42.9619 74.854 0.799999
    endloop
  endfacet
  facet normal -0 0 1
    outer loop
      vertex 0.799999 89.8 0.799999
      vertex 42.9619 74.854 0.799999
      vertex 31.8 89.8 0.799999
    endloop
  endfacet
  facet normal 0 0 1
    outer loop
      vertex 58.8 62.8 0.799999
      vertex 16.3002 16.637 0.799999
      vertex 58.8 0.799999 0.799999
    endloop
  endfacet
  facet normal -0 0 1
    outer loop
      vertex 16.3002 12.963 0.799999
      vertex 28 0.799999 0.799999
      vertex 16.7529 14.8 0.799999
    endloop
  endfacet
  facet normal 0 0 1
    outer loop
      vertex 58.8 0.799999 0.799999
      vertex 16.3002 16.637 0.799999
      vertex 28 0.799999 0.799999
    endloop
  endfacet
  facet normal 0 0 1
    outer loop
      vertex 28 0.799999 0.799999
      vertex 16.3055 16.6152 0.799999
      vertex 16.7529 14.8 0.799999
    endloop
  endfacet
  facet normal 0 0 1
    outer loop
      vertex 28 0.799999 0.799999
      vertex 16.3002 16.637 0.799999
      vertex 16.3055 16.6152 0.799999
    endloop
  endfacet
  facet normal 0 0 1
    outer loop
      vertex 58.8 62.8 0.799999
      vertex 16.2852 16.6539 0.799999
      vertex 16.3002 16.637 0.799999
    endloop
  endfacet
  facet normal 0 0 1
    outer loop
      vertex 58.8 62.8 0.799999
      vertex 15.0455 18.0532 0.799999
      vertex 16.2852 16.6539 0.799999
    endloop
  endfacet
  facet normal 0 0 1
    outer loop
      vertex 43.8412 73.1787 0.799999
      vertex 15.0245 18.0612 0.799999
      vertex 15.0455 18.0532 0.799999
    endloop
  endfacet
  facet normal 0 0 1
    outer loop
      vertex 43.8412 73.1787 0.799999
      vertex 13.2765 18.7241 0.799999
      vertex 15.0245 18.0612 0.799999
    endloop
  endfacet
  facet normal 0 0 1
    outer loop
      vertex 42.9724 74.8341 0.799999
      vertex 0.799999 28 0.799999
      vertex 43.8412 73.1787 0.799999
    endloop
  endfacet
  facet normal 0 0 1
    outer loop
      vertex 43.8412 73.1787 0.799999
      vertex 0.799999 28 0.799999
      vertex 13.2765 18.7241 0.799999
    endloop
  endfacet
  facet normal 0 0 1
    outer loop
      vertex 13.2765 18.7241 0.799999
      vertex 0.799999 28 0.799999
      vertex 11.4206 18.4988 0.799999
    endloop
  endfacet
  facet normal 0 0 1
    outer loop
      vertex 11.4206 18.4988 0.799999
      vertex 0.799999 28 0.799999
      vertex 11.3983 18.4961 0.799999
    endloop
  endfacet
  facet normal 0 0 1
    outer loop
      vertex 11.3983 18.4961 0.799999
      vertex 0.799999 28 0.799999
      vertex 11.3797 18.4833 0.799999
    endloop
  endfacet
  facet normal 0 0 1
    outer loop
      vertex 11.3797 18.4833 0.799999
      vertex 0.799999 28 0.799999
      vertex 9.84118 17.4213 0.799999
    endloop
  endfacet
  facet normal 0 0 1
    outer loop
      vertex 8.97239 15.7659 0.799999
      vertex 0.799999 28 0.799999
      vertex 8.96192 15.746 0.799999
    endloop
  endfacet
  facet normal 0 0 1
    outer loop
      vertex 9.84118 17.4213 0.799999
      vertex 0.799999 28 0.799999
      vertex 8.97239 15.7659 0.799999
    endloop
  endfacet
  facet normal 1 -0 0
    outer loop
      vertex 0.799999 28 34.8
      vertex 0.799999 89.8 0.799999
      vertex 0.799999 89.8 34.8
    endloop
  endfacet
  facet normal 1 0 0
    outer loop
      vertex 0.799999 89.8 0.799999
      vertex 0.799999 28 34.8
      vertex 0.799999 28 0.799999
    endloop
  endfacet
  facet normal 0 -1 0
    outer loop
      vertex 0.799999 89.8 0.799999
      vertex 31.8 89.8 34.8
      vertex 0.799999 89.8 34.8
    endloop
  endfacet
  facet normal 0 -1 -0
    outer loop
      vertex 31.8 89.8 34.8
      vertex 0.799999 89.8 0.799999
      vertex 31.8 89.8 0.799999
    endloop
  endfacet
  facet normal 0 1 -0
    outer loop
      vertex 58.8 0.799999 0.799999
      vertex 28 0.799999 34.8
      vertex 58.8 0.799999 34.8
    endloop
  endfacet
  facet normal 0 1 0
    outer loop
      vertex 28 0.799999 34.8
      vertex 58.8 0.799999 0.799999
      vertex 28 0.799999 0.799999
    endloop
  endfacet
  facet normal -1 0 0
    outer loop
      vertex 28 0 0.799999
      vertex 28 0.799999 34.8
      vertex 28 0.799999 0.799999
    endloop
  endfacet
  facet normal -1 -0 0
    outer loop
      vertex 28 0.799999 34.8
      vertex 28 0 0.799999
      vertex 28 0 34.8
    endloop
  endfacet
  facet normal 0 -1 0
    outer loop
      vertex 0 28 0.799999
      vertex 0.799999 28 34.8
      vertex 0 28 34.8
    endloop
  endfacet
  facet normal 0 -1 -0
    outer loop
      vertex 0.799999 28 34.8
      vertex 0 28 0.799999
      vertex 0.799999 28 0.799999
    endloop
  endfacet
  facet normal 1 -0 0
    outer loop
      vertex 31.8 89.8 34.8
      vertex 31.8 90.6 0.799999
      vertex 31.8 90.6 34.8
    endloop
  endfacet
  facet normal 1 0 0
    outer loop
      vertex 31.8 90.6 0.799999
      vertex 31.8 89.8 34.8
      vertex 31.8 89.8 0.799999
    endloop
  endfacet
  facet normal 0 1 -0
    outer loop
      vertex 59.6 62.8 0.799999
      vertex 58.8 62.8 34.8
      vertex 59.6 62.8 34.8
    endloop
  endfacet
  facet normal 0 1 0
    outer loop
      vertex 58.8 62.8 34.8
      vertex 59.6 62.8 0.799999
      vertex 58.8 62.8 0.799999
    endloop
  endfacet
  facet normal 0.969363 0.238923 0.0570201
    outer loop
      vertex 16.3055 16.6152 0.799999
      vertex 14.8 14.8 34
      vertex 16.7529 14.8 0.799999
    endloop
  endfacet
  facet normal -0.567154 0.821636 0.0570234
    outer loop
      vertex 11.3797 18.4833 0.799999
      vertex 9.84118 17.4213 0.799999
      vertex 11.303 16.1262 34
    endloop
  endfacet
  facet normal -0.998373 0 0.0570209
    outer loop
      vertex 8.96192 15.746 0.799999
      vertex 10.8581 14.3214 34
      vertex 10.8581 15.2786 34
    endloop
  endfacet
  facet normal -0.998373 0 0.0570209
    outer loop
      vertex 10.8581 14.3214 34
      vertex 8.96192 15.746 0.799999
      vertex 8.96192 13.854 0.799999
    endloop
  endfacet
  facet normal 0.355417 -0.932968 0.0570003
    outer loop
      vertex 13.2975 10.8839 0.799999
      vertex 13.0411 12.8146 34
      vertex 13.2765 10.8759 0.799999
    endloop
  endfacet
  facet normal 0.354002 -0.933505 0.0570206
    outer loop
      vertex 13.0411 12.8146 34
      vertex 13.2975 10.8839 0.799999
      vertex 13.9361 13.154 34
    endloop
  endfacet
  facet normal 0.747285 0.662052 0.0570207
    outer loop
      vertex 15.0455 18.0532 0.799999
      vertex 13.9361 16.446 34
      vertex 16.2852 16.6539 0.799999
    endloop
  endfacet
  facet normal -0.884022 0.463954 0.0570225
    outer loop
      vertex 9.84118 17.4213 0.799999
      vertex 8.97239 15.7659 0.799999
      vertex 11.303 16.1262 34
    endloop
  endfacet
  facet normal 0.354014 -0.9335 0.05702
    outer loop
      vertex 13.9361 13.154 34
      vertex 13.2975 10.8839 0.799999
      vertex 15.0455 11.5468 0.799999
    endloop
  endfacet
  facet normal 0.747285 -0.662052 0.0570229
    outer loop
      vertex 16.3002 12.963 0.799999
      vertex 14.5709 13.8706 34
      vertex 15.0605 11.5637 0.799999
    endloop
  endfacet
  facet normal -0.120354 0.991092 0.0570232
    outer loop
      vertex 11.4206 18.4988 0.799999
      vertex 12.0908 16.67 34
      vertex 13.0411 16.7854 34
    endloop
  endfacet
  facet normal -0.120003 0.991135 0.0570185
    outer loop
      vertex 12.0908 16.67 34
      vertex 11.4206 18.4988 0.799999
      vertex 11.3983 18.4961 0.799999
    endloop
  endfacet
  facet normal -0.884022 -0.463954 0.0570225
    outer loop
      vertex 11.303 13.4738 34
      vertex 8.97239 13.8341 0.799999
      vertex 9.84118 12.1787 0.799999
    endloop
  endfacet
  facet normal -0.120316 0.991097 0.0570216
    outer loop
      vertex 13.2765 18.7241 0.799999
      vertex 11.4206 18.4988 0.799999
      vertex 13.0411 16.7854 34
    endloop
  endfacet
  facet normal -0.883548 0.464862 0.0569794
    outer loop
      vertex 8.96192 15.746 0.799999
      vertex 11.303 16.1262 34
      vertex 8.97239 15.7659 0.799999
    endloop
  endfacet
  facet normal -0.883996 0.464004 0.0570208
    outer loop
      vertex 11.303 16.1262 34
      vertex 8.96192 15.746 0.799999
      vertex 10.8581 15.2786 34
    endloop
  endfacet
  facet normal 0.355416 0.932966 0.057041
    outer loop
      vertex 15.0245 18.0612 0.799999
      vertex 13.9361 16.446 34
      vertex 15.0455 18.0532 0.799999
    endloop
  endfacet
  facet normal 0.354002 0.933505 0.0570209
    outer loop
      vertex 13.9361 16.446 34
      vertex 15.0245 18.0612 0.799999
      vertex 13.0411 16.7854 34
    endloop
  endfacet
  facet normal -0.56598 -0.82244 0.0570832
    outer loop
      vertex 11.3983 11.1039 0.799999
      vertex 11.303 13.4738 34
      vertex 11.3797 11.1167 0.799999
    endloop
  endfacet
  facet normal -0.567155 -0.821635 0.0570223
    outer loop
      vertex 11.303 13.4738 34
      vertex 11.3983 11.1039 0.799999
      vertex 12.0908 12.93 34
    endloop
  endfacet
  facet normal -0.120322 -0.991096 0.057023
    outer loop
      vertex 12.0908 12.93 34
      vertex 11.3983 11.1039 0.799999
      vertex 13.2541 10.8786 0.799999
    endloop
  endfacet
  facet normal -0.567155 0.821635 0.0570223
    outer loop
      vertex 11.3983 18.4961 0.799999
      vertex 11.303 16.1262 34
      vertex 12.0908 16.67 34
    endloop
  endfacet
  facet normal -0.56598 0.82244 0.0570832
    outer loop
      vertex 11.303 16.1262 34
      vertex 11.3983 18.4961 0.799999
      vertex 11.3797 18.4833 0.799999
    endloop
  endfacet
  facet normal -0.567154 -0.821636 0.0570234
    outer loop
      vertex 11.303 13.4738 34
      vertex 9.84118 12.1787 0.799999
      vertex 11.3797 11.1167 0.799999
    endloop
  endfacet
  facet normal 0.74732 -0.662013 0.0570207
    outer loop
      vertex 13.9361 13.154 34
      vertex 15.0605 11.5637 0.799999
      vertex 14.5709 13.8706 34
    endloop
  endfacet
  facet normal 0.74668 -0.662734 0.0570335
    outer loop
      vertex 15.0605 11.5637 0.799999
      vertex 13.9361 13.154 34
      vertex 15.0455 11.5468 0.799999
    endloop
  endfacet
  facet normal 0.746682 0.662736 0.0569823
    outer loop
      vertex 13.9361 16.446 34
      vertex 16.3002 16.637 0.799999
      vertex 16.2852 16.6539 0.799999
    endloop
  endfacet
  facet normal 0.74732 0.662013 0.0570236
    outer loop
      vertex 16.3002 16.637 0.799999
      vertex 13.9361 16.446 34
      vertex 14.5709 15.7294 34
    endloop
  endfacet
  facet normal 0.354014 0.9335 0.0570214
    outer loop
      vertex 13.2765 18.7241 0.799999
      vertex 13.0411 16.7854 34
      vertex 15.0245 18.0612 0.799999
    endloop
  endfacet
  facet normal -0.120354 -0.991092 0.0570217
    outer loop
      vertex 13.2541 10.8786 0.799999
      vertex 13.0411 12.8146 34
      vertex 12.0908 12.93 34
    endloop
  endfacet
  facet normal -0.119475 -0.991198 0.0570335
    outer loop
      vertex 13.0411 12.8146 34
      vertex 13.2541 10.8786 0.799999
      vertex 13.2765 10.8759 0.799999
    endloop
  endfacet
  facet normal -0.883547 -0.464861 0.0570072
    outer loop
      vertex 8.97239 13.8341 0.799999
      vertex 10.8581 14.3214 34
      vertex 8.96192 13.854 0.799999
    endloop
  endfacet
  facet normal -0.883996 -0.464004 0.0570202
    outer loop
      vertex 10.8581 14.3214 34
      vertex 8.97239 13.8341 0.799999
      vertex 11.303 13.4738 34
    endloop
  endfacet
  facet normal 0.969356 -0.238949 0.0570198
    outer loop
      vertex 14.5709 13.8706 34
      vertex 16.7529 14.8 0.799999
      vertex 14.8 14.8 34
    endloop
  endfacet
  facet normal 0.969372 -0.238887 0.0570225
    outer loop
      vertex 16.7529 14.8 0.799999
      vertex 14.5709 13.8706 34
      vertex 16.3002 12.963 0.799999
    endloop
  endfacet
  facet normal 0 0 1
    outer loop
      vertex 14.5709 15.7294 34
      vertex 14.5709 13.8706 34
      vertex 14.8 14.8 34
    endloop
  endfacet
  facet normal 0 0 1
    outer loop
      vertex 13.9361 16.446 34
      vertex 14.5709 13.8706 34
      vertex 14.5709 15.7294 34
    endloop
  endfacet
  facet normal 0 0 1
    outer loop
      vertex 13.9361 16.446 34
      vertex 13.9361 13.154 34
      vertex 14.5709 13.8706 34
    endloop
  endfacet
  facet normal 0 0 1
    outer loop
      vertex 13.0411 16.7854 34
      vertex 13.9361 13.154 34
      vertex 13.9361 16.446 34
    endloop
  endfacet
  facet normal 0 0 1
    outer loop
      vertex 13.0411 16.7854 34
      vertex 13.0411 12.8146 34
      vertex 13.9361 13.154 34
    endloop
  endfacet
  facet normal -0 0 1
    outer loop
      vertex 12.0908 16.67 34
      vertex 13.0411 12.8146 34
      vertex 13.0411 16.7854 34
    endloop
  endfacet
  facet normal 0 0 1
    outer loop
      vertex 12.0908 16.67 34
      vertex 12.0908 12.93 34
      vertex 13.0411 12.8146 34
    endloop
  endfacet
  facet normal -0 0 1
    outer loop
      vertex 11.303 16.1262 34
      vertex 12.0908 12.93 34
      vertex 12.0908 16.67 34
    endloop
  endfacet
  facet normal 0 0 1
    outer loop
      vertex 11.303 16.1262 34
      vertex 11.303 13.4738 34
      vertex 12.0908 12.93 34
    endloop
  endfacet
  facet normal -0 0 1
    outer loop
      vertex 10.8581 15.2786 34
      vertex 11.303 13.4738 34
      vertex 11.303 16.1262 34
    endloop
  endfacet
  facet normal 0 0 1
    outer loop
      vertex 11.303 13.4738 34
      vertex 10.8581 15.2786 34
      vertex 10.8581 14.3214 34
    endloop
  endfacet
  facet normal 0.970117 0.235854 0.0569784
    outer loop
      vertex 14.5709 15.7294 34
      vertex 16.3055 16.6152 0.799999
      vertex 16.3002 16.637 0.799999
    endloop
  endfacet
  facet normal 0.969356 0.238949 0.0570213
    outer loop
      vertex 16.3055 16.6152 0.799999
      vertex 14.5709 15.7294 34
      vertex 14.8 14.8 34
    endloop
  endfacet
  facet normal 0.969363 0.238923 0.0570201
    outer loop
      vertex 50.3055 77.6152 0.799999
      vertex 48.8 75.8 34
      vertex 50.7529 75.8 0.799999
    endloop
  endfacet
  facet normal -0.567159 0.821632 0.0570231
    outer loop
      vertex 45.3797 79.4833 0.799999
      vertex 43.8412 78.4213 0.799999
      vertex 45.303 77.1262 34
    endloop
  endfacet
  facet normal -0.998373 0 0.0570215
    outer loop
      vertex 42.9619 76.746 0.799999
      vertex 44.8581 75.3214 34
      vertex 44.8581 76.2786 34
    endloop
  endfacet
  facet normal -0.998373 0 0.0570215
    outer loop
      vertex 44.8581 75.3214 34
      vertex 42.9619 76.746 0.799999
      vertex 42.9619 74.854 0.799999
    endloop
  endfacet
  facet normal 0.355417 -0.932968 0.0570003
    outer loop
      vertex 47.2975 71.8839 0.799999
      vertex 47.0411 73.8146 34
      vertex 47.2765 71.8759 0.799999
    endloop
  endfacet
  facet normal 0.354002 -0.933505 0.0570206
    outer loop
      vertex 47.0411 73.8146 34
      vertex 47.2975 71.8839 0.799999
      vertex 47.9361 74.154 34
    endloop
  endfacet
  facet normal 0.747285 0.662052 0.0570207
    outer loop
      vertex 49.0455 79.0532 0.799999
      vertex 47.9361 77.446 34
      vertex 50.2852 77.6539 0.799999
    endloop
  endfacet
  facet normal -0.88402 0.463958 0.0570221
    outer loop
      vertex 43.8412 78.4213 0.799999
      vertex 42.9724 76.7659 0.799999
      vertex 45.303 77.1262 34
    endloop
  endfacet
  facet normal 0.354014 -0.9335 0.05702
    outer loop
      vertex 47.9361 74.154 34
      vertex 47.2975 71.8839 0.799999
      vertex 49.0455 72.5468 0.799999
    endloop
  endfacet
  facet normal 0.747285 -0.662052 0.0570229
    outer loop
      vertex 50.3002 73.963 0.799999
      vertex 48.5709 74.8706 34
      vertex 49.0605 72.5637 0.799999
    endloop
  endfacet
  facet normal -0.120354 0.991092 0.0570232
    outer loop
      vertex 45.4206 79.4988 0.799999
      vertex 46.0908 77.67 34
      vertex 47.0411 77.7854 34
    endloop
  endfacet
  facet normal -0.120003 0.991135 0.0570185
    outer loop
      vertex 46.0908 77.67 34
      vertex 45.4206 79.4988 0.799999
      vertex 45.3983 79.4961 0.799999
    endloop
  endfacet
  facet normal -0.88402 -0.463958 0.0570221
    outer loop
      vertex 45.303 74.4738 34
      vertex 42.9724 74.8341 0.799999
      vertex 43.8412 73.1787 0.799999
    endloop
  endfacet
  facet normal -0.120316 0.991097 0.0570216
    outer loop
      vertex 47.2765 79.7241 0.799999
      vertex 45.4206 79.4988 0.799999
      vertex 47.0411 77.7854 34
    endloop
  endfacet
  facet normal -0.883001 0.465905 0.0569294
    outer loop
      vertex 42.9619 76.746 0.799999
      vertex 45.303 77.1262 34
      vertex 42.9724 76.7659 0.799999
    endloop
  endfacet
  facet normal -0.883996 0.464004 0.0570213
    outer loop
      vertex 45.303 77.1262 34
      vertex 42.9619 76.746 0.799999
      vertex 44.8581 76.2786 34
    endloop
  endfacet
  facet normal 0.355416 0.932966 0.057041
    outer loop
      vertex 49.0245 79.0612 0.799999
      vertex 47.9361 77.446 34
      vertex 49.0455 79.0532 0.799999
    endloop
  endfacet
  facet normal 0.354002 0.933505 0.0570209
    outer loop
      vertex 47.9361 77.446 34
      vertex 49.0245 79.0612 0.799999
      vertex 47.0411 77.7854 34
    endloop
  endfacet
  facet normal -0.56598 -0.82244 0.0570832
    outer loop
      vertex 45.3983 72.1039 0.799999
      vertex 45.303 74.4738 34
      vertex 45.3797 72.1167 0.799999
    endloop
  endfacet
  facet normal -0.567155 -0.821635 0.0570223
    outer loop
      vertex 45.303 74.4738 34
      vertex 45.3983 72.1039 0.799999
      vertex 46.0908 73.93 34
    endloop
  endfacet
  facet normal -0.120322 -0.991096 0.057023
    outer loop
      vertex 46.0908 73.93 34
      vertex 45.3983 72.1039 0.799999
      vertex 47.2541 71.8786 0.799999
    endloop
  endfacet
  facet normal -0.567155 0.821635 0.0570223
    outer loop
      vertex 45.3983 79.4961 0.799999
      vertex 45.303 77.1262 34
      vertex 46.0908 77.67 34
    endloop
  endfacet
  facet normal -0.56598 0.82244 0.0570832
    outer loop
      vertex 45.303 77.1262 34
      vertex 45.3983 79.4961 0.799999
      vertex 45.3797 79.4833 0.799999
    endloop
  endfacet
  facet normal -0.567159 -0.821632 0.0570231
    outer loop
      vertex 45.303 74.4738 34
      vertex 43.8412 73.1787 0.799999
      vertex 45.3797 72.1167 0.799999
    endloop
  endfacet
  facet normal 0.74732 -0.662013 0.0570207
    outer loop
      vertex 47.9361 74.154 34
      vertex 49.0605 72.5637 0.799999
      vertex 48.5709 74.8706 34
    endloop
  endfacet
  facet normal 0.74668 -0.662734 0.0570335
    outer loop
      vertex 49.0605 72.5637 0.799999
      vertex 47.9361 74.154 34
      vertex 49.0455 72.5468 0.799999
    endloop
  endfacet
  facet normal 0.746682 0.662736 0.0569823
    outer loop
      vertex 47.9361 77.446 34
      vertex 50.3002 77.637 0.799999
      vertex 50.2852 77.6539 0.799999
    endloop
  endfacet
  facet normal 0.74732 0.662013 0.0570236
    outer loop
      vertex 50.3002 77.637 0.799999
      vertex 47.9361 77.446 34
      vertex 48.5709 76.7294 34
    endloop
  endfacet
  facet normal 0.354014 0.9335 0.0570214
    outer loop
      vertex 47.2765 79.7241 0.799999
      vertex 47.0411 77.7854 34
      vertex 49.0245 79.0612 0.799999
    endloop
  endfacet
  facet normal -0.120354 -0.991092 0.0570217
    outer loop
      vertex 47.2541 71.8786 0.799999
      vertex 47.0411 73.8146 34
      vertex 46.0908 73.93 34
    endloop
  endfacet
  facet normal -0.119475 -0.991198 0.0570335
    outer loop
      vertex 47.0411 73.8146 34
      vertex 47.2541 71.8786 0.799999
      vertex 47.2765 71.8759 0.799999
    endloop
  endfacet
  facet normal -0.882998 -0.465904 0.0569911
    outer loop
      vertex 42.9724 74.8341 0.799999
      vertex 44.8581 75.3214 34
      vertex 42.9619 74.854 0.799999
    endloop
  endfacet
  facet normal -0.883996 -0.464004 0.0570199
    outer loop
      vertex 44.8581 75.3214 34
      vertex 42.9724 74.8341 0.799999
      vertex 45.303 74.4738 34
    endloop
  endfacet
  facet normal 0.969356 -0.238949 0.0570198
    outer loop
      vertex 48.5709 74.8706 34
      vertex 50.7529 75.8 0.799999
      vertex 48.8 75.8 34
    endloop
  endfacet
  facet normal 0.969372 -0.238887 0.0570225
    outer loop
      vertex 50.7529 75.8 0.799999
      vertex 48.5709 74.8706 34
      vertex 50.3002 73.963 0.799999
    endloop
  endfacet
  facet normal 0 0 1
    outer loop
      vertex 48.5709 76.7294 34
      vertex 48.5709 74.8706 34
      vertex 48.8 75.8 34
    endloop
  endfacet
  facet normal 0 0 1
    outer loop
      vertex 47.9361 77.446 34
      vertex 48.5709 74.8706 34
      vertex 48.5709 76.7294 34
    endloop
  endfacet
  facet normal 0 0 1
    outer loop
      vertex 47.9361 77.446 34
      vertex 47.9361 74.154 34
      vertex 48.5709 74.8706 34
    endloop
  endfacet
  facet normal 0 0 1
    outer loop
      vertex 47.0411 77.7854 34
      vertex 47.9361 74.154 34
      vertex 47.9361 77.446 34
    endloop
  endfacet
  facet normal 0 0 1
    outer loop
      vertex 47.0411 77.7854 34
      vertex 47.0411 73.8146 34
      vertex 47.9361 74.154 34
    endloop
  endfacet
  facet normal -0 0 1
    outer loop
      vertex 46.0908 77.67 34
      vertex 47.0411 73.8146 34
      vertex 47.0411 77.7854 34
    endloop
  endfacet
  facet normal 0 0 1
    outer loop
      vertex 46.0908 77.67 34
      vertex 46.0908 73.93 34
      vertex 47.0411 73.8146 34
    endloop
  endfacet
  facet normal -0 0 1
    outer loop
      vertex 45.303 77.1262 34
      vertex 46.0908 73.93 34
      vertex 46.0908 77.67 34
    endloop
  endfacet
  facet normal 0 0 1
    outer loop
      vertex 45.303 77.1262 34
      vertex 45.303 74.4738 34
      vertex 46.0908 73.93 34
    endloop
  endfacet
  facet normal -0 0 1
    outer loop
      vertex 44.8581 76.2786 34
      vertex 45.303 74.4738 34
      vertex 45.303 77.1262 34
    endloop
  endfacet
  facet normal 0 0 1
    outer loop
      vertex 45.303 74.4738 34
      vertex 44.8581 76.2786 34
      vertex 44.8581 75.3214 34
    endloop
  endfacet
  facet normal 0.970117 0.235854 0.0569784
    outer loop
      vertex 48.5709 76.7294 34
      vertex 50.3055 77.6152 0.799999
      vertex 50.3002 77.637 0.799999
    endloop
  endfacet
  facet normal 0.969356 0.238949 0.0570213
    outer loop
      vertex 50.3055 77.6152 0.799999
      vertex 48.5709 76.7294 34
      vertex 48.8 75.8 34
    endloop
  endfacet
endsolid OpenSCAD_Model
