solid OpenSCAD_Model
  facet normal 1 -0 0
    outer loop
      vertex 61.4 -1.8 34.8
      vertex 61.4 92.4 -0.8
      vertex 61.4 92.4 34.8
    endloop
  endfacet
  facet normal 1 0 0
    outer loop
      vertex 61.4 92.4 -0.8
      vertex 61.4 -1.8 34.8
      vertex 61.4 -1.8 -0.8
    endloop
  endfacet
  facet normal 0 0 1
    outer loop
      vertex 61.4 92.4 34.8
      vertex 60.6 91.6 34.8
      vertex 61.4 -1.8 34.8
    endloop
  endfacet
  facet normal 0 0 1
    outer loop
      vertex 61.4 92.4 34.8
      vertex -1 91.6 34.8
      vertex 60.6 91.6 34.8
    endloop
  endfacet
  facet normal 0 0 1
    outer loop
      vertex -1 91.6 34.8
      vertex -1.8 92.4 34.8
      vertex -1 -1 34.8
    endloop
  endfacet
  facet normal -0 0 1
    outer loop
      vertex -1.8 92.4 34.8
      vertex -1 91.6 34.8
      vertex 61.4 92.4 34.8
    endloop
  endfacet
  facet normal -0 0 1
    outer loop
      vertex 60.6 -1 34.8
      vertex 61.4 -1.8 34.8
      vertex 60.6 91.6 34.8
    endloop
  endfacet
  facet normal -0 0 1
    outer loop
      vertex -1 -1 34.8
      vertex 61.4 -1.8 34.8
      vertex 60.6 -1 34.8
    endloop
  endfacet
  facet normal 0 0 1
    outer loop
      vertex -1 -1 34.8
      vertex -1.8 -1.8 34.8
      vertex 61.4 -1.8 34.8
    endloop
  endfacet
  facet normal 0 0 1
    outer loop
      vertex -1.8 -1.8 34.8
      vertex -1 -1 34.8
      vertex -1.8 92.4 34.8
    endloop
  endfacet
  facet normal 0 0 -1
    outer loop
      vertex -1.8 -1.8 -0.8
      vertex 61.4 92.4 -0.8
      vertex 61.4 -1.8 -0.8
    endloop
  endfacet
  facet normal -0 0 -1
    outer loop
      vertex 61.4 92.4 -0.8
      vertex -1.8 -1.8 -0.8
      vertex -1.8 92.4 -0.8
    endloop
  endfacet
  facet normal -1 0 0
    outer loop
      vertex -1.8 -1.8 -0.8
      vertex -1.8 92.4 34.8
      vertex -1.8 92.4 -0.8
    endloop
  endfacet
  facet normal -1 -0 0
    outer loop
      vertex -1.8 92.4 34.8
      vertex -1.8 -1.8 -0.8
      vertex -1.8 -1.8 34.8
    endloop
  endfacet
  facet normal 0 1 -0
    outer loop
      vertex 61.4 92.4 -0.8
      vertex -1.8 92.4 34.8
      vertex 61.4 92.4 34.8
    endloop
  endfacet
  facet normal 0 1 0
    outer loop
      vertex -1.8 92.4 34.8
      vertex 61.4 92.4 -0.8
      vertex -1.8 92.4 -0.8
    endloop
  endfacet
  facet normal 0 -1 0
    outer loop
      vertex -1.8 -1.8 -0.8
      vertex 61.4 -1.8 34.8
      vertex -1.8 -1.8 34.8
    endloop
  endfacet
  facet normal 0 -1 -0
    outer loop
      vertex 61.4 -1.8 34.8
      vertex -1.8 -1.8 -0.8
      vertex 61.4 -1.8 -0.8
    endloop
  endfacet
  facet normal -1 0 0
    outer loop
      vertex 60.6 -1 -7.62939e-07
      vertex 60.6 91.6 34.8
      vertex 60.6 91.6 -7.62939e-07
    endloop
  endfacet
  facet normal -1 -0 0
    outer loop
      vertex 60.6 91.6 34.8
      vertex 60.6 -1 -7.62939e-07
      vertex 60.6 -1 34.8
    endloop
  endfacet
  facet normal -0 0 1
    outer loop
      vertex -1 91.6 -7.62939e-07
      vertex 60.6 -1 -7.62939e-07
      vertex 60.6 91.6 -7.62939e-07
    endloop
  endfacet
  facet normal 0 0 1
    outer loop
      vertex 60.6 -1 -7.62939e-07
      vertex -1 91.6 -7.62939e-07
      vertex -1 -1 -7.62939e-07
    endloop
  endfacet
  facet normal 1 -0 0
    outer loop
      vertex -1 -1 34.8
      vertex -1 91.6 -7.62939e-07
      vertex -1 91.6 34.8
    endloop
  endfacet
  facet normal 1 0 0
    outer loop
      vertex -1 91.6 -7.62939e-07
      vertex -1 -1 34.8
      vertex -1 -1 -7.62939e-07
    endloop
  endfacet
  facet normal 0 -1 0
    outer loop
      vertex -1 91.6 -7.62939e-07
      vertex 60.6 91.6 34.8
      vertex -1 91.6 34.8
    endloop
  endfacet
  facet normal 0 -1 -0
    outer loop
      vertex 60.6 91.6 34.8
      vertex -1 91.6 -7.62939e-07
      vertex 60.6 91.6 -7.62939e-07
    endloop
  endfacet
  facet normal 0 1 -0
    outer loop
      vertex 60.6 -1 -7.62939e-07
      vertex -1 -1 34.8
      vertex 60.6 -1 34.8
    endloop
  endfacet
  facet normal 0 1 0
    outer loop
      vertex -1 -1 34.8
      vertex 60.6 -1 -7.62939e-07
      vertex -1 -1 -7.62939e-07
    endloop
  endfacet
endsolid OpenSCAD_Model
