solid OpenSCAD_Model
  facet normal 1 -0 0
    outer loop
      vertex 46.2 0 4
      vertex 46.2 20.55 0
      vertex 46.2 20.55 4
    endloop
  endfacet
  facet normal 1 0 0
    outer loop
      vertex 46.2 20.55 0
      vertex 46.2 0 4
      vertex 46.2 0 0
    endloop
  endfacet
  facet normal 1 -0 0
    outer loop
      vertex 46.2 25.75 4
      vertex 46.2 46.2 0
      vertex 46.2 46.2 4
    endloop
  endfacet
  facet normal 1 0 0
    outer loop
      vertex 46.2 46.2 0
      vertex 46.2 25.75 4
      vertex 46.2 25.75 0
    endloop
  endfacet
  facet normal 0 0 1
    outer loop
      vertex 20.45 46.2 4
      vertex 1.6 44.6 4
      vertex 20.45 44.6 4
    endloop
  endfacet
  facet normal -0 0 1
    outer loop
      vertex 0 46.2 4
      vertex 1.6 44.6 4
      vertex 20.45 46.2 4
    endloop
  endfacet
  facet normal 0 0 1
    outer loop
      vertex 0 25.65 4
      vertex 1.6 44.6 4
      vertex 0 46.2 4
    endloop
  endfacet
  facet normal 0 0 1
    outer loop
      vertex 1.6 44.6 4
      vertex 0 25.65 4
      vertex 1.6 24.05 4
    endloop
  endfacet
  facet normal 0 0 1
    outer loop
      vertex 0 25.65 4
      vertex -0.2 24.05 4
      vertex 1.6 24.05 4
    endloop
  endfacet
  facet normal -0 0 1
    outer loop
      vertex -1.7 25.65 4
      vertex -0.2 24.05 4
      vertex 0 25.65 4
    endloop
  endfacet
  facet normal 0 0 1
    outer loop
      vertex -1.7 22.25 4
      vertex -0.2 24.05 4
      vertex -1.7 25.65 4
    endloop
  endfacet
  facet normal 0 0 1
    outer loop
      vertex -0.2 24.05 4
      vertex -1.7 22.25 4
      vertex -0.2 22.25 4
    endloop
  endfacet
  facet normal 0 0 1
    outer loop
      vertex 1.6 20.45 4
      vertex 0 20.45 4
      vertex 1.6 1.6 4
    endloop
  endfacet
  facet normal 0 0 1
    outer loop
      vertex 22.15 1.6 4
      vertex 20.55 0 4
      vertex 22.15 -0.2 4
    endloop
  endfacet
  facet normal -0 0 1
    outer loop
      vertex 1.6 1.6 4
      vertex 20.55 0 4
      vertex 22.15 1.6 4
    endloop
  endfacet
  facet normal 0 0 1
    outer loop
      vertex 1.6 1.6 4
      vertex 0 0 4
      vertex 20.55 0 4
    endloop
  endfacet
  facet normal 0 0 1
    outer loop
      vertex 0 0 4
      vertex 1.6 1.6 4
      vertex 0 20.45 4
    endloop
  endfacet
  facet normal -0 0 1
    outer loop
      vertex 22.15 -0.2 4
      vertex 23.95 -1.7 4
      vertex 23.95 -0.2 4
    endloop
  endfacet
  facet normal 0 0 1
    outer loop
      vertex 20.55 -1.7 4
      vertex 22.15 -0.2 4
      vertex 20.55 0 4
    endloop
  endfacet
  facet normal 0 0 1
    outer loop
      vertex 22.15 -0.2 4
      vertex 20.55 -1.7 4
      vertex 23.95 -1.7 4
    endloop
  endfacet
  facet normal 0 0 1
    outer loop
      vertex 46.4 22.15 4
      vertex 47.9 23.95 4
      vertex 46.4 23.95 4
    endloop
  endfacet
  facet normal 0 0 1
    outer loop
      vertex 47.9 23.95 4
      vertex 46.4 22.15 4
      vertex 47.9 20.55 4
    endloop
  endfacet
  facet normal 0 0 1
    outer loop
      vertex 46.4 22.15 4
      vertex 46.2 20.55 4
      vertex 47.9 20.55 4
    endloop
  endfacet
  facet normal -0 0 1
    outer loop
      vertex 44.6 22.15 4
      vertex 46.2 20.55 4
      vertex 46.4 22.15 4
    endloop
  endfacet
  facet normal 0 0 1
    outer loop
      vertex 44.6 1.6 4
      vertex 46.2 20.55 4
      vertex 44.6 22.15 4
    endloop
  endfacet
  facet normal 0 0 1
    outer loop
      vertex 46.2 20.55 4
      vertex 44.6 1.6 4
      vertex 46.2 0 4
    endloop
  endfacet
  facet normal 0 0 1
    outer loop
      vertex 25.75 0 4
      vertex 44.6 1.6 4
      vertex 25.75 1.6 4
    endloop
  endfacet
  facet normal 0 0 1
    outer loop
      vertex 44.6 1.6 4
      vertex 25.75 0 4
      vertex 46.2 0 4
    endloop
  endfacet
  facet normal 0 0 1
    outer loop
      vertex 25.65 47.9 4
      vertex 24.05 46.4 4
      vertex 25.65 46.2 4
    endloop
  endfacet
  facet normal -0 0 1
    outer loop
      vertex 22.25 47.9 4
      vertex 24.05 46.4 4
      vertex 25.65 47.9 4
    endloop
  endfacet
  facet normal 0 0 1
    outer loop
      vertex 24.05 46.4 4
      vertex 22.25 47.9 4
      vertex 22.25 46.4 4
    endloop
  endfacet
  facet normal 0 0 1
    outer loop
      vertex 46.2 46.2 4
      vertex 44.6 44.6 4
      vertex 46.2 25.75 4
    endloop
  endfacet
  facet normal -0 0 1
    outer loop
      vertex 25.65 46.2 4
      vertex 44.6 44.6 4
      vertex 46.2 46.2 4
    endloop
  endfacet
  facet normal 0 0 1
    outer loop
      vertex 25.65 46.2 4
      vertex 24.05 44.6 4
      vertex 44.6 44.6 4
    endloop
  endfacet
  facet normal 0 0 1
    outer loop
      vertex 24.05 44.6 4
      vertex 25.65 46.2 4
      vertex 24.05 46.4 4
    endloop
  endfacet
  facet normal 0 0 1
    outer loop
      vertex 46.2 25.75 4
      vertex 44.6 44.6 4
      vertex 44.6 25.75 4
    endloop
  endfacet
  facet normal 0 0 -1
    outer loop
      vertex -0.2 22.25 0
      vertex -1.7 22.25 0
      vertex -0.2 24.05 0
    endloop
  endfacet
  facet normal 0 0 -1
    outer loop
      vertex 23.95 -1.7 0
      vertex 22.15 -0.2 0
      vertex 23.95 -0.2 0
    endloop
  endfacet
  facet normal 0 0 -1
    outer loop
      vertex 20.55 0 0
      vertex 22.15 1.7 0
      vertex 22.15 -0.2 0
    endloop
  endfacet
  facet normal 0 0 -1
    outer loop
      vertex 19.8208 5.90997 0
      vertex 22.15 1.7 0
      vertex 20.55 0 0
    endloop
  endfacet
  facet normal 0 0 -1
    outer loop
      vertex 20.55 -1.7 0
      vertex 22.15 -0.2 0
      vertex 23.95 -1.7 0
    endloop
  endfacet
  facet normal 0 0 -1
    outer loop
      vertex 20.55 0 0
      vertex 22.15 -0.2 0
      vertex 20.55 -1.7 0
    endloop
  endfacet
  facet normal 0 0 -1
    outer loop
      vertex 22.15 1.7 0
      vertex 20.9067 5.73799 0
      vertex 22.0012 5.63453 0
    endloop
  endfacet
  facet normal 0 0 -1
    outer loop
      vertex 22.15 1.7 0
      vertex 19.8208 5.90997 0
      vertex 20.9067 5.73799 0
    endloop
  endfacet
  facet normal 0 0 -1
    outer loop
      vertex 20.55 0 0
      vertex 18.7479 6.14979 0
      vertex 19.8208 5.90997 0
    endloop
  endfacet
  facet normal 0 0 -1
    outer loop
      vertex 20.55 0 0
      vertex 17.6922 6.45651 0
      vertex 18.7479 6.14979 0
    endloop
  endfacet
  facet normal 0 0 -1
    outer loop
      vertex 20.55 0 0
      vertex 16.6578 6.82891 0
      vertex 17.6922 6.45651 0
    endloop
  endfacet
  facet normal 0 0 -1
    outer loop
      vertex 20.55 0 0
      vertex 15.6489 7.26553 0
      vertex 16.6578 6.82891 0
    endloop
  endfacet
  facet normal 0 0 -1
    outer loop
      vertex 20.55 0 0
      vertex 14.6693 7.76463 0
      vertex 15.6489 7.26553 0
    endloop
  endfacet
  facet normal 0 0 -1
    outer loop
      vertex 0 0 0
      vertex 14.6693 7.76463 0
      vertex 20.55 0 0
    endloop
  endfacet
  facet normal -0 0 -1
    outer loop
      vertex 14.6693 7.76463 0
      vertex 0 0 0
      vertex 13.723 8.32426 0
    endloop
  endfacet
  facet normal -0 0 -1
    outer loop
      vertex 13.723 8.32426 0
      vertex 0 0 0
      vertex 12.8138 8.9422 0
    endloop
  endfacet
  facet normal -0 0 -1
    outer loop
      vertex 12.8138 8.9422 0
      vertex 0 0 0
      vertex 11.9451 9.61602 0
    endloop
  endfacet
  facet normal -0 0 -1
    outer loop
      vertex 11.9451 9.61602 0
      vertex 0 0 0
      vertex 11.1204 10.343 0
    endloop
  endfacet
  facet normal 0 0 -1
    outer loop
      vertex 1.7 24.05 0
      vertex 5.63453 22.0012 0
      vertex 1.7 20.45 0
    endloop
  endfacet
  facet normal -0 0 -1
    outer loop
      vertex 5.73799 20.9067 0
      vertex 1.7 20.45 0
      vertex 5.63453 22.0012 0
    endloop
  endfacet
  facet normal 0 0 -1
    outer loop
      vertex 5.90997 19.8208 0
      vertex 1.7 20.45 0
      vertex 5.73799 20.9067 0
    endloop
  endfacet
  facet normal 0 0 -1
    outer loop
      vertex 6.14979 18.7479 0
      vertex 1.7 20.45 0
      vertex 5.90997 19.8208 0
    endloop
  endfacet
  facet normal 0 0 -1
    outer loop
      vertex 6.45651 17.6922 0
      vertex 1.7 20.45 0
      vertex 6.14979 18.7479 0
    endloop
  endfacet
  facet normal 0 0 -1
    outer loop
      vertex 6.82891 16.6578 0
      vertex 1.7 20.45 0
      vertex 6.45651 17.6922 0
    endloop
  endfacet
  facet normal 0 0 -1
    outer loop
      vertex 0 20.45 0
      vertex 6.82891 16.6578 0
      vertex 7.26553 15.6489 0
    endloop
  endfacet
  facet normal 0 0 -1
    outer loop
      vertex 0 20.45 0
      vertex 7.26553 15.6489 0
      vertex 7.76463 14.6693 0
    endloop
  endfacet
  facet normal 0 0 -1
    outer loop
      vertex 0 0 0
      vertex 7.76463 14.6693 0
      vertex 8.32426 13.723 0
    endloop
  endfacet
  facet normal 0 0 -1
    outer loop
      vertex 0 0 0
      vertex 8.32426 13.723 0
      vertex 8.9422 12.8138 0
    endloop
  endfacet
  facet normal 0 0 -1
    outer loop
      vertex 0 0 0
      vertex 8.9422 12.8138 0
      vertex 9.61602 11.9451 0
    endloop
  endfacet
  facet normal 0 0 -1
    outer loop
      vertex 0 0 0
      vertex 9.61602 11.9451 0
      vertex 10.343 11.1204 0
    endloop
  endfacet
  facet normal -0 0 -1
    outer loop
      vertex 11.1204 10.343 0
      vertex 0 0 0
      vertex 10.343 11.1204 0
    endloop
  endfacet
  facet normal -0 0 -1
    outer loop
      vertex 7.76463 14.6693 0
      vertex 0 0 0
      vertex 0 20.45 0
    endloop
  endfacet
  facet normal 0 0 -1
    outer loop
      vertex 6.82891 16.6578 0
      vertex 0 20.45 0
      vertex 1.7 20.45 0
    endloop
  endfacet
  facet normal 0 0 -1
    outer loop
      vertex 23.1 40.6 0
      vertex 24.05 44.5 0
      vertex 24.1988 40.5655 0
    endloop
  endfacet
  facet normal 0 0 -1
    outer loop
      vertex 22.0012 40.5655 0
      vertex 24.05 44.5 0
      vertex 23.1 40.6 0
    endloop
  endfacet
  facet normal 0 0 -1
    outer loop
      vertex 20.45 44.5 0
      vertex 22.0012 40.5655 0
      vertex 20.9067 40.462 0
    endloop
  endfacet
  facet normal 0 0 -1
    outer loop
      vertex 22.0012 40.5655 0
      vertex 20.45 44.5 0
      vertex 24.05 44.5 0
    endloop
  endfacet
  facet normal 0 0 -1
    outer loop
      vertex 19.8208 40.29 0
      vertex 20.45 44.5 0
      vertex 20.9067 40.462 0
    endloop
  endfacet
  facet normal 0 0 -1
    outer loop
      vertex 18.7479 40.0502 0
      vertex 20.45 44.5 0
      vertex 19.8208 40.29 0
    endloop
  endfacet
  facet normal 0 0 -1
    outer loop
      vertex 17.6922 39.7435 0
      vertex 20.45 44.5 0
      vertex 18.7479 40.0502 0
    endloop
  endfacet
  facet normal 0 0 -1
    outer loop
      vertex 16.6578 39.3711 0
      vertex 20.45 44.5 0
      vertex 17.6922 39.7435 0
    endloop
  endfacet
  facet normal -0 0 -1
    outer loop
      vertex 20.45 44.5 0
      vertex 16.6578 39.3711 0
      vertex 20.45 46.2 0
    endloop
  endfacet
  facet normal 0 0 -1
    outer loop
      vertex 15.6489 38.9345 0
      vertex 20.45 46.2 0
      vertex 16.6578 39.3711 0
    endloop
  endfacet
  facet normal 0 0 -1
    outer loop
      vertex 14.6693 38.4354 0
      vertex 20.45 46.2 0
      vertex 15.6489 38.9345 0
    endloop
  endfacet
  facet normal 0 0 -1
    outer loop
      vertex 0 46.2 0
      vertex 14.6693 38.4354 0
      vertex 13.723 37.8757 0
    endloop
  endfacet
  facet normal 0 0 -1
    outer loop
      vertex 0 46.2 0
      vertex 13.723 37.8757 0
      vertex 12.8138 37.2578 0
    endloop
  endfacet
  facet normal 0 0 -1
    outer loop
      vertex 0 46.2 0
      vertex 12.8138 37.2578 0
      vertex 11.9451 36.584 0
    endloop
  endfacet
  facet normal 0 0 -1
    outer loop
      vertex 0 46.2 0
      vertex 11.9451 36.584 0
      vertex 11.1204 35.8569 0
    endloop
  endfacet
  facet normal 0 0 -1
    outer loop
      vertex 0 46.2 0
      vertex 11.1204 35.8569 0
      vertex 10.343 35.0796 0
    endloop
  endfacet
  facet normal 0 0 -1
    outer loop
      vertex 5.63453 22.0012 0
      vertex 1.7 24.05 0
      vertex 5.6 23.1 0
    endloop
  endfacet
  facet normal 0 0 -1
    outer loop
      vertex 5.6 23.1 0
      vertex 1.7 24.05 0
      vertex 5.63453 24.1988 0
    endloop
  endfacet
  facet normal -0 0 -1
    outer loop
      vertex 5.63453 24.1988 0
      vertex 1.7 24.05 0
      vertex 5.73799 25.2933 0
    endloop
  endfacet
  facet normal -0 0 -1
    outer loop
      vertex 5.73799 25.2933 0
      vertex 1.7 24.05 0
      vertex 5.90997 26.3792 0
    endloop
  endfacet
  facet normal 0 0 -1
    outer loop
      vertex 0 25.65 0
      vertex 5.90997 26.3792 0
      vertex 1.7 24.05 0
    endloop
  endfacet
  facet normal -0 0 -1
    outer loop
      vertex 5.90997 26.3792 0
      vertex 0 25.65 0
      vertex 6.14979 27.4521 0
    endloop
  endfacet
  facet normal -0 0 -1
    outer loop
      vertex 6.14979 27.4521 0
      vertex 0 25.65 0
      vertex 6.45651 28.5078 0
    endloop
  endfacet
  facet normal -0 0 -1
    outer loop
      vertex 6.45651 28.5078 0
      vertex 0 25.65 0
      vertex 6.82891 29.5422 0
    endloop
  endfacet
  facet normal -0 0 -1
    outer loop
      vertex 6.82891 29.5422 0
      vertex 0 25.65 0
      vertex 7.26553 30.5511 0
    endloop
  endfacet
  facet normal -0 0 -1
    outer loop
      vertex 7.26553 30.5511 0
      vertex 0 25.65 0
      vertex 7.76463 31.5307 0
    endloop
  endfacet
  facet normal 0 0 -1
    outer loop
      vertex 0 46.2 0
      vertex 7.76463 31.5307 0
      vertex 0 25.65 0
    endloop
  endfacet
  facet normal 0 0 -1
    outer loop
      vertex 7.76463 31.5307 0
      vertex 0 46.2 0
      vertex 8.32426 32.477 0
    endloop
  endfacet
  facet normal 0 0 -1
    outer loop
      vertex 8.32426 32.477 0
      vertex 0 46.2 0
      vertex 8.9422 33.3862 0
    endloop
  endfacet
  facet normal 0 0 -1
    outer loop
      vertex 8.9422 33.3862 0
      vertex 0 46.2 0
      vertex 9.61602 34.2549 0
    endloop
  endfacet
  facet normal 0 0 -1
    outer loop
      vertex 9.61602 34.2549 0
      vertex 0 46.2 0
      vertex 10.343 35.0796 0
    endloop
  endfacet
  facet normal 0 0 -1
    outer loop
      vertex 14.6693 38.4354 0
      vertex 0 46.2 0
      vertex 20.45 46.2 0
    endloop
  endfacet
  facet normal 0 0 -1
    outer loop
      vertex 38.4354 14.6693 0
      vertex 46.2 20.55 0
      vertex 46.2 0 0
    endloop
  endfacet
  facet normal 0 0 -1
    outer loop
      vertex 40.5655 24.1988 0
      vertex 44.5 22.15 0
      vertex 40.6 23.1 0
    endloop
  endfacet
  facet normal 0 -0 -1
    outer loop
      vertex 39.7435 17.6922 0
      vertex 46.2 20.55 0
      vertex 39.3711 16.6578 0
    endloop
  endfacet
  facet normal -0 0 -1
    outer loop
      vertex 44.5 22.15 0
      vertex 40.5655 22.0012 0
      vertex 40.6 23.1 0
    endloop
  endfacet
  facet normal 0 0 -1
    outer loop
      vertex 44.5 22.15 0
      vertex 40.462 20.9067 0
      vertex 40.5655 22.0012 0
    endloop
  endfacet
  facet normal 0 0 -1
    outer loop
      vertex 44.5 22.15 0
      vertex 40.29 19.8208 0
      vertex 40.462 20.9067 0
    endloop
  endfacet
  facet normal -0 0 -1
    outer loop
      vertex 46.2 20.55 0
      vertex 40.29 19.8208 0
      vertex 44.5 22.15 0
    endloop
  endfacet
  facet normal 0 -0 -1
    outer loop
      vertex 40.29 19.8208 0
      vertex 46.2 20.55 0
      vertex 40.0502 18.7479 0
    endloop
  endfacet
  facet normal 0 -0 -1
    outer loop
      vertex 40.0502 18.7479 0
      vertex 46.2 20.55 0
      vertex 39.7435 17.6922 0
    endloop
  endfacet
  facet normal 0 0 -1
    outer loop
      vertex 46.2 20.55 0
      vertex 38.9345 15.6489 0
      vertex 39.3711 16.6578 0
    endloop
  endfacet
  facet normal 0 0 -1
    outer loop
      vertex 46.2 20.55 0
      vertex 38.4354 14.6693 0
      vertex 38.9345 15.6489 0
    endloop
  endfacet
  facet normal 0 0 -1
    outer loop
      vertex 46.2 0 0
      vertex 37.8757 13.723 0
      vertex 38.4354 14.6693 0
    endloop
  endfacet
  facet normal 0 0 -1
    outer loop
      vertex 46.2 0 0
      vertex 37.2578 12.8138 0
      vertex 37.8757 13.723 0
    endloop
  endfacet
  facet normal 0 0 -1
    outer loop
      vertex 46.2 0 0
      vertex 36.584 11.9451 0
      vertex 37.2578 12.8138 0
    endloop
  endfacet
  facet normal 0 0 -1
    outer loop
      vertex 46.2 0 0
      vertex 35.8569 11.1204 0
      vertex 36.584 11.9451 0
    endloop
  endfacet
  facet normal 0 0 -1
    outer loop
      vertex 46.2 0 0
      vertex 35.0796 10.343 0
      vertex 35.8569 11.1204 0
    endloop
  endfacet
  facet normal 0 0 -1
    outer loop
      vertex 46.2 0 0
      vertex 34.2549 9.61602 0
      vertex 35.0796 10.343 0
    endloop
  endfacet
  facet normal 0 0 -1
    outer loop
      vertex 46.2 0 0
      vertex 33.3862 8.9422 0
      vertex 34.2549 9.61602 0
    endloop
  endfacet
  facet normal 0 0 -1
    outer loop
      vertex 46.2 0 0
      vertex 32.477 8.32426 0
      vertex 33.3862 8.9422 0
    endloop
  endfacet
  facet normal 0 0 -1
    outer loop
      vertex 46.2 0 0
      vertex 31.5307 7.76463 0
      vertex 32.477 8.32426 0
    endloop
  endfacet
  facet normal 0 0 -1
    outer loop
      vertex 25.75 0 0
      vertex 31.5307 7.76463 0
      vertex 46.2 0 0
    endloop
  endfacet
  facet normal 0 0 -1
    outer loop
      vertex 31.5307 7.76463 0
      vertex 25.75 0 0
      vertex 30.5511 7.26553 0
    endloop
  endfacet
  facet normal 0 0 -1
    outer loop
      vertex 30.5511 7.26553 0
      vertex 25.75 0 0
      vertex 29.5422 6.82891 0
    endloop
  endfacet
  facet normal 0 0 -1
    outer loop
      vertex 25.75 1.7 0
      vertex 29.5422 6.82891 0
      vertex 25.75 0 0
    endloop
  endfacet
  facet normal 0 0 -1
    outer loop
      vertex 29.5422 6.82891 0
      vertex 25.75 1.7 0
      vertex 28.5078 6.45651 0
    endloop
  endfacet
  facet normal 0 0 -1
    outer loop
      vertex 28.5078 6.45651 0
      vertex 25.75 1.7 0
      vertex 27.4521 6.14979 0
    endloop
  endfacet
  facet normal 0 0 -1
    outer loop
      vertex 27.4521 6.14979 0
      vertex 25.75 1.7 0
      vertex 26.3792 5.90997 0
    endloop
  endfacet
  facet normal 0 0 -1
    outer loop
      vertex 25.75 1.7 0
      vertex 25.2933 5.73799 0
      vertex 26.3792 5.90997 0
    endloop
  endfacet
  facet normal 0 0 -1
    outer loop
      vertex 25.75 1.7 0
      vertex 24.1988 5.63453 0
      vertex 25.2933 5.73799 0
    endloop
  endfacet
  facet normal 0 0 -1
    outer loop
      vertex 22.15 1.7 0
      vertex 24.1988 5.63453 0
      vertex 25.75 1.7 0
    endloop
  endfacet
  facet normal 0 0 -1
    outer loop
      vertex 24.1988 5.63453 0
      vertex 22.15 1.7 0
      vertex 23.1 5.6 0
    endloop
  endfacet
  facet normal -0 0 -1
    outer loop
      vertex 23.1 5.6 0
      vertex 22.15 1.7 0
      vertex 22.0012 5.63453 0
    endloop
  endfacet
  facet normal 0 0 -1
    outer loop
      vertex 47.9 20.55 0
      vertex 46.4 22.15 0
      vertex 47.9 23.95 0
    endloop
  endfacet
  facet normal 0 0 -1
    outer loop
      vertex 46.2 20.55 0
      vertex 46.4 22.15 0
      vertex 47.9 20.55 0
    endloop
  endfacet
  facet normal -0 0 -1
    outer loop
      vertex 46.4 22.15 0
      vertex 46.2 20.55 0
      vertex 44.5 22.15 0
    endloop
  endfacet
  facet normal -0 0 -1
    outer loop
      vertex 47.9 23.95 0
      vertex 46.4 22.15 0
      vertex 46.4 23.95 0
    endloop
  endfacet
  facet normal 0 0 -1
    outer loop
      vertex 39.3711 29.5422 0
      vertex 46.2 25.75 0
      vertex 44.5 25.75 0
    endloop
  endfacet
  facet normal 0 0 -1
    outer loop
      vertex 44.5 22.15 0
      vertex 40.5655 24.1988 0
      vertex 44.5 25.75 0
    endloop
  endfacet
  facet normal 0 0 -1
    outer loop
      vertex 40.462 25.2933 0
      vertex 44.5 25.75 0
      vertex 40.5655 24.1988 0
    endloop
  endfacet
  facet normal 0 0 -1
    outer loop
      vertex 40.29 26.3792 0
      vertex 44.5 25.75 0
      vertex 40.462 25.2933 0
    endloop
  endfacet
  facet normal 0 0 -1
    outer loop
      vertex 40.0502 27.4521 0
      vertex 44.5 25.75 0
      vertex 40.29 26.3792 0
    endloop
  endfacet
  facet normal 0 0 -1
    outer loop
      vertex 39.7435 28.5078 0
      vertex 44.5 25.75 0
      vertex 40.0502 27.4521 0
    endloop
  endfacet
  facet normal 0 0 -1
    outer loop
      vertex 39.3711 29.5422 0
      vertex 44.5 25.75 0
      vertex 39.7435 28.5078 0
    endloop
  endfacet
  facet normal 0 0 -1
    outer loop
      vertex 46.2 25.75 0
      vertex 39.3711 29.5422 0
      vertex 38.9345 30.5511 0
    endloop
  endfacet
  facet normal 0 0 -1
    outer loop
      vertex 38.4354 31.5307 0
      vertex 46.2 25.75 0
      vertex 38.9345 30.5511 0
    endloop
  endfacet
  facet normal 0 0 -1
    outer loop
      vertex 46.2 25.75 0
      vertex 38.4354 31.5307 0
      vertex 46.2 46.2 0
    endloop
  endfacet
  facet normal 0 0 -1
    outer loop
      vertex 37.8757 32.477 0
      vertex 46.2 46.2 0
      vertex 38.4354 31.5307 0
    endloop
  endfacet
  facet normal 0 0 -1
    outer loop
      vertex 37.2578 33.3862 0
      vertex 46.2 46.2 0
      vertex 37.8757 32.477 0
    endloop
  endfacet
  facet normal 0 0 -1
    outer loop
      vertex 36.584 34.2549 0
      vertex 46.2 46.2 0
      vertex 37.2578 33.3862 0
    endloop
  endfacet
  facet normal 0 0 -1
    outer loop
      vertex 35.8569 35.0796 0
      vertex 46.2 46.2 0
      vertex 36.584 34.2549 0
    endloop
  endfacet
  facet normal 0 0 -1
    outer loop
      vertex 35.0796 35.8569 0
      vertex 46.2 46.2 0
      vertex 35.8569 35.0796 0
    endloop
  endfacet
  facet normal 0 0 -1
    outer loop
      vertex 34.2549 36.584 0
      vertex 46.2 46.2 0
      vertex 35.0796 35.8569 0
    endloop
  endfacet
  facet normal 0 0 -1
    outer loop
      vertex 33.3862 37.2578 0
      vertex 46.2 46.2 0
      vertex 34.2549 36.584 0
    endloop
  endfacet
  facet normal 0 0 -1
    outer loop
      vertex 32.477 37.8757 0
      vertex 46.2 46.2 0
      vertex 33.3862 37.2578 0
    endloop
  endfacet
  facet normal 0 0 -1
    outer loop
      vertex 31.5307 38.4354 0
      vertex 46.2 46.2 0
      vertex 32.477 37.8757 0
    endloop
  endfacet
  facet normal 0 0 -1
    outer loop
      vertex 25.65 46.2 0
      vertex 31.5307 38.4354 0
      vertex 30.5511 38.9345 0
    endloop
  endfacet
  facet normal 0 0 -1
    outer loop
      vertex 25.65 46.2 0
      vertex 30.5511 38.9345 0
      vertex 29.5422 39.3711 0
    endloop
  endfacet
  facet normal 0 0 -1
    outer loop
      vertex 25.65 46.2 0
      vertex 29.5422 39.3711 0
      vertex 28.5078 39.7435 0
    endloop
  endfacet
  facet normal 0 0 -1
    outer loop
      vertex 25.65 46.2 0
      vertex 28.5078 39.7435 0
      vertex 27.4521 40.0502 0
    endloop
  endfacet
  facet normal 0 0 -1
    outer loop
      vertex 25.65 46.2 0
      vertex 27.4521 40.0502 0
      vertex 26.3792 40.29 0
    endloop
  endfacet
  facet normal 0 0 -1
    outer loop
      vertex 31.5307 38.4354 0
      vertex 25.65 46.2 0
      vertex 46.2 46.2 0
    endloop
  endfacet
  facet normal 0 0 -1
    outer loop
      vertex 24.05 44.5 0
      vertex 26.3792 40.29 0
      vertex 25.2933 40.462 0
    endloop
  endfacet
  facet normal 0 0 -1
    outer loop
      vertex 26.3792 40.29 0
      vertex 24.05 44.5 0
      vertex 25.65 46.2 0
    endloop
  endfacet
  facet normal 0 0 -1
    outer loop
      vertex 24.05 44.5 0
      vertex 25.2933 40.462 0
      vertex 24.1988 40.5655 0
    endloop
  endfacet
  facet normal 0 0 -1
    outer loop
      vertex 24.05 46.4 0
      vertex 25.65 46.2 0
      vertex 24.05 44.5 0
    endloop
  endfacet
  facet normal 0 0 -1
    outer loop
      vertex 25.65 46.2 0
      vertex 24.05 46.4 0
      vertex 25.65 47.9 0
    endloop
  endfacet
  facet normal 0 0 -1
    outer loop
      vertex 22.25 47.9 0
      vertex 24.05 46.4 0
      vertex 22.25 46.4 0
    endloop
  endfacet
  facet normal 0 0 -1
    outer loop
      vertex 24.05 46.4 0
      vertex 22.25 47.9 0
      vertex 25.65 47.9 0
    endloop
  endfacet
  facet normal 0 0 -1
    outer loop
      vertex -0.2 24.05 0
      vertex 0 25.65 0
      vertex 1.7 24.05 0
    endloop
  endfacet
  facet normal 0 0 -1
    outer loop
      vertex -1.7 25.65 0
      vertex -0.2 24.05 0
      vertex -1.7 22.25 0
    endloop
  endfacet
  facet normal 0 0 -1
    outer loop
      vertex -0.2 24.05 0
      vertex -1.7 25.65 0
      vertex 0 25.65 0
    endloop
  endfacet
  facet normal -1 0 0
    outer loop
      vertex 0 25.65 0
      vertex 0 46.2 4
      vertex 0 46.2 0
    endloop
  endfacet
  facet normal -1 -0 0
    outer loop
      vertex 0 46.2 4
      vertex 0 25.65 0
      vertex 0 25.65 4
    endloop
  endfacet
  facet normal -1 0 0
    outer loop
      vertex 0 0 0
      vertex 0 20.45 4
      vertex 0 20.45 0
    endloop
  endfacet
  facet normal -1 -0 0
    outer loop
      vertex 0 20.45 4
      vertex 0 0 0
      vertex 0 0 4
    endloop
  endfacet
  facet normal 0 1 -0
    outer loop
      vertex 46.2 46.2 0
      vertex 25.65 46.2 4
      vertex 46.2 46.2 4
    endloop
  endfacet
  facet normal 0 1 0
    outer loop
      vertex 25.65 46.2 4
      vertex 46.2 46.2 0
      vertex 25.65 46.2 0
    endloop
  endfacet
  facet normal 0 1 -0
    outer loop
      vertex 20.45 46.2 0
      vertex 0 46.2 4
      vertex 20.45 46.2 4
    endloop
  endfacet
  facet normal 0 1 0
    outer loop
      vertex 0 46.2 4
      vertex 20.45 46.2 0
      vertex 0 46.2 0
    endloop
  endfacet
  facet normal 0 -1 0
    outer loop
      vertex 0 0 0
      vertex 20.55 0 4
      vertex 0 0 4
    endloop
  endfacet
  facet normal 0 -1 -0
    outer loop
      vertex 20.55 0 4
      vertex 0 0 0
      vertex 20.55 0 0
    endloop
  endfacet
  facet normal 0 -1 0
    outer loop
      vertex 25.75 0 0
      vertex 46.2 0 4
      vertex 25.75 0 4
    endloop
  endfacet
  facet normal 0 -1 -0
    outer loop
      vertex 46.2 0 4
      vertex 25.75 0 0
      vertex 46.2 0 0
    endloop
  endfacet
  facet normal 1 -0 0
    outer loop
      vertex 25.65 46.2 4
      vertex 25.65 47.9 0
      vertex 25.65 47.9 4
    endloop
  endfacet
  facet normal 1 0 0
    outer loop
      vertex 25.65 47.9 0
      vertex 25.65 46.2 4
      vertex 25.65 46.2 0
    endloop
  endfacet
  facet normal -1 0 0
    outer loop
      vertex 22.25 46.4 0
      vertex 22.25 47.9 4
      vertex 22.25 47.9 0
    endloop
  endfacet
  facet normal -1 -0 0
    outer loop
      vertex 22.25 47.9 4
      vertex 22.25 46.4 0
      vertex 22.25 46.4 4
    endloop
  endfacet
  facet normal 0 1 -0
    outer loop
      vertex 25.65 47.9 0
      vertex 22.25 47.9 4
      vertex 25.65 47.9 4
    endloop
  endfacet
  facet normal 0 1 0
    outer loop
      vertex 22.25 47.9 4
      vertex 25.65 47.9 0
      vertex 22.25 47.9 0
    endloop
  endfacet
  facet normal 1 -0 0
    outer loop
      vertex 47.9 20.55 4
      vertex 47.9 23.95 0
      vertex 47.9 23.95 4
    endloop
  endfacet
  facet normal 1 0 0
    outer loop
      vertex 47.9 23.95 0
      vertex 47.9 20.55 4
      vertex 47.9 20.55 0
    endloop
  endfacet
  facet normal 0 1 -0
    outer loop
      vertex 47.9 23.95 0
      vertex 46.4 23.95 4
      vertex 47.9 23.95 4
    endloop
  endfacet
  facet normal 0 1 0
    outer loop
      vertex 46.4 23.95 4
      vertex 47.9 23.95 0
      vertex 46.4 23.95 0
    endloop
  endfacet
  facet normal 0 -1 0
    outer loop
      vertex 46.2 20.55 0
      vertex 47.9 20.55 4
      vertex 46.2 20.55 4
    endloop
  endfacet
  facet normal 0 -1 -0
    outer loop
      vertex 47.9 20.55 4
      vertex 46.2 20.55 0
      vertex 47.9 20.55 0
    endloop
  endfacet
  facet normal 1 -0 0
    outer loop
      vertex 23.95 -1.7 4
      vertex 23.95 -0.2 0
      vertex 23.95 -0.2 4
    endloop
  endfacet
  facet normal 1 0 0
    outer loop
      vertex 23.95 -0.2 0
      vertex 23.95 -1.7 4
      vertex 23.95 -1.7 0
    endloop
  endfacet
  facet normal -1 0 0
    outer loop
      vertex 20.55 -1.7 0
      vertex 20.55 0 4
      vertex 20.55 0 0
    endloop
  endfacet
  facet normal -1 -0 0
    outer loop
      vertex 20.55 0 4
      vertex 20.55 -1.7 0
      vertex 20.55 -1.7 4
    endloop
  endfacet
  facet normal 0 -1 0
    outer loop
      vertex 20.55 -1.7 0
      vertex 23.95 -1.7 4
      vertex 20.55 -1.7 4
    endloop
  endfacet
  facet normal 0 -1 -0
    outer loop
      vertex 23.95 -1.7 4
      vertex 20.55 -1.7 0
      vertex 23.95 -1.7 0
    endloop
  endfacet
  facet normal -1 0 0
    outer loop
      vertex -1.7 22.25 0
      vertex -1.7 25.65 4
      vertex -1.7 25.65 0
    endloop
  endfacet
  facet normal -1 -0 0
    outer loop
      vertex -1.7 25.65 4
      vertex -1.7 22.25 0
      vertex -1.7 22.25 4
    endloop
  endfacet
  facet normal 0 1 -0
    outer loop
      vertex 0 25.65 0
      vertex -1.7 25.65 4
      vertex 0 25.65 4
    endloop
  endfacet
  facet normal 0 1 0
    outer loop
      vertex -1.7 25.65 4
      vertex 0 25.65 0
      vertex -1.7 25.65 0
    endloop
  endfacet
  facet normal 0 -1 0
    outer loop
      vertex -1.7 22.25 0
      vertex -0.2 22.25 4
      vertex -1.7 22.25 4
    endloop
  endfacet
  facet normal 0 -1 -0
    outer loop
      vertex -0.2 22.25 4
      vertex -1.7 22.25 0
      vertex -0.2 22.25 0
    endloop
  endfacet
  facet normal -1 0 0
    outer loop
      vertex 44.6 25.75 1
      vertex 44.6 44.6 4
      vertex 44.6 44.6 1
    endloop
  endfacet
  facet normal -1 -0 0
    outer loop
      vertex 44.6 44.6 4
      vertex 44.6 25.75 1
      vertex 44.6 25.75 4
    endloop
  endfacet
  facet normal -1 0 0
    outer loop
      vertex 44.6 1.6 1
      vertex 44.6 22.15 4
      vertex 44.6 22.15 1
    endloop
  endfacet
  facet normal -1 -0 0
    outer loop
      vertex 44.6 22.15 4
      vertex 44.6 1.6 1
      vertex 44.6 1.6 4
    endloop
  endfacet
  facet normal 0 0 1
    outer loop
      vertex 16.6578 39.3711 1
      vertex 20.45 44.5 1
      vertex 20.45 44.6 1
    endloop
  endfacet
  facet normal 0 0 1
    outer loop
      vertex 20.45 44.5 1
      vertex 18.7479 40.0502 1
      vertex 19.8208 40.29 1
    endloop
  endfacet
  facet normal 0 0 1
    outer loop
      vertex 20.45 44.5 1
      vertex 17.6922 39.7435 1
      vertex 18.7479 40.0502 1
    endloop
  endfacet
  facet normal 0 0 1
    outer loop
      vertex 20.45 44.5 1
      vertex 16.6578 39.3711 1
      vertex 17.6922 39.7435 1
    endloop
  endfacet
  facet normal 0 0 1
    outer loop
      vertex 20.45 44.6 1
      vertex 15.6489 38.9345 1
      vertex 16.6578 39.3711 1
    endloop
  endfacet
  facet normal -0 0 1
    outer loop
      vertex 1.6 44.6 1
      vertex 15.6489 38.9345 1
      vertex 20.45 44.6 1
    endloop
  endfacet
  facet normal 0 0 1
    outer loop
      vertex 15.6489 38.9345 1
      vertex 1.6 44.6 1
      vertex 14.6693 38.4354 1
    endloop
  endfacet
  facet normal 0 0 1
    outer loop
      vertex 14.6693 38.4354 1
      vertex 1.6 44.6 1
      vertex 13.723 37.8757 1
    endloop
  endfacet
  facet normal 0 0 1
    outer loop
      vertex 13.723 37.8757 1
      vertex 1.6 44.6 1
      vertex 12.8138 37.2578 1
    endloop
  endfacet
  facet normal 0 0 1
    outer loop
      vertex 12.8138 37.2578 1
      vertex 1.6 44.6 1
      vertex 11.9451 36.584 1
    endloop
  endfacet
  facet normal 0 0 1
    outer loop
      vertex 5.63453 24.1988 1
      vertex 1.7 24.05 1
      vertex 5.6 23.1 1
    endloop
  endfacet
  facet normal 0 0 1
    outer loop
      vertex 5.73799 25.2933 1
      vertex 1.7 24.05 1
      vertex 5.63453 24.1988 1
    endloop
  endfacet
  facet normal 0 0 1
    outer loop
      vertex 5.90997 26.3792 1
      vertex 1.7 24.05 1
      vertex 5.73799 25.2933 1
    endloop
  endfacet
  facet normal 0 0 1
    outer loop
      vertex 6.14979 27.4521 1
      vertex 1.7 24.05 1
      vertex 5.90997 26.3792 1
    endloop
  endfacet
  facet normal 0 0 1
    outer loop
      vertex 1.6 24.05 1
      vertex 6.14979 27.4521 1
      vertex 6.45651 28.5078 1
    endloop
  endfacet
  facet normal 0 0 1
    outer loop
      vertex 1.6 24.05 1
      vertex 6.45651 28.5078 1
      vertex 6.82891 29.5422 1
    endloop
  endfacet
  facet normal 0 0 1
    outer loop
      vertex 1.6 44.6 1
      vertex 6.82891 29.5422 1
      vertex 7.26553 30.5511 1
    endloop
  endfacet
  facet normal 0 0 1
    outer loop
      vertex 1.6 44.6 1
      vertex 7.26553 30.5511 1
      vertex 7.76463 31.5307 1
    endloop
  endfacet
  facet normal 0 0 1
    outer loop
      vertex 1.6 44.6 1
      vertex 7.76463 31.5307 1
      vertex 8.32426 32.477 1
    endloop
  endfacet
  facet normal 0 0 1
    outer loop
      vertex 1.6 44.6 1
      vertex 8.32426 32.477 1
      vertex 8.9422 33.3862 1
    endloop
  endfacet
  facet normal 0 0 1
    outer loop
      vertex 1.6 44.6 1
      vertex 8.9422 33.3862 1
      vertex 9.61602 34.2549 1
    endloop
  endfacet
  facet normal 0 0 1
    outer loop
      vertex 11.9451 36.584 1
      vertex 1.6 44.6 1
      vertex 11.1204 35.8569 1
    endloop
  endfacet
  facet normal 0 0 1
    outer loop
      vertex 1.6 44.6 1
      vertex 10.343 35.0796 1
      vertex 11.1204 35.8569 1
    endloop
  endfacet
  facet normal 0 0 1
    outer loop
      vertex 1.6 44.6 1
      vertex 9.61602 34.2549 1
      vertex 10.343 35.0796 1
    endloop
  endfacet
  facet normal 0 0 1
    outer loop
      vertex 6.82891 29.5422 1
      vertex 1.6 44.6 1
      vertex 1.6 24.05 1
    endloop
  endfacet
  facet normal 0 0 1
    outer loop
      vertex 6.14979 27.4521 1
      vertex 1.6 24.05 1
      vertex 1.7 24.05 1
    endloop
  endfacet
  facet normal -0 0 1
    outer loop
      vertex 25.2933 5.73799 1
      vertex 25.75 1.7 1
      vertex 26.3792 5.90997 1
    endloop
  endfacet
  facet normal -0 0 1
    outer loop
      vertex 24.1988 5.63453 1
      vertex 25.75 1.7 1
      vertex 25.2933 5.73799 1
    endloop
  endfacet
  facet normal 0 0 1
    outer loop
      vertex 22.15 1.7 1
      vertex 24.1988 5.63453 1
      vertex 23.1 5.6 1
    endloop
  endfacet
  facet normal 0 0 1
    outer loop
      vertex 24.1988 5.63453 1
      vertex 22.15 1.7 1
      vertex 25.75 1.7 1
    endloop
  endfacet
  facet normal 0 0 1
    outer loop
      vertex 22.0012 5.63453 1
      vertex 22.15 1.7 1
      vertex 23.1 5.6 1
    endloop
  endfacet
  facet normal 0 0 1
    outer loop
      vertex 20.9067 5.73799 1
      vertex 22.15 1.7 1
      vertex 22.0012 5.63453 1
    endloop
  endfacet
  facet normal 0 0 1
    outer loop
      vertex 19.8208 5.90997 1
      vertex 22.15 1.7 1
      vertex 20.9067 5.73799 1
    endloop
  endfacet
  facet normal 0 0 1
    outer loop
      vertex 18.7479 6.14979 1
      vertex 22.15 1.7 1
      vertex 19.8208 5.90997 1
    endloop
  endfacet
  facet normal 0 0 1
    outer loop
      vertex 22.15 1.7 1
      vertex 18.7479 6.14979 1
      vertex 22.15 1.6 1
    endloop
  endfacet
  facet normal 0 0 1
    outer loop
      vertex 17.6922 6.45651 1
      vertex 22.15 1.6 1
      vertex 18.7479 6.14979 1
    endloop
  endfacet
  facet normal 0 0 1
    outer loop
      vertex 16.6578 6.82891 1
      vertex 22.15 1.6 1
      vertex 17.6922 6.45651 1
    endloop
  endfacet
  facet normal 0 0 1
    outer loop
      vertex 1.6 1.6 1
      vertex 16.6578 6.82891 1
      vertex 15.6489 7.26553 1
    endloop
  endfacet
  facet normal 0 0 1
    outer loop
      vertex 1.6 1.6 1
      vertex 15.6489 7.26553 1
      vertex 14.6693 7.76463 1
    endloop
  endfacet
  facet normal 0 0 1
    outer loop
      vertex 1.6 1.6 1
      vertex 14.6693 7.76463 1
      vertex 13.723 8.32426 1
    endloop
  endfacet
  facet normal 0 0 1
    outer loop
      vertex 1.6 1.6 1
      vertex 13.723 8.32426 1
      vertex 12.8138 8.9422 1
    endloop
  endfacet
  facet normal 0 0 1
    outer loop
      vertex 1.6 1.6 1
      vertex 12.8138 8.9422 1
      vertex 11.9451 9.61602 1
    endloop
  endfacet
  facet normal 0 0 1
    outer loop
      vertex 1.7 24.05 1
      vertex 5.63453 22.0012 1
      vertex 5.6 23.1 1
    endloop
  endfacet
  facet normal 0 0 1
    outer loop
      vertex 1.7 20.45 1
      vertex 5.63453 22.0012 1
      vertex 1.7 24.05 1
    endloop
  endfacet
  facet normal 0 0 1
    outer loop
      vertex 5.63453 22.0012 1
      vertex 1.7 20.45 1
      vertex 5.73799 20.9067 1
    endloop
  endfacet
  facet normal 0 0 1
    outer loop
      vertex 5.73799 20.9067 1
      vertex 1.7 20.45 1
      vertex 5.90997 19.8208 1
    endloop
  endfacet
  facet normal 0 0 1
    outer loop
      vertex 5.90997 19.8208 1
      vertex 1.7 20.45 1
      vertex 6.14979 18.7479 1
    endloop
  endfacet
  facet normal 0 0 1
    outer loop
      vertex 6.14979 18.7479 1
      vertex 1.7 20.45 1
      vertex 6.45651 17.6922 1
    endloop
  endfacet
  facet normal 0 0 1
    outer loop
      vertex 6.45651 17.6922 1
      vertex 1.7 20.45 1
      vertex 6.82891 16.6578 1
    endloop
  endfacet
  facet normal -0 0 1
    outer loop
      vertex 1.6 20.45 1
      vertex 6.82891 16.6578 1
      vertex 1.7 20.45 1
    endloop
  endfacet
  facet normal 0 0 1
    outer loop
      vertex 6.82891 16.6578 1
      vertex 1.6 20.45 1
      vertex 7.26553 15.6489 1
    endloop
  endfacet
  facet normal 0 0 1
    outer loop
      vertex 1.6 1.6 1
      vertex 7.26553 15.6489 1
      vertex 1.6 20.45 1
    endloop
  endfacet
  facet normal 0 0 1
    outer loop
      vertex 7.26553 15.6489 1
      vertex 1.6 1.6 1
      vertex 7.76463 14.6693 1
    endloop
  endfacet
  facet normal 0 0 1
    outer loop
      vertex 7.76463 14.6693 1
      vertex 1.6 1.6 1
      vertex 8.32426 13.723 1
    endloop
  endfacet
  facet normal 0 0 1
    outer loop
      vertex 8.32426 13.723 1
      vertex 1.6 1.6 1
      vertex 8.9422 12.8138 1
    endloop
  endfacet
  facet normal 0 0 1
    outer loop
      vertex 8.9422 12.8138 1
      vertex 1.6 1.6 1
      vertex 9.61602 11.9451 1
    endloop
  endfacet
  facet normal 0 0 1
    outer loop
      vertex 16.6578 6.82891 1
      vertex 1.6 1.6 1
      vertex 22.15 1.6 1
    endloop
  endfacet
  facet normal 0 0 1
    outer loop
      vertex 11.1204 10.343 1
      vertex 1.6 1.6 1
      vertex 11.9451 9.61602 1
    endloop
  endfacet
  facet normal 0 0 1
    outer loop
      vertex 10.343 11.1204 1
      vertex 1.6 1.6 1
      vertex 11.1204 10.343 1
    endloop
  endfacet
  facet normal 0 0 1
    outer loop
      vertex 9.61602 11.9451 1
      vertex 1.6 1.6 1
      vertex 10.343 11.1204 1
    endloop
  endfacet
  facet normal -0 0 1
    outer loop
      vertex 38.9345 30.5511 1
      vertex 44.6 25.75 1
      vertex 44.6 44.6 1
    endloop
  endfacet
  facet normal -0 0 1
    outer loop
      vertex 40.5655 24.1988 1
      vertex 44.5 22.15 1
      vertex 44.5 25.75 1
    endloop
  endfacet
  facet normal -0 -0 1
    outer loop
      vertex 39.3711 29.5422 1
      vertex 44.6 25.75 1
      vertex 38.9345 30.5511 1
    endloop
  endfacet
  facet normal 0 0 1
    outer loop
      vertex 44.5 22.15 1
      vertex 40.5655 24.1988 1
      vertex 40.6 23.1 1
    endloop
  endfacet
  facet normal 0 0 1
    outer loop
      vertex 44.5 25.75 1
      vertex 40.462 25.2933 1
      vertex 40.5655 24.1988 1
    endloop
  endfacet
  facet normal 0 0 1
    outer loop
      vertex 44.5 25.75 1
      vertex 40.29 26.3792 1
      vertex 40.462 25.2933 1
    endloop
  endfacet
  facet normal 0 0 1
    outer loop
      vertex 44.5 25.75 1
      vertex 40.0502 27.4521 1
      vertex 40.29 26.3792 1
    endloop
  endfacet
  facet normal 0 0 1
    outer loop
      vertex 44.5 25.75 1
      vertex 39.7435 28.5078 1
      vertex 40.0502 27.4521 1
    endloop
  endfacet
  facet normal 0 0 1
    outer loop
      vertex 44.5 25.75 1
      vertex 39.3711 29.5422 1
      vertex 39.7435 28.5078 1
    endloop
  endfacet
  facet normal 0 0 1
    outer loop
      vertex 44.6 25.75 1
      vertex 39.3711 29.5422 1
      vertex 44.5 25.75 1
    endloop
  endfacet
  facet normal 0 0 1
    outer loop
      vertex 44.6 44.6 1
      vertex 38.4354 31.5307 1
      vertex 38.9345 30.5511 1
    endloop
  endfacet
  facet normal 0 0 1
    outer loop
      vertex 44.6 44.6 1
      vertex 37.8757 32.477 1
      vertex 38.4354 31.5307 1
    endloop
  endfacet
  facet normal 0 0 1
    outer loop
      vertex 44.6 44.6 1
      vertex 37.2578 33.3862 1
      vertex 37.8757 32.477 1
    endloop
  endfacet
  facet normal 0 0 1
    outer loop
      vertex 44.6 44.6 1
      vertex 36.584 34.2549 1
      vertex 37.2578 33.3862 1
    endloop
  endfacet
  facet normal 0 0 1
    outer loop
      vertex 44.6 44.6 1
      vertex 35.8569 35.0796 1
      vertex 36.584 34.2549 1
    endloop
  endfacet
  facet normal 0 0 1
    outer loop
      vertex 44.6 44.6 1
      vertex 35.0796 35.8569 1
      vertex 35.8569 35.0796 1
    endloop
  endfacet
  facet normal 0 0 1
    outer loop
      vertex 44.6 44.6 1
      vertex 34.2549 36.584 1
      vertex 35.0796 35.8569 1
    endloop
  endfacet
  facet normal 0 0 1
    outer loop
      vertex 44.6 44.6 1
      vertex 33.3862 37.2578 1
      vertex 34.2549 36.584 1
    endloop
  endfacet
  facet normal 0 0 1
    outer loop
      vertex 44.6 44.6 1
      vertex 32.477 37.8757 1
      vertex 33.3862 37.2578 1
    endloop
  endfacet
  facet normal 0 0 1
    outer loop
      vertex 44.6 44.6 1
      vertex 31.5307 38.4354 1
      vertex 32.477 37.8757 1
    endloop
  endfacet
  facet normal 0 0 1
    outer loop
      vertex 44.6 44.6 1
      vertex 30.5511 38.9345 1
      vertex 31.5307 38.4354 1
    endloop
  endfacet
  facet normal 0 0 1
    outer loop
      vertex 44.6 44.6 1
      vertex 29.5422 39.3711 1
      vertex 30.5511 38.9345 1
    endloop
  endfacet
  facet normal -0 0 1
    outer loop
      vertex 24.05 44.6 1
      vertex 29.5422 39.3711 1
      vertex 44.6 44.6 1
    endloop
  endfacet
  facet normal 0 0 1
    outer loop
      vertex 29.5422 39.3711 1
      vertex 24.05 44.6 1
      vertex 28.5078 39.7435 1
    endloop
  endfacet
  facet normal 0 0 1
    outer loop
      vertex 28.5078 39.7435 1
      vertex 24.05 44.6 1
      vertex 27.4521 40.0502 1
    endloop
  endfacet
  facet normal -0 0 1
    outer loop
      vertex 24.05 44.5 1
      vertex 27.4521 40.0502 1
      vertex 24.05 44.6 1
    endloop
  endfacet
  facet normal 0 0 1
    outer loop
      vertex 27.4521 40.0502 1
      vertex 24.05 44.5 1
      vertex 26.3792 40.29 1
    endloop
  endfacet
  facet normal 0 0 1
    outer loop
      vertex 26.3792 40.29 1
      vertex 24.05 44.5 1
      vertex 25.2933 40.462 1
    endloop
  endfacet
  facet normal 0 0 1
    outer loop
      vertex 25.2933 40.462 1
      vertex 24.05 44.5 1
      vertex 24.1988 40.5655 1
    endloop
  endfacet
  facet normal 0 0 1
    outer loop
      vertex 24.05 44.5 1
      vertex 23.1 40.6 1
      vertex 24.1988 40.5655 1
    endloop
  endfacet
  facet normal 0 0 1
    outer loop
      vertex 24.05 44.5 1
      vertex 22.0012 40.5655 1
      vertex 23.1 40.6 1
    endloop
  endfacet
  facet normal -0 0 1
    outer loop
      vertex 20.45 44.5 1
      vertex 22.0012 40.5655 1
      vertex 24.05 44.5 1
    endloop
  endfacet
  facet normal 0 0 1
    outer loop
      vertex 22.0012 40.5655 1
      vertex 20.45 44.5 1
      vertex 20.9067 40.462 1
    endloop
  endfacet
  facet normal 0 0 1
    outer loop
      vertex 20.9067 40.462 1
      vertex 20.45 44.5 1
      vertex 19.8208 40.29 1
    endloop
  endfacet
  facet normal 0 0 1
    outer loop
      vertex 40.0502 18.7479 1
      vertex 44.6 22.15 1
      vertex 44.5 22.15 1
    endloop
  endfacet
  facet normal 0 0 1
    outer loop
      vertex 40.5655 22.0012 1
      vertex 44.5 22.15 1
      vertex 40.6 23.1 1
    endloop
  endfacet
  facet normal 0 0 1
    outer loop
      vertex 40.462 20.9067 1
      vertex 44.5 22.15 1
      vertex 40.5655 22.0012 1
    endloop
  endfacet
  facet normal 0 0 1
    outer loop
      vertex 40.29 19.8208 1
      vertex 44.5 22.15 1
      vertex 40.462 20.9067 1
    endloop
  endfacet
  facet normal 0 0 1
    outer loop
      vertex 40.0502 18.7479 1
      vertex 44.5 22.15 1
      vertex 40.29 19.8208 1
    endloop
  endfacet
  facet normal 0 0 1
    outer loop
      vertex 44.6 22.15 1
      vertex 40.0502 18.7479 1
      vertex 39.7435 17.6922 1
    endloop
  endfacet
  facet normal 0 0 1
    outer loop
      vertex 44.6 22.15 1
      vertex 39.7435 17.6922 1
      vertex 39.3711 16.6578 1
    endloop
  endfacet
  facet normal 0 0 1
    outer loop
      vertex 44.6 22.15 1
      vertex 39.3711 16.6578 1
      vertex 44.6 1.6 1
    endloop
  endfacet
  facet normal -0 0 1
    outer loop
      vertex 38.9345 15.6489 1
      vertex 44.6 1.6 1
      vertex 39.3711 16.6578 1
    endloop
  endfacet
  facet normal -0 0 1
    outer loop
      vertex 38.4354 14.6693 1
      vertex 44.6 1.6 1
      vertex 38.9345 15.6489 1
    endloop
  endfacet
  facet normal -0 0 1
    outer loop
      vertex 37.8757 13.723 1
      vertex 44.6 1.6 1
      vertex 38.4354 14.6693 1
    endloop
  endfacet
  facet normal -0 0 1
    outer loop
      vertex 37.2578 12.8138 1
      vertex 44.6 1.6 1
      vertex 37.8757 13.723 1
    endloop
  endfacet
  facet normal -0 0 1
    outer loop
      vertex 36.584 11.9451 1
      vertex 44.6 1.6 1
      vertex 37.2578 12.8138 1
    endloop
  endfacet
  facet normal -0 0 1
    outer loop
      vertex 35.8569 11.1204 1
      vertex 44.6 1.6 1
      vertex 36.584 11.9451 1
    endloop
  endfacet
  facet normal -0 0 1
    outer loop
      vertex 35.0796 10.343 1
      vertex 44.6 1.6 1
      vertex 35.8569 11.1204 1
    endloop
  endfacet
  facet normal -0 0 1
    outer loop
      vertex 34.2549 9.61602 1
      vertex 44.6 1.6 1
      vertex 35.0796 10.343 1
    endloop
  endfacet
  facet normal -0 0 1
    outer loop
      vertex 33.3862 8.9422 1
      vertex 44.6 1.6 1
      vertex 34.2549 9.61602 1
    endloop
  endfacet
  facet normal -0 0 1
    outer loop
      vertex 32.477 8.32426 1
      vertex 44.6 1.6 1
      vertex 33.3862 8.9422 1
    endloop
  endfacet
  facet normal -0 0 1
    outer loop
      vertex 31.5307 7.76463 1
      vertex 44.6 1.6 1
      vertex 32.477 8.32426 1
    endloop
  endfacet
  facet normal -0 0 1
    outer loop
      vertex 30.5511 7.26553 1
      vertex 44.6 1.6 1
      vertex 31.5307 7.76463 1
    endloop
  endfacet
  facet normal 0 0 1
    outer loop
      vertex 25.75 1.6 1
      vertex 30.5511 7.26553 1
      vertex 29.5422 6.82891 1
    endloop
  endfacet
  facet normal 0 0 1
    outer loop
      vertex 25.75 1.7 1
      vertex 29.5422 6.82891 1
      vertex 28.5078 6.45651 1
    endloop
  endfacet
  facet normal 0 0 1
    outer loop
      vertex 25.75 1.7 1
      vertex 28.5078 6.45651 1
      vertex 27.4521 6.14979 1
    endloop
  endfacet
  facet normal 0 0 1
    outer loop
      vertex 25.75 1.7 1
      vertex 27.4521 6.14979 1
      vertex 26.3792 5.90997 1
    endloop
  endfacet
  facet normal 0 0 1
    outer loop
      vertex 29.5422 6.82891 1
      vertex 25.75 1.7 1
      vertex 25.75 1.6 1
    endloop
  endfacet
  facet normal 0 0 1
    outer loop
      vertex 30.5511 7.26553 1
      vertex 25.75 1.6 1
      vertex 44.6 1.6 1
    endloop
  endfacet
  facet normal 1 -0 0
    outer loop
      vertex 1.6 1.6 4
      vertex 1.6 20.45 1
      vertex 1.6 20.45 4
    endloop
  endfacet
  facet normal 1 0 0
    outer loop
      vertex 1.6 20.45 1
      vertex 1.6 1.6 4
      vertex 1.6 1.6 1
    endloop
  endfacet
  facet normal 1 -0 0
    outer loop
      vertex 1.6 24.05 4
      vertex 1.6 44.6 1
      vertex 1.6 44.6 4
    endloop
  endfacet
  facet normal 1 0 0
    outer loop
      vertex 1.6 44.6 1
      vertex 1.6 24.05 4
      vertex 1.6 24.05 1
    endloop
  endfacet
  facet normal 0 -1 0
    outer loop
      vertex 24.05 44.6 1
      vertex 44.6 44.6 4
      vertex 24.05 44.6 4
    endloop
  endfacet
  facet normal 0 -1 -0
    outer loop
      vertex 44.6 44.6 4
      vertex 24.05 44.6 1
      vertex 44.6 44.6 1
    endloop
  endfacet
  facet normal 0 -1 0
    outer loop
      vertex 1.6 44.6 1
      vertex 20.45 44.6 4
      vertex 1.6 44.6 4
    endloop
  endfacet
  facet normal 0 -1 -0
    outer loop
      vertex 20.45 44.6 4
      vertex 1.6 44.6 1
      vertex 20.45 44.6 1
    endloop
  endfacet
  facet normal 0 1 -0
    outer loop
      vertex 44.6 1.6 1
      vertex 25.75 1.6 4
      vertex 44.6 1.6 4
    endloop
  endfacet
  facet normal 0 1 0
    outer loop
      vertex 25.75 1.6 4
      vertex 44.6 1.6 1
      vertex 25.75 1.6 1
    endloop
  endfacet
  facet normal 0 1 -0
    outer loop
      vertex 22.15 1.6 1
      vertex 1.6 1.6 4
      vertex 22.15 1.6 4
    endloop
  endfacet
  facet normal 0 1 0
    outer loop
      vertex 1.6 1.6 4
      vertex 22.15 1.6 1
      vertex 1.6 1.6 1
    endloop
  endfacet
  facet normal -0.995559 -0.0941437 0
    outer loop
      vertex 40.5655 24.1988 0
      vertex 40.462 25.2933 1
      vertex 40.462 25.2933 0
    endloop
  endfacet
  facet normal -0.995559 -0.0941437 0
    outer loop
      vertex 40.462 25.2933 1
      vertex 40.5655 24.1988 0
      vertex 40.5655 24.1988 1
    endloop
  endfacet
  facet normal -0.999507 -0.0313824 0
    outer loop
      vertex 40.6 23.1 0
      vertex 40.5655 24.1988 1
      vertex 40.5655 24.1988 0
    endloop
  endfacet
  facet normal -0.999507 -0.0313824 0
    outer loop
      vertex 40.5655 24.1988 1
      vertex 40.6 23.1 0
      vertex 40.6 23.1 1
    endloop
  endfacet
  facet normal -0.987687 -0.156444 0
    outer loop
      vertex 40.462 25.2933 0
      vertex 40.29 26.3792 1
      vertex 40.29 26.3792 0
    endloop
  endfacet
  facet normal -0.987687 -0.156444 0
    outer loop
      vertex 40.29 26.3792 1
      vertex 40.462 25.2933 0
      vertex 40.462 25.2933 1
    endloop
  endfacet
  facet normal 0.750152 0.661265 0
    outer loop
      vertex 10.343 11.1204 1
      vertex 9.61602 11.9451 0
      vertex 9.61602 11.9451 1
    endloop
  endfacet
  facet normal 0.750152 0.661265 0
    outer loop
      vertex 9.61602 11.9451 0
      vertex 10.343 11.1204 1
      vertex 10.343 11.1204 0
    endloop
  endfacet
  facet normal -0.562089 -0.827077 0
    outer loop
      vertex 32.477 37.8757 0
      vertex 33.3862 37.2578 1
      vertex 32.477 37.8757 1
    endloop
  endfacet
  facet normal -0.562089 -0.827077 -0
    outer loop
      vertex 33.3862 37.2578 1
      vertex 32.477 37.8757 0
      vertex 33.3862 37.2578 0
    endloop
  endfacet
  facet normal 0.891018 -0.453968 0
    outer loop
      vertex 7.26553 30.5511 1
      vertex 7.76463 31.5307 0
      vertex 7.76463 31.5307 1
    endloop
  endfacet
  facet normal 0.891018 -0.453968 0
    outer loop
      vertex 7.76463 31.5307 0
      vertex 7.26553 30.5511 1
      vertex 7.26553 30.5511 0
    endloop
  endfacet
  facet normal 0.891018 0.453968 0
    outer loop
      vertex 7.76463 14.6693 1
      vertex 7.26553 15.6489 0
      vertex 7.26553 15.6489 1
    endloop
  endfacet
  facet normal 0.891018 0.453968 0
    outer loop
      vertex 7.26553 15.6489 0
      vertex 7.76463 14.6693 1
      vertex 7.76463 14.6693 0
    endloop
  endfacet
  facet normal -0.338732 -0.940883 0
    outer loop
      vertex 28.5078 39.7435 0
      vertex 29.5422 39.3711 1
      vertex 28.5078 39.7435 1
    endloop
  endfacet
  facet normal -0.338732 -0.940883 -0
    outer loop
      vertex 29.5422 39.3711 1
      vertex 28.5078 39.7435 0
      vertex 29.5422 39.3711 0
    endloop
  endfacet
  facet normal -0.661327 -0.750098 0
    outer loop
      vertex 34.2549 36.584 0
      vertex 35.0796 35.8569 1
      vertex 34.2549 36.584 1
    endloop
  endfacet
  facet normal -0.661327 -0.750098 -0
    outer loop
      vertex 35.0796 35.8569 1
      vertex 34.2549 36.584 0
      vertex 35.0796 35.8569 0
    endloop
  endfacet
  facet normal 0.0941437 -0.995559 0
    outer loop
      vertex 20.9067 40.462 0
      vertex 22.0012 40.5655 1
      vertex 20.9067 40.462 1
    endloop
  endfacet
  facet normal 0.0941437 -0.995559 0
    outer loop
      vertex 22.0012 40.5655 1
      vertex 20.9067 40.462 0
      vertex 22.0012 40.5655 0
    endloop
  endfacet
  facet normal 0.790161 0.6129 0
    outer loop
      vertex 9.61602 11.9451 1
      vertex 8.9422 12.8138 0
      vertex 8.9422 12.8138 1
    endloop
  endfacet
  facet normal 0.790161 0.6129 0
    outer loop
      vertex 8.9422 12.8138 0
      vertex 9.61602 11.9451 1
      vertex 9.61602 11.9451 0
    endloop
  endfacet
  facet normal -0.156426 0.98769 0
    outer loop
      vertex 26.3792 5.90997 0
      vertex 25.2933 5.73799 1
      vertex 26.3792 5.90997 1
    endloop
  endfacet
  facet normal -0.156426 0.98769 0
    outer loop
      vertex 25.2933 5.73799 1
      vertex 26.3792 5.90997 0
      vertex 25.2933 5.73799 0
    endloop
  endfacet
  facet normal -0.0313824 -0.999507 0
    outer loop
      vertex 23.1 40.6 0
      vertex 24.1988 40.5655 1
      vertex 23.1 40.6 1
    endloop
  endfacet
  facet normal -0.0313824 -0.999507 -0
    outer loop
      vertex 24.1988 40.5655 1
      vertex 23.1 40.6 0
      vertex 24.1988 40.5655 0
    endloop
  endfacet
  facet normal -0.995559 0.0941437 0
    outer loop
      vertex 40.462 20.9067 0
      vertex 40.5655 22.0012 1
      vertex 40.5655 22.0012 0
    endloop
  endfacet
  facet normal -0.995559 0.0941437 0
    outer loop
      vertex 40.5655 22.0012 1
      vertex 40.462 20.9067 0
      vertex 40.462 20.9067 1
    endloop
  endfacet
  facet normal 0.338732 -0.940883 0
    outer loop
      vertex 16.6578 39.3711 0
      vertex 17.6922 39.7435 1
      vertex 16.6578 39.3711 1
    endloop
  endfacet
  facet normal 0.338732 -0.940883 0
    outer loop
      vertex 17.6922 39.7435 1
      vertex 16.6578 39.3711 0
      vertex 17.6922 39.7435 0
    endloop
  endfacet
  facet normal 0.0314097 0.999507 -0
    outer loop
      vertex 23.1 5.6 0
      vertex 22.0012 5.63453 1
      vertex 23.1 5.6 1
    endloop
  endfacet
  facet normal 0.0314097 0.999507 0
    outer loop
      vertex 22.0012 5.63453 1
      vertex 23.1 5.6 0
      vertex 22.0012 5.63453 0
    endloop
  endfacet
  facet normal 0.509035 0.860746 -0
    outer loop
      vertex 14.6693 7.76463 0
      vertex 13.723 8.32426 1
      vertex 14.6693 7.76463 1
    endloop
  endfacet
  facet normal 0.509035 0.860746 0
    outer loop
      vertex 13.723 8.32426 1
      vertex 14.6693 7.76463 0
      vertex 13.723 8.32426 0
    endloop
  endfacet
  facet normal 0.707061 -0.707152 0
    outer loop
      vertex 10.343 35.0796 0
      vertex 11.1204 35.8569 1
      vertex 10.343 35.0796 1
    endloop
  endfacet
  facet normal 0.707061 -0.707152 0
    outer loop
      vertex 11.1204 35.8569 1
      vertex 10.343 35.0796 0
      vertex 11.1204 35.8569 0
    endloop
  endfacet
  facet normal -0.975921 -0.218125 0
    outer loop
      vertex 40.29 26.3792 0
      vertex 40.0502 27.4521 1
      vertex 40.0502 27.4521 0
    endloop
  endfacet
  facet normal -0.975921 -0.218125 0
    outer loop
      vertex 40.0502 27.4521 1
      vertex 40.29 26.3792 0
      vertex 40.29 26.3792 1
    endloop
  endfacet
  facet normal 0.98769 0.156426 0
    outer loop
      vertex 5.90997 19.8208 1
      vertex 5.73799 20.9067 0
      vertex 5.73799 20.9067 1
    endloop
  endfacet
  facet normal 0.98769 0.156426 0
    outer loop
      vertex 5.73799 20.9067 0
      vertex 5.90997 19.8208 1
      vertex 5.90997 19.8208 0
    endloop
  endfacet
  facet normal 0.975917 -0.218142 0
    outer loop
      vertex 5.90997 26.3792 1
      vertex 6.14979 27.4521 0
      vertex 6.14979 27.4521 1
    endloop
  endfacet
  facet normal 0.975917 -0.218142 0
    outer loop
      vertex 6.14979 27.4521 0
      vertex 5.90997 26.3792 1
      vertex 5.90997 26.3792 0
    endloop
  endfacet
  facet normal -0.917751 -0.397156 0
    outer loop
      vertex 39.3711 29.5422 0
      vertex 38.9345 30.5511 1
      vertex 38.9345 30.5511 0
    endloop
  endfacet
  facet normal -0.917751 -0.397156 0
    outer loop
      vertex 38.9345 30.5511 1
      vertex 39.3711 29.5422 0
      vertex 39.3711 29.5422 1
    endloop
  endfacet
  facet normal 0.860746 -0.509035 0
    outer loop
      vertex 7.76463 31.5307 1
      vertex 8.32426 32.477 0
      vertex 8.32426 32.477 1
    endloop
  endfacet
  facet normal 0.860746 -0.509035 0
    outer loop
      vertex 8.32426 32.477 0
      vertex 7.76463 31.5307 1
      vertex 7.76463 31.5307 0
    endloop
  endfacet
  facet normal -0.397171 0.917745 0
    outer loop
      vertex 30.5511 7.26553 0
      vertex 29.5422 6.82891 1
      vertex 30.5511 7.26553 1
    endloop
  endfacet
  facet normal -0.397171 0.917745 0
    outer loop
      vertex 29.5422 6.82891 1
      vertex 30.5511 7.26553 0
      vertex 29.5422 6.82891 0
    endloop
  endfacet
  facet normal 0.453968 -0.891018 0
    outer loop
      vertex 14.6693 38.4354 0
      vertex 15.6489 38.9345 1
      vertex 14.6693 38.4354 1
    endloop
  endfacet
  facet normal 0.453968 -0.891018 0
    outer loop
      vertex 15.6489 38.9345 1
      vertex 14.6693 38.4354 0
      vertex 15.6489 38.9345 0
    endloop
  endfacet
  facet normal 0.562113 0.82706 -0
    outer loop
      vertex 13.723 8.32426 0
      vertex 12.8138 8.9422 1
      vertex 13.723 8.32426 1
    endloop
  endfacet
  facet normal 0.562113 0.82706 0
    outer loop
      vertex 12.8138 8.9422 1
      vertex 13.723 8.32426 0
      vertex 12.8138 8.9422 0
    endloop
  endfacet
  facet normal -0.509082 -0.860718 0
    outer loop
      vertex 31.5307 38.4354 0
      vertex 32.477 37.8757 1
      vertex 31.5307 38.4354 1
    endloop
  endfacet
  facet normal -0.509082 -0.860718 -0
    outer loop
      vertex 32.477 37.8757 1
      vertex 31.5307 38.4354 0
      vertex 32.477 37.8757 0
    endloop
  endfacet
  facet normal -0.0314097 0.999507 0
    outer loop
      vertex 24.1988 5.63453 0
      vertex 23.1 5.6 1
      vertex 24.1988 5.63453 1
    endloop
  endfacet
  facet normal -0.0314097 0.999507 0
    outer loop
      vertex 23.1 5.6 1
      vertex 24.1988 5.63453 0
      vertex 23.1 5.6 0
    endloop
  endfacet
  facet normal 0.612888 -0.790169 0
    outer loop
      vertex 11.9451 36.584 0
      vertex 12.8138 37.2578 1
      vertex 11.9451 36.584 1
    endloop
  endfacet
  facet normal 0.612888 -0.790169 0
    outer loop
      vertex 12.8138 37.2578 1
      vertex 11.9451 36.584 0
      vertex 12.8138 37.2578 0
    endloop
  endfacet
  facet normal -0.790169 0.612888 0
    outer loop
      vertex 36.584 11.9451 0
      vertex 37.2578 12.8138 1
      vertex 37.2578 12.8138 0
    endloop
  endfacet
  facet normal -0.790169 0.612888 0
    outer loop
      vertex 37.2578 12.8138 1
      vertex 36.584 11.9451 0
      vertex 36.584 11.9451 1
    endloop
  endfacet
  facet normal -0.707107 -0.707107 0
    outer loop
      vertex 35.8569 35.0796 0
      vertex 35.0796 35.8569 1
      vertex 35.0796 35.8569 0
    endloop
  endfacet
  facet normal -0.707107 -0.707107 0
    outer loop
      vertex 35.0796 35.8569 1
      vertex 35.8569 35.0796 0
      vertex 35.8569 35.0796 1
    endloop
  endfacet
  facet normal -0.917751 0.397156 0
    outer loop
      vertex 38.9345 15.6489 0
      vertex 39.3711 16.6578 1
      vertex 39.3711 16.6578 0
    endloop
  endfacet
  facet normal -0.917751 0.397156 0
    outer loop
      vertex 39.3711 16.6578 1
      vertex 38.9345 15.6489 0
      vertex 38.9345 15.6489 1
    endloop
  endfacet
  facet normal -0.891018 -0.453968 0
    outer loop
      vertex 38.9345 30.5511 0
      vertex 38.4354 31.5307 1
      vertex 38.4354 31.5307 0
    endloop
  endfacet
  facet normal -0.891018 -0.453968 0
    outer loop
      vertex 38.4354 31.5307 1
      vertex 38.9345 30.5511 0
      vertex 38.9345 30.5511 1
    endloop
  endfacet
  facet normal -0.960296 -0.278983 0
    outer loop
      vertex 40.0502 27.4521 0
      vertex 39.7435 28.5078 1
      vertex 39.7435 28.5078 0
    endloop
  endfacet
  facet normal -0.960296 -0.278983 0
    outer loop
      vertex 39.7435 28.5078 1
      vertex 40.0502 27.4521 0
      vertex 40.0502 27.4521 1
    endloop
  endfacet
  facet normal 0.661327 -0.750098 0
    outer loop
      vertex 11.1204 35.8569 0
      vertex 11.9451 36.584 1
      vertex 11.1204 35.8569 1
    endloop
  endfacet
  facet normal 0.661327 -0.750098 0
    outer loop
      vertex 11.9451 36.584 1
      vertex 11.1204 35.8569 0
      vertex 11.9451 36.584 0
    endloop
  endfacet
  facet normal 0.82706 -0.562113 0
    outer loop
      vertex 8.32426 32.477 1
      vertex 8.9422 33.3862 0
      vertex 8.9422 33.3862 1
    endloop
  endfacet
  facet normal 0.82706 -0.562113 0
    outer loop
      vertex 8.9422 33.3862 0
      vertex 8.32426 32.477 1
      vertex 8.32426 32.477 0
    endloop
  endfacet
  facet normal -0.453968 0.891018 0
    outer loop
      vertex 31.5307 7.76463 0
      vertex 30.5511 7.26553 1
      vertex 31.5307 7.76463 1
    endloop
  endfacet
  facet normal -0.453968 0.891018 0
    outer loop
      vertex 30.5511 7.26553 1
      vertex 31.5307 7.76463 0
      vertex 30.5511 7.26553 0
    endloop
  endfacet
  facet normal -0.612888 -0.790169 0
    outer loop
      vertex 33.3862 37.2578 0
      vertex 34.2549 36.584 1
      vertex 33.3862 37.2578 1
    endloop
  endfacet
  facet normal -0.612888 -0.790169 -0
    outer loop
      vertex 34.2549 36.584 1
      vertex 33.3862 37.2578 0
      vertex 34.2549 36.584 0
    endloop
  endfacet
  facet normal -0.975921 0.218125 0
    outer loop
      vertex 40.0502 18.7479 0
      vertex 40.29 19.8208 1
      vertex 40.29 19.8208 0
    endloop
  endfacet
  facet normal -0.975921 0.218125 0
    outer loop
      vertex 40.29 19.8208 1
      vertex 40.0502 18.7479 0
      vertex 40.0502 18.7479 1
    endloop
  endfacet
  facet normal -0.827077 -0.562089 0
    outer loop
      vertex 37.8757 32.477 0
      vertex 37.2578 33.3862 1
      vertex 37.2578 33.3862 0
    endloop
  endfacet
  facet normal -0.827077 -0.562089 0
    outer loop
      vertex 37.2578 33.3862 1
      vertex 37.8757 32.477 0
      vertex 37.8757 32.477 1
    endloop
  endfacet
  facet normal 0.218125 -0.975921 0
    outer loop
      vertex 18.7479 40.0502 0
      vertex 19.8208 40.29 1
      vertex 18.7479 40.0502 1
    endloop
  endfacet
  facet normal 0.218125 -0.975921 0
    outer loop
      vertex 19.8208 40.29 1
      vertex 18.7479 40.0502 0
      vertex 19.8208 40.29 0
    endloop
  endfacet
  facet normal -0.707152 0.707061 0
    outer loop
      vertex 35.0796 10.343 0
      vertex 35.8569 11.1204 1
      vertex 35.8569 11.1204 0
    endloop
  endfacet
  facet normal -0.707152 0.707061 0
    outer loop
      vertex 35.8569 11.1204 1
      vertex 35.0796 10.343 0
      vertex 35.0796 10.343 1
    endloop
  endfacet
  facet normal -0.987687 0.156444 0
    outer loop
      vertex 40.29 19.8208 0
      vertex 40.462 20.9067 1
      vertex 40.462 20.9067 0
    endloop
  endfacet
  facet normal -0.987687 0.156444 0
    outer loop
      vertex 40.462 20.9067 1
      vertex 40.29 19.8208 0
      vertex 40.29 19.8208 1
    endloop
  endfacet
  facet normal 0.960291 -0.279 0
    outer loop
      vertex 6.14979 27.4521 1
      vertex 6.45651 28.5078 0
      vertex 6.45651 28.5078 1
    endloop
  endfacet
  facet normal 0.960291 -0.279 0
    outer loop
      vertex 6.45651 28.5078 0
      vertex 6.14979 27.4521 1
      vertex 6.14979 27.4521 0
    endloop
  endfacet
  facet normal 0.975917 0.218142 0
    outer loop
      vertex 6.14979 18.7479 1
      vertex 5.90997 19.8208 0
      vertex 5.90997 19.8208 1
    endloop
  endfacet
  facet normal 0.975917 0.218142 0
    outer loop
      vertex 5.90997 19.8208 0
      vertex 6.14979 18.7479 1
      vertex 6.14979 18.7479 0
    endloop
  endfacet
  facet normal -0.827077 0.562089 0
    outer loop
      vertex 37.2578 12.8138 0
      vertex 37.8757 13.723 1
      vertex 37.8757 13.723 0
    endloop
  endfacet
  facet normal -0.827077 0.562089 0
    outer loop
      vertex 37.8757 13.723 1
      vertex 37.2578 12.8138 0
      vertex 37.2578 12.8138 1
    endloop
  endfacet
  facet normal -0.860718 0.509082 0
    outer loop
      vertex 37.8757 13.723 0
      vertex 38.4354 14.6693 1
      vertex 38.4354 14.6693 0
    endloop
  endfacet
  facet normal -0.860718 0.509082 0
    outer loop
      vertex 38.4354 14.6693 1
      vertex 37.8757 13.723 0
      vertex 37.8757 13.723 1
    endloop
  endfacet
  facet normal 0.562089 -0.827077 0
    outer loop
      vertex 12.8138 37.2578 0
      vertex 13.723 37.8757 1
      vertex 12.8138 37.2578 1
    endloop
  endfacet
  facet normal 0.562089 -0.827077 0
    outer loop
      vertex 13.723 37.8757 1
      vertex 12.8138 37.2578 0
      vertex 13.723 37.8757 0
    endloop
  endfacet
  facet normal -0.750098 0.661327 0
    outer loop
      vertex 35.8569 11.1204 0
      vertex 36.584 11.9451 1
      vertex 36.584 11.9451 0
    endloop
  endfacet
  facet normal -0.750098 0.661327 0
    outer loop
      vertex 36.584 11.9451 1
      vertex 35.8569 11.1204 0
      vertex 35.8569 11.1204 1
    endloop
  endfacet
  facet normal -0.960296 0.278983 0
    outer loop
      vertex 39.7435 17.6922 0
      vertex 40.0502 18.7479 1
      vertex 40.0502 18.7479 0
    endloop
  endfacet
  facet normal -0.960296 0.278983 0
    outer loop
      vertex 40.0502 18.7479 1
      vertex 39.7435 17.6922 0
      vertex 39.7435 17.6922 1
    endloop
  endfacet
  facet normal -0.338732 0.940883 0
    outer loop
      vertex 29.5422 6.82891 0
      vertex 28.5078 6.45651 1
      vertex 29.5422 6.82891 1
    endloop
  endfacet
  facet normal -0.338732 0.940883 0
    outer loop
      vertex 28.5078 6.45651 1
      vertex 29.5422 6.82891 0
      vertex 28.5078 6.45651 0
    endloop
  endfacet
  facet normal 0.397171 0.917745 -0
    outer loop
      vertex 16.6578 6.82891 0
      vertex 15.6489 7.26553 1
      vertex 16.6578 6.82891 1
    endloop
  endfacet
  facet normal 0.397171 0.917745 0
    outer loop
      vertex 15.6489 7.26553 1
      vertex 16.6578 6.82891 0
      vertex 15.6489 7.26553 0
    endloop
  endfacet
  facet normal -0.860718 -0.509082 0
    outer loop
      vertex 38.4354 31.5307 0
      vertex 37.8757 32.477 1
      vertex 37.8757 32.477 0
    endloop
  endfacet
  facet normal -0.860718 -0.509082 0
    outer loop
      vertex 37.8757 32.477 1
      vertex 38.4354 31.5307 0
      vertex 38.4354 31.5307 1
    endloop
  endfacet
  facet normal -0.999507 0.0313824 0
    outer loop
      vertex 40.5655 22.0012 0
      vertex 40.6 23.1 1
      vertex 40.6 23.1 0
    endloop
  endfacet
  facet normal -0.999507 0.0313824 0
    outer loop
      vertex 40.6 23.1 1
      vertex 40.5655 22.0012 0
      vertex 40.5655 22.0012 1
    endloop
  endfacet
  facet normal -0.940883 0.338732 0
    outer loop
      vertex 39.3711 16.6578 0
      vertex 39.7435 17.6922 1
      vertex 39.7435 17.6922 0
    endloop
  endfacet
  facet normal -0.940883 0.338732 0
    outer loop
      vertex 39.7435 17.6922 1
      vertex 39.3711 16.6578 0
      vertex 39.3711 16.6578 1
    endloop
  endfacet
  facet normal 0.397156 -0.917751 0
    outer loop
      vertex 15.6489 38.9345 0
      vertex 16.6578 39.3711 1
      vertex 15.6489 38.9345 1
    endloop
  endfacet
  facet normal 0.397156 -0.917751 0
    outer loop
      vertex 16.6578 39.3711 1
      vertex 15.6489 38.9345 0
      vertex 16.6578 39.3711 0
    endloop
  endfacet
  facet normal -0.891018 0.453968 0
    outer loop
      vertex 38.4354 14.6693 0
      vertex 38.9345 15.6489 1
      vertex 38.9345 15.6489 0
    endloop
  endfacet
  facet normal -0.891018 0.453968 0
    outer loop
      vertex 38.9345 15.6489 1
      vertex 38.4354 14.6693 0
      vertex 38.4354 14.6693 1
    endloop
  endfacet
  facet normal -0.279 0.960291 0
    outer loop
      vertex 28.5078 6.45651 0
      vertex 27.4521 6.14979 1
      vertex 28.5078 6.45651 1
    endloop
  endfacet
  facet normal -0.279 0.960291 0
    outer loop
      vertex 27.4521 6.14979 1
      vertex 28.5078 6.45651 0
      vertex 27.4521 6.14979 0
    endloop
  endfacet
  facet normal -0.0941077 0.995562 0
    outer loop
      vertex 25.2933 5.73799 0
      vertex 24.1988 5.63453 1
      vertex 25.2933 5.73799 1
    endloop
  endfacet
  facet normal -0.0941077 0.995562 0
    outer loop
      vertex 24.1988 5.63453 1
      vertex 25.2933 5.73799 0
      vertex 24.1988 5.63453 0
    endloop
  endfacet
  facet normal -0.0941437 -0.995559 0
    outer loop
      vertex 24.1988 40.5655 0
      vertex 25.2933 40.462 1
      vertex 24.1988 40.5655 1
    endloop
  endfacet
  facet normal -0.0941437 -0.995559 -0
    outer loop
      vertex 25.2933 40.462 1
      vertex 24.1988 40.5655 0
      vertex 25.2933 40.462 0
    endloop
  endfacet
  facet normal -0.218142 0.975917 0
    outer loop
      vertex 27.4521 6.14979 0
      vertex 26.3792 5.90997 1
      vertex 27.4521 6.14979 1
    endloop
  endfacet
  facet normal -0.218142 0.975917 0
    outer loop
      vertex 26.3792 5.90997 1
      vertex 27.4521 6.14979 0
      vertex 26.3792 5.90997 0
    endloop
  endfacet
  facet normal 0.995562 -0.0941077 0
    outer loop
      vertex 5.63453 24.1988 1
      vertex 5.73799 25.2933 0
      vertex 5.73799 25.2933 1
    endloop
  endfacet
  facet normal 0.995562 -0.0941077 0
    outer loop
      vertex 5.73799 25.2933 0
      vertex 5.63453 24.1988 1
      vertex 5.63453 24.1988 0
    endloop
  endfacet
  facet normal 0.156444 -0.987687 0
    outer loop
      vertex 19.8208 40.29 0
      vertex 20.9067 40.462 1
      vertex 19.8208 40.29 1
    endloop
  endfacet
  facet normal 0.156444 -0.987687 0
    outer loop
      vertex 20.9067 40.462 1
      vertex 19.8208 40.29 0
      vertex 20.9067 40.462 0
    endloop
  endfacet
  facet normal 0.82706 0.562113 0
    outer loop
      vertex 8.9422 12.8138 1
      vertex 8.32426 13.723 0
      vertex 8.32426 13.723 1
    endloop
  endfacet
  facet normal 0.82706 0.562113 0
    outer loop
      vertex 8.32426 13.723 0
      vertex 8.9422 12.8138 1
      vertex 8.9422 12.8138 0
    endloop
  endfacet
  facet normal -0.397156 -0.917751 0
    outer loop
      vertex 29.5422 39.3711 0
      vertex 30.5511 38.9345 1
      vertex 29.5422 39.3711 1
    endloop
  endfacet
  facet normal -0.397156 -0.917751 -0
    outer loop
      vertex 30.5511 38.9345 1
      vertex 29.5422 39.3711 0
      vertex 30.5511 38.9345 0
    endloop
  endfacet
  facet normal 0.940883 0.338732 0
    outer loop
      vertex 6.82891 16.6578 1
      vertex 6.45651 17.6922 0
      vertex 6.45651 17.6922 1
    endloop
  endfacet
  facet normal 0.940883 0.338732 0
    outer loop
      vertex 6.45651 17.6922 0
      vertex 6.82891 16.6578 1
      vertex 6.82891 16.6578 0
    endloop
  endfacet
  facet normal 0.278983 -0.960296 0
    outer loop
      vertex 17.6922 39.7435 0
      vertex 18.7479 40.0502 1
      vertex 17.6922 39.7435 1
    endloop
  endfacet
  facet normal 0.278983 -0.960296 0
    outer loop
      vertex 18.7479 40.0502 1
      vertex 17.6922 39.7435 0
      vertex 18.7479 40.0502 0
    endloop
  endfacet
  facet normal 0.940883 -0.338732 0
    outer loop
      vertex 6.45651 28.5078 1
      vertex 6.82891 29.5422 0
      vertex 6.82891 29.5422 1
    endloop
  endfacet
  facet normal 0.940883 -0.338732 0
    outer loop
      vertex 6.82891 29.5422 0
      vertex 6.45651 28.5078 1
      vertex 6.45651 28.5078 0
    endloop
  endfacet
  facet normal 0.999507 -0.0314097 0
    outer loop
      vertex 5.6 23.1 1
      vertex 5.63453 24.1988 0
      vertex 5.63453 24.1988 1
    endloop
  endfacet
  facet normal 0.999507 -0.0314097 0
    outer loop
      vertex 5.63453 24.1988 0
      vertex 5.6 23.1 1
      vertex 5.6 23.1 0
    endloop
  endfacet
  facet normal 0.279 0.960291 -0
    outer loop
      vertex 18.7479 6.14979 0
      vertex 17.6922 6.45651 1
      vertex 18.7479 6.14979 1
    endloop
  endfacet
  facet normal 0.279 0.960291 0
    outer loop
      vertex 17.6922 6.45651 1
      vertex 18.7479 6.14979 0
      vertex 17.6922 6.45651 0
    endloop
  endfacet
  facet normal -0.750098 -0.661327 0
    outer loop
      vertex 36.584 34.2549 0
      vertex 35.8569 35.0796 1
      vertex 35.8569 35.0796 0
    endloop
  endfacet
  facet normal -0.750098 -0.661327 0
    outer loop
      vertex 35.8569 35.0796 1
      vertex 36.584 34.2549 0
      vertex 36.584 34.2549 1
    endloop
  endfacet
  facet normal 0.6129 0.790161 -0
    outer loop
      vertex 12.8138 8.9422 0
      vertex 11.9451 9.61602 1
      vertex 12.8138 8.9422 1
    endloop
  endfacet
  facet normal 0.6129 0.790161 0
    outer loop
      vertex 11.9451 9.61602 1
      vertex 12.8138 8.9422 0
      vertex 11.9451 9.61602 0
    endloop
  endfacet
  facet normal -0.453968 -0.891018 0
    outer loop
      vertex 30.5511 38.9345 0
      vertex 31.5307 38.4354 1
      vertex 30.5511 38.9345 1
    endloop
  endfacet
  facet normal -0.453968 -0.891018 -0
    outer loop
      vertex 31.5307 38.4354 1
      vertex 30.5511 38.9345 0
      vertex 31.5307 38.4354 0
    endloop
  endfacet
  facet normal 0.509082 -0.860718 0
    outer loop
      vertex 13.723 37.8757 0
      vertex 14.6693 38.4354 1
      vertex 13.723 37.8757 1
    endloop
  endfacet
  facet normal 0.509082 -0.860718 0
    outer loop
      vertex 14.6693 38.4354 1
      vertex 13.723 37.8757 0
      vertex 14.6693 38.4354 0
    endloop
  endfacet
  facet normal -0.156444 -0.987687 0
    outer loop
      vertex 25.2933 40.462 0
      vertex 26.3792 40.29 1
      vertex 25.2933 40.462 1
    endloop
  endfacet
  facet normal -0.156444 -0.987687 -0
    outer loop
      vertex 26.3792 40.29 1
      vertex 25.2933 40.462 0
      vertex 26.3792 40.29 0
    endloop
  endfacet
  facet normal 0.453968 0.891018 -0
    outer loop
      vertex 15.6489 7.26553 0
      vertex 14.6693 7.76463 1
      vertex 15.6489 7.26553 1
    endloop
  endfacet
  facet normal 0.453968 0.891018 0
    outer loop
      vertex 14.6693 7.76463 1
      vertex 15.6489 7.26553 0
      vertex 14.6693 7.76463 0
    endloop
  endfacet
  facet normal -0.940883 -0.338732 0
    outer loop
      vertex 39.7435 28.5078 0
      vertex 39.3711 29.5422 1
      vertex 39.3711 29.5422 0
    endloop
  endfacet
  facet normal -0.940883 -0.338732 0
    outer loop
      vertex 39.3711 29.5422 1
      vertex 39.7435 28.5078 0
      vertex 39.7435 28.5078 1
    endloop
  endfacet
  facet normal 0.917745 0.397171 0
    outer loop
      vertex 7.26553 15.6489 1
      vertex 6.82891 16.6578 0
      vertex 6.82891 16.6578 1
    endloop
  endfacet
  facet normal 0.917745 0.397171 0
    outer loop
      vertex 6.82891 16.6578 0
      vertex 7.26553 15.6489 1
      vertex 7.26553 15.6489 0
    endloop
  endfacet
  facet normal -0.218125 -0.975921 0
    outer loop
      vertex 26.3792 40.29 0
      vertex 27.4521 40.0502 1
      vertex 26.3792 40.29 1
    endloop
  endfacet
  facet normal -0.218125 -0.975921 -0
    outer loop
      vertex 27.4521 40.0502 1
      vertex 26.3792 40.29 0
      vertex 27.4521 40.0502 0
    endloop
  endfacet
  facet normal 0.338732 0.940883 -0
    outer loop
      vertex 17.6922 6.45651 0
      vertex 16.6578 6.82891 1
      vertex 17.6922 6.45651 1
    endloop
  endfacet
  facet normal 0.338732 0.940883 0
    outer loop
      vertex 16.6578 6.82891 1
      vertex 17.6922 6.45651 0
      vertex 16.6578 6.82891 0
    endloop
  endfacet
  facet normal 0.960291 0.279 0
    outer loop
      vertex 6.45651 17.6922 1
      vertex 6.14979 18.7479 0
      vertex 6.14979 18.7479 1
    endloop
  endfacet
  facet normal 0.960291 0.279 0
    outer loop
      vertex 6.14979 18.7479 0
      vertex 6.45651 17.6922 1
      vertex 6.45651 17.6922 0
    endloop
  endfacet
  facet normal 0.0313824 -0.999507 0
    outer loop
      vertex 22.0012 40.5655 0
      vertex 23.1 40.6 1
      vertex 22.0012 40.5655 1
    endloop
  endfacet
  facet normal 0.0313824 -0.999507 0
    outer loop
      vertex 23.1 40.6 1
      vertex 22.0012 40.5655 0
      vertex 23.1 40.6 0
    endloop
  endfacet
  facet normal -0.562113 0.82706 0
    outer loop
      vertex 33.3862 8.9422 0
      vertex 32.477 8.32426 1
      vertex 33.3862 8.9422 1
    endloop
  endfacet
  facet normal -0.562113 0.82706 0
    outer loop
      vertex 32.477 8.32426 1
      vertex 33.3862 8.9422 0
      vertex 32.477 8.32426 0
    endloop
  endfacet
  facet normal 0.860746 0.509035 0
    outer loop
      vertex 8.32426 13.723 1
      vertex 7.76463 14.6693 0
      vertex 7.76463 14.6693 1
    endloop
  endfacet
  facet normal 0.860746 0.509035 0
    outer loop
      vertex 7.76463 14.6693 0
      vertex 8.32426 13.723 1
      vertex 8.32426 13.723 0
    endloop
  endfacet
  facet normal 0.98769 -0.156426 0
    outer loop
      vertex 5.73799 25.2933 1
      vertex 5.90997 26.3792 0
      vertex 5.90997 26.3792 1
    endloop
  endfacet
  facet normal 0.98769 -0.156426 0
    outer loop
      vertex 5.90997 26.3792 0
      vertex 5.73799 25.2933 1
      vertex 5.73799 25.2933 0
    endloop
  endfacet
  facet normal 0.999507 0.0314097 0
    outer loop
      vertex 5.63453 22.0012 1
      vertex 5.6 23.1 0
      vertex 5.6 23.1 1
    endloop
  endfacet
  facet normal 0.999507 0.0314097 0
    outer loop
      vertex 5.6 23.1 0
      vertex 5.63453 22.0012 1
      vertex 5.63453 22.0012 0
    endloop
  endfacet
  facet normal 0.750152 -0.661265 0
    outer loop
      vertex 9.61602 34.2549 1
      vertex 10.343 35.0796 0
      vertex 10.343 35.0796 1
    endloop
  endfacet
  facet normal 0.750152 -0.661265 0
    outer loop
      vertex 10.343 35.0796 0
      vertex 9.61602 34.2549 1
      vertex 9.61602 34.2549 0
    endloop
  endfacet
  facet normal 0.917745 -0.397171 0
    outer loop
      vertex 6.82891 29.5422 1
      vertex 7.26553 30.5511 0
      vertex 7.26553 30.5511 1
    endloop
  endfacet
  facet normal 0.917745 -0.397171 0
    outer loop
      vertex 7.26553 30.5511 0
      vertex 6.82891 29.5422 1
      vertex 6.82891 29.5422 0
    endloop
  endfacet
  facet normal 0.707107 0.707107 0
    outer loop
      vertex 11.1204 10.343 1
      vertex 10.343 11.1204 0
      vertex 10.343 11.1204 1
    endloop
  endfacet
  facet normal 0.707107 0.707107 0
    outer loop
      vertex 10.343 11.1204 0
      vertex 11.1204 10.343 1
      vertex 11.1204 10.343 0
    endloop
  endfacet
  facet normal 0.995562 0.0941077 0
    outer loop
      vertex 5.73799 20.9067 1
      vertex 5.63453 22.0012 0
      vertex 5.63453 22.0012 1
    endloop
  endfacet
  facet normal 0.995562 0.0941077 0
    outer loop
      vertex 5.63453 22.0012 0
      vertex 5.73799 20.9067 1
      vertex 5.73799 20.9067 0
    endloop
  endfacet
  facet normal 0.156426 0.98769 -0
    outer loop
      vertex 20.9067 5.73799 0
      vertex 19.8208 5.90997 1
      vertex 20.9067 5.73799 1
    endloop
  endfacet
  facet normal 0.156426 0.98769 0
    outer loop
      vertex 19.8208 5.90997 1
      vertex 20.9067 5.73799 0
      vertex 19.8208 5.90997 0
    endloop
  endfacet
  facet normal -0.509035 0.860746 0
    outer loop
      vertex 32.477 8.32426 0
      vertex 31.5307 7.76463 1
      vertex 32.477 8.32426 1
    endloop
  endfacet
  facet normal -0.509035 0.860746 0
    outer loop
      vertex 31.5307 7.76463 1
      vertex 32.477 8.32426 0
      vertex 31.5307 7.76463 0
    endloop
  endfacet
  facet normal -0.790169 -0.612888 0
    outer loop
      vertex 37.2578 33.3862 0
      vertex 36.584 34.2549 1
      vertex 36.584 34.2549 0
    endloop
  endfacet
  facet normal -0.790169 -0.612888 0
    outer loop
      vertex 36.584 34.2549 1
      vertex 37.2578 33.3862 0
      vertex 37.2578 33.3862 1
    endloop
  endfacet
  facet normal -0.6129 0.790161 0
    outer loop
      vertex 34.2549 9.61602 0
      vertex 33.3862 8.9422 1
      vertex 34.2549 9.61602 1
    endloop
  endfacet
  facet normal -0.6129 0.790161 0
    outer loop
      vertex 33.3862 8.9422 1
      vertex 34.2549 9.61602 0
      vertex 33.3862 8.9422 0
    endloop
  endfacet
  facet normal -0.661265 0.750152 0
    outer loop
      vertex 35.0796 10.343 0
      vertex 34.2549 9.61602 1
      vertex 35.0796 10.343 1
    endloop
  endfacet
  facet normal -0.661265 0.750152 0
    outer loop
      vertex 34.2549 9.61602 1
      vertex 35.0796 10.343 0
      vertex 34.2549 9.61602 0
    endloop
  endfacet
  facet normal 0.661265 0.750152 -0
    outer loop
      vertex 11.9451 9.61602 0
      vertex 11.1204 10.343 1
      vertex 11.9451 9.61602 1
    endloop
  endfacet
  facet normal 0.661265 0.750152 0
    outer loop
      vertex 11.1204 10.343 1
      vertex 11.9451 9.61602 0
      vertex 11.1204 10.343 0
    endloop
  endfacet
  facet normal 0.790161 -0.6129 0
    outer loop
      vertex 8.9422 33.3862 1
      vertex 9.61602 34.2549 0
      vertex 9.61602 34.2549 1
    endloop
  endfacet
  facet normal 0.790161 -0.6129 0
    outer loop
      vertex 9.61602 34.2549 0
      vertex 8.9422 33.3862 1
      vertex 8.9422 33.3862 0
    endloop
  endfacet
  facet normal 0.218142 0.975917 -0
    outer loop
      vertex 19.8208 5.90997 0
      vertex 18.7479 6.14979 1
      vertex 19.8208 5.90997 1
    endloop
  endfacet
  facet normal 0.218142 0.975917 0
    outer loop
      vertex 18.7479 6.14979 1
      vertex 19.8208 5.90997 0
      vertex 18.7479 6.14979 0
    endloop
  endfacet
  facet normal -0.278983 -0.960296 0
    outer loop
      vertex 27.4521 40.0502 0
      vertex 28.5078 39.7435 1
      vertex 27.4521 40.0502 1
    endloop
  endfacet
  facet normal -0.278983 -0.960296 -0
    outer loop
      vertex 28.5078 39.7435 1
      vertex 27.4521 40.0502 0
      vertex 28.5078 39.7435 0
    endloop
  endfacet
  facet normal 0.0941077 0.995562 -0
    outer loop
      vertex 22.0012 5.63453 0
      vertex 20.9067 5.73799 1
      vertex 22.0012 5.63453 1
    endloop
  endfacet
  facet normal 0.0941077 0.995562 0
    outer loop
      vertex 20.9067 5.73799 1
      vertex 22.0012 5.63453 0
      vertex 20.9067 5.73799 0
    endloop
  endfacet
  facet normal -1 0 0
    outer loop
      vertex 24.05 46.4 0
      vertex 24.05 44.6 1
      vertex 24.05 46.4 4
    endloop
  endfacet
  facet normal -1 0 0
    outer loop
      vertex 24.05 44.5 0
      vertex 24.05 44.6 1
      vertex 24.05 46.4 0
    endloop
  endfacet
  facet normal -1 -0 0
    outer loop
      vertex 24.05 44.6 1
      vertex 24.05 44.5 0
      vertex 24.05 44.5 1
    endloop
  endfacet
  facet normal -1 -0 0
    outer loop
      vertex 24.05 46.4 4
      vertex 24.05 44.6 1
      vertex 24.05 44.6 4
    endloop
  endfacet
  facet normal 1 0 0
    outer loop
      vertex 20.45 44.6 1
      vertex 20.45 46.2 4
      vertex 20.45 44.6 4
    endloop
  endfacet
  facet normal 1 0 0
    outer loop
      vertex 20.45 46.2 4
      vertex 20.45 44.6 1
      vertex 20.45 46.2 0
    endloop
  endfacet
  facet normal 1 0 0
    outer loop
      vertex 20.45 44.5 0
      vertex 20.45 44.6 1
      vertex 20.45 44.5 1
    endloop
  endfacet
  facet normal 1 0 0
    outer loop
      vertex 20.45 44.6 1
      vertex 20.45 44.5 0
      vertex 20.45 46.2 0
    endloop
  endfacet
  facet normal 0 -1 0
    outer loop
      vertex 22.25 46.4 0
      vertex 24.05 46.4 4
      vertex 22.25 46.4 4
    endloop
  endfacet
  facet normal 0 -1 -0
    outer loop
      vertex 24.05 46.4 4
      vertex 22.25 46.4 0
      vertex 24.05 46.4 0
    endloop
  endfacet
  facet normal 0 1 -0
    outer loop
      vertex 24.05 44.5 0
      vertex 20.45 44.5 1
      vertex 24.05 44.5 1
    endloop
  endfacet
  facet normal 0 1 0
    outer loop
      vertex 20.45 44.5 1
      vertex 24.05 44.5 0
      vertex 20.45 44.5 0
    endloop
  endfacet
  facet normal -1 0 0
    outer loop
      vertex 46.4 22.15 0
      vertex 46.4 23.95 4
      vertex 46.4 23.95 0
    endloop
  endfacet
  facet normal -1 -0 0
    outer loop
      vertex 46.4 23.95 4
      vertex 46.4 22.15 0
      vertex 46.4 22.15 4
    endloop
  endfacet
  facet normal 1 -0 0
    outer loop
      vertex 44.5 22.15 1
      vertex 44.5 25.75 0
      vertex 44.5 25.75 1
    endloop
  endfacet
  facet normal 1 0 0
    outer loop
      vertex 44.5 25.75 0
      vertex 44.5 22.15 1
      vertex 44.5 22.15 0
    endloop
  endfacet
  facet normal 0 -1 0
    outer loop
      vertex 44.5 25.75 1
      vertex 44.5 25.75 0
      vertex 44.6 25.75 1
    endloop
  endfacet
  facet normal 0 -1 0
    outer loop
      vertex 44.6 25.75 1
      vertex 46.2 25.75 4
      vertex 44.6 25.75 4
    endloop
  endfacet
  facet normal 0 -1 0
    outer loop
      vertex 46.2 25.75 0
      vertex 44.6 25.75 1
      vertex 44.5 25.75 0
    endloop
  endfacet
  facet normal 0 -1 0
    outer loop
      vertex 44.6 25.75 1
      vertex 46.2 25.75 0
      vertex 46.2 25.75 4
    endloop
  endfacet
  facet normal 0 1 0
    outer loop
      vertex 46.4 22.15 4
      vertex 44.6 22.15 1
      vertex 44.6 22.15 4
    endloop
  endfacet
  facet normal 0 1 -0
    outer loop
      vertex 46.4 22.15 0
      vertex 44.6 22.15 1
      vertex 46.4 22.15 4
    endloop
  endfacet
  facet normal 0 1 0
    outer loop
      vertex 44.5 22.15 0
      vertex 44.6 22.15 1
      vertex 46.4 22.15 0
    endloop
  endfacet
  facet normal 0 1 0
    outer loop
      vertex 44.6 22.15 1
      vertex 44.5 22.15 0
      vertex 44.5 22.15 1
    endloop
  endfacet
  facet normal -1 0 0
    outer loop
      vertex 25.75 1.7 0
      vertex 25.75 1.6 1
      vertex 25.75 1.7 1
    endloop
  endfacet
  facet normal -1 0 0
    outer loop
      vertex 25.75 0 0
      vertex 25.75 1.6 1
      vertex 25.75 1.7 0
    endloop
  endfacet
  facet normal -1 0 0
    outer loop
      vertex 25.75 0 4
      vertex 25.75 1.6 1
      vertex 25.75 0 0
    endloop
  endfacet
  facet normal -1 0 0
    outer loop
      vertex 25.75 1.6 1
      vertex 25.75 0 4
      vertex 25.75 1.6 4
    endloop
  endfacet
  facet normal 1 0 0
    outer loop
      vertex 22.15 1.6 4
      vertex 22.15 -0.2 4
      vertex 22.15 1.6 1
    endloop
  endfacet
  facet normal 1 -0 0
    outer loop
      vertex 22.15 1.6 1
      vertex 22.15 1.7 0
      vertex 22.15 1.7 1
    endloop
  endfacet
  facet normal 1 0 0
    outer loop
      vertex 22.15 -0.2 0
      vertex 22.15 1.6 1
      vertex 22.15 -0.2 4
    endloop
  endfacet
  facet normal 1 0 0
    outer loop
      vertex 22.15 1.6 1
      vertex 22.15 -0.2 0
      vertex 22.15 1.7 0
    endloop
  endfacet
  facet normal 0 -1 0
    outer loop
      vertex 22.15 1.7 0
      vertex 25.75 1.7 1
      vertex 22.15 1.7 1
    endloop
  endfacet
  facet normal 0 -1 -0
    outer loop
      vertex 25.75 1.7 1
      vertex 22.15 1.7 0
      vertex 25.75 1.7 0
    endloop
  endfacet
  facet normal 0 1 -0
    outer loop
      vertex 23.95 -0.2 0
      vertex 22.15 -0.2 4
      vertex 23.95 -0.2 4
    endloop
  endfacet
  facet normal 0 1 0
    outer loop
      vertex 22.15 -0.2 4
      vertex 23.95 -0.2 0
      vertex 22.15 -0.2 0
    endloop
  endfacet
  facet normal -1 0 0
    outer loop
      vertex 1.7 20.45 0
      vertex 1.7 24.05 1
      vertex 1.7 24.05 0
    endloop
  endfacet
  facet normal -1 -0 0
    outer loop
      vertex 1.7 24.05 1
      vertex 1.7 20.45 0
      vertex 1.7 20.45 1
    endloop
  endfacet
  facet normal 1 -0 0
    outer loop
      vertex -0.2 22.25 4
      vertex -0.2 24.05 0
      vertex -0.2 24.05 4
    endloop
  endfacet
  facet normal 1 0 0
    outer loop
      vertex -0.2 24.05 0
      vertex -0.2 22.25 4
      vertex -0.2 22.25 0
    endloop
  endfacet
  facet normal 0 -1 0
    outer loop
      vertex -0.2 24.05 4
      vertex 1.6 24.05 1
      vertex 1.6 24.05 4
    endloop
  endfacet
  facet normal 0 -1 0
    outer loop
      vertex -0.2 24.05 0
      vertex 1.6 24.05 1
      vertex -0.2 24.05 4
    endloop
  endfacet
  facet normal 0 -1 0
    outer loop
      vertex 1.7 24.05 0
      vertex 1.6 24.05 1
      vertex -0.2 24.05 0
    endloop
  endfacet
  facet normal 0 -1 0
    outer loop
      vertex 1.6 24.05 1
      vertex 1.7 24.05 0
      vertex 1.7 24.05 1
    endloop
  endfacet
  facet normal 0 1 0
    outer loop
      vertex 1.7 20.45 1
      vertex 1.7 20.45 0
      vertex 1.6 20.45 1
    endloop
  endfacet
  facet normal 0 1 -0
    outer loop
      vertex 1.6 20.45 1
      vertex 0 20.45 4
      vertex 1.6 20.45 4
    endloop
  endfacet
  facet normal 0 1 0
    outer loop
      vertex 0 20.45 0
      vertex 1.6 20.45 1
      vertex 1.7 20.45 0
    endloop
  endfacet
  facet normal 0 1 0
    outer loop
      vertex 1.6 20.45 1
      vertex 0 20.45 0
      vertex 0 20.45 4
    endloop
  endfacet
endsolid OpenSCAD_Model
