solid OpenSCAD_Model
  facet normal -1 0 0
    outer loop
      vertex 6.45 1.95 0
      vertex 6.45 4.95 1
      vertex 6.45 4.95 0
    endloop
  endfacet
  facet normal -1 -0 0
    outer loop
      vertex 6.45 4.95 1
      vertex 6.45 1.95 0
      vertex 6.45 1.95 1
    endloop
  endfacet
  facet normal 1 -0 0
    outer loop
      vertex 0.15 1.95 1
      vertex 0.15 4.95 0
      vertex 0.15 4.95 1
    endloop
  endfacet
  facet normal 1 0 0
    outer loop
      vertex 0.15 4.95 0
      vertex 0.15 1.95 1
      vertex 0.15 1.95 0
    endloop
  endfacet
  facet normal 0 -1 0
    outer loop
      vertex 0.15 4.95 0
      vertex 0.349999 4.95 1
      vertex 0.15 4.95 1
    endloop
  endfacet
  facet normal 0 -1 -0
    outer loop
      vertex 0.349999 4.95 1
      vertex 0.15 4.95 0
      vertex 0.349999 4.95 0
    endloop
  endfacet
  facet normal 0 -1 0
    outer loop
      vertex 6.25 4.95 0
      vertex 6.45 4.95 1
      vertex 6.25 4.95 1
    endloop
  endfacet
  facet normal 0 -1 -0
    outer loop
      vertex 6.45 4.95 1
      vertex 6.25 4.95 0
      vertex 6.45 4.95 0
    endloop
  endfacet
  facet normal 0 1 -0
    outer loop
      vertex 0.349999 1.95 0
      vertex 0.15 1.95 1
      vertex 0.349999 1.95 1
    endloop
  endfacet
  facet normal 0 1 0
    outer loop
      vertex 0.15 1.95 1
      vertex 0.349999 1.95 0
      vertex 0.15 1.95 0
    endloop
  endfacet
  facet normal 0 1 -0
    outer loop
      vertex 6.45 1.95 0
      vertex 6.25 1.95 1
      vertex 6.45 1.95 1
    endloop
  endfacet
  facet normal 0 1 0
    outer loop
      vertex 6.25 1.95 1
      vertex 6.45 1.95 0
      vertex 6.25 1.95 0
    endloop
  endfacet
  facet normal -1 0 0
    outer loop
      vertex 6.25 4.95 0
      vertex 6.25 5.1 1
      vertex 6.25 5.1 0
    endloop
  endfacet
  facet normal -1 -0 0
    outer loop
      vertex 6.25 5.1 1
      vertex 6.25 4.95 0
      vertex 6.25 4.95 1
    endloop
  endfacet
  facet normal -1 0 0
    outer loop
      vertex 6.25 1 0
      vertex 6.25 1.95 1
      vertex 6.25 1.95 0
    endloop
  endfacet
  facet normal -1 -0 0
    outer loop
      vertex 6.25 1.95 1
      vertex 6.25 1 0
      vertex 6.25 1 1
    endloop
  endfacet
  facet normal 1 -0 0
    outer loop
      vertex 0.349999 4.95 1
      vertex 0.349999 5.1 0
      vertex 0.349999 5.1 1
    endloop
  endfacet
  facet normal 1 0 0
    outer loop
      vertex 0.349999 5.1 0
      vertex 0.349999 4.95 1
      vertex 0.349999 4.95 0
    endloop
  endfacet
  facet normal 1 -0 0
    outer loop
      vertex 0.349999 1 1
      vertex 0.349999 1.95 0
      vertex 0.349999 1.95 1
    endloop
  endfacet
  facet normal 1 0 0
    outer loop
      vertex 0.349999 1.95 0
      vertex 0.349999 1 1
      vertex 0.349999 1 0
    endloop
  endfacet
  facet normal 0 1 -0
    outer loop
      vertex 6.25 1 0
      vertex 0.349999 1 1
      vertex 6.25 1 1
    endloop
  endfacet
  facet normal 0 1 0
    outer loop
      vertex 0.349999 1 1
      vertex 6.25 1 0
      vertex 0.349999 1 0
    endloop
  endfacet
  facet normal 1 -0 0
    outer loop
      vertex 6.6 0 1
      vertex 6.6 5.1 0
      vertex 6.6 5.1 1
    endloop
  endfacet
  facet normal 1 0 0
    outer loop
      vertex 6.6 5.1 0
      vertex 6.6 0 1
      vertex 6.6 0 0
    endloop
  endfacet
  facet normal 0 0 1
    outer loop
      vertex 0.349999 5.1 1
      vertex 0.15 4.95 1
      vertex 0.349999 4.95 1
    endloop
  endfacet
  facet normal 0 0 1
    outer loop
      vertex 0.15 4.95 1
      vertex 0 5.1 1
      vertex 0.15 1.95 1
    endloop
  endfacet
  facet normal -0 0 1
    outer loop
      vertex 0 5.1 1
      vertex 0.15 4.95 1
      vertex 0.349999 5.1 1
    endloop
  endfacet
  facet normal 0 0 1
    outer loop
      vertex 0.349999 1.95 1
      vertex 0.15 1.95 1
      vertex 0.349999 1 1
    endloop
  endfacet
  facet normal 0 0 1
    outer loop
      vertex 6.45 1.95 1
      vertex 6.6 5.1 1
      vertex 6.45 4.95 1
    endloop
  endfacet
  facet normal -0 0 1
    outer loop
      vertex 6.25 5.1 1
      vertex 6.45 4.95 1
      vertex 6.6 5.1 1
    endloop
  endfacet
  facet normal 0 0 1
    outer loop
      vertex 6.45 4.95 1
      vertex 6.25 5.1 1
      vertex 6.25 4.95 1
    endloop
  endfacet
  facet normal 0 0 1
    outer loop
      vertex 6.6 5.1 1
      vertex 6.45 1.95 1
      vertex 6.6 0 1
    endloop
  endfacet
  facet normal 0 0 1
    outer loop
      vertex 6.25 1 1
      vertex 6.45 1.95 1
      vertex 6.25 1.95 1
    endloop
  endfacet
  facet normal 0 0 1
    outer loop
      vertex 6.45 1.95 1
      vertex 6.25 1 1
      vertex 6.6 0 1
    endloop
  endfacet
  facet normal -0 0 1
    outer loop
      vertex 0.349999 1 1
      vertex 6.6 0 1
      vertex 6.25 1 1
    endloop
  endfacet
  facet normal 0 0 1
    outer loop
      vertex 0.349999 1 1
      vertex 0 0 1
      vertex 6.6 0 1
    endloop
  endfacet
  facet normal 0 0 1
    outer loop
      vertex 0.15 1.95 1
      vertex 0 0 1
      vertex 0.349999 1 1
    endloop
  endfacet
  facet normal 0 0 1
    outer loop
      vertex 0 0 1
      vertex 0.15 1.95 1
      vertex 0 5.1 1
    endloop
  endfacet
  facet normal 0 0 -1
    outer loop
      vertex 6.6 0 0
      vertex 6.45 1.95 0
      vertex 6.6 5.1 0
    endloop
  endfacet
  facet normal 0 0 -1
    outer loop
      vertex 6.6 0 0
      vertex 6.25 1 0
      vertex 6.45 1.95 0
    endloop
  endfacet
  facet normal 0 0 -1
    outer loop
      vertex 6.6 0 0
      vertex 0.349999 1 0
      vertex 6.25 1 0
    endloop
  endfacet
  facet normal 0 0 -1
    outer loop
      vertex 0.349999 1 0
      vertex 0.15 1.95 0
      vertex 0.349999 1.95 0
    endloop
  endfacet
  facet normal 0 0 -1
    outer loop
      vertex 0 5.1 0
      vertex 0.15 1.95 0
      vertex 0 0 0
    endloop
  endfacet
  facet normal -0 0 -1
    outer loop
      vertex 0.349999 1 0
      vertex 0 0 0
      vertex 0.15 1.95 0
    endloop
  endfacet
  facet normal 0 0 -1
    outer loop
      vertex 0 0 0
      vertex 0.349999 1 0
      vertex 6.6 0 0
    endloop
  endfacet
  facet normal 0 0 -1
    outer loop
      vertex 6.45 4.95 0
      vertex 6.6 5.1 0
      vertex 6.45 1.95 0
    endloop
  endfacet
  facet normal 0 0 -1
    outer loop
      vertex 6.25 5.1 0
      vertex 6.45 4.95 0
      vertex 6.25 4.95 0
    endloop
  endfacet
  facet normal 0 0 -1
    outer loop
      vertex 6.45 4.95 0
      vertex 6.25 5.1 0
      vertex 6.6 5.1 0
    endloop
  endfacet
  facet normal -0 0 -1
    outer loop
      vertex 6.45 1.95 0
      vertex 6.25 1 0
      vertex 6.25 1.95 0
    endloop
  endfacet
  facet normal 0 0 -1
    outer loop
      vertex 0.15 4.95 0
      vertex 0.349999 5.1 0
      vertex 0.349999 4.95 0
    endloop
  endfacet
  facet normal 0 0 -1
    outer loop
      vertex 0.15 4.95 0
      vertex 0 5.1 0
      vertex 0.349999 5.1 0
    endloop
  endfacet
  facet normal 0 0 -1
    outer loop
      vertex 0.15 1.95 0
      vertex 0 5.1 0
      vertex 0.15 4.95 0
    endloop
  endfacet
  facet normal -1 0 0
    outer loop
      vertex 0 0 0
      vertex 0 5.1 1
      vertex 0 5.1 0
    endloop
  endfacet
  facet normal -1 -0 0
    outer loop
      vertex 0 5.1 1
      vertex 0 0 0
      vertex 0 0 1
    endloop
  endfacet
  facet normal 0 1 -0
    outer loop
      vertex 0.349999 5.1 0
      vertex 0 5.1 1
      vertex 0.349999 5.1 1
    endloop
  endfacet
  facet normal 0 1 0
    outer loop
      vertex 0 5.1 1
      vertex 0.349999 5.1 0
      vertex 0 5.1 0
    endloop
  endfacet
  facet normal 0 1 -0
    outer loop
      vertex 6.6 5.1 0
      vertex 6.25 5.1 1
      vertex 6.6 5.1 1
    endloop
  endfacet
  facet normal 0 1 0
    outer loop
      vertex 6.25 5.1 1
      vertex 6.6 5.1 0
      vertex 6.25 5.1 0
    endloop
  endfacet
  facet normal 0 -1 0
    outer loop
      vertex 0 0 0
      vertex 6.6 0 1
      vertex 0 0 1
    endloop
  endfacet
  facet normal 0 -1 -0
    outer loop
      vertex 6.6 0 1
      vertex 0 0 0
      vertex 6.6 0 0
    endloop
  endfacet
endsolid OpenSCAD_Model
