solid OpenSCAD_Model
  facet normal -0.994521 0.104534 0
    outer loop
      vertex -20.5 0 -12.5
      vertex -20.052 4.26219 12.5
      vertex -20.052 4.26219 -12.5
    endloop
  endfacet
  facet normal -0.994521 0.104534 0
    outer loop
      vertex -20.052 4.26219 12.5
      vertex -20.5 0 -12.5
      vertex -20.5 0 12.5
    endloop
  endfacet
  facet normal 0.866019 -0.500011 0
    outer loop
      vertex 16.5848 -12.0496 12.5
      vertex 18.7277 -8.3381 -12.5
      vertex 18.7277 -8.3381 12.5
    endloop
  endfacet
  facet normal 0.866019 -0.500011 0
    outer loop
      vertex 18.7277 -8.3381 -12.5
      vertex 16.5848 -12.0496 12.5
      vertex 16.5848 -12.0496 -12.5
    endloop
  endfacet
  facet normal 0.207902 -0.97815 0
    outer loop
      vertex 2.14283 -20.3877 -12.5
      vertex 6.33485 -19.4967 12.5
      vertex 2.14283 -20.3877 12.5
    endloop
  endfacet
  facet normal 0.207902 -0.97815 0
    outer loop
      vertex 6.33485 -19.4967 12.5
      vertex 2.14283 -20.3877 -12.5
      vertex 6.33485 -19.4967 -12.5
    endloop
  endfacet
  facet normal 0.951059 0.309008 0
    outer loop
      vertex 20.052 4.26219 12.5
      vertex 18.7277 8.3381 -12.5
      vertex 18.7277 8.3381 12.5
    endloop
  endfacet
  facet normal 0.951059 0.309008 0
    outer loop
      vertex 18.7277 8.3381 -12.5
      vertex 20.052 4.26219 12.5
      vertex 20.052 4.26219 -12.5
    endloop
  endfacet
  facet normal 0.406749 0.91354 -0
    outer loop
      vertex 10.25 17.7535 -12.5
      vertex 6.33485 19.4967 12.5
      vertex 10.25 17.7535 12.5
    endloop
  endfacet
  facet normal 0.406749 0.91354 0
    outer loop
      vertex 6.33485 19.4967 12.5
      vertex 10.25 17.7535 -12.5
      vertex 6.33485 19.4967 -12.5
    endloop
  endfacet
  facet normal -0.207902 0.97815 0
    outer loop
      vertex -2.14283 20.3877 -12.5
      vertex -6.33485 19.4967 12.5
      vertex -2.14283 20.3877 12.5
    endloop
  endfacet
  facet normal -0.207902 0.97815 0
    outer loop
      vertex -6.33485 19.4967 12.5
      vertex -2.14283 20.3877 -12.5
      vertex -6.33485 19.4967 -12.5
    endloop
  endfacet
  facet normal -0.587775 0.809025 0
    outer loop
      vertex -10.25 17.7535 -12.5
      vertex -13.7172 15.2345 12.5
      vertex -10.25 17.7535 12.5
    endloop
  endfacet
  facet normal -0.587775 0.809025 0
    outer loop
      vertex -13.7172 15.2345 12.5
      vertex -10.25 17.7535 -12.5
      vertex -13.7172 15.2345 -12.5
    endloop
  endfacet
  facet normal 0.994521 -0.104534 0
    outer loop
      vertex 20.052 -4.26219 12.5
      vertex 20.5 0 -12.5
      vertex 20.5 0 12.5
    endloop
  endfacet
  facet normal 0.994521 -0.104534 0
    outer loop
      vertex 20.5 0 -12.5
      vertex 20.052 -4.26219 12.5
      vertex 20.052 -4.26219 -12.5
    endloop
  endfacet
  facet normal 0.994521 0.104534 0
    outer loop
      vertex 20.5 0 12.5
      vertex 20.052 4.26219 -12.5
      vertex 20.052 4.26219 12.5
    endloop
  endfacet
  facet normal 0.994521 0.104534 0
    outer loop
      vertex 20.052 4.26219 -12.5
      vertex 20.5 0 12.5
      vertex 20.5 0 -12.5
    endloop
  endfacet
  facet normal 0.207902 0.97815 -0
    outer loop
      vertex 6.33485 19.4967 -12.5
      vertex 2.14283 20.3877 12.5
      vertex 6.33485 19.4967 12.5
    endloop
  endfacet
  facet normal 0.207902 0.97815 0
    outer loop
      vertex 2.14283 20.3877 12.5
      vertex 6.33485 19.4967 -12.5
      vertex 2.14283 20.3877 -12.5
    endloop
  endfacet
  facet normal -0.951059 0.309008 0
    outer loop
      vertex -20.052 4.26219 -12.5
      vertex -18.7277 8.3381 12.5
      vertex -18.7277 8.3381 -12.5
    endloop
  endfacet
  facet normal -0.951059 0.309008 0
    outer loop
      vertex -18.7277 8.3381 12.5
      vertex -20.052 4.26219 -12.5
      vertex -20.052 4.26219 12.5
    endloop
  endfacet
  facet normal -0.951059 -0.309008 0
    outer loop
      vertex -18.7277 -8.3381 -12.5
      vertex -20.052 -4.26219 12.5
      vertex -20.052 -4.26219 -12.5
    endloop
  endfacet
  facet normal -0.951059 -0.309008 0
    outer loop
      vertex -20.052 -4.26219 12.5
      vertex -18.7277 -8.3381 -12.5
      vertex -18.7277 -8.3381 12.5
    endloop
  endfacet
  facet normal -0.866019 0.500011 0
    outer loop
      vertex -18.7277 8.3381 -12.5
      vertex -16.5848 12.0496 12.5
      vertex -16.5848 12.0496 -12.5
    endloop
  endfacet
  facet normal -0.866019 0.500011 0
    outer loop
      vertex -16.5848 12.0496 12.5
      vertex -18.7277 8.3381 -12.5
      vertex -18.7277 8.3381 12.5
    endloop
  endfacet
  facet normal -0.207902 -0.97815 0
    outer loop
      vertex -6.33485 -19.4967 -12.5
      vertex -2.14283 -20.3877 12.5
      vertex -6.33485 -19.4967 12.5
    endloop
  endfacet
  facet normal -0.207902 -0.97815 -0
    outer loop
      vertex -2.14283 -20.3877 12.5
      vertex -6.33485 -19.4967 -12.5
      vertex -2.14283 -20.3877 -12.5
    endloop
  endfacet
  facet normal 0.743156 0.669118 0
    outer loop
      vertex 16.5848 12.0496 12.5
      vertex 13.7172 15.2345 -12.5
      vertex 13.7172 15.2345 12.5
    endloop
  endfacet
  facet normal 0.743156 0.669118 0
    outer loop
      vertex 13.7172 15.2345 -12.5
      vertex 16.5848 12.0496 12.5
      vertex 16.5848 12.0496 -12.5
    endloop
  endfacet
  facet normal 0 0 -1
    outer loop
      vertex 20.5 0 12.5
      vertex 23.5 0 12.5
      vertex 22.9865 -4.88592 12.5
    endloop
  endfacet
  facet normal 0 0 -1
    outer loop
      vertex 20.052 -4.26219 12.5
      vertex 22.9865 -4.88592 12.5
      vertex 21.4683 -9.55831 12.5
    endloop
  endfacet
  facet normal 0 0 -1
    outer loop
      vertex 23.5 0 12.5
      vertex 20.5 0 12.5
      vertex 22.9865 4.88592 12.5
    endloop
  endfacet
  facet normal 0 0 -1
    outer loop
      vertex 20.052 4.26219 12.5
      vertex 22.9865 4.88592 12.5
      vertex 20.5 0 12.5
    endloop
  endfacet
  facet normal 0 0 -1
    outer loop
      vertex 22.9865 -4.88592 12.5
      vertex 20.052 -4.26219 12.5
      vertex 20.5 0 12.5
    endloop
  endfacet
  facet normal 0 0 -1
    outer loop
      vertex 18.7277 -8.3381 12.5
      vertex 21.4683 -9.55831 12.5
      vertex 19.0119 -13.813 12.5
    endloop
  endfacet
  facet normal 0 0 -1
    outer loop
      vertex 21.4683 -9.55831 12.5
      vertex 18.7277 -8.3381 12.5
      vertex 20.052 -4.26219 12.5
    endloop
  endfacet
  facet normal 0 0 -1
    outer loop
      vertex 19.0119 -13.813 12.5
      vertex 16.5848 -12.0496 12.5
      vertex 18.7277 -8.3381 12.5
    endloop
  endfacet
  facet normal 0 0 -1
    outer loop
      vertex 15.7246 -17.4639 12.5
      vertex 16.5848 -12.0496 12.5
      vertex 19.0119 -13.813 12.5
    endloop
  endfacet
  facet normal 0 0 -1
    outer loop
      vertex 15.7246 -17.4639 12.5
      vertex 13.7172 -15.2345 12.5
      vertex 16.5848 -12.0496 12.5
    endloop
  endfacet
  facet normal 0 0 -1
    outer loop
      vertex 11.75 -20.3516 12.5
      vertex 13.7172 -15.2345 12.5
      vertex 15.7246 -17.4639 12.5
    endloop
  endfacet
  facet normal 0 0 -1
    outer loop
      vertex 11.75 -20.3516 12.5
      vertex 10.25 -17.7535 12.5
      vertex 13.7172 -15.2345 12.5
    endloop
  endfacet
  facet normal 0 0 -1
    outer loop
      vertex 7.2619 -22.3498 12.5
      vertex 10.25 -17.7535 12.5
      vertex 11.75 -20.3516 12.5
    endloop
  endfacet
  facet normal 0 0 -1
    outer loop
      vertex 7.2619 -22.3498 12.5
      vertex 6.33485 -19.4967 12.5
      vertex 10.25 -17.7535 12.5
    endloop
  endfacet
  facet normal 0 0 -1
    outer loop
      vertex 2.45642 -23.3713 12.5
      vertex 6.33485 -19.4967 12.5
      vertex 7.2619 -22.3498 12.5
    endloop
  endfacet
  facet normal 0 0 -1
    outer loop
      vertex 2.45642 -23.3713 12.5
      vertex 2.14283 -20.3877 12.5
      vertex 6.33485 -19.4967 12.5
    endloop
  endfacet
  facet normal 0 0 -1
    outer loop
      vertex 2.45642 -23.3713 12.5
      vertex -2.14283 -20.3877 12.5
      vertex 2.14283 -20.3877 12.5
    endloop
  endfacet
  facet normal 0 0 -1
    outer loop
      vertex -2.45642 -23.3713 12.5
      vertex -2.14283 -20.3877 12.5
      vertex 2.45642 -23.3713 12.5
    endloop
  endfacet
  facet normal 0 0 -1
    outer loop
      vertex -2.45642 -23.3713 12.5
      vertex -6.33485 -19.4967 12.5
      vertex -2.14283 -20.3877 12.5
    endloop
  endfacet
  facet normal 0 0 -1
    outer loop
      vertex -7.2619 -22.3498 12.5
      vertex -6.33485 -19.4967 12.5
      vertex -2.45642 -23.3713 12.5
    endloop
  endfacet
  facet normal 0 0 -1
    outer loop
      vertex -7.2619 -22.3498 12.5
      vertex -10.25 -17.7535 12.5
      vertex -6.33485 -19.4967 12.5
    endloop
  endfacet
  facet normal 0 0 -1
    outer loop
      vertex -11.75 -20.3516 12.5
      vertex -10.25 -17.7535 12.5
      vertex -7.2619 -22.3498 12.5
    endloop
  endfacet
  facet normal 0 0 -1
    outer loop
      vertex -11.75 -20.3516 12.5
      vertex -13.7172 -15.2345 12.5
      vertex -10.25 -17.7535 12.5
    endloop
  endfacet
  facet normal 0 0 -1
    outer loop
      vertex -15.7246 -17.4639 12.5
      vertex -13.7172 -15.2345 12.5
      vertex -11.75 -20.3516 12.5
    endloop
  endfacet
  facet normal 0 0 -1
    outer loop
      vertex -15.7246 -17.4639 12.5
      vertex -16.5848 -12.0496 12.5
      vertex -13.7172 -15.2345 12.5
    endloop
  endfacet
  facet normal 0 0 -1
    outer loop
      vertex -19.0119 -13.813 12.5
      vertex -16.5848 -12.0496 12.5
      vertex -15.7246 -17.4639 12.5
    endloop
  endfacet
  facet normal -0 0 -1
    outer loop
      vertex -16.5848 -12.0496 12.5
      vertex -19.0119 -13.813 12.5
      vertex -18.7277 -8.3381 12.5
    endloop
  endfacet
  facet normal 0 0 -1
    outer loop
      vertex -21.4683 -9.55831 12.5
      vertex -18.7277 -8.3381 12.5
      vertex -19.0119 -13.813 12.5
    endloop
  endfacet
  facet normal 0 0 -1
    outer loop
      vertex -22.9865 -4.88592 12.5
      vertex -20.052 -4.26219 12.5
      vertex -21.4683 -9.55831 12.5
    endloop
  endfacet
  facet normal -0 0 -1
    outer loop
      vertex -18.7277 -8.3381 12.5
      vertex -21.4683 -9.55831 12.5
      vertex -20.052 -4.26219 12.5
    endloop
  endfacet
  facet normal -0 0 -1
    outer loop
      vertex 22.9865 4.88592 12.5
      vertex 20.052 4.26219 12.5
      vertex 21.4683 9.55831 12.5
    endloop
  endfacet
  facet normal 0 0 -1
    outer loop
      vertex 18.7277 8.3381 12.5
      vertex 21.4683 9.55831 12.5
      vertex 20.052 4.26219 12.5
    endloop
  endfacet
  facet normal -0 0 -1
    outer loop
      vertex 21.4683 9.55831 12.5
      vertex 18.7277 8.3381 12.5
      vertex 19.0119 13.813 12.5
    endloop
  endfacet
  facet normal 0 0 -1
    outer loop
      vertex 16.5848 12.0496 12.5
      vertex 19.0119 13.813 12.5
      vertex 18.7277 8.3381 12.5
    endloop
  endfacet
  facet normal 0 0 -1
    outer loop
      vertex 16.5848 12.0496 12.5
      vertex 15.7246 17.4639 12.5
      vertex 19.0119 13.813 12.5
    endloop
  endfacet
  facet normal 0 0 -1
    outer loop
      vertex 13.7172 15.2345 12.5
      vertex 15.7246 17.4639 12.5
      vertex 16.5848 12.0496 12.5
    endloop
  endfacet
  facet normal 0 0 -1
    outer loop
      vertex 13.7172 15.2345 12.5
      vertex 11.75 20.3516 12.5
      vertex 15.7246 17.4639 12.5
    endloop
  endfacet
  facet normal 0 0 -1
    outer loop
      vertex 10.25 17.7535 12.5
      vertex 11.75 20.3516 12.5
      vertex 13.7172 15.2345 12.5
    endloop
  endfacet
  facet normal 0 0 -1
    outer loop
      vertex 10.25 17.7535 12.5
      vertex 7.2619 22.3498 12.5
      vertex 11.75 20.3516 12.5
    endloop
  endfacet
  facet normal 0 0 -1
    outer loop
      vertex 6.33485 19.4967 12.5
      vertex 7.2619 22.3498 12.5
      vertex 10.25 17.7535 12.5
    endloop
  endfacet
  facet normal 0 0 -1
    outer loop
      vertex 6.33485 19.4967 12.5
      vertex 2.45642 23.3713 12.5
      vertex 7.2619 22.3498 12.5
    endloop
  endfacet
  facet normal 0 0 -1
    outer loop
      vertex 2.14283 20.3877 12.5
      vertex 2.45642 23.3713 12.5
      vertex 6.33485 19.4967 12.5
    endloop
  endfacet
  facet normal 0 0 -1
    outer loop
      vertex -2.14283 20.3877 12.5
      vertex 2.45642 23.3713 12.5
      vertex 2.14283 20.3877 12.5
    endloop
  endfacet
  facet normal 0 0 -1
    outer loop
      vertex -2.14283 20.3877 12.5
      vertex -2.45642 23.3713 12.5
      vertex 2.45642 23.3713 12.5
    endloop
  endfacet
  facet normal 0 0 -1
    outer loop
      vertex -6.33485 19.4967 12.5
      vertex -2.45642 23.3713 12.5
      vertex -2.14283 20.3877 12.5
    endloop
  endfacet
  facet normal 0 0 -1
    outer loop
      vertex -6.33485 19.4967 12.5
      vertex -7.2619 22.3498 12.5
      vertex -2.45642 23.3713 12.5
    endloop
  endfacet
  facet normal 0 0 -1
    outer loop
      vertex -10.25 17.7535 12.5
      vertex -7.2619 22.3498 12.5
      vertex -6.33485 19.4967 12.5
    endloop
  endfacet
  facet normal 0 0 -1
    outer loop
      vertex -10.25 17.7535 12.5
      vertex -11.75 20.3516 12.5
      vertex -7.2619 22.3498 12.5
    endloop
  endfacet
  facet normal 0 0 -1
    outer loop
      vertex -13.7172 15.2345 12.5
      vertex -11.75 20.3516 12.5
      vertex -10.25 17.7535 12.5
    endloop
  endfacet
  facet normal 0 0 -1
    outer loop
      vertex -13.7172 15.2345 12.5
      vertex -15.7246 17.4639 12.5
      vertex -11.75 20.3516 12.5
    endloop
  endfacet
  facet normal 0 0 -1
    outer loop
      vertex -16.5848 12.0496 12.5
      vertex -15.7246 17.4639 12.5
      vertex -13.7172 15.2345 12.5
    endloop
  endfacet
  facet normal 0 0 -1
    outer loop
      vertex -19.0119 13.813 12.5
      vertex -16.5848 12.0496 12.5
      vertex -18.7277 8.3381 12.5
    endloop
  endfacet
  facet normal 0 0 -1
    outer loop
      vertex -16.5848 12.0496 12.5
      vertex -19.0119 13.813 12.5
      vertex -15.7246 17.4639 12.5
    endloop
  endfacet
  facet normal 0 0 -1
    outer loop
      vertex -21.4683 9.55831 12.5
      vertex -18.7277 8.3381 12.5
      vertex -20.052 4.26219 12.5
    endloop
  endfacet
  facet normal 0 0 -1
    outer loop
      vertex -18.7277 8.3381 12.5
      vertex -21.4683 9.55831 12.5
      vertex -19.0119 13.813 12.5
    endloop
  endfacet
  facet normal 0 0 -1
    outer loop
      vertex -22.9865 4.88592 12.5
      vertex -20.052 4.26219 12.5
      vertex -20.5 0 12.5
    endloop
  endfacet
  facet normal -0 0 -1
    outer loop
      vertex -20.052 -4.26219 12.5
      vertex -22.9865 -4.88592 12.5
      vertex -20.5 0 12.5
    endloop
  endfacet
  facet normal 0 0 -1
    outer loop
      vertex -23.5 0 12.5
      vertex -20.5 0 12.5
      vertex -22.9865 -4.88592 12.5
    endloop
  endfacet
  facet normal 0 0 -1
    outer loop
      vertex -20.052 4.26219 12.5
      vertex -22.9865 4.88592 12.5
      vertex -21.4683 9.55831 12.5
    endloop
  endfacet
  facet normal 0 0 -1
    outer loop
      vertex -20.5 0 12.5
      vertex -23.5 0 12.5
      vertex -22.9865 4.88592 12.5
    endloop
  endfacet
  facet normal 0 0 -1
    outer loop
      vertex 15.1613 -3.22263 12.5
      vertex 15.1613 3.22263 12.5
      vertex 15.5 0 12.5
    endloop
  endfacet
  facet normal 0 0 -1
    outer loop
      vertex 14.16 -6.30442 12.5
      vertex 15.1613 3.22263 12.5
      vertex 15.1613 -3.22263 12.5
    endloop
  endfacet
  facet normal 0 0 -1
    outer loop
      vertex 14.16 -6.30442 12.5
      vertex 14.16 6.30442 12.5
      vertex 15.1613 3.22263 12.5
    endloop
  endfacet
  facet normal 0 0 -1
    outer loop
      vertex 12.5398 -9.11067 12.5
      vertex 14.16 6.30442 12.5
      vertex 14.16 -6.30442 12.5
    endloop
  endfacet
  facet normal 0 0 -1
    outer loop
      vertex 12.5398 -9.11067 12.5
      vertex 12.5398 9.11067 12.5
      vertex 14.16 6.30442 12.5
    endloop
  endfacet
  facet normal 0 0 -1
    outer loop
      vertex 10.3715 -11.5187 12.5
      vertex 12.5398 9.11067 12.5
      vertex 12.5398 -9.11067 12.5
    endloop
  endfacet
  facet normal 0 0 -1
    outer loop
      vertex 10.3715 -11.5187 12.5
      vertex 10.3715 11.5187 12.5
      vertex 12.5398 9.11067 12.5
    endloop
  endfacet
  facet normal 0 0 -1
    outer loop
      vertex 7.75 -13.4234 12.5
      vertex 10.3715 11.5187 12.5
      vertex 10.3715 -11.5187 12.5
    endloop
  endfacet
  facet normal 0 0 -1
    outer loop
      vertex 7.75 -13.4234 12.5
      vertex 7.75 13.4234 12.5
      vertex 10.3715 11.5187 12.5
    endloop
  endfacet
  facet normal 0 0 -1
    outer loop
      vertex 4.78976 -14.7414 12.5
      vertex 7.75 13.4234 12.5
      vertex 7.75 -13.4234 12.5
    endloop
  endfacet
  facet normal 0 0 -1
    outer loop
      vertex 4.78976 -14.7414 12.5
      vertex 4.78976 14.7414 12.5
      vertex 7.75 13.4234 12.5
    endloop
  endfacet
  facet normal 0 0 -1
    outer loop
      vertex 1.62019 -15.4151 12.5
      vertex 4.78976 14.7414 12.5
      vertex 4.78976 -14.7414 12.5
    endloop
  endfacet
  facet normal 0 0 -1
    outer loop
      vertex 1.62019 -15.4151 12.5
      vertex 1.62019 15.4151 12.5
      vertex 4.78976 14.7414 12.5
    endloop
  endfacet
  facet normal 0 0 -1
    outer loop
      vertex -1.62019 -15.4151 12.5
      vertex 1.62019 15.4151 12.5
      vertex 1.62019 -15.4151 12.5
    endloop
  endfacet
  facet normal 0 0 -1
    outer loop
      vertex -1.62019 -15.4151 12.5
      vertex -1.62019 15.4151 12.5
      vertex 1.62019 15.4151 12.5
    endloop
  endfacet
  facet normal 0 0 -1
    outer loop
      vertex -4.78976 -14.7414 12.5
      vertex -1.62019 15.4151 12.5
      vertex -1.62019 -15.4151 12.5
    endloop
  endfacet
  facet normal 0 0 -1
    outer loop
      vertex -4.78976 -14.7414 12.5
      vertex -4.78976 14.7414 12.5
      vertex -1.62019 15.4151 12.5
    endloop
  endfacet
  facet normal 0 0 -1
    outer loop
      vertex -7.75 -13.4234 12.5
      vertex -4.78976 14.7414 12.5
      vertex -4.78976 -14.7414 12.5
    endloop
  endfacet
  facet normal 0 0 -1
    outer loop
      vertex -7.75 -13.4234 12.5
      vertex -7.75 13.4234 12.5
      vertex -4.78976 14.7414 12.5
    endloop
  endfacet
  facet normal 0 0 -1
    outer loop
      vertex -10.3715 -11.5187 12.5
      vertex -7.75 13.4234 12.5
      vertex -7.75 -13.4234 12.5
    endloop
  endfacet
  facet normal 0 0 -1
    outer loop
      vertex -10.3715 -11.5187 12.5
      vertex -10.3715 11.5187 12.5
      vertex -7.75 13.4234 12.5
    endloop
  endfacet
  facet normal 0 0 -1
    outer loop
      vertex -12.5398 -9.11067 12.5
      vertex -10.3715 11.5187 12.5
      vertex -10.3715 -11.5187 12.5
    endloop
  endfacet
  facet normal 0 0 -1
    outer loop
      vertex -12.5398 -9.11067 12.5
      vertex -12.5398 9.11067 12.5
      vertex -10.3715 11.5187 12.5
    endloop
  endfacet
  facet normal 0 0 -1
    outer loop
      vertex -14.16 -6.30442 12.5
      vertex -12.5398 9.11067 12.5
      vertex -12.5398 -9.11067 12.5
    endloop
  endfacet
  facet normal 0 0 -1
    outer loop
      vertex -14.16 -6.30442 12.5
      vertex -14.16 6.30442 12.5
      vertex -12.5398 9.11067 12.5
    endloop
  endfacet
  facet normal 0 0 -1
    outer loop
      vertex -15.1613 -3.22263 12.5
      vertex -14.16 6.30442 12.5
      vertex -14.16 -6.30442 12.5
    endloop
  endfacet
  facet normal 0 0 -1
    outer loop
      vertex -15.1613 -3.22263 12.5
      vertex -15.1613 3.22263 12.5
      vertex -14.16 6.30442 12.5
    endloop
  endfacet
  facet normal 0 -0 -1
    outer loop
      vertex -15.1613 3.22263 12.5
      vertex -15.1613 -3.22263 12.5
      vertex -15.5 0 12.5
    endloop
  endfacet
  facet normal 0 -1 0
    outer loop
      vertex -2.14283 -20.3877 -12.5
      vertex 2.14283 -20.3877 12.5
      vertex -2.14283 -20.3877 12.5
    endloop
  endfacet
  facet normal 0 -1 -0
    outer loop
      vertex 2.14283 -20.3877 12.5
      vertex -2.14283 -20.3877 -12.5
      vertex 2.14283 -20.3877 -12.5
    endloop
  endfacet
  facet normal 0.866019 0.500011 0
    outer loop
      vertex 18.7277 8.3381 12.5
      vertex 16.5848 12.0496 -12.5
      vertex 16.5848 12.0496 12.5
    endloop
  endfacet
  facet normal 0.866019 0.500011 0
    outer loop
      vertex 16.5848 12.0496 -12.5
      vertex 18.7277 8.3381 12.5
      vertex 18.7277 8.3381 -12.5
    endloop
  endfacet
  facet normal 0.951059 -0.309008 0
    outer loop
      vertex 18.7277 -8.3381 12.5
      vertex 20.052 -4.26219 -12.5
      vertex 20.052 -4.26219 12.5
    endloop
  endfacet
  facet normal 0.951059 -0.309008 0
    outer loop
      vertex 20.052 -4.26219 -12.5
      vertex 18.7277 -8.3381 12.5
      vertex 18.7277 -8.3381 -12.5
    endloop
  endfacet
  facet normal 0.406749 -0.91354 0
    outer loop
      vertex 6.33485 -19.4967 -12.5
      vertex 10.25 -17.7535 12.5
      vertex 6.33485 -19.4967 12.5
    endloop
  endfacet
  facet normal 0.406749 -0.91354 0
    outer loop
      vertex 10.25 -17.7535 12.5
      vertex 6.33485 -19.4967 -12.5
      vertex 10.25 -17.7535 -12.5
    endloop
  endfacet
  facet normal -0.743156 0.669118 0
    outer loop
      vertex -16.5848 12.0496 -12.5
      vertex -13.7172 15.2345 12.5
      vertex -13.7172 15.2345 -12.5
    endloop
  endfacet
  facet normal -0.743156 0.669118 0
    outer loop
      vertex -13.7172 15.2345 12.5
      vertex -16.5848 12.0496 -12.5
      vertex -16.5848 12.0496 12.5
    endloop
  endfacet
  facet normal -0.406749 -0.91354 0
    outer loop
      vertex -10.25 -17.7535 -12.5
      vertex -6.33485 -19.4967 12.5
      vertex -10.25 -17.7535 12.5
    endloop
  endfacet
  facet normal -0.406749 -0.91354 -0
    outer loop
      vertex -6.33485 -19.4967 12.5
      vertex -10.25 -17.7535 -12.5
      vertex -6.33485 -19.4967 -12.5
    endloop
  endfacet
  facet normal 0.587775 -0.809025 0
    outer loop
      vertex 10.25 -17.7535 -12.5
      vertex 13.7172 -15.2345 12.5
      vertex 10.25 -17.7535 12.5
    endloop
  endfacet
  facet normal 0.587775 -0.809025 0
    outer loop
      vertex 13.7172 -15.2345 12.5
      vertex 10.25 -17.7535 -12.5
      vertex 13.7172 -15.2345 -12.5
    endloop
  endfacet
  facet normal -0.587775 -0.809025 0
    outer loop
      vertex -13.7172 -15.2345 -12.5
      vertex -10.25 -17.7535 12.5
      vertex -13.7172 -15.2345 12.5
    endloop
  endfacet
  facet normal -0.587775 -0.809025 -0
    outer loop
      vertex -10.25 -17.7535 12.5
      vertex -13.7172 -15.2345 -12.5
      vertex -10.25 -17.7535 -12.5
    endloop
  endfacet
  facet normal 0 1 -0
    outer loop
      vertex 2.14283 20.3877 -12.5
      vertex -2.14283 20.3877 12.5
      vertex 2.14283 20.3877 12.5
    endloop
  endfacet
  facet normal 0 1 0
    outer loop
      vertex -2.14283 20.3877 12.5
      vertex 2.14283 20.3877 -12.5
      vertex -2.14283 20.3877 -12.5
    endloop
  endfacet
  facet normal 0.587775 0.809025 -0
    outer loop
      vertex 13.7172 15.2345 -12.5
      vertex 10.25 17.7535 12.5
      vertex 13.7172 15.2345 12.5
    endloop
  endfacet
  facet normal 0.587775 0.809025 0
    outer loop
      vertex 10.25 17.7535 12.5
      vertex 13.7172 15.2345 -12.5
      vertex 10.25 17.7535 -12.5
    endloop
  endfacet
  facet normal 0.743156 -0.669118 0
    outer loop
      vertex 13.7172 -15.2345 12.5
      vertex 16.5848 -12.0496 -12.5
      vertex 16.5848 -12.0496 12.5
    endloop
  endfacet
  facet normal 0.743156 -0.669118 0
    outer loop
      vertex 16.5848 -12.0496 -12.5
      vertex 13.7172 -15.2345 12.5
      vertex 13.7172 -15.2345 -12.5
    endloop
  endfacet
  facet normal -0.406749 0.91354 0
    outer loop
      vertex -6.33485 19.4967 -12.5
      vertex -10.25 17.7535 12.5
      vertex -6.33485 19.4967 12.5
    endloop
  endfacet
  facet normal -0.406749 0.91354 0
    outer loop
      vertex -10.25 17.7535 12.5
      vertex -6.33485 19.4967 -12.5
      vertex -10.25 17.7535 -12.5
    endloop
  endfacet
  facet normal 0 0 -1
    outer loop
      vertex 15.5 0 -12.5
      vertex 20.5 0 -12.5
      vertex 20.052 -4.26219 -12.5
    endloop
  endfacet
  facet normal 0 0 -1
    outer loop
      vertex 15.1613 -3.22263 -12.5
      vertex 20.052 -4.26219 -12.5
      vertex 18.7277 -8.3381 -12.5
    endloop
  endfacet
  facet normal 0 0 -1
    outer loop
      vertex 20.5 0 -12.5
      vertex 15.5 0 -12.5
      vertex 20.052 4.26219 -12.5
    endloop
  endfacet
  facet normal 0 0 -1
    outer loop
      vertex 14.16 -6.30442 -12.5
      vertex 18.7277 -8.3381 -12.5
      vertex 16.5848 -12.0496 -12.5
    endloop
  endfacet
  facet normal 0 0 -1
    outer loop
      vertex 15.1613 3.22263 -12.5
      vertex 20.052 4.26219 -12.5
      vertex 15.5 0 -12.5
    endloop
  endfacet
  facet normal -0 0 -1
    outer loop
      vertex 20.052 4.26219 -12.5
      vertex 15.1613 3.22263 -12.5
      vertex 18.7277 8.3381 -12.5
    endloop
  endfacet
  facet normal 0 0 -1
    outer loop
      vertex 20.052 -4.26219 -12.5
      vertex 15.1613 -3.22263 -12.5
      vertex 15.5 0 -12.5
    endloop
  endfacet
  facet normal 0 0 -1
    outer loop
      vertex 18.7277 -8.3381 -12.5
      vertex 14.16 -6.30442 -12.5
      vertex 15.1613 -3.22263 -12.5
    endloop
  endfacet
  facet normal 0 0 -1
    outer loop
      vertex 12.5398 -9.11067 -12.5
      vertex 16.5848 -12.0496 -12.5
      vertex 13.7172 -15.2345 -12.5
    endloop
  endfacet
  facet normal 0 0 -1
    outer loop
      vertex 16.5848 -12.0496 -12.5
      vertex 12.5398 -9.11067 -12.5
      vertex 14.16 -6.30442 -12.5
    endloop
  endfacet
  facet normal 0 0 -1
    outer loop
      vertex 13.7172 -15.2345 -12.5
      vertex 10.3715 -11.5187 -12.5
      vertex 12.5398 -9.11067 -12.5
    endloop
  endfacet
  facet normal 0 0 -1
    outer loop
      vertex 10.25 -17.7535 -12.5
      vertex 10.3715 -11.5187 -12.5
      vertex 13.7172 -15.2345 -12.5
    endloop
  endfacet
  facet normal 0 0 -1
    outer loop
      vertex 10.25 -17.7535 -12.5
      vertex 7.75 -13.4234 -12.5
      vertex 10.3715 -11.5187 -12.5
    endloop
  endfacet
  facet normal 0 0 -1
    outer loop
      vertex 6.33485 -19.4967 -12.5
      vertex 7.75 -13.4234 -12.5
      vertex 10.25 -17.7535 -12.5
    endloop
  endfacet
  facet normal 0 0 -1
    outer loop
      vertex 6.33485 -19.4967 -12.5
      vertex 4.78976 -14.7414 -12.5
      vertex 7.75 -13.4234 -12.5
    endloop
  endfacet
  facet normal 0 0 -1
    outer loop
      vertex 2.14283 -20.3877 -12.5
      vertex 4.78976 -14.7414 -12.5
      vertex 6.33485 -19.4967 -12.5
    endloop
  endfacet
  facet normal 0 0 -1
    outer loop
      vertex 2.14283 -20.3877 -12.5
      vertex 1.62019 -15.4151 -12.5
      vertex 4.78976 -14.7414 -12.5
    endloop
  endfacet
  facet normal 0 0 -1
    outer loop
      vertex 2.14283 -20.3877 -12.5
      vertex -1.62019 -15.4151 -12.5
      vertex 1.62019 -15.4151 -12.5
    endloop
  endfacet
  facet normal 0 0 -1
    outer loop
      vertex -2.14283 -20.3877 -12.5
      vertex -1.62019 -15.4151 -12.5
      vertex 2.14283 -20.3877 -12.5
    endloop
  endfacet
  facet normal 0 0 -1
    outer loop
      vertex -2.14283 -20.3877 -12.5
      vertex -4.78976 -14.7414 -12.5
      vertex -1.62019 -15.4151 -12.5
    endloop
  endfacet
  facet normal 0 0 -1
    outer loop
      vertex -6.33485 -19.4967 -12.5
      vertex -4.78976 -14.7414 -12.5
      vertex -2.14283 -20.3877 -12.5
    endloop
  endfacet
  facet normal 0 0 -1
    outer loop
      vertex -6.33485 -19.4967 -12.5
      vertex -7.75 -13.4234 -12.5
      vertex -4.78976 -14.7414 -12.5
    endloop
  endfacet
  facet normal 0 0 -1
    outer loop
      vertex -10.25 -17.7535 -12.5
      vertex -7.75 -13.4234 -12.5
      vertex -6.33485 -19.4967 -12.5
    endloop
  endfacet
  facet normal 0 0 -1
    outer loop
      vertex -10.25 -17.7535 -12.5
      vertex -10.3715 -11.5187 -12.5
      vertex -7.75 -13.4234 -12.5
    endloop
  endfacet
  facet normal 0 0 -1
    outer loop
      vertex -13.7172 -15.2345 -12.5
      vertex -10.3715 -11.5187 -12.5
      vertex -10.25 -17.7535 -12.5
    endloop
  endfacet
  facet normal -0 0 -1
    outer loop
      vertex -10.3715 -11.5187 -12.5
      vertex -13.7172 -15.2345 -12.5
      vertex -12.5398 -9.11067 -12.5
    endloop
  endfacet
  facet normal 0 0 -1
    outer loop
      vertex -16.5848 -12.0496 -12.5
      vertex -12.5398 -9.11067 -12.5
      vertex -13.7172 -15.2345 -12.5
    endloop
  endfacet
  facet normal -0 0 -1
    outer loop
      vertex -12.5398 -9.11067 -12.5
      vertex -16.5848 -12.0496 -12.5
      vertex -14.16 -6.30442 -12.5
    endloop
  endfacet
  facet normal -0 0 -1
    outer loop
      vertex -14.16 -6.30442 -12.5
      vertex -18.7277 -8.3381 -12.5
      vertex -15.1613 -3.22263 -12.5
    endloop
  endfacet
  facet normal 0 0 -1
    outer loop
      vertex -18.7277 -8.3381 -12.5
      vertex -14.16 -6.30442 -12.5
      vertex -16.5848 -12.0496 -12.5
    endloop
  endfacet
  facet normal 0 0 -1
    outer loop
      vertex 14.16 6.30442 -12.5
      vertex 18.7277 8.3381 -12.5
      vertex 15.1613 3.22263 -12.5
    endloop
  endfacet
  facet normal -0 0 -1
    outer loop
      vertex 18.7277 8.3381 -12.5
      vertex 14.16 6.30442 -12.5
      vertex 16.5848 12.0496 -12.5
    endloop
  endfacet
  facet normal 0 0 -1
    outer loop
      vertex 12.5398 9.11067 -12.5
      vertex 16.5848 12.0496 -12.5
      vertex 14.16 6.30442 -12.5
    endloop
  endfacet
  facet normal -0 0 -1
    outer loop
      vertex 16.5848 12.0496 -12.5
      vertex 12.5398 9.11067 -12.5
      vertex 13.7172 15.2345 -12.5
    endloop
  endfacet
  facet normal 0 0 -1
    outer loop
      vertex 10.3715 11.5187 -12.5
      vertex 13.7172 15.2345 -12.5
      vertex 12.5398 9.11067 -12.5
    endloop
  endfacet
  facet normal 0 0 -1
    outer loop
      vertex 10.3715 11.5187 -12.5
      vertex 10.25 17.7535 -12.5
      vertex 13.7172 15.2345 -12.5
    endloop
  endfacet
  facet normal 0 0 -1
    outer loop
      vertex 7.75 13.4234 -12.5
      vertex 10.25 17.7535 -12.5
      vertex 10.3715 11.5187 -12.5
    endloop
  endfacet
  facet normal 0 0 -1
    outer loop
      vertex 7.75 13.4234 -12.5
      vertex 6.33485 19.4967 -12.5
      vertex 10.25 17.7535 -12.5
    endloop
  endfacet
  facet normal 0 0 -1
    outer loop
      vertex 4.78976 14.7414 -12.5
      vertex 6.33485 19.4967 -12.5
      vertex 7.75 13.4234 -12.5
    endloop
  endfacet
  facet normal 0 0 -1
    outer loop
      vertex 4.78976 14.7414 -12.5
      vertex 2.14283 20.3877 -12.5
      vertex 6.33485 19.4967 -12.5
    endloop
  endfacet
  facet normal 0 0 -1
    outer loop
      vertex 1.62019 15.4151 -12.5
      vertex 2.14283 20.3877 -12.5
      vertex 4.78976 14.7414 -12.5
    endloop
  endfacet
  facet normal 0 0 -1
    outer loop
      vertex -1.62019 15.4151 -12.5
      vertex 2.14283 20.3877 -12.5
      vertex 1.62019 15.4151 -12.5
    endloop
  endfacet
  facet normal 0 0 -1
    outer loop
      vertex -1.62019 15.4151 -12.5
      vertex -2.14283 20.3877 -12.5
      vertex 2.14283 20.3877 -12.5
    endloop
  endfacet
  facet normal 0 0 -1
    outer loop
      vertex -4.78976 14.7414 -12.5
      vertex -2.14283 20.3877 -12.5
      vertex -1.62019 15.4151 -12.5
    endloop
  endfacet
  facet normal 0 0 -1
    outer loop
      vertex -4.78976 14.7414 -12.5
      vertex -6.33485 19.4967 -12.5
      vertex -2.14283 20.3877 -12.5
    endloop
  endfacet
  facet normal 0 0 -1
    outer loop
      vertex -7.75 13.4234 -12.5
      vertex -6.33485 19.4967 -12.5
      vertex -4.78976 14.7414 -12.5
    endloop
  endfacet
  facet normal 0 0 -1
    outer loop
      vertex -7.75 13.4234 -12.5
      vertex -10.25 17.7535 -12.5
      vertex -6.33485 19.4967 -12.5
    endloop
  endfacet
  facet normal 0 0 -1
    outer loop
      vertex -10.3715 11.5187 -12.5
      vertex -10.25 17.7535 -12.5
      vertex -7.75 13.4234 -12.5
    endloop
  endfacet
  facet normal 0 0 -1
    outer loop
      vertex -13.7172 15.2345 -12.5
      vertex -10.3715 11.5187 -12.5
      vertex -12.5398 9.11067 -12.5
    endloop
  endfacet
  facet normal 0 0 -1
    outer loop
      vertex -10.3715 11.5187 -12.5
      vertex -13.7172 15.2345 -12.5
      vertex -10.25 17.7535 -12.5
    endloop
  endfacet
  facet normal 0 0 -1
    outer loop
      vertex -16.5848 12.0496 -12.5
      vertex -12.5398 9.11067 -12.5
      vertex -14.16 6.30442 -12.5
    endloop
  endfacet
  facet normal 0 0 -1
    outer loop
      vertex -18.7277 8.3381 -12.5
      vertex -14.16 6.30442 -12.5
      vertex -15.1613 3.22263 -12.5
    endloop
  endfacet
  facet normal 0 0 -1
    outer loop
      vertex -12.5398 9.11067 -12.5
      vertex -16.5848 12.0496 -12.5
      vertex -13.7172 15.2345 -12.5
    endloop
  endfacet
  facet normal 0 0 -1
    outer loop
      vertex -20.052 4.26219 -12.5
      vertex -15.1613 3.22263 -12.5
      vertex -15.5 0 -12.5
    endloop
  endfacet
  facet normal 0 0 -1
    outer loop
      vertex -20.052 -4.26219 -12.5
      vertex -15.1613 -3.22263 -12.5
      vertex -18.7277 -8.3381 -12.5
    endloop
  endfacet
  facet normal -0 0 -1
    outer loop
      vertex -15.1613 -3.22263 -12.5
      vertex -20.052 -4.26219 -12.5
      vertex -15.5 0 -12.5
    endloop
  endfacet
  facet normal 0 0 -1
    outer loop
      vertex -14.16 6.30442 -12.5
      vertex -18.7277 8.3381 -12.5
      vertex -16.5848 12.0496 -12.5
    endloop
  endfacet
  facet normal 0 0 -1
    outer loop
      vertex -20.5 0 -12.5
      vertex -15.5 0 -12.5
      vertex -20.052 -4.26219 -12.5
    endloop
  endfacet
  facet normal 0 0 -1
    outer loop
      vertex -15.1613 3.22263 -12.5
      vertex -20.052 4.26219 -12.5
      vertex -18.7277 8.3381 -12.5
    endloop
  endfacet
  facet normal 0 0 -1
    outer loop
      vertex -15.5 0 -12.5
      vertex -20.5 0 -12.5
      vertex -20.052 4.26219 -12.5
    endloop
  endfacet
  facet normal -0.866019 -0.500011 0
    outer loop
      vertex -16.5848 -12.0496 -12.5
      vertex -18.7277 -8.3381 12.5
      vertex -18.7277 -8.3381 -12.5
    endloop
  endfacet
  facet normal -0.866019 -0.500011 0
    outer loop
      vertex -18.7277 -8.3381 12.5
      vertex -16.5848 -12.0496 -12.5
      vertex -16.5848 -12.0496 12.5
    endloop
  endfacet
  facet normal -0.743156 -0.669118 0
    outer loop
      vertex -13.7172 -15.2345 -12.5
      vertex -16.5848 -12.0496 12.5
      vertex -16.5848 -12.0496 -12.5
    endloop
  endfacet
  facet normal -0.743156 -0.669118 0
    outer loop
      vertex -16.5848 -12.0496 12.5
      vertex -13.7172 -15.2345 -12.5
      vertex -13.7172 -15.2345 12.5
    endloop
  endfacet
  facet normal -0.994521 -0.104534 0
    outer loop
      vertex -20.052 -4.26219 -12.5
      vertex -20.5 0 12.5
      vertex -20.5 0 -12.5
    endloop
  endfacet
  facet normal -0.994521 -0.104534 0
    outer loop
      vertex -20.5 0 12.5
      vertex -20.052 -4.26219 -12.5
      vertex -20.052 -4.26219 12.5
    endloop
  endfacet
  facet normal -0.95106 -0.309007 0
    outer loop
      vertex 15.1613 3.22263 -12.5
      vertex 14.16 6.30442 12.5
      vertex 14.16 6.30442 -12.5
    endloop
  endfacet
  facet normal -0.95106 -0.309007 0
    outer loop
      vertex 14.16 6.30442 12.5
      vertex 15.1613 3.22263 -12.5
      vertex 15.1613 3.22263 12.5
    endloop
  endfacet
  facet normal -0.994522 -0.104525 0
    outer loop
      vertex 15.5 0 -12.5
      vertex 15.1613 3.22263 12.5
      vertex 15.1613 3.22263 -12.5
    endloop
  endfacet
  facet normal -0.994522 -0.104525 0
    outer loop
      vertex 15.1613 3.22263 12.5
      vertex 15.5 0 -12.5
      vertex 15.5 0 12.5
    endloop
  endfacet
  facet normal -0.866024 -0.500003 0
    outer loop
      vertex 14.16 6.30442 -12.5
      vertex 12.5398 9.11067 12.5
      vertex 12.5398 9.11067 -12.5
    endloop
  endfacet
  facet normal -0.866024 -0.500003 0
    outer loop
      vertex 12.5398 9.11067 12.5
      vertex 14.16 6.30442 -12.5
      vertex 14.16 6.30442 12.5
    endloop
  endfacet
  facet normal 0.406741 -0.913544 0
    outer loop
      vertex -7.75 13.4234 -12.5
      vertex -4.78976 14.7414 12.5
      vertex -7.75 13.4234 12.5
    endloop
  endfacet
  facet normal 0.406741 -0.913544 0
    outer loop
      vertex -4.78976 14.7414 12.5
      vertex -7.75 13.4234 -12.5
      vertex -4.78976 14.7414 -12.5
    endloop
  endfacet
  facet normal -0.95106 0.309007 0
    outer loop
      vertex 14.16 -6.30442 -12.5
      vertex 15.1613 -3.22263 12.5
      vertex 15.1613 -3.22263 -12.5
    endloop
  endfacet
  facet normal -0.95106 0.309007 0
    outer loop
      vertex 15.1613 -3.22263 12.5
      vertex 14.16 -6.30442 -12.5
      vertex 14.16 -6.30442 12.5
    endloop
  endfacet
  facet normal -0.994522 0.104525 0
    outer loop
      vertex 15.1613 -3.22263 -12.5
      vertex 15.5 0 12.5
      vertex 15.5 0 -12.5
    endloop
  endfacet
  facet normal -0.994522 0.104525 0
    outer loop
      vertex 15.5 0 12.5
      vertex 15.1613 -3.22263 -12.5
      vertex 15.1613 -3.22263 12.5
    endloop
  endfacet
  facet normal -0.406741 -0.913544 0
    outer loop
      vertex 4.78976 14.7414 -12.5
      vertex 7.75 13.4234 12.5
      vertex 4.78976 14.7414 12.5
    endloop
  endfacet
  facet normal -0.406741 -0.913544 -0
    outer loop
      vertex 7.75 13.4234 12.5
      vertex 4.78976 14.7414 -12.5
      vertex 7.75 13.4234 -12.5
    endloop
  endfacet
  facet normal 0.866024 -0.500003 0
    outer loop
      vertex -14.16 6.30442 12.5
      vertex -12.5398 9.11067 -12.5
      vertex -12.5398 9.11067 12.5
    endloop
  endfacet
  facet normal 0.866024 -0.500003 0
    outer loop
      vertex -12.5398 9.11067 -12.5
      vertex -14.16 6.30442 12.5
      vertex -14.16 6.30442 -12.5
    endloop
  endfacet
  facet normal 0.587799 -0.809007 0
    outer loop
      vertex -10.3715 11.5187 -12.5
      vertex -7.75 13.4234 12.5
      vertex -10.3715 11.5187 12.5
    endloop
  endfacet
  facet normal 0.587799 -0.809007 0
    outer loop
      vertex -7.75 13.4234 12.5
      vertex -10.3715 11.5187 -12.5
      vertex -7.75 13.4234 -12.5
    endloop
  endfacet
  facet normal -0.866024 0.500003 0
    outer loop
      vertex 12.5398 -9.11067 -12.5
      vertex 14.16 -6.30442 12.5
      vertex 14.16 -6.30442 -12.5
    endloop
  endfacet
  facet normal -0.866024 0.500003 0
    outer loop
      vertex 14.16 -6.30442 12.5
      vertex 12.5398 -9.11067 -12.5
      vertex 12.5398 -9.11067 12.5
    endloop
  endfacet
  facet normal 0 -1 0
    outer loop
      vertex -1.62019 15.4151 -12.5
      vertex 1.62019 15.4151 12.5
      vertex -1.62019 15.4151 12.5
    endloop
  endfacet
  facet normal 0 -1 -0
    outer loop
      vertex 1.62019 15.4151 12.5
      vertex -1.62019 15.4151 -12.5
      vertex 1.62019 15.4151 -12.5
    endloop
  endfacet
  facet normal -0.587799 0.809007 0
    outer loop
      vertex 10.3715 -11.5187 -12.5
      vertex 7.75 -13.4234 12.5
      vertex 10.3715 -11.5187 12.5
    endloop
  endfacet
  facet normal -0.587799 0.809007 0
    outer loop
      vertex 7.75 -13.4234 12.5
      vertex 10.3715 -11.5187 -12.5
      vertex 7.75 -13.4234 -12.5
    endloop
  endfacet
  facet normal -0.743129 -0.669148 0
    outer loop
      vertex 12.5398 9.11067 -12.5
      vertex 10.3715 11.5187 12.5
      vertex 10.3715 11.5187 -12.5
    endloop
  endfacet
  facet normal -0.743129 -0.669148 0
    outer loop
      vertex 10.3715 11.5187 12.5
      vertex 12.5398 9.11067 -12.5
      vertex 12.5398 9.11067 12.5
    endloop
  endfacet
  facet normal 0.207908 0.978148 -0
    outer loop
      vertex -1.62019 -15.4151 -12.5
      vertex -4.78976 -14.7414 12.5
      vertex -1.62019 -15.4151 12.5
    endloop
  endfacet
  facet normal 0.207908 0.978148 0
    outer loop
      vertex -4.78976 -14.7414 12.5
      vertex -1.62019 -15.4151 -12.5
      vertex -4.78976 -14.7414 -12.5
    endloop
  endfacet
  facet normal 0 1 -0
    outer loop
      vertex 1.62019 -15.4151 -12.5
      vertex -1.62019 -15.4151 12.5
      vertex 1.62019 -15.4151 12.5
    endloop
  endfacet
  facet normal 0 1 0
    outer loop
      vertex -1.62019 -15.4151 12.5
      vertex 1.62019 -15.4151 -12.5
      vertex -1.62019 -15.4151 -12.5
    endloop
  endfacet
  facet normal 0.95106 -0.309007 0
    outer loop
      vertex -15.1613 3.22263 12.5
      vertex -14.16 6.30442 -12.5
      vertex -14.16 6.30442 12.5
    endloop
  endfacet
  facet normal 0.95106 -0.309007 0
    outer loop
      vertex -14.16 6.30442 -12.5
      vertex -15.1613 3.22263 12.5
      vertex -15.1613 3.22263 -12.5
    endloop
  endfacet
  facet normal 0.207908 -0.978148 0
    outer loop
      vertex -4.78976 14.7414 -12.5
      vertex -1.62019 15.4151 12.5
      vertex -4.78976 14.7414 12.5
    endloop
  endfacet
  facet normal 0.207908 -0.978148 0
    outer loop
      vertex -1.62019 15.4151 12.5
      vertex -4.78976 14.7414 -12.5
      vertex -1.62019 15.4151 -12.5
    endloop
  endfacet
  facet normal -0.207908 0.978148 0
    outer loop
      vertex 4.78976 -14.7414 -12.5
      vertex 1.62019 -15.4151 12.5
      vertex 4.78976 -14.7414 12.5
    endloop
  endfacet
  facet normal -0.207908 0.978148 0
    outer loop
      vertex 1.62019 -15.4151 12.5
      vertex 4.78976 -14.7414 -12.5
      vertex 1.62019 -15.4151 -12.5
    endloop
  endfacet
  facet normal 0.866024 0.500003 0
    outer loop
      vertex -12.5398 -9.11067 12.5
      vertex -14.16 -6.30442 -12.5
      vertex -14.16 -6.30442 12.5
    endloop
  endfacet
  facet normal 0.866024 0.500003 0
    outer loop
      vertex -14.16 -6.30442 -12.5
      vertex -12.5398 -9.11067 12.5
      vertex -12.5398 -9.11067 -12.5
    endloop
  endfacet
  facet normal -0.406741 0.913544 0
    outer loop
      vertex 7.75 -13.4234 -12.5
      vertex 4.78976 -14.7414 12.5
      vertex 7.75 -13.4234 12.5
    endloop
  endfacet
  facet normal -0.406741 0.913544 0
    outer loop
      vertex 4.78976 -14.7414 12.5
      vertex 7.75 -13.4234 -12.5
      vertex 4.78976 -14.7414 -12.5
    endloop
  endfacet
  facet normal 0.994522 -0.104525 0
    outer loop
      vertex -15.5 0 12.5
      vertex -15.1613 3.22263 -12.5
      vertex -15.1613 3.22263 12.5
    endloop
  endfacet
  facet normal 0.994522 -0.104525 0
    outer loop
      vertex -15.1613 3.22263 -12.5
      vertex -15.5 0 12.5
      vertex -15.5 0 -12.5
    endloop
  endfacet
  facet normal -0.587799 -0.809007 0
    outer loop
      vertex 7.75 13.4234 -12.5
      vertex 10.3715 11.5187 12.5
      vertex 7.75 13.4234 12.5
    endloop
  endfacet
  facet normal -0.587799 -0.809007 -0
    outer loop
      vertex 10.3715 11.5187 12.5
      vertex 7.75 13.4234 -12.5
      vertex 10.3715 11.5187 -12.5
    endloop
  endfacet
  facet normal -0.207908 -0.978148 0
    outer loop
      vertex 1.62019 15.4151 -12.5
      vertex 4.78976 14.7414 12.5
      vertex 1.62019 15.4151 12.5
    endloop
  endfacet
  facet normal -0.207908 -0.978148 -0
    outer loop
      vertex 4.78976 14.7414 12.5
      vertex 1.62019 15.4151 -12.5
      vertex 4.78976 14.7414 -12.5
    endloop
  endfacet
  facet normal -0.743129 0.669148 0
    outer loop
      vertex 10.3715 -11.5187 -12.5
      vertex 12.5398 -9.11067 12.5
      vertex 12.5398 -9.11067 -12.5
    endloop
  endfacet
  facet normal -0.743129 0.669148 0
    outer loop
      vertex 12.5398 -9.11067 12.5
      vertex 10.3715 -11.5187 -12.5
      vertex 10.3715 -11.5187 12.5
    endloop
  endfacet
  facet normal 0.994522 0.104525 0
    outer loop
      vertex -15.1613 -3.22263 12.5
      vertex -15.5 0 -12.5
      vertex -15.5 0 12.5
    endloop
  endfacet
  facet normal 0.994522 0.104525 0
    outer loop
      vertex -15.5 0 -12.5
      vertex -15.1613 -3.22263 12.5
      vertex -15.1613 -3.22263 -12.5
    endloop
  endfacet
  facet normal 0.95106 0.309007 0
    outer loop
      vertex -14.16 -6.30442 12.5
      vertex -15.1613 -3.22263 -12.5
      vertex -15.1613 -3.22263 12.5
    endloop
  endfacet
  facet normal 0.95106 0.309007 0
    outer loop
      vertex -15.1613 -3.22263 -12.5
      vertex -14.16 -6.30442 12.5
      vertex -14.16 -6.30442 -12.5
    endloop
  endfacet
  facet normal 0.587799 0.809007 -0
    outer loop
      vertex -7.75 -13.4234 -12.5
      vertex -10.3715 -11.5187 12.5
      vertex -7.75 -13.4234 12.5
    endloop
  endfacet
  facet normal 0.587799 0.809007 0
    outer loop
      vertex -10.3715 -11.5187 12.5
      vertex -7.75 -13.4234 -12.5
      vertex -10.3715 -11.5187 -12.5
    endloop
  endfacet
  facet normal 0.743129 0.669148 0
    outer loop
      vertex -10.3715 -11.5187 12.5
      vertex -12.5398 -9.11067 -12.5
      vertex -12.5398 -9.11067 12.5
    endloop
  endfacet
  facet normal 0.743129 0.669148 0
    outer loop
      vertex -12.5398 -9.11067 -12.5
      vertex -10.3715 -11.5187 12.5
      vertex -10.3715 -11.5187 -12.5
    endloop
  endfacet
  facet normal 0.406741 0.913544 -0
    outer loop
      vertex -4.78976 -14.7414 -12.5
      vertex -7.75 -13.4234 12.5
      vertex -4.78976 -14.7414 12.5
    endloop
  endfacet
  facet normal 0.406741 0.913544 0
    outer loop
      vertex -7.75 -13.4234 12.5
      vertex -4.78976 -14.7414 -12.5
      vertex -7.75 -13.4234 -12.5
    endloop
  endfacet
  facet normal 0.743129 -0.669148 0
    outer loop
      vertex -12.5398 9.11067 12.5
      vertex -10.3715 11.5187 -12.5
      vertex -10.3715 11.5187 12.5
    endloop
  endfacet
  facet normal 0.743129 -0.669148 0
    outer loop
      vertex -10.3715 11.5187 -12.5
      vertex -12.5398 9.11067 12.5
      vertex -12.5398 9.11067 -12.5
    endloop
  endfacet
  facet normal -0.406731 -0.913548 0
    outer loop
      vertex -11.75 -20.3516 12.5
      vertex -7.2619 -22.3498 17.5
      vertex -11.75 -20.3516 17.5
    endloop
  endfacet
  facet normal -0.406731 -0.913548 -0
    outer loop
      vertex -7.2619 -22.3498 17.5
      vertex -11.75 -20.3516 12.5
      vertex -7.2619 -22.3498 12.5
    endloop
  endfacet
  facet normal -0.951054 -0.309026 0
    outer loop
      vertex -21.4683 -9.55831 12.5
      vertex -22.9865 -4.88592 17.5
      vertex -22.9865 -4.88592 12.5
    endloop
  endfacet
  facet normal -0.951054 -0.309026 0
    outer loop
      vertex -22.9865 -4.88592 17.5
      vertex -21.4683 -9.55831 12.5
      vertex -21.4683 -9.55831 17.5
    endloop
  endfacet
  facet normal 0.951054 0.309026 0
    outer loop
      vertex 22.9865 4.88592 17.5
      vertex 21.4683 9.55831 12.5
      vertex 21.4683 9.55831 17.5
    endloop
  endfacet
  facet normal 0.951054 0.309026 0
    outer loop
      vertex 21.4683 9.55831 12.5
      vertex 22.9865 4.88592 17.5
      vertex 22.9865 4.88592 12.5
    endloop
  endfacet
  facet normal 0.994523 0.104522 0
    outer loop
      vertex 23.5 0 17.5
      vertex 22.9865 4.88592 12.5
      vertex 22.9865 4.88592 17.5
    endloop
  endfacet
  facet normal 0.994523 0.104522 0
    outer loop
      vertex 22.9865 4.88592 12.5
      vertex 23.5 0 17.5
      vertex 23.5 0 12.5
    endloop
  endfacet
  facet normal 0.866029 0.499993 0
    outer loop
      vertex 21.4683 9.55831 17.5
      vertex 19.0119 13.813 12.5
      vertex 19.0119 13.813 17.5
    endloop
  endfacet
  facet normal 0.866029 0.499993 0
    outer loop
      vertex 19.0119 13.813 12.5
      vertex 21.4683 9.55831 17.5
      vertex 21.4683 9.55831 12.5
    endloop
  endfacet
  facet normal 0.587783 -0.809019 0
    outer loop
      vertex 11.75 -20.3516 12.5
      vertex 15.7246 -17.4639 17.5
      vertex 11.75 -20.3516 17.5
    endloop
  endfacet
  facet normal 0.587783 -0.809019 0
    outer loop
      vertex 15.7246 -17.4639 17.5
      vertex 11.75 -20.3516 12.5
      vertex 15.7246 -17.4639 12.5
    endloop
  endfacet
  facet normal 0.406731 0.913548 -0
    outer loop
      vertex 11.75 20.3516 12.5
      vertex 7.2619 22.3498 17.5
      vertex 11.75 20.3516 17.5
    endloop
  endfacet
  facet normal 0.406731 0.913548 0
    outer loop
      vertex 7.2619 22.3498 17.5
      vertex 11.75 20.3516 12.5
      vertex 7.2619 22.3498 12.5
    endloop
  endfacet
  facet normal 0.994523 -0.104522 0
    outer loop
      vertex 22.9865 -4.88592 17.5
      vertex 23.5 0 12.5
      vertex 23.5 0 17.5
    endloop
  endfacet
  facet normal 0.994523 -0.104522 0
    outer loop
      vertex 23.5 0 12.5
      vertex 22.9865 -4.88592 17.5
      vertex 22.9865 -4.88592 12.5
    endloop
  endfacet
  facet normal 0.743143 0.669132 0
    outer loop
      vertex 19.0119 13.813 17.5
      vertex 15.7246 17.4639 12.5
      vertex 15.7246 17.4639 17.5
    endloop
  endfacet
  facet normal 0.743143 0.669132 0
    outer loop
      vertex 15.7246 17.4639 12.5
      vertex 19.0119 13.813 17.5
      vertex 19.0119 13.813 12.5
    endloop
  endfacet
  facet normal -0.866029 0.499993 0
    outer loop
      vertex -21.4683 9.55831 12.5
      vertex -19.0119 13.813 17.5
      vertex -19.0119 13.813 12.5
    endloop
  endfacet
  facet normal -0.866029 0.499993 0
    outer loop
      vertex -19.0119 13.813 17.5
      vertex -21.4683 9.55831 12.5
      vertex -21.4683 9.55831 17.5
    endloop
  endfacet
  facet normal 0.743143 -0.669132 0
    outer loop
      vertex 15.7246 -17.4639 17.5
      vertex 19.0119 -13.813 12.5
      vertex 19.0119 -13.813 17.5
    endloop
  endfacet
  facet normal 0.743143 -0.669132 0
    outer loop
      vertex 19.0119 -13.813 12.5
      vertex 15.7246 -17.4639 17.5
      vertex 15.7246 -17.4639 12.5
    endloop
  endfacet
  facet normal -0.743143 0.669132 0
    outer loop
      vertex -19.0119 13.813 12.5
      vertex -15.7246 17.4639 17.5
      vertex -15.7246 17.4639 12.5
    endloop
  endfacet
  facet normal -0.743143 0.669132 0
    outer loop
      vertex -15.7246 17.4639 17.5
      vertex -19.0119 13.813 12.5
      vertex -19.0119 13.813 17.5
    endloop
  endfacet
  facet normal 0.866029 -0.499993 0
    outer loop
      vertex 19.0119 -13.813 17.5
      vertex 21.4683 -9.55831 12.5
      vertex 21.4683 -9.55831 17.5
    endloop
  endfacet
  facet normal 0.866029 -0.499993 0
    outer loop
      vertex 21.4683 -9.55831 12.5
      vertex 19.0119 -13.813 17.5
      vertex 19.0119 -13.813 12.5
    endloop
  endfacet
  facet normal -0.587783 0.809019 0
    outer loop
      vertex -11.75 20.3516 12.5
      vertex -15.7246 17.4639 17.5
      vertex -11.75 20.3516 17.5
    endloop
  endfacet
  facet normal -0.587783 0.809019 0
    outer loop
      vertex -15.7246 17.4639 17.5
      vertex -11.75 20.3516 12.5
      vertex -15.7246 17.4639 12.5
    endloop
  endfacet
  facet normal 0.951054 -0.309026 0
    outer loop
      vertex 21.4683 -9.55831 17.5
      vertex 22.9865 -4.88592 12.5
      vertex 22.9865 -4.88592 17.5
    endloop
  endfacet
  facet normal 0.951054 -0.309026 0
    outer loop
      vertex 22.9865 -4.88592 12.5
      vertex 21.4683 -9.55831 17.5
      vertex 21.4683 -9.55831 12.5
    endloop
  endfacet
  facet normal 0 1 -0
    outer loop
      vertex 2.45642 23.3713 12.5
      vertex -2.45642 23.3713 17.5
      vertex 2.45642 23.3713 17.5
    endloop
  endfacet
  facet normal 0 1 0
    outer loop
      vertex -2.45642 23.3713 17.5
      vertex 2.45642 23.3713 12.5
      vertex -2.45642 23.3713 12.5
    endloop
  endfacet
  facet normal -0.587783 -0.809019 0
    outer loop
      vertex -15.7246 -17.4639 12.5
      vertex -11.75 -20.3516 17.5
      vertex -15.7246 -17.4639 17.5
    endloop
  endfacet
  facet normal -0.587783 -0.809019 -0
    outer loop
      vertex -11.75 -20.3516 17.5
      vertex -15.7246 -17.4639 12.5
      vertex -11.75 -20.3516 12.5
    endloop
  endfacet
  facet normal -0.866029 -0.499993 0
    outer loop
      vertex -19.0119 -13.813 12.5
      vertex -21.4683 -9.55831 17.5
      vertex -21.4683 -9.55831 12.5
    endloop
  endfacet
  facet normal -0.866029 -0.499993 0
    outer loop
      vertex -21.4683 -9.55831 17.5
      vertex -19.0119 -13.813 12.5
      vertex -19.0119 -13.813 17.5
    endloop
  endfacet
  facet normal -0.406731 0.913548 0
    outer loop
      vertex -7.2619 22.3498 12.5
      vertex -11.75 20.3516 17.5
      vertex -7.2619 22.3498 17.5
    endloop
  endfacet
  facet normal -0.406731 0.913548 0
    outer loop
      vertex -11.75 20.3516 17.5
      vertex -7.2619 22.3498 12.5
      vertex -11.75 20.3516 12.5
    endloop
  endfacet
  facet normal -0.994523 -0.104522 0
    outer loop
      vertex -22.9865 -4.88592 12.5
      vertex -23.5 0 17.5
      vertex -23.5 0 12.5
    endloop
  endfacet
  facet normal -0.994523 -0.104522 0
    outer loop
      vertex -23.5 0 17.5
      vertex -22.9865 -4.88592 12.5
      vertex -22.9865 -4.88592 17.5
    endloop
  endfacet
  facet normal -0.743143 -0.669132 0
    outer loop
      vertex -15.7246 -17.4639 12.5
      vertex -19.0119 -13.813 17.5
      vertex -19.0119 -13.813 12.5
    endloop
  endfacet
  facet normal -0.743143 -0.669132 0
    outer loop
      vertex -19.0119 -13.813 17.5
      vertex -15.7246 -17.4639 12.5
      vertex -15.7246 -17.4639 17.5
    endloop
  endfacet
  facet normal 0.207924 -0.978145 0
    outer loop
      vertex 2.45642 -23.3713 12.5
      vertex 7.2619 -22.3498 17.5
      vertex 2.45642 -23.3713 17.5
    endloop
  endfacet
  facet normal 0.207924 -0.978145 0
    outer loop
      vertex 7.2619 -22.3498 17.5
      vertex 2.45642 -23.3713 12.5
      vertex 7.2619 -22.3498 12.5
    endloop
  endfacet
  facet normal -0.994523 0.104522 0
    outer loop
      vertex -23.5 0 12.5
      vertex -22.9865 4.88592 17.5
      vertex -22.9865 4.88592 12.5
    endloop
  endfacet
  facet normal -0.994523 0.104522 0
    outer loop
      vertex -22.9865 4.88592 17.5
      vertex -23.5 0 12.5
      vertex -23.5 0 17.5
    endloop
  endfacet
  facet normal 0.207924 0.978145 -0
    outer loop
      vertex 7.2619 22.3498 12.5
      vertex 2.45642 23.3713 17.5
      vertex 7.2619 22.3498 17.5
    endloop
  endfacet
  facet normal 0.207924 0.978145 0
    outer loop
      vertex 2.45642 23.3713 17.5
      vertex 7.2619 22.3498 12.5
      vertex 2.45642 23.3713 12.5
    endloop
  endfacet
  facet normal 0.587783 0.809019 -0
    outer loop
      vertex 15.7246 17.4639 12.5
      vertex 11.75 20.3516 17.5
      vertex 15.7246 17.4639 17.5
    endloop
  endfacet
  facet normal 0.587783 0.809019 0
    outer loop
      vertex 11.75 20.3516 17.5
      vertex 15.7246 17.4639 12.5
      vertex 11.75 20.3516 12.5
    endloop
  endfacet
  facet normal -0.207924 0.978145 0
    outer loop
      vertex -2.45642 23.3713 12.5
      vertex -7.2619 22.3498 17.5
      vertex -2.45642 23.3713 17.5
    endloop
  endfacet
  facet normal -0.207924 0.978145 0
    outer loop
      vertex -7.2619 22.3498 17.5
      vertex -2.45642 23.3713 12.5
      vertex -7.2619 22.3498 12.5
    endloop
  endfacet
  facet normal 0.406731 -0.913548 0
    outer loop
      vertex 7.2619 -22.3498 12.5
      vertex 11.75 -20.3516 17.5
      vertex 7.2619 -22.3498 17.5
    endloop
  endfacet
  facet normal 0.406731 -0.913548 0
    outer loop
      vertex 11.75 -20.3516 17.5
      vertex 7.2619 -22.3498 12.5
      vertex 11.75 -20.3516 12.5
    endloop
  endfacet
  facet normal 0 -1 0
    outer loop
      vertex -2.45642 -23.3713 12.5
      vertex 2.45642 -23.3713 17.5
      vertex -2.45642 -23.3713 17.5
    endloop
  endfacet
  facet normal 0 -1 -0
    outer loop
      vertex 2.45642 -23.3713 17.5
      vertex -2.45642 -23.3713 12.5
      vertex 2.45642 -23.3713 12.5
    endloop
  endfacet
  facet normal -0.207924 -0.978145 0
    outer loop
      vertex -7.2619 -22.3498 12.5
      vertex -2.45642 -23.3713 17.5
      vertex -7.2619 -22.3498 17.5
    endloop
  endfacet
  facet normal -0.207924 -0.978145 -0
    outer loop
      vertex -2.45642 -23.3713 17.5
      vertex -7.2619 -22.3498 12.5
      vertex -2.45642 -23.3713 12.5
    endloop
  endfacet
  facet normal -0.951054 0.309026 0
    outer loop
      vertex -22.9865 4.88592 12.5
      vertex -21.4683 9.55831 17.5
      vertex -21.4683 9.55831 12.5
    endloop
  endfacet
  facet normal -0.951054 0.309026 0
    outer loop
      vertex -21.4683 9.55831 17.5
      vertex -22.9865 4.88592 12.5
      vertex -22.9865 4.88592 17.5
    endloop
  endfacet
  facet normal 0.705162 0.0741111 0.705162
    outer loop
      vertex 22.9865 4.88592 17.5
      vertex 18.5 0 22.5
      vertex 23.5 0 17.5
    endloop
  endfacet
  facet normal 0.526922 0.474445 0.705163
    outer loop
      vertex 15.7246 17.4639 17.5
      vertex 12.3789 13.7482 22.5
      vertex 19.0119 13.813 17.5
    endloop
  endfacet
  facet normal -0.416765 -0.573631 0.705162
    outer loop
      vertex -12.3789 -13.7482 22.5
      vertex -15.7246 -17.4639 17.5
      vertex -11.75 -20.3516 17.5
    endloop
  endfacet
  facet normal 0.614045 -0.354527 0.705166
    outer loop
      vertex 16.9006 -7.52463 22.5
      vertex 14.9668 -10.874 22.5
      vertex 19.0119 -13.813 17.5
    endloop
  endfacet
  facet normal -0.526924 0.474437 0.705167
    outer loop
      vertex -12.3789 13.7482 22.5
      vertex -19.0119 13.813 17.5
      vertex -14.9668 10.874 22.5
    endloop
  endfacet
  facet normal 0.526924 0.474437 0.705167
    outer loop
      vertex 19.0119 13.813 17.5
      vertex 12.3789 13.7482 22.5
      vertex 14.9668 10.874 22.5
    endloop
  endfacet
  facet normal 0.147427 0.693548 0.705164
    outer loop
      vertex 7.2619 22.3498 17.5
      vertex 2.45642 23.3713 17.5
      vertex 5.71681 17.5945 22.5
    endloop
  endfacet
  facet normal -0.41677 0.57363 0.70516
    outer loop
      vertex -11.75 20.3516 17.5
      vertex -12.3789 13.7482 22.5
      vertex -9.25 16.0215 22.5
    endloop
  endfacet
  facet normal -0.705162 0.0741111 0.705162
    outer loop
      vertex -22.9865 4.88592 17.5
      vertex -23.5 0 17.5
      vertex -18.5 0 22.5
    endloop
  endfacet
  facet normal -0.288384 -0.647753 0.70516
    outer loop
      vertex -9.25 -16.0215 22.5
      vertex -11.75 -20.3516 17.5
      vertex -5.71681 -17.5945 22.5
    endloop
  endfacet
  facet normal -0.674342 0.219114 0.70516
    outer loop
      vertex -21.4683 9.55831 17.5
      vertex -22.9865 4.88592 17.5
      vertex -16.9006 7.52463 22.5
    endloop
  endfacet
  facet normal 0.674342 0.219114 0.70516
    outer loop
      vertex 21.4683 9.55831 17.5
      vertex 16.9006 7.52463 22.5
      vertex 22.9865 4.88592 17.5
    endloop
  endfacet
  facet normal -0.614045 -0.354527 0.705166
    outer loop
      vertex -16.9006 -7.52463 22.5
      vertex -19.0119 -13.813 17.5
      vertex -14.9668 -10.874 22.5
    endloop
  endfacet
  facet normal -0.614045 0.354527 0.705166
    outer loop
      vertex -14.9668 10.874 22.5
      vertex -19.0119 13.813 17.5
      vertex -16.9006 7.52463 22.5
    endloop
  endfacet
  facet normal -0.288391 0.647746 0.705163
    outer loop
      vertex -7.2619 22.3498 17.5
      vertex -11.75 20.3516 17.5
      vertex -5.71681 17.5945 22.5
    endloop
  endfacet
  facet normal -0.147427 0.693548 0.705164
    outer loop
      vertex -2.45642 23.3713 17.5
      vertex -7.2619 22.3498 17.5
      vertex -5.71681 17.5945 22.5
    endloop
  endfacet
  facet normal 0.288384 0.647753 0.70516
    outer loop
      vertex 11.75 20.3516 17.5
      vertex 5.71681 17.5945 22.5
      vertex 9.25 16.0215 22.5
    endloop
  endfacet
  facet normal -0.526922 0.474445 0.705163
    outer loop
      vertex -15.7246 17.4639 17.5
      vertex -19.0119 13.813 17.5
      vertex -12.3789 13.7482 22.5
    endloop
  endfacet
  facet normal 0.705162 -0.0741111 0.705162
    outer loop
      vertex 23.5 0 17.5
      vertex 18.5 0 22.5
      vertex 22.9865 -4.88592 17.5
    endloop
  endfacet
  facet normal -0.614056 0.354519 0.705161
    outer loop
      vertex -19.0119 13.813 17.5
      vertex -21.4683 9.55831 17.5
      vertex -16.9006 7.52463 22.5
    endloop
  endfacet
  facet normal -0.526922 -0.474445 0.705163
    outer loop
      vertex -12.3789 -13.7482 22.5
      vertex -19.0119 -13.813 17.5
      vertex -15.7246 -17.4639 17.5
    endloop
  endfacet
  facet normal -0.288391 -0.647746 0.705163
    outer loop
      vertex -5.71681 -17.5945 22.5
      vertex -11.75 -20.3516 17.5
      vertex -7.2619 -22.3498 17.5
    endloop
  endfacet
  facet normal 0.614056 0.354519 0.705161
    outer loop
      vertex 19.0119 13.813 17.5
      vertex 16.9006 7.52463 22.5
      vertex 21.4683 9.55831 17.5
    endloop
  endfacet
  facet normal -0.416765 0.573631 0.705162
    outer loop
      vertex -11.75 20.3516 17.5
      vertex -15.7246 17.4639 17.5
      vertex -12.3789 13.7482 22.5
    endloop
  endfacet
  facet normal -0.674342 -0.219114 0.70516
    outer loop
      vertex -16.9006 -7.52463 22.5
      vertex -22.9865 -4.88592 17.5
      vertex -21.4683 -9.55831 17.5
    endloop
  endfacet
  facet normal 0.147427 -0.693548 0.705164
    outer loop
      vertex 5.71681 -17.5945 22.5
      vertex 2.45642 -23.3713 17.5
      vertex 7.2619 -22.3498 17.5
    endloop
  endfacet
  facet normal 0.614045 0.354527 0.705166
    outer loop
      vertex 19.0119 13.813 17.5
      vertex 14.9668 10.874 22.5
      vertex 16.9006 7.52463 22.5
    endloop
  endfacet
  facet normal 0.288391 0.647746 0.705163
    outer loop
      vertex 7.2619 22.3498 17.5
      vertex 5.71681 17.5945 22.5
      vertex 11.75 20.3516 17.5
    endloop
  endfacet
  facet normal 0.41677 0.57363 0.70516
    outer loop
      vertex 11.75 20.3516 17.5
      vertex 9.25 16.0215 22.5
      vertex 12.3789 13.7482 22.5
    endloop
  endfacet
  facet normal -0.288384 0.647753 0.70516
    outer loop
      vertex -5.71681 17.5945 22.5
      vertex -11.75 20.3516 17.5
      vertex -9.25 16.0215 22.5
    endloop
  endfacet
  facet normal -0.674341 -0.2191 0.705166
    outer loop
      vertex -18.0957 -3.84637 22.5
      vertex -22.9865 -4.88592 17.5
      vertex -16.9006 -7.52463 22.5
    endloop
  endfacet
  facet normal 0.147435 0.69355 0.70516
    outer loop
      vertex 2.45642 23.3713 17.5
      vertex 1.93378 18.3987 22.5
      vertex 5.71681 17.5945 22.5
    endloop
  endfacet
  facet normal 0.416765 0.573631 0.705162
    outer loop
      vertex 15.7246 17.4639 17.5
      vertex 11.75 20.3516 17.5
      vertex 12.3789 13.7482 22.5
    endloop
  endfacet
  facet normal -0.705162 -0.0741111 0.705162
    outer loop
      vertex -18.5 0 22.5
      vertex -23.5 0 17.5
      vertex -22.9865 -4.88592 17.5
    endloop
  endfacet
  facet normal -0.674341 0.2191 0.705166
    outer loop
      vertex -16.9006 7.52463 22.5
      vertex -22.9865 4.88592 17.5
      vertex -18.0957 3.84637 22.5
    endloop
  endfacet
  facet normal 0 -0.709047 0.705161
    outer loop
      vertex -2.45642 -23.3713 17.5
      vertex 1.93378 -18.3987 22.5
      vertex -1.93378 -18.3987 22.5
    endloop
  endfacet
  facet normal 0 -0.709047 0.705161
    outer loop
      vertex 1.93378 -18.3987 22.5
      vertex -2.45642 -23.3713 17.5
      vertex 2.45642 -23.3713 17.5
    endloop
  endfacet
  facet normal 0.526922 -0.474445 0.705163
    outer loop
      vertex 19.0119 -13.813 17.5
      vertex 12.3789 -13.7482 22.5
      vertex 15.7246 -17.4639 17.5
    endloop
  endfacet
  facet normal -0.526924 -0.474437 0.705167
    outer loop
      vertex -14.9668 -10.874 22.5
      vertex -19.0119 -13.813 17.5
      vertex -12.3789 -13.7482 22.5
    endloop
  endfacet
  facet normal -0.147435 0.69355 0.70516
    outer loop
      vertex -2.45642 23.3713 17.5
      vertex -5.71681 17.5945 22.5
      vertex -1.93378 18.3987 22.5
    endloop
  endfacet
  facet normal 0.147435 -0.69355 0.70516
    outer loop
      vertex 5.71681 -17.5945 22.5
      vertex 1.93378 -18.3987 22.5
      vertex 2.45642 -23.3713 17.5
    endloop
  endfacet
  facet normal 0.288391 -0.647746 0.705163
    outer loop
      vertex 11.75 -20.3516 17.5
      vertex 5.71681 -17.5945 22.5
      vertex 7.2619 -22.3498 17.5
    endloop
  endfacet
  facet normal -0.147435 -0.69355 0.70516
    outer loop
      vertex -1.93378 -18.3987 22.5
      vertex -5.71681 -17.5945 22.5
      vertex -2.45642 -23.3713 17.5
    endloop
  endfacet
  facet normal -0.705157 -0.0741205 0.705167
    outer loop
      vertex -18.5 0 22.5
      vertex -22.9865 -4.88592 17.5
      vertex -18.0957 -3.84637 22.5
    endloop
  endfacet
  facet normal 0.674341 0.2191 0.705166
    outer loop
      vertex 22.9865 4.88592 17.5
      vertex 16.9006 7.52463 22.5
      vertex 18.0957 3.84637 22.5
    endloop
  endfacet
  facet normal 0.674342 -0.219114 0.70516
    outer loop
      vertex 22.9865 -4.88592 17.5
      vertex 16.9006 -7.52463 22.5
      vertex 21.4683 -9.55831 17.5
    endloop
  endfacet
  facet normal -0.41677 -0.57363 0.70516
    outer loop
      vertex -9.25 -16.0215 22.5
      vertex -12.3789 -13.7482 22.5
      vertex -11.75 -20.3516 17.5
    endloop
  endfacet
  facet normal -0.147427 -0.693548 0.705164
    outer loop
      vertex -5.71681 -17.5945 22.5
      vertex -7.2619 -22.3498 17.5
      vertex -2.45642 -23.3713 17.5
    endloop
  endfacet
  facet normal 0.41677 -0.57363 0.70516
    outer loop
      vertex 12.3789 -13.7482 22.5
      vertex 9.25 -16.0215 22.5
      vertex 11.75 -20.3516 17.5
    endloop
  endfacet
  facet normal 0 0.709047 0.705161
    outer loop
      vertex 2.45642 23.3713 17.5
      vertex -1.93378 18.3987 22.5
      vertex 1.93378 18.3987 22.5
    endloop
  endfacet
  facet normal 0 0.709047 0.705161
    outer loop
      vertex -1.93378 18.3987 22.5
      vertex 2.45642 23.3713 17.5
      vertex -2.45642 23.3713 17.5
    endloop
  endfacet
  facet normal 0 0 1
    outer loop
      vertex 18.0957 3.84637 22.5
      vertex 18.0957 -3.84637 22.5
      vertex 18.5 0 22.5
    endloop
  endfacet
  facet normal 0 0 1
    outer loop
      vertex 16.9006 7.52463 22.5
      vertex 18.0957 -3.84637 22.5
      vertex 18.0957 3.84637 22.5
    endloop
  endfacet
  facet normal 0 0 1
    outer loop
      vertex 16.9006 7.52463 22.5
      vertex 16.9006 -7.52463 22.5
      vertex 18.0957 -3.84637 22.5
    endloop
  endfacet
  facet normal 0 0 1
    outer loop
      vertex 14.9668 10.874 22.5
      vertex 16.9006 -7.52463 22.5
      vertex 16.9006 7.52463 22.5
    endloop
  endfacet
  facet normal 0 0 1
    outer loop
      vertex 14.9668 10.874 22.5
      vertex 14.9668 -10.874 22.5
      vertex 16.9006 -7.52463 22.5
    endloop
  endfacet
  facet normal 0 0 1
    outer loop
      vertex 12.3789 13.7482 22.5
      vertex 14.9668 -10.874 22.5
      vertex 14.9668 10.874 22.5
    endloop
  endfacet
  facet normal 0 0 1
    outer loop
      vertex 12.3789 13.7482 22.5
      vertex 12.3789 -13.7482 22.5
      vertex 14.9668 -10.874 22.5
    endloop
  endfacet
  facet normal 0 0 1
    outer loop
      vertex 9.25 16.0215 22.5
      vertex 12.3789 -13.7482 22.5
      vertex 12.3789 13.7482 22.5
    endloop
  endfacet
  facet normal 0 0 1
    outer loop
      vertex 9.25 16.0215 22.5
      vertex 9.25 -16.0215 22.5
      vertex 12.3789 -13.7482 22.5
    endloop
  endfacet
  facet normal 0 0 1
    outer loop
      vertex 5.71681 17.5945 22.5
      vertex 9.25 -16.0215 22.5
      vertex 9.25 16.0215 22.5
    endloop
  endfacet
  facet normal 0 0 1
    outer loop
      vertex 5.71681 17.5945 22.5
      vertex 5.71681 -17.5945 22.5
      vertex 9.25 -16.0215 22.5
    endloop
  endfacet
  facet normal 0 0 1
    outer loop
      vertex 1.93378 18.3987 22.5
      vertex 5.71681 -17.5945 22.5
      vertex 5.71681 17.5945 22.5
    endloop
  endfacet
  facet normal 0 0 1
    outer loop
      vertex 1.93378 18.3987 22.5
      vertex 1.93378 -18.3987 22.5
      vertex 5.71681 -17.5945 22.5
    endloop
  endfacet
  facet normal -0 0 1
    outer loop
      vertex -1.93378 18.3987 22.5
      vertex 1.93378 -18.3987 22.5
      vertex 1.93378 18.3987 22.5
    endloop
  endfacet
  facet normal 0 0 1
    outer loop
      vertex -1.93378 18.3987 22.5
      vertex -1.93378 -18.3987 22.5
      vertex 1.93378 -18.3987 22.5
    endloop
  endfacet
  facet normal -0 0 1
    outer loop
      vertex -5.71681 17.5945 22.5
      vertex -1.93378 -18.3987 22.5
      vertex -1.93378 18.3987 22.5
    endloop
  endfacet
  facet normal 0 0 1
    outer loop
      vertex -5.71681 17.5945 22.5
      vertex -5.71681 -17.5945 22.5
      vertex -1.93378 -18.3987 22.5
    endloop
  endfacet
  facet normal -0 0 1
    outer loop
      vertex -9.25 16.0215 22.5
      vertex -5.71681 -17.5945 22.5
      vertex -5.71681 17.5945 22.5
    endloop
  endfacet
  facet normal 0 0 1
    outer loop
      vertex -9.25 16.0215 22.5
      vertex -9.25 -16.0215 22.5
      vertex -5.71681 -17.5945 22.5
    endloop
  endfacet
  facet normal -0 0 1
    outer loop
      vertex -12.3789 13.7482 22.5
      vertex -9.25 -16.0215 22.5
      vertex -9.25 16.0215 22.5
    endloop
  endfacet
  facet normal 0 0 1
    outer loop
      vertex -12.3789 13.7482 22.5
      vertex -12.3789 -13.7482 22.5
      vertex -9.25 -16.0215 22.5
    endloop
  endfacet
  facet normal -0 0 1
    outer loop
      vertex -14.9668 10.874 22.5
      vertex -12.3789 -13.7482 22.5
      vertex -12.3789 13.7482 22.5
    endloop
  endfacet
  facet normal 0 0 1
    outer loop
      vertex -14.9668 10.874 22.5
      vertex -14.9668 -10.874 22.5
      vertex -12.3789 -13.7482 22.5
    endloop
  endfacet
  facet normal -0 0 1
    outer loop
      vertex -16.9006 7.52463 22.5
      vertex -14.9668 -10.874 22.5
      vertex -14.9668 10.874 22.5
    endloop
  endfacet
  facet normal 0 0 1
    outer loop
      vertex -16.9006 7.52463 22.5
      vertex -16.9006 -7.52463 22.5
      vertex -14.9668 -10.874 22.5
    endloop
  endfacet
  facet normal -0 0 1
    outer loop
      vertex -18.0957 3.84637 22.5
      vertex -16.9006 -7.52463 22.5
      vertex -16.9006 7.52463 22.5
    endloop
  endfacet
  facet normal 0 0 1
    outer loop
      vertex -18.0957 3.84637 22.5
      vertex -18.0957 -3.84637 22.5
      vertex -16.9006 -7.52463 22.5
    endloop
  endfacet
  facet normal 0 -0 1
    outer loop
      vertex -18.0957 -3.84637 22.5
      vertex -18.0957 3.84637 22.5
      vertex -18.5 0 22.5
    endloop
  endfacet
  facet normal 0.614056 -0.354519 0.705161
    outer loop
      vertex 21.4683 -9.55831 17.5
      vertex 16.9006 -7.52463 22.5
      vertex 19.0119 -13.813 17.5
    endloop
  endfacet
  facet normal 0.526924 -0.474437 0.705167
    outer loop
      vertex 14.9668 -10.874 22.5
      vertex 12.3789 -13.7482 22.5
      vertex 19.0119 -13.813 17.5
    endloop
  endfacet
  facet normal -0.614056 -0.354519 0.705161
    outer loop
      vertex -16.9006 -7.52463 22.5
      vertex -21.4683 -9.55831 17.5
      vertex -19.0119 -13.813 17.5
    endloop
  endfacet
  facet normal -0.705157 0.0741205 0.705167
    outer loop
      vertex -18.0957 3.84637 22.5
      vertex -22.9865 4.88592 17.5
      vertex -18.5 0 22.5
    endloop
  endfacet
  facet normal 0.705157 0.0741205 0.705167
    outer loop
      vertex 22.9865 4.88592 17.5
      vertex 18.0957 3.84637 22.5
      vertex 18.5 0 22.5
    endloop
  endfacet
  facet normal 0.674341 -0.2191 0.705166
    outer loop
      vertex 18.0957 -3.84637 22.5
      vertex 16.9006 -7.52463 22.5
      vertex 22.9865 -4.88592 17.5
    endloop
  endfacet
  facet normal 0.705157 -0.0741205 0.705167
    outer loop
      vertex 18.5 0 22.5
      vertex 18.0957 -3.84637 22.5
      vertex 22.9865 -4.88592 17.5
    endloop
  endfacet
  facet normal 0.416765 -0.573631 0.705162
    outer loop
      vertex 12.3789 -13.7482 22.5
      vertex 11.75 -20.3516 17.5
      vertex 15.7246 -17.4639 17.5
    endloop
  endfacet
  facet normal 0.288384 -0.647753 0.70516
    outer loop
      vertex 9.25 -16.0215 22.5
      vertex 5.71681 -17.5945 22.5
      vertex 11.75 -20.3516 17.5
    endloop
  endfacet
endsolid OpenSCAD_Model
