solid OpenSCAD_Model
  facet normal 0.207917 0.978146 -0
    outer loop
      vertex 9.27051 28.5317 -25
      vertex 3.13585 29.8357 25
      vertex 9.27051 28.5317 25
    endloop
  endfacet
  facet normal 0.207917 0.978146 0
    outer loop
      vertex 3.13585 29.8357 25
      vertex 9.27051 28.5317 -25
      vertex 3.13585 29.8357 -25
    endloop
  endfacet
  facet normal 0.587795 0.80901 -0
    outer loop
      vertex 20.0739 22.2943 -25
      vertex 15 25.9808 25
      vertex 20.0739 22.2943 25
    endloop
  endfacet
  facet normal 0.587795 0.80901 0
    outer loop
      vertex 15 25.9808 25
      vertex 20.0739 22.2943 -25
      vertex 15 25.9808 -25
    endloop
  endfacet
  facet normal -0.866024 0.500003 0
    outer loop
      vertex -27.4064 12.2021 -25
      vertex -24.2705 17.6336 25
      vertex -24.2705 17.6336 -25
    endloop
  endfacet
  facet normal -0.866024 0.500003 0
    outer loop
      vertex -24.2705 17.6336 25
      vertex -27.4064 12.2021 -25
      vertex -27.4064 12.2021 25
    endloop
  endfacet
  facet normal -0.994521 -0.104533 0
    outer loop
      vertex -29.3444 -6.23735 -25
      vertex -30 0 25
      vertex -30 0 -25
    endloop
  endfacet
  facet normal -0.994521 -0.104533 0
    outer loop
      vertex -30 0 25
      vertex -29.3444 -6.23735 -25
      vertex -29.3444 -6.23735 25
    endloop
  endfacet
  facet normal 0.994521 -0.104533 0
    outer loop
      vertex 29.3444 -6.23735 25
      vertex 30 0 -25
      vertex 30 0 25
    endloop
  endfacet
  facet normal 0.994521 -0.104533 0
    outer loop
      vertex 30 0 -25
      vertex 29.3444 -6.23735 25
      vertex 29.3444 -6.23735 -25
    endloop
  endfacet
  facet normal 0.866024 0.500003 0
    outer loop
      vertex 27.4064 12.2021 25
      vertex 24.2705 17.6336 -25
      vertex 24.2705 17.6336 25
    endloop
  endfacet
  facet normal 0.866024 0.500003 0
    outer loop
      vertex 24.2705 17.6336 -25
      vertex 27.4064 12.2021 25
      vertex 27.4064 12.2021 -25
    endloop
  endfacet
  facet normal 0 -1 0
    outer loop
      vertex -3.13585 -29.8357 -25
      vertex 3.13585 -29.8357 25
      vertex -3.13585 -29.8357 25
    endloop
  endfacet
  facet normal 0 -1 -0
    outer loop
      vertex 3.13585 -29.8357 25
      vertex -3.13585 -29.8357 -25
      vertex 3.13585 -29.8357 -25
    endloop
  endfacet
  facet normal 0 0 -1
    outer loop
      vertex 30 0 25
      vertex 33 0 25
      vertex 32.2789 -6.86108 25
    endloop
  endfacet
  facet normal 0 0 -1
    outer loop
      vertex 29.3444 -6.23735 25
      vertex 32.2789 -6.86108 25
      vertex 30.147 -13.4223 25
    endloop
  endfacet
  facet normal 0 0 -1
    outer loop
      vertex 33 0 25
      vertex 30 0 25
      vertex 32.2789 6.86108 25
    endloop
  endfacet
  facet normal 0 0 -1
    outer loop
      vertex 29.3444 6.23735 25
      vertex 32.2789 6.86108 25
      vertex 30 0 25
    endloop
  endfacet
  facet normal 0 0 -1
    outer loop
      vertex 32.2789 -6.86108 25
      vertex 29.3444 -6.23735 25
      vertex 30 0 25
    endloop
  endfacet
  facet normal 0 0 -1
    outer loop
      vertex 30.147 -13.4223 25
      vertex 27.4064 -12.2021 25
      vertex 29.3444 -6.23735 25
    endloop
  endfacet
  facet normal 0 0 -1
    outer loop
      vertex 26.6976 -19.3969 25
      vertex 27.4064 -12.2021 25
      vertex 30.147 -13.4223 25
    endloop
  endfacet
  facet normal 0 0 -1
    outer loop
      vertex 26.6976 -19.3969 25
      vertex 24.2705 -17.6336 25
      vertex 27.4064 -12.2021 25
    endloop
  endfacet
  facet normal 0 0 -1
    outer loop
      vertex 22.0813 -24.5238 25
      vertex 24.2705 -17.6336 25
      vertex 26.6976 -19.3969 25
    endloop
  endfacet
  facet normal 0 0 -1
    outer loop
      vertex 22.0813 -24.5238 25
      vertex 20.0739 -22.2943 25
      vertex 24.2705 -17.6336 25
    endloop
  endfacet
  facet normal 0 0 -1
    outer loop
      vertex 16.5 -28.5788 25
      vertex 20.0739 -22.2943 25
      vertex 22.0813 -24.5238 25
    endloop
  endfacet
  facet normal 0 0 -1
    outer loop
      vertex 16.5 -28.5788 25
      vertex 15 -25.9808 25
      vertex 20.0739 -22.2943 25
    endloop
  endfacet
  facet normal 0 0 -1
    outer loop
      vertex 10.1976 -31.3849 25
      vertex 15 -25.9808 25
      vertex 16.5 -28.5788 25
    endloop
  endfacet
  facet normal 0 0 -1
    outer loop
      vertex 10.1976 -31.3849 25
      vertex 9.27051 -28.5317 25
      vertex 15 -25.9808 25
    endloop
  endfacet
  facet normal 0 0 -1
    outer loop
      vertex 3.44944 -32.8192 25
      vertex 9.27051 -28.5317 25
      vertex 10.1976 -31.3849 25
    endloop
  endfacet
  facet normal 0 0 -1
    outer loop
      vertex 3.44944 -32.8192 25
      vertex 3.13585 -29.8357 25
      vertex 9.27051 -28.5317 25
    endloop
  endfacet
  facet normal 0 0 -1
    outer loop
      vertex 3.44944 -32.8192 25
      vertex -3.13585 -29.8357 25
      vertex 3.13585 -29.8357 25
    endloop
  endfacet
  facet normal 0 0 -1
    outer loop
      vertex -3.44944 -32.8192 25
      vertex -3.13585 -29.8357 25
      vertex 3.44944 -32.8192 25
    endloop
  endfacet
  facet normal 0 0 -1
    outer loop
      vertex -3.44944 -32.8192 25
      vertex -9.27051 -28.5317 25
      vertex -3.13585 -29.8357 25
    endloop
  endfacet
  facet normal 0 0 -1
    outer loop
      vertex -10.1976 -31.3849 25
      vertex -9.27051 -28.5317 25
      vertex -3.44944 -32.8192 25
    endloop
  endfacet
  facet normal 0 0 -1
    outer loop
      vertex -10.1976 -31.3849 25
      vertex -15 -25.9808 25
      vertex -9.27051 -28.5317 25
    endloop
  endfacet
  facet normal 0 0 -1
    outer loop
      vertex -16.5 -28.5788 25
      vertex -15 -25.9808 25
      vertex -10.1976 -31.3849 25
    endloop
  endfacet
  facet normal 0 0 -1
    outer loop
      vertex -16.5 -28.5788 25
      vertex -20.0739 -22.2943 25
      vertex -15 -25.9808 25
    endloop
  endfacet
  facet normal 0 0 -1
    outer loop
      vertex -22.0813 -24.5238 25
      vertex -20.0739 -22.2943 25
      vertex -16.5 -28.5788 25
    endloop
  endfacet
  facet normal 0 0 -1
    outer loop
      vertex -22.0813 -24.5238 25
      vertex -24.2705 -17.6336 25
      vertex -20.0739 -22.2943 25
    endloop
  endfacet
  facet normal 0 0 -1
    outer loop
      vertex -26.6976 -19.3969 25
      vertex -24.2705 -17.6336 25
      vertex -22.0813 -24.5238 25
    endloop
  endfacet
  facet normal 0 0 -1
    outer loop
      vertex -26.6976 -19.3969 25
      vertex -27.4064 -12.2021 25
      vertex -24.2705 -17.6336 25
    endloop
  endfacet
  facet normal 0 0 -1
    outer loop
      vertex -30.147 -13.4223 25
      vertex -27.4064 -12.2021 25
      vertex -26.6976 -19.3969 25
    endloop
  endfacet
  facet normal 0 0 -1
    outer loop
      vertex -32.2789 -6.86108 25
      vertex -29.3444 -6.23735 25
      vertex -30.147 -13.4223 25
    endloop
  endfacet
  facet normal -0 0 -1
    outer loop
      vertex -27.4064 -12.2021 25
      vertex -30.147 -13.4223 25
      vertex -29.3444 -6.23735 25
    endloop
  endfacet
  facet normal -0 0 -1
    outer loop
      vertex 32.2789 6.86108 25
      vertex 29.3444 6.23735 25
      vertex 30.147 13.4223 25
    endloop
  endfacet
  facet normal 0 0 -1
    outer loop
      vertex 27.4064 12.2021 25
      vertex 30.147 13.4223 25
      vertex 29.3444 6.23735 25
    endloop
  endfacet
  facet normal 0 0 -1
    outer loop
      vertex 27.4064 12.2021 25
      vertex 26.6976 19.3969 25
      vertex 30.147 13.4223 25
    endloop
  endfacet
  facet normal 0 0 -1
    outer loop
      vertex 24.2705 17.6336 25
      vertex 26.6976 19.3969 25
      vertex 27.4064 12.2021 25
    endloop
  endfacet
  facet normal 0 0 -1
    outer loop
      vertex 24.2705 17.6336 25
      vertex 22.0813 24.5238 25
      vertex 26.6976 19.3969 25
    endloop
  endfacet
  facet normal 0 0 -1
    outer loop
      vertex 20.0739 22.2943 25
      vertex 22.0813 24.5238 25
      vertex 24.2705 17.6336 25
    endloop
  endfacet
  facet normal 0 0 -1
    outer loop
      vertex 20.0739 22.2943 25
      vertex 16.5 28.5788 25
      vertex 22.0813 24.5238 25
    endloop
  endfacet
  facet normal 0 0 -1
    outer loop
      vertex 15 25.9808 25
      vertex 16.5 28.5788 25
      vertex 20.0739 22.2943 25
    endloop
  endfacet
  facet normal 0 0 -1
    outer loop
      vertex 15 25.9808 25
      vertex 10.1976 31.3849 25
      vertex 16.5 28.5788 25
    endloop
  endfacet
  facet normal 0 0 -1
    outer loop
      vertex 9.27051 28.5317 25
      vertex 10.1976 31.3849 25
      vertex 15 25.9808 25
    endloop
  endfacet
  facet normal 0 0 -1
    outer loop
      vertex 9.27051 28.5317 25
      vertex 3.44944 32.8192 25
      vertex 10.1976 31.3849 25
    endloop
  endfacet
  facet normal 0 0 -1
    outer loop
      vertex 3.13585 29.8357 25
      vertex 3.44944 32.8192 25
      vertex 9.27051 28.5317 25
    endloop
  endfacet
  facet normal 0 0 -1
    outer loop
      vertex -3.13585 29.8357 25
      vertex 3.44944 32.8192 25
      vertex 3.13585 29.8357 25
    endloop
  endfacet
  facet normal 0 0 -1
    outer loop
      vertex -3.13585 29.8357 25
      vertex -3.44944 32.8192 25
      vertex 3.44944 32.8192 25
    endloop
  endfacet
  facet normal 0 0 -1
    outer loop
      vertex -9.27051 28.5317 25
      vertex -3.44944 32.8192 25
      vertex -3.13585 29.8357 25
    endloop
  endfacet
  facet normal 0 0 -1
    outer loop
      vertex -9.27051 28.5317 25
      vertex -10.1976 31.3849 25
      vertex -3.44944 32.8192 25
    endloop
  endfacet
  facet normal 0 0 -1
    outer loop
      vertex -15 25.9808 25
      vertex -10.1976 31.3849 25
      vertex -9.27051 28.5317 25
    endloop
  endfacet
  facet normal 0 0 -1
    outer loop
      vertex -15 25.9808 25
      vertex -16.5 28.5788 25
      vertex -10.1976 31.3849 25
    endloop
  endfacet
  facet normal 0 0 -1
    outer loop
      vertex -20.0739 22.2943 25
      vertex -16.5 28.5788 25
      vertex -15 25.9808 25
    endloop
  endfacet
  facet normal 0 0 -1
    outer loop
      vertex -20.0739 22.2943 25
      vertex -22.0813 24.5238 25
      vertex -16.5 28.5788 25
    endloop
  endfacet
  facet normal 0 0 -1
    outer loop
      vertex -24.2705 17.6336 25
      vertex -22.0813 24.5238 25
      vertex -20.0739 22.2943 25
    endloop
  endfacet
  facet normal 0 0 -1
    outer loop
      vertex -24.2705 17.6336 25
      vertex -26.6976 19.3969 25
      vertex -22.0813 24.5238 25
    endloop
  endfacet
  facet normal 0 0 -1
    outer loop
      vertex -27.4064 12.2021 25
      vertex -26.6976 19.3969 25
      vertex -24.2705 17.6336 25
    endloop
  endfacet
  facet normal 0 0 -1
    outer loop
      vertex -30.147 13.4223 25
      vertex -27.4064 12.2021 25
      vertex -29.3444 6.23735 25
    endloop
  endfacet
  facet normal 0 0 -1
    outer loop
      vertex -27.4064 12.2021 25
      vertex -30.147 13.4223 25
      vertex -26.6976 19.3969 25
    endloop
  endfacet
  facet normal 0 0 -1
    outer loop
      vertex -32.2789 6.86108 25
      vertex -29.3444 6.23735 25
      vertex -30 0 25
    endloop
  endfacet
  facet normal -0 0 -1
    outer loop
      vertex -29.3444 -6.23735 25
      vertex -32.2789 -6.86108 25
      vertex -30 0 25
    endloop
  endfacet
  facet normal 0 0 -1
    outer loop
      vertex -33 0 25
      vertex -30 0 25
      vertex -32.2789 -6.86108 25
    endloop
  endfacet
  facet normal 0 0 -1
    outer loop
      vertex -29.3444 6.23735 25
      vertex -32.2789 6.86108 25
      vertex -30.147 13.4223 25
    endloop
  endfacet
  facet normal 0 0 -1
    outer loop
      vertex -30 0 25
      vertex -33 0 25
      vertex -32.2789 6.86108 25
    endloop
  endfacet
  facet normal 0 0 -1
    outer loop
      vertex 24.4537 -5.19779 25
      vertex 24.4537 5.19779 25
      vertex 25 0 25
    endloop
  endfacet
  facet normal 0 0 -1
    outer loop
      vertex 22.8386 -10.1684 25
      vertex 24.4537 5.19779 25
      vertex 24.4537 -5.19779 25
    endloop
  endfacet
  facet normal 0 0 -1
    outer loop
      vertex 22.8386 -10.1684 25
      vertex 22.8386 10.1684 25
      vertex 24.4537 5.19779 25
    endloop
  endfacet
  facet normal 0 0 -1
    outer loop
      vertex 20.2254 -14.6946 25
      vertex 22.8386 10.1684 25
      vertex 22.8386 -10.1684 25
    endloop
  endfacet
  facet normal 0 0 -1
    outer loop
      vertex 20.2254 -14.6946 25
      vertex 20.2254 14.6946 25
      vertex 22.8386 10.1684 25
    endloop
  endfacet
  facet normal 0 0 -1
    outer loop
      vertex 16.7283 -18.5786 25
      vertex 20.2254 14.6946 25
      vertex 20.2254 -14.6946 25
    endloop
  endfacet
  facet normal 0 0 -1
    outer loop
      vertex 16.7283 -18.5786 25
      vertex 16.7283 18.5786 25
      vertex 20.2254 14.6946 25
    endloop
  endfacet
  facet normal 0 0 -1
    outer loop
      vertex 12.5 -21.6506 25
      vertex 16.7283 18.5786 25
      vertex 16.7283 -18.5786 25
    endloop
  endfacet
  facet normal 0 0 -1
    outer loop
      vertex 12.5 -21.6506 25
      vertex 12.5 21.6506 25
      vertex 16.7283 18.5786 25
    endloop
  endfacet
  facet normal 0 0 -1
    outer loop
      vertex 7.72542 -23.7764 25
      vertex 12.5 21.6506 25
      vertex 12.5 -21.6506 25
    endloop
  endfacet
  facet normal 0 0 -1
    outer loop
      vertex 7.72542 -23.7764 25
      vertex 7.72542 23.7764 25
      vertex 12.5 21.6506 25
    endloop
  endfacet
  facet normal 0 0 -1
    outer loop
      vertex 2.61321 -24.863 25
      vertex 7.72542 23.7764 25
      vertex 7.72542 -23.7764 25
    endloop
  endfacet
  facet normal 0 0 -1
    outer loop
      vertex 2.61321 -24.863 25
      vertex 2.61321 24.863 25
      vertex 7.72542 23.7764 25
    endloop
  endfacet
  facet normal 0 0 -1
    outer loop
      vertex -2.61321 -24.863 25
      vertex 2.61321 24.863 25
      vertex 2.61321 -24.863 25
    endloop
  endfacet
  facet normal 0 0 -1
    outer loop
      vertex -2.61321 -24.863 25
      vertex -2.61321 24.863 25
      vertex 2.61321 24.863 25
    endloop
  endfacet
  facet normal 0 0 -1
    outer loop
      vertex -7.72542 -23.7764 25
      vertex -2.61321 24.863 25
      vertex -2.61321 -24.863 25
    endloop
  endfacet
  facet normal 0 0 -1
    outer loop
      vertex -7.72542 -23.7764 25
      vertex -7.72542 23.7764 25
      vertex -2.61321 24.863 25
    endloop
  endfacet
  facet normal 0 0 -1
    outer loop
      vertex -12.5 -21.6506 25
      vertex -7.72542 23.7764 25
      vertex -7.72542 -23.7764 25
    endloop
  endfacet
  facet normal 0 0 -1
    outer loop
      vertex -12.5 -21.6506 25
      vertex -12.5 21.6506 25
      vertex -7.72542 23.7764 25
    endloop
  endfacet
  facet normal 0 0 -1
    outer loop
      vertex -16.7283 -18.5786 25
      vertex -12.5 21.6506 25
      vertex -12.5 -21.6506 25
    endloop
  endfacet
  facet normal 0 0 -1
    outer loop
      vertex -16.7283 -18.5786 25
      vertex -16.7283 18.5786 25
      vertex -12.5 21.6506 25
    endloop
  endfacet
  facet normal 0 0 -1
    outer loop
      vertex -20.2254 -14.6946 25
      vertex -16.7283 18.5786 25
      vertex -16.7283 -18.5786 25
    endloop
  endfacet
  facet normal 0 0 -1
    outer loop
      vertex -20.2254 -14.6946 25
      vertex -20.2254 14.6946 25
      vertex -16.7283 18.5786 25
    endloop
  endfacet
  facet normal 0 0 -1
    outer loop
      vertex -22.8386 -10.1684 25
      vertex -20.2254 14.6946 25
      vertex -20.2254 -14.6946 25
    endloop
  endfacet
  facet normal 0 0 -1
    outer loop
      vertex -22.8386 -10.1684 25
      vertex -22.8386 10.1684 25
      vertex -20.2254 14.6946 25
    endloop
  endfacet
  facet normal 0 0 -1
    outer loop
      vertex -24.4537 -5.19779 25
      vertex -22.8386 10.1684 25
      vertex -22.8386 -10.1684 25
    endloop
  endfacet
  facet normal 0 0 -1
    outer loop
      vertex -24.4537 -5.19779 25
      vertex -24.4537 5.19779 25
      vertex -22.8386 10.1684 25
    endloop
  endfacet
  facet normal 0 -0 -1
    outer loop
      vertex -24.4537 5.19779 25
      vertex -24.4537 -5.19779 25
      vertex -25 0 25
    endloop
  endfacet
  facet normal 0.994521 0.104533 0
    outer loop
      vertex 30 0 25
      vertex 29.3444 6.23735 -25
      vertex 29.3444 6.23735 25
    endloop
  endfacet
  facet normal 0.994521 0.104533 0
    outer loop
      vertex 29.3444 6.23735 -25
      vertex 30 0 25
      vertex 30 0 -25
    endloop
  endfacet
  facet normal 0.587795 -0.80901 0
    outer loop
      vertex 15 -25.9808 -25
      vertex 20.0739 -22.2943 25
      vertex 15 -25.9808 25
    endloop
  endfacet
  facet normal 0.587795 -0.80901 0
    outer loop
      vertex 20.0739 -22.2943 25
      vertex 15 -25.9808 -25
      vertex 20.0739 -22.2943 -25
    endloop
  endfacet
  facet normal -0.406732 0.913547 0
    outer loop
      vertex -9.27051 28.5317 -25
      vertex -15 25.9808 25
      vertex -9.27051 28.5317 25
    endloop
  endfacet
  facet normal -0.406732 0.913547 0
    outer loop
      vertex -15 25.9808 25
      vertex -9.27051 28.5317 -25
      vertex -15 25.9808 -25
    endloop
  endfacet
  facet normal -0.587795 -0.80901 0
    outer loop
      vertex -20.0739 -22.2943 -25
      vertex -15 -25.9808 25
      vertex -20.0739 -22.2943 25
    endloop
  endfacet
  facet normal -0.587795 -0.80901 -0
    outer loop
      vertex -15 -25.9808 25
      vertex -20.0739 -22.2943 -25
      vertex -15 -25.9808 -25
    endloop
  endfacet
  facet normal 0.406732 -0.913547 0
    outer loop
      vertex 9.27051 -28.5317 -25
      vertex 15 -25.9808 25
      vertex 9.27051 -28.5317 25
    endloop
  endfacet
  facet normal 0.406732 -0.913547 0
    outer loop
      vertex 15 -25.9808 25
      vertex 9.27051 -28.5317 -25
      vertex 15 -25.9808 -25
    endloop
  endfacet
  facet normal 0.95106 0.309008 0
    outer loop
      vertex 29.3444 6.23735 25
      vertex 27.4064 12.2021 -25
      vertex 27.4064 12.2021 25
    endloop
  endfacet
  facet normal 0.95106 0.309008 0
    outer loop
      vertex 27.4064 12.2021 -25
      vertex 29.3444 6.23735 25
      vertex 29.3444 6.23735 -25
    endloop
  endfacet
  facet normal 0.207917 -0.978146 0
    outer loop
      vertex 3.13585 -29.8357 -25
      vertex 9.27051 -28.5317 25
      vertex 3.13585 -29.8357 25
    endloop
  endfacet
  facet normal 0.207917 -0.978146 0
    outer loop
      vertex 9.27051 -28.5317 25
      vertex 3.13585 -29.8357 -25
      vertex 9.27051 -28.5317 -25
    endloop
  endfacet
  facet normal 0 0 -1
    outer loop
      vertex 25 0 -25
      vertex 30 0 -25
      vertex 29.3444 -6.23735 -25
    endloop
  endfacet
  facet normal 0 0 -1
    outer loop
      vertex 24.4537 -5.19779 -25
      vertex 29.3444 -6.23735 -25
      vertex 27.4064 -12.2021 -25
    endloop
  endfacet
  facet normal 0 0 -1
    outer loop
      vertex 30 0 -25
      vertex 25 0 -25
      vertex 29.3444 6.23735 -25
    endloop
  endfacet
  facet normal 0 0 -1
    outer loop
      vertex 24.4537 5.19779 -25
      vertex 29.3444 6.23735 -25
      vertex 25 0 -25
    endloop
  endfacet
  facet normal 0 0 -1
    outer loop
      vertex 29.3444 -6.23735 -25
      vertex 24.4537 -5.19779 -25
      vertex 25 0 -25
    endloop
  endfacet
  facet normal 0 0 -1
    outer loop
      vertex 22.8386 -10.1684 -25
      vertex 27.4064 -12.2021 -25
      vertex 24.2705 -17.6336 -25
    endloop
  endfacet
  facet normal 0 0 -1
    outer loop
      vertex 27.4064 -12.2021 -25
      vertex 22.8386 -10.1684 -25
      vertex 24.4537 -5.19779 -25
    endloop
  endfacet
  facet normal 0 0 -1
    outer loop
      vertex 24.2705 -17.6336 -25
      vertex 20.2254 -14.6946 -25
      vertex 22.8386 -10.1684 -25
    endloop
  endfacet
  facet normal 0 0 -1
    outer loop
      vertex 20.0739 -22.2943 -25
      vertex 20.2254 -14.6946 -25
      vertex 24.2705 -17.6336 -25
    endloop
  endfacet
  facet normal 0 0 -1
    outer loop
      vertex 20.0739 -22.2943 -25
      vertex 16.7283 -18.5786 -25
      vertex 20.2254 -14.6946 -25
    endloop
  endfacet
  facet normal 0 0 -1
    outer loop
      vertex 15 -25.9808 -25
      vertex 16.7283 -18.5786 -25
      vertex 20.0739 -22.2943 -25
    endloop
  endfacet
  facet normal 0 0 -1
    outer loop
      vertex 15 -25.9808 -25
      vertex 12.5 -21.6506 -25
      vertex 16.7283 -18.5786 -25
    endloop
  endfacet
  facet normal 0 0 -1
    outer loop
      vertex 9.27051 -28.5317 -25
      vertex 12.5 -21.6506 -25
      vertex 15 -25.9808 -25
    endloop
  endfacet
  facet normal 0 0 -1
    outer loop
      vertex 9.27051 -28.5317 -25
      vertex 7.72542 -23.7764 -25
      vertex 12.5 -21.6506 -25
    endloop
  endfacet
  facet normal 0 0 -1
    outer loop
      vertex 3.13585 -29.8357 -25
      vertex 7.72542 -23.7764 -25
      vertex 9.27051 -28.5317 -25
    endloop
  endfacet
  facet normal 0 0 -1
    outer loop
      vertex 3.13585 -29.8357 -25
      vertex 2.61321 -24.863 -25
      vertex 7.72542 -23.7764 -25
    endloop
  endfacet
  facet normal 0 0 -1
    outer loop
      vertex 3.13585 -29.8357 -25
      vertex -2.61321 -24.863 -25
      vertex 2.61321 -24.863 -25
    endloop
  endfacet
  facet normal 0 0 -1
    outer loop
      vertex -3.13585 -29.8357 -25
      vertex -2.61321 -24.863 -25
      vertex 3.13585 -29.8357 -25
    endloop
  endfacet
  facet normal 0 0 -1
    outer loop
      vertex -3.13585 -29.8357 -25
      vertex -7.72542 -23.7764 -25
      vertex -2.61321 -24.863 -25
    endloop
  endfacet
  facet normal 0 0 -1
    outer loop
      vertex -9.27051 -28.5317 -25
      vertex -7.72542 -23.7764 -25
      vertex -3.13585 -29.8357 -25
    endloop
  endfacet
  facet normal 0 0 -1
    outer loop
      vertex -9.27051 -28.5317 -25
      vertex -12.5 -21.6506 -25
      vertex -7.72542 -23.7764 -25
    endloop
  endfacet
  facet normal 0 0 -1
    outer loop
      vertex -15 -25.9808 -25
      vertex -12.5 -21.6506 -25
      vertex -9.27051 -28.5317 -25
    endloop
  endfacet
  facet normal 0 0 -1
    outer loop
      vertex -15 -25.9808 -25
      vertex -16.7283 -18.5786 -25
      vertex -12.5 -21.6506 -25
    endloop
  endfacet
  facet normal 0 0 -1
    outer loop
      vertex -20.0739 -22.2943 -25
      vertex -16.7283 -18.5786 -25
      vertex -15 -25.9808 -25
    endloop
  endfacet
  facet normal 0 0 -1
    outer loop
      vertex -20.0739 -22.2943 -25
      vertex -20.2254 -14.6946 -25
      vertex -16.7283 -18.5786 -25
    endloop
  endfacet
  facet normal 0 0 -1
    outer loop
      vertex -24.2705 -17.6336 -25
      vertex -20.2254 -14.6946 -25
      vertex -20.0739 -22.2943 -25
    endloop
  endfacet
  facet normal -0 0 -1
    outer loop
      vertex -20.2254 -14.6946 -25
      vertex -24.2705 -17.6336 -25
      vertex -22.8386 -10.1684 -25
    endloop
  endfacet
  facet normal 0 0 -1
    outer loop
      vertex -27.4064 -12.2021 -25
      vertex -22.8386 -10.1684 -25
      vertex -24.2705 -17.6336 -25
    endloop
  endfacet
  facet normal -0 0 -1
    outer loop
      vertex -22.8386 -10.1684 -25
      vertex -27.4064 -12.2021 -25
      vertex -24.4537 -5.19779 -25
    endloop
  endfacet
  facet normal 0 0 -1
    outer loop
      vertex -29.3444 -6.23735 -25
      vertex -24.4537 -5.19779 -25
      vertex -27.4064 -12.2021 -25
    endloop
  endfacet
  facet normal -0 0 -1
    outer loop
      vertex 29.3444 6.23735 -25
      vertex 24.4537 5.19779 -25
      vertex 27.4064 12.2021 -25
    endloop
  endfacet
  facet normal 0 0 -1
    outer loop
      vertex 22.8386 10.1684 -25
      vertex 27.4064 12.2021 -25
      vertex 24.4537 5.19779 -25
    endloop
  endfacet
  facet normal -0 0 -1
    outer loop
      vertex 27.4064 12.2021 -25
      vertex 22.8386 10.1684 -25
      vertex 24.2705 17.6336 -25
    endloop
  endfacet
  facet normal 0 0 -1
    outer loop
      vertex 20.2254 14.6946 -25
      vertex 24.2705 17.6336 -25
      vertex 22.8386 10.1684 -25
    endloop
  endfacet
  facet normal 0 0 -1
    outer loop
      vertex 20.2254 14.6946 -25
      vertex 20.0739 22.2943 -25
      vertex 24.2705 17.6336 -25
    endloop
  endfacet
  facet normal 0 0 -1
    outer loop
      vertex 16.7283 18.5786 -25
      vertex 20.0739 22.2943 -25
      vertex 20.2254 14.6946 -25
    endloop
  endfacet
  facet normal 0 0 -1
    outer loop
      vertex 16.7283 18.5786 -25
      vertex 15 25.9808 -25
      vertex 20.0739 22.2943 -25
    endloop
  endfacet
  facet normal 0 0 -1
    outer loop
      vertex 12.5 21.6506 -25
      vertex 15 25.9808 -25
      vertex 16.7283 18.5786 -25
    endloop
  endfacet
  facet normal 0 0 -1
    outer loop
      vertex 12.5 21.6506 -25
      vertex 9.27051 28.5317 -25
      vertex 15 25.9808 -25
    endloop
  endfacet
  facet normal 0 0 -1
    outer loop
      vertex 7.72542 23.7764 -25
      vertex 9.27051 28.5317 -25
      vertex 12.5 21.6506 -25
    endloop
  endfacet
  facet normal 0 0 -1
    outer loop
      vertex 7.72542 23.7764 -25
      vertex 3.13585 29.8357 -25
      vertex 9.27051 28.5317 -25
    endloop
  endfacet
  facet normal 0 0 -1
    outer loop
      vertex 2.61321 24.863 -25
      vertex 3.13585 29.8357 -25
      vertex 7.72542 23.7764 -25
    endloop
  endfacet
  facet normal 0 0 -1
    outer loop
      vertex -2.61321 24.863 -25
      vertex 3.13585 29.8357 -25
      vertex 2.61321 24.863 -25
    endloop
  endfacet
  facet normal 0 0 -1
    outer loop
      vertex -2.61321 24.863 -25
      vertex -3.13585 29.8357 -25
      vertex 3.13585 29.8357 -25
    endloop
  endfacet
  facet normal 0 0 -1
    outer loop
      vertex -7.72542 23.7764 -25
      vertex -3.13585 29.8357 -25
      vertex -2.61321 24.863 -25
    endloop
  endfacet
  facet normal 0 0 -1
    outer loop
      vertex -7.72542 23.7764 -25
      vertex -9.27051 28.5317 -25
      vertex -3.13585 29.8357 -25
    endloop
  endfacet
  facet normal 0 0 -1
    outer loop
      vertex -12.5 21.6506 -25
      vertex -9.27051 28.5317 -25
      vertex -7.72542 23.7764 -25
    endloop
  endfacet
  facet normal 0 0 -1
    outer loop
      vertex -12.5 21.6506 -25
      vertex -15 25.9808 -25
      vertex -9.27051 28.5317 -25
    endloop
  endfacet
  facet normal 0 0 -1
    outer loop
      vertex -16.7283 18.5786 -25
      vertex -15 25.9808 -25
      vertex -12.5 21.6506 -25
    endloop
  endfacet
  facet normal 0 0 -1
    outer loop
      vertex -16.7283 18.5786 -25
      vertex -20.0739 22.2943 -25
      vertex -15 25.9808 -25
    endloop
  endfacet
  facet normal 0 0 -1
    outer loop
      vertex -20.2254 14.6946 -25
      vertex -20.0739 22.2943 -25
      vertex -16.7283 18.5786 -25
    endloop
  endfacet
  facet normal 0 0 -1
    outer loop
      vertex -24.2705 17.6336 -25
      vertex -20.2254 14.6946 -25
      vertex -22.8386 10.1684 -25
    endloop
  endfacet
  facet normal 0 0 -1
    outer loop
      vertex -20.2254 14.6946 -25
      vertex -24.2705 17.6336 -25
      vertex -20.0739 22.2943 -25
    endloop
  endfacet
  facet normal 0 0 -1
    outer loop
      vertex -27.4064 12.2021 -25
      vertex -22.8386 10.1684 -25
      vertex -24.4537 5.19779 -25
    endloop
  endfacet
  facet normal 0 0 -1
    outer loop
      vertex -29.3444 6.23735 -25
      vertex -24.4537 5.19779 -25
      vertex -25 0 -25
    endloop
  endfacet
  facet normal -0 0 -1
    outer loop
      vertex -24.4537 -5.19779 -25
      vertex -29.3444 -6.23735 -25
      vertex -25 0 -25
    endloop
  endfacet
  facet normal 0 0 -1
    outer loop
      vertex -22.8386 10.1684 -25
      vertex -27.4064 12.2021 -25
      vertex -24.2705 17.6336 -25
    endloop
  endfacet
  facet normal 0 0 -1
    outer loop
      vertex -30 0 -25
      vertex -25 0 -25
      vertex -29.3444 -6.23735 -25
    endloop
  endfacet
  facet normal 0 0 -1
    outer loop
      vertex -24.4537 5.19779 -25
      vertex -29.3444 6.23735 -25
      vertex -27.4064 12.2021 -25
    endloop
  endfacet
  facet normal 0 0 -1
    outer loop
      vertex -25 0 -25
      vertex -30 0 -25
      vertex -29.3444 6.23735 -25
    endloop
  endfacet
  facet normal -0.994521 0.104533 0
    outer loop
      vertex -30 0 -25
      vertex -29.3444 6.23735 25
      vertex -29.3444 6.23735 -25
    endloop
  endfacet
  facet normal -0.994521 0.104533 0
    outer loop
      vertex -29.3444 6.23735 25
      vertex -30 0 -25
      vertex -30 0 25
    endloop
  endfacet
  facet normal 0.406732 0.913547 -0
    outer loop
      vertex 15 25.9808 -25
      vertex 9.27051 28.5317 25
      vertex 15 25.9808 25
    endloop
  endfacet
  facet normal 0.406732 0.913547 0
    outer loop
      vertex 9.27051 28.5317 25
      vertex 15 25.9808 -25
      vertex 9.27051 28.5317 -25
    endloop
  endfacet
  facet normal -0.95106 0.309008 0
    outer loop
      vertex -29.3444 6.23735 -25
      vertex -27.4064 12.2021 25
      vertex -27.4064 12.2021 -25
    endloop
  endfacet
  facet normal -0.95106 0.309008 0
    outer loop
      vertex -27.4064 12.2021 25
      vertex -29.3444 6.23735 -25
      vertex -29.3444 6.23735 25
    endloop
  endfacet
  facet normal -0.207917 0.978146 0
    outer loop
      vertex -3.13585 29.8357 -25
      vertex -9.27051 28.5317 25
      vertex -3.13585 29.8357 25
    endloop
  endfacet
  facet normal -0.207917 0.978146 0
    outer loop
      vertex -9.27051 28.5317 25
      vertex -3.13585 29.8357 -25
      vertex -9.27051 28.5317 -25
    endloop
  endfacet
  facet normal 0.743138 0.669138 0
    outer loop
      vertex 24.2705 17.6336 25
      vertex 20.0739 22.2943 -25
      vertex 20.0739 22.2943 25
    endloop
  endfacet
  facet normal 0.743138 0.669138 0
    outer loop
      vertex 20.0739 22.2943 -25
      vertex 24.2705 17.6336 25
      vertex 24.2705 17.6336 -25
    endloop
  endfacet
  facet normal -0.743138 -0.669138 0
    outer loop
      vertex -20.0739 -22.2943 -25
      vertex -24.2705 -17.6336 25
      vertex -24.2705 -17.6336 -25
    endloop
  endfacet
  facet normal -0.743138 -0.669138 0
    outer loop
      vertex -24.2705 -17.6336 25
      vertex -20.0739 -22.2943 -25
      vertex -20.0739 -22.2943 25
    endloop
  endfacet
  facet normal -0.866024 -0.500003 0
    outer loop
      vertex -24.2705 -17.6336 -25
      vertex -27.4064 -12.2021 25
      vertex -27.4064 -12.2021 -25
    endloop
  endfacet
  facet normal -0.866024 -0.500003 0
    outer loop
      vertex -27.4064 -12.2021 25
      vertex -24.2705 -17.6336 -25
      vertex -24.2705 -17.6336 25
    endloop
  endfacet
  facet normal -0.743138 0.669138 0
    outer loop
      vertex -24.2705 17.6336 -25
      vertex -20.0739 22.2943 25
      vertex -20.0739 22.2943 -25
    endloop
  endfacet
  facet normal -0.743138 0.669138 0
    outer loop
      vertex -20.0739 22.2943 25
      vertex -24.2705 17.6336 -25
      vertex -24.2705 17.6336 25
    endloop
  endfacet
  facet normal -0.587795 0.80901 0
    outer loop
      vertex -15 25.9808 -25
      vertex -20.0739 22.2943 25
      vertex -15 25.9808 25
    endloop
  endfacet
  facet normal -0.587795 0.80901 0
    outer loop
      vertex -20.0739 22.2943 25
      vertex -15 25.9808 -25
      vertex -20.0739 22.2943 -25
    endloop
  endfacet
  facet normal 0.95106 -0.309008 0
    outer loop
      vertex 27.4064 -12.2021 25
      vertex 29.3444 -6.23735 -25
      vertex 29.3444 -6.23735 25
    endloop
  endfacet
  facet normal 0.95106 -0.309008 0
    outer loop
      vertex 29.3444 -6.23735 -25
      vertex 27.4064 -12.2021 25
      vertex 27.4064 -12.2021 -25
    endloop
  endfacet
  facet normal 0.866024 -0.500003 0
    outer loop
      vertex 24.2705 -17.6336 25
      vertex 27.4064 -12.2021 -25
      vertex 27.4064 -12.2021 25
    endloop
  endfacet
  facet normal 0.866024 -0.500003 0
    outer loop
      vertex 27.4064 -12.2021 -25
      vertex 24.2705 -17.6336 25
      vertex 24.2705 -17.6336 -25
    endloop
  endfacet
  facet normal -0.406732 -0.913547 0
    outer loop
      vertex -15 -25.9808 -25
      vertex -9.27051 -28.5317 25
      vertex -15 -25.9808 25
    endloop
  endfacet
  facet normal -0.406732 -0.913547 -0
    outer loop
      vertex -9.27051 -28.5317 25
      vertex -15 -25.9808 -25
      vertex -9.27051 -28.5317 -25
    endloop
  endfacet
  facet normal -0.207917 -0.978146 0
    outer loop
      vertex -9.27051 -28.5317 -25
      vertex -3.13585 -29.8357 25
      vertex -9.27051 -28.5317 25
    endloop
  endfacet
  facet normal -0.207917 -0.978146 -0
    outer loop
      vertex -3.13585 -29.8357 25
      vertex -9.27051 -28.5317 -25
      vertex -3.13585 -29.8357 -25
    endloop
  endfacet
  facet normal 0 1 -0
    outer loop
      vertex 3.13585 29.8357 -25
      vertex -3.13585 29.8357 25
      vertex 3.13585 29.8357 25
    endloop
  endfacet
  facet normal 0 1 0
    outer loop
      vertex -3.13585 29.8357 25
      vertex 3.13585 29.8357 -25
      vertex -3.13585 29.8357 -25
    endloop
  endfacet
  facet normal -0.95106 -0.309008 0
    outer loop
      vertex -27.4064 -12.2021 -25
      vertex -29.3444 -6.23735 25
      vertex -29.3444 -6.23735 -25
    endloop
  endfacet
  facet normal -0.95106 -0.309008 0
    outer loop
      vertex -29.3444 -6.23735 25
      vertex -27.4064 -12.2021 -25
      vertex -27.4064 -12.2021 25
    endloop
  endfacet
  facet normal 0.743138 -0.669138 0
    outer loop
      vertex 20.0739 -22.2943 25
      vertex 24.2705 -17.6336 -25
      vertex 24.2705 -17.6336 25
    endloop
  endfacet
  facet normal 0.743138 -0.669138 0
    outer loop
      vertex 24.2705 -17.6336 -25
      vertex 20.0739 -22.2943 25
      vertex 20.0739 -22.2943 -25
    endloop
  endfacet
  facet normal 0.994522 0.104527 0
    outer loop
      vertex -24.4537 -5.19779 25
      vertex -25 0 -25
      vertex -25 0 25
    endloop
  endfacet
  facet normal 0.994522 0.104527 0
    outer loop
      vertex -25 0 -25
      vertex -24.4537 -5.19779 25
      vertex -24.4537 -5.19779 -25
    endloop
  endfacet
  facet normal -0.58778 -0.809021 0
    outer loop
      vertex 12.5 21.6506 -25
      vertex 16.7283 18.5786 25
      vertex 12.5 21.6506 25
    endloop
  endfacet
  facet normal -0.58778 -0.809021 -0
    outer loop
      vertex 16.7283 18.5786 25
      vertex 12.5 21.6506 -25
      vertex 16.7283 18.5786 -25
    endloop
  endfacet
  facet normal -0.207906 -0.978149 0
    outer loop
      vertex 2.61321 24.863 -25
      vertex 7.72542 23.7764 25
      vertex 2.61321 24.863 25
    endloop
  endfacet
  facet normal -0.207906 -0.978149 -0
    outer loop
      vertex 7.72542 23.7764 25
      vertex 2.61321 24.863 -25
      vertex 7.72542 23.7764 -25
    endloop
  endfacet
  facet normal 0.58778 0.809021 -0
    outer loop
      vertex -12.5 -21.6506 -25
      vertex -16.7283 -18.5786 25
      vertex -12.5 -21.6506 25
    endloop
  endfacet
  facet normal 0.58778 0.809021 0
    outer loop
      vertex -16.7283 -18.5786 25
      vertex -12.5 -21.6506 -25
      vertex -16.7283 -18.5786 -25
    endloop
  endfacet
  facet normal -0.994522 0.104527 0
    outer loop
      vertex 24.4537 -5.19779 -25
      vertex 25 0 25
      vertex 25 0 -25
    endloop
  endfacet
  facet normal -0.994522 0.104527 0
    outer loop
      vertex 25 0 25
      vertex 24.4537 -5.19779 -25
      vertex 24.4537 -5.19779 25
    endloop
  endfacet
  facet normal 0.994522 -0.104527 0
    outer loop
      vertex -25 0 25
      vertex -24.4537 5.19779 -25
      vertex -24.4537 5.19779 25
    endloop
  endfacet
  facet normal 0.994522 -0.104527 0
    outer loop
      vertex -24.4537 5.19779 -25
      vertex -25 0 25
      vertex -25 0 -25
    endloop
  endfacet
  facet normal -0.866026 -0.5 0
    outer loop
      vertex 22.8386 10.1684 -25
      vertex 20.2254 14.6946 25
      vertex 20.2254 14.6946 -25
    endloop
  endfacet
  facet normal -0.866026 -0.5 0
    outer loop
      vertex 20.2254 14.6946 25
      vertex 22.8386 10.1684 -25
      vertex 22.8386 10.1684 25
    endloop
  endfacet
  facet normal 0 -1 0
    outer loop
      vertex -2.61321 24.863 -25
      vertex 2.61321 24.863 25
      vertex -2.61321 24.863 25
    endloop
  endfacet
  facet normal 0 -1 -0
    outer loop
      vertex 2.61321 24.863 25
      vertex -2.61321 24.863 -25
      vertex 2.61321 24.863 -25
    endloop
  endfacet
  facet normal -0.40674 0.913544 0
    outer loop
      vertex 12.5 -21.6506 -25
      vertex 7.72542 -23.7764 25
      vertex 12.5 -21.6506 25
    endloop
  endfacet
  facet normal -0.40674 0.913544 0
    outer loop
      vertex 7.72542 -23.7764 25
      vertex 12.5 -21.6506 -25
      vertex 7.72542 -23.7764 -25
    endloop
  endfacet
  facet normal -0.994522 -0.104527 0
    outer loop
      vertex 25 0 -25
      vertex 24.4537 5.19779 25
      vertex 24.4537 5.19779 -25
    endloop
  endfacet
  facet normal -0.994522 -0.104527 0
    outer loop
      vertex 24.4537 5.19779 25
      vertex 25 0 -25
      vertex 25 0 25
    endloop
  endfacet
  facet normal 0.951054 -0.309026 0
    outer loop
      vertex -24.4537 5.19779 25
      vertex -22.8386 10.1684 -25
      vertex -22.8386 10.1684 25
    endloop
  endfacet
  facet normal 0.951054 -0.309026 0
    outer loop
      vertex -22.8386 10.1684 -25
      vertex -24.4537 5.19779 25
      vertex -24.4537 5.19779 -25
    endloop
  endfacet
  facet normal 0.40674 -0.913544 0
    outer loop
      vertex -12.5 21.6506 -25
      vertex -7.72542 23.7764 25
      vertex -12.5 21.6506 25
    endloop
  endfacet
  facet normal 0.40674 -0.913544 0
    outer loop
      vertex -7.72542 23.7764 25
      vertex -12.5 21.6506 -25
      vertex -7.72542 23.7764 -25
    endloop
  endfacet
  facet normal -0.58778 0.809021 0
    outer loop
      vertex 16.7283 -18.5786 -25
      vertex 12.5 -21.6506 25
      vertex 16.7283 -18.5786 25
    endloop
  endfacet
  facet normal -0.58778 0.809021 0
    outer loop
      vertex 12.5 -21.6506 25
      vertex 16.7283 -18.5786 -25
      vertex 12.5 -21.6506 -25
    endloop
  endfacet
  facet normal -0.951054 -0.309026 0
    outer loop
      vertex 24.4537 5.19779 -25
      vertex 22.8386 10.1684 25
      vertex 22.8386 10.1684 -25
    endloop
  endfacet
  facet normal -0.951054 -0.309026 0
    outer loop
      vertex 22.8386 10.1684 25
      vertex 24.4537 5.19779 -25
      vertex 24.4537 5.19779 25
    endloop
  endfacet
  facet normal -0.207906 0.978149 0
    outer loop
      vertex 7.72542 -23.7764 -25
      vertex 2.61321 -24.863 25
      vertex 7.72542 -23.7764 25
    endloop
  endfacet
  facet normal -0.207906 0.978149 0
    outer loop
      vertex 2.61321 -24.863 25
      vertex 7.72542 -23.7764 -25
      vertex 2.61321 -24.863 -25
    endloop
  endfacet
  facet normal -0.40674 -0.913544 0
    outer loop
      vertex 7.72542 23.7764 -25
      vertex 12.5 21.6506 25
      vertex 7.72542 23.7764 25
    endloop
  endfacet
  facet normal -0.40674 -0.913544 -0
    outer loop
      vertex 12.5 21.6506 25
      vertex 7.72542 23.7764 -25
      vertex 12.5 21.6506 -25
    endloop
  endfacet
  facet normal 0.866026 -0.5 0
    outer loop
      vertex -22.8386 10.1684 25
      vertex -20.2254 14.6946 -25
      vertex -20.2254 14.6946 25
    endloop
  endfacet
  facet normal 0.866026 -0.5 0
    outer loop
      vertex -20.2254 14.6946 -25
      vertex -22.8386 10.1684 25
      vertex -22.8386 10.1684 -25
    endloop
  endfacet
  facet normal 0.743151 0.669123 0
    outer loop
      vertex -16.7283 -18.5786 25
      vertex -20.2254 -14.6946 -25
      vertex -20.2254 -14.6946 25
    endloop
  endfacet
  facet normal 0.743151 0.669123 0
    outer loop
      vertex -20.2254 -14.6946 -25
      vertex -16.7283 -18.5786 25
      vertex -16.7283 -18.5786 -25
    endloop
  endfacet
  facet normal 0.866026 0.5 0
    outer loop
      vertex -20.2254 -14.6946 25
      vertex -22.8386 -10.1684 -25
      vertex -22.8386 -10.1684 25
    endloop
  endfacet
  facet normal 0.866026 0.5 0
    outer loop
      vertex -22.8386 -10.1684 -25
      vertex -20.2254 -14.6946 25
      vertex -20.2254 -14.6946 -25
    endloop
  endfacet
  facet normal -0.743151 -0.669123 0
    outer loop
      vertex 20.2254 14.6946 -25
      vertex 16.7283 18.5786 25
      vertex 16.7283 18.5786 -25
    endloop
  endfacet
  facet normal -0.743151 -0.669123 0
    outer loop
      vertex 16.7283 18.5786 25
      vertex 20.2254 14.6946 -25
      vertex 20.2254 14.6946 25
    endloop
  endfacet
  facet normal 0.207906 -0.978149 0
    outer loop
      vertex -7.72542 23.7764 -25
      vertex -2.61321 24.863 25
      vertex -7.72542 23.7764 25
    endloop
  endfacet
  facet normal 0.207906 -0.978149 0
    outer loop
      vertex -2.61321 24.863 25
      vertex -7.72542 23.7764 -25
      vertex -2.61321 24.863 -25
    endloop
  endfacet
  facet normal 0.743151 -0.669123 0
    outer loop
      vertex -20.2254 14.6946 25
      vertex -16.7283 18.5786 -25
      vertex -16.7283 18.5786 25
    endloop
  endfacet
  facet normal 0.743151 -0.669123 0
    outer loop
      vertex -16.7283 18.5786 -25
      vertex -20.2254 14.6946 25
      vertex -20.2254 14.6946 -25
    endloop
  endfacet
  facet normal 0 1 -0
    outer loop
      vertex 2.61321 -24.863 -25
      vertex -2.61321 -24.863 25
      vertex 2.61321 -24.863 25
    endloop
  endfacet
  facet normal 0 1 0
    outer loop
      vertex -2.61321 -24.863 25
      vertex 2.61321 -24.863 -25
      vertex -2.61321 -24.863 -25
    endloop
  endfacet
  facet normal 0.58778 -0.809021 0
    outer loop
      vertex -16.7283 18.5786 -25
      vertex -12.5 21.6506 25
      vertex -16.7283 18.5786 25
    endloop
  endfacet
  facet normal 0.58778 -0.809021 0
    outer loop
      vertex -12.5 21.6506 25
      vertex -16.7283 18.5786 -25
      vertex -12.5 21.6506 -25
    endloop
  endfacet
  facet normal -0.951054 0.309026 0
    outer loop
      vertex 22.8386 -10.1684 -25
      vertex 24.4537 -5.19779 25
      vertex 24.4537 -5.19779 -25
    endloop
  endfacet
  facet normal -0.951054 0.309026 0
    outer loop
      vertex 24.4537 -5.19779 25
      vertex 22.8386 -10.1684 -25
      vertex 22.8386 -10.1684 25
    endloop
  endfacet
  facet normal -0.866026 0.5 0
    outer loop
      vertex 20.2254 -14.6946 -25
      vertex 22.8386 -10.1684 25
      vertex 22.8386 -10.1684 -25
    endloop
  endfacet
  facet normal -0.866026 0.5 0
    outer loop
      vertex 22.8386 -10.1684 25
      vertex 20.2254 -14.6946 -25
      vertex 20.2254 -14.6946 25
    endloop
  endfacet
  facet normal 0.40674 0.913544 -0
    outer loop
      vertex -7.72542 -23.7764 -25
      vertex -12.5 -21.6506 25
      vertex -7.72542 -23.7764 25
    endloop
  endfacet
  facet normal 0.40674 0.913544 0
    outer loop
      vertex -12.5 -21.6506 25
      vertex -7.72542 -23.7764 -25
      vertex -12.5 -21.6506 -25
    endloop
  endfacet
  facet normal 0.951054 0.309026 0
    outer loop
      vertex -22.8386 -10.1684 25
      vertex -24.4537 -5.19779 -25
      vertex -24.4537 -5.19779 25
    endloop
  endfacet
  facet normal 0.951054 0.309026 0
    outer loop
      vertex -24.4537 -5.19779 -25
      vertex -22.8386 -10.1684 25
      vertex -22.8386 -10.1684 -25
    endloop
  endfacet
  facet normal 0.207906 0.978149 -0
    outer loop
      vertex -2.61321 -24.863 -25
      vertex -7.72542 -23.7764 25
      vertex -2.61321 -24.863 25
    endloop
  endfacet
  facet normal 0.207906 0.978149 0
    outer loop
      vertex -7.72542 -23.7764 25
      vertex -2.61321 -24.863 -25
      vertex -7.72542 -23.7764 -25
    endloop
  endfacet
  facet normal -0.743151 0.669123 0
    outer loop
      vertex 16.7283 -18.5786 -25
      vertex 20.2254 -14.6946 25
      vertex 20.2254 -14.6946 -25
    endloop
  endfacet
  facet normal -0.743151 0.669123 0
    outer loop
      vertex 20.2254 -14.6946 25
      vertex 16.7283 -18.5786 -25
      vertex 16.7283 -18.5786 25
    endloop
  endfacet
  facet normal 0.951055 0.309021 0
    outer loop
      vertex 32.2789 6.86108 35
      vertex 30.147 13.4223 25
      vertex 30.147 13.4223 35
    endloop
  endfacet
  facet normal 0.951055 0.309021 0
    outer loop
      vertex 30.147 13.4223 25
      vertex 32.2789 6.86108 35
      vertex 32.2789 6.86108 25
    endloop
  endfacet
  facet normal 0.994522 0.104524 0
    outer loop
      vertex 33 0 35
      vertex 32.2789 6.86108 25
      vertex 32.2789 6.86108 35
    endloop
  endfacet
  facet normal 0.994522 0.104524 0
    outer loop
      vertex 32.2789 6.86108 25
      vertex 33 0 35
      vertex 33 0 25
    endloop
  endfacet
  facet normal 0.866028 0.499996 0
    outer loop
      vertex 30.147 13.4223 35
      vertex 26.6976 19.3969 25
      vertex 26.6976 19.3969 35
    endloop
  endfacet
  facet normal 0.866028 0.499996 0
    outer loop
      vertex 26.6976 19.3969 25
      vertex 30.147 13.4223 35
      vertex 30.147 13.4223 25
    endloop
  endfacet
  facet normal 0.58778 0.809021 -0
    outer loop
      vertex 22.0813 24.5238 25
      vertex 16.5 28.5788 35
      vertex 22.0813 24.5238 35
    endloop
  endfacet
  facet normal 0.58778 0.809021 0
    outer loop
      vertex 16.5 28.5788 35
      vertex 22.0813 24.5238 25
      vertex 16.5 28.5788 25
    endloop
  endfacet
  facet normal 0.951055 -0.309021 0
    outer loop
      vertex 30.147 -13.4223 35
      vertex 32.2789 -6.86108 25
      vertex 32.2789 -6.86108 35
    endloop
  endfacet
  facet normal 0.951055 -0.309021 0
    outer loop
      vertex 32.2789 -6.86108 25
      vertex 30.147 -13.4223 35
      vertex 30.147 -13.4223 25
    endloop
  endfacet
  facet normal 0.994522 -0.104524 0
    outer loop
      vertex 32.2789 -6.86108 35
      vertex 33 0 25
      vertex 33 0 35
    endloop
  endfacet
  facet normal 0.994522 -0.104524 0
    outer loop
      vertex 33 0 25
      vertex 32.2789 -6.86108 35
      vertex 32.2789 -6.86108 25
    endloop
  endfacet
  facet normal 0.743143 0.669132 0
    outer loop
      vertex 26.6976 19.3969 35
      vertex 22.0813 24.5238 25
      vertex 22.0813 24.5238 35
    endloop
  endfacet
  facet normal 0.743143 0.669132 0
    outer loop
      vertex 22.0813 24.5238 25
      vertex 26.6976 19.3969 35
      vertex 26.6976 19.3969 25
    endloop
  endfacet
  facet normal -0.951055 -0.309021 0
    outer loop
      vertex -30.147 -13.4223 25
      vertex -32.2789 -6.86108 35
      vertex -32.2789 -6.86108 25
    endloop
  endfacet
  facet normal -0.951055 -0.309021 0
    outer loop
      vertex -32.2789 -6.86108 35
      vertex -30.147 -13.4223 25
      vertex -30.147 -13.4223 35
    endloop
  endfacet
  facet normal -0.743143 0.669132 0
    outer loop
      vertex -26.6976 19.3969 25
      vertex -22.0813 24.5238 35
      vertex -22.0813 24.5238 25
    endloop
  endfacet
  facet normal -0.743143 0.669132 0
    outer loop
      vertex -22.0813 24.5238 35
      vertex -26.6976 19.3969 25
      vertex -26.6976 19.3969 35
    endloop
  endfacet
  facet normal -0.951055 0.309021 0
    outer loop
      vertex -32.2789 6.86108 25
      vertex -30.147 13.4223 35
      vertex -30.147 13.4223 25
    endloop
  endfacet
  facet normal -0.951055 0.309021 0
    outer loop
      vertex -30.147 13.4223 35
      vertex -32.2789 6.86108 25
      vertex -32.2789 6.86108 35
    endloop
  endfacet
  facet normal 0.58778 -0.809021 0
    outer loop
      vertex 16.5 -28.5788 25
      vertex 22.0813 -24.5238 35
      vertex 16.5 -28.5788 35
    endloop
  endfacet
  facet normal 0.58778 -0.809021 0
    outer loop
      vertex 22.0813 -24.5238 35
      vertex 16.5 -28.5788 25
      vertex 22.0813 -24.5238 25
    endloop
  endfacet
  facet normal -0.58778 0.809021 0
    outer loop
      vertex -16.5 28.5788 25
      vertex -22.0813 24.5238 35
      vertex -16.5 28.5788 35
    endloop
  endfacet
  facet normal -0.58778 0.809021 0
    outer loop
      vertex -22.0813 24.5238 35
      vertex -16.5 28.5788 25
      vertex -22.0813 24.5238 25
    endloop
  endfacet
  facet normal -0.866028 0.499996 0
    outer loop
      vertex -30.147 13.4223 25
      vertex -26.6976 19.3969 35
      vertex -26.6976 19.3969 25
    endloop
  endfacet
  facet normal -0.866028 0.499996 0
    outer loop
      vertex -26.6976 19.3969 35
      vertex -30.147 13.4223 25
      vertex -30.147 13.4223 35
    endloop
  endfacet
  facet normal 0.866028 -0.499996 0
    outer loop
      vertex 26.6976 -19.3969 35
      vertex 30.147 -13.4223 25
      vertex 30.147 -13.4223 35
    endloop
  endfacet
  facet normal 0.866028 -0.499996 0
    outer loop
      vertex 30.147 -13.4223 25
      vertex 26.6976 -19.3969 35
      vertex 26.6976 -19.3969 25
    endloop
  endfacet
  facet normal 0 1 -0
    outer loop
      vertex 3.44944 32.8192 25
      vertex -3.44944 32.8192 35
      vertex 3.44944 32.8192 35
    endloop
  endfacet
  facet normal 0 1 0
    outer loop
      vertex -3.44944 32.8192 35
      vertex 3.44944 32.8192 25
      vertex -3.44944 32.8192 25
    endloop
  endfacet
  facet normal -0.406748 0.913541 0
    outer loop
      vertex -10.1976 31.3849 25
      vertex -16.5 28.5788 35
      vertex -10.1976 31.3849 35
    endloop
  endfacet
  facet normal -0.406748 0.913541 0
    outer loop
      vertex -16.5 28.5788 35
      vertex -10.1976 31.3849 25
      vertex -16.5 28.5788 25
    endloop
  endfacet
  facet normal -0.207903 -0.97815 0
    outer loop
      vertex -10.1976 -31.3849 25
      vertex -3.44944 -32.8192 35
      vertex -10.1976 -31.3849 35
    endloop
  endfacet
  facet normal -0.207903 -0.97815 -0
    outer loop
      vertex -3.44944 -32.8192 35
      vertex -10.1976 -31.3849 25
      vertex -3.44944 -32.8192 25
    endloop
  endfacet
  facet normal 0 -1 0
    outer loop
      vertex -3.44944 -32.8192 25
      vertex 3.44944 -32.8192 35
      vertex -3.44944 -32.8192 35
    endloop
  endfacet
  facet normal 0 -1 -0
    outer loop
      vertex 3.44944 -32.8192 35
      vertex -3.44944 -32.8192 25
      vertex 3.44944 -32.8192 25
    endloop
  endfacet
  facet normal -0.207903 0.97815 0
    outer loop
      vertex -3.44944 32.8192 25
      vertex -10.1976 31.3849 35
      vertex -3.44944 32.8192 35
    endloop
  endfacet
  facet normal -0.207903 0.97815 0
    outer loop
      vertex -10.1976 31.3849 35
      vertex -3.44944 32.8192 25
      vertex -10.1976 31.3849 25
    endloop
  endfacet
  facet normal 0.207903 -0.97815 0
    outer loop
      vertex 3.44944 -32.8192 25
      vertex 10.1976 -31.3849 35
      vertex 3.44944 -32.8192 35
    endloop
  endfacet
  facet normal 0.207903 -0.97815 0
    outer loop
      vertex 10.1976 -31.3849 35
      vertex 3.44944 -32.8192 25
      vertex 10.1976 -31.3849 25
    endloop
  endfacet
  facet normal 0.743143 -0.669132 0
    outer loop
      vertex 22.0813 -24.5238 35
      vertex 26.6976 -19.3969 25
      vertex 26.6976 -19.3969 35
    endloop
  endfacet
  facet normal 0.743143 -0.669132 0
    outer loop
      vertex 26.6976 -19.3969 25
      vertex 22.0813 -24.5238 35
      vertex 22.0813 -24.5238 25
    endloop
  endfacet
  facet normal 0.406748 -0.913541 0
    outer loop
      vertex 10.1976 -31.3849 25
      vertex 16.5 -28.5788 35
      vertex 10.1976 -31.3849 35
    endloop
  endfacet
  facet normal 0.406748 -0.913541 0
    outer loop
      vertex 16.5 -28.5788 35
      vertex 10.1976 -31.3849 25
      vertex 16.5 -28.5788 25
    endloop
  endfacet
  facet normal -0.58778 -0.809021 0
    outer loop
      vertex -22.0813 -24.5238 25
      vertex -16.5 -28.5788 35
      vertex -22.0813 -24.5238 35
    endloop
  endfacet
  facet normal -0.58778 -0.809021 -0
    outer loop
      vertex -16.5 -28.5788 35
      vertex -22.0813 -24.5238 25
      vertex -16.5 -28.5788 25
    endloop
  endfacet
  facet normal -0.994522 0.104524 0
    outer loop
      vertex -33 0 25
      vertex -32.2789 6.86108 35
      vertex -32.2789 6.86108 25
    endloop
  endfacet
  facet normal -0.994522 0.104524 0
    outer loop
      vertex -32.2789 6.86108 35
      vertex -33 0 25
      vertex -33 0 35
    endloop
  endfacet
  facet normal 0.207903 0.97815 -0
    outer loop
      vertex 10.1976 31.3849 25
      vertex 3.44944 32.8192 35
      vertex 10.1976 31.3849 35
    endloop
  endfacet
  facet normal 0.207903 0.97815 0
    outer loop
      vertex 3.44944 32.8192 35
      vertex 10.1976 31.3849 25
      vertex 3.44944 32.8192 25
    endloop
  endfacet
  facet normal -0.866028 -0.499996 0
    outer loop
      vertex -26.6976 -19.3969 25
      vertex -30.147 -13.4223 35
      vertex -30.147 -13.4223 25
    endloop
  endfacet
  facet normal -0.866028 -0.499996 0
    outer loop
      vertex -30.147 -13.4223 35
      vertex -26.6976 -19.3969 25
      vertex -26.6976 -19.3969 35
    endloop
  endfacet
  facet normal 0.406748 0.913541 -0
    outer loop
      vertex 16.5 28.5788 25
      vertex 10.1976 31.3849 35
      vertex 16.5 28.5788 35
    endloop
  endfacet
  facet normal 0.406748 0.913541 0
    outer loop
      vertex 10.1976 31.3849 35
      vertex 16.5 28.5788 25
      vertex 10.1976 31.3849 25
    endloop
  endfacet
  facet normal -0.994522 -0.104524 0
    outer loop
      vertex -32.2789 -6.86108 25
      vertex -33 0 35
      vertex -33 0 25
    endloop
  endfacet
  facet normal -0.994522 -0.104524 0
    outer loop
      vertex -33 0 35
      vertex -32.2789 -6.86108 25
      vertex -32.2789 -6.86108 35
    endloop
  endfacet
  facet normal -0.743143 -0.669132 0
    outer loop
      vertex -22.0813 -24.5238 25
      vertex -26.6976 -19.3969 35
      vertex -26.6976 -19.3969 25
    endloop
  endfacet
  facet normal -0.743143 -0.669132 0
    outer loop
      vertex -26.6976 -19.3969 35
      vertex -22.0813 -24.5238 25
      vertex -22.0813 -24.5238 35
    endloop
  endfacet
  facet normal -0.406748 -0.913541 0
    outer loop
      vertex -16.5 -28.5788 25
      vertex -10.1976 -31.3849 35
      vertex -16.5 -28.5788 35
    endloop
  endfacet
  facet normal -0.406748 -0.913541 -0
    outer loop
      vertex -10.1976 -31.3849 35
      vertex -16.5 -28.5788 25
      vertex -10.1976 -31.3849 25
    endloop
  endfacet
  facet normal 0.705162 0.0741126 0.705162
    outer loop
      vertex 32.2789 6.86108 35
      vertex 23 0 45
      vertex 33 0 35
    endloop
  endfacet
  facet normal 0.705162 -0.0741126 0.705162
    outer loop
      vertex 33 0 35
      vertex 23 0 45
      vertex 32.2789 -6.86108 35
    endloop
  endfacet
  facet normal -0.416764 -0.573634 0.705161
    outer loop
      vertex -11.5 -19.9186 45
      vertex -22.0813 -24.5238 35
      vertex -16.5 -28.5788 35
    endloop
  endfacet
  facet normal -0.416771 -0.573626 0.705164
    outer loop
      vertex -15.39 -17.0923 45
      vertex -22.0813 -24.5238 35
      vertex -11.5 -19.9186 45
    endloop
  endfacet
  facet normal -0.147418 -0.693551 0.705163
    outer loop
      vertex -7.10739 -21.8743 45
      vertex -10.1976 -31.3849 35
      vertex -2.40415 -22.874 45
    endloop
  endfacet
  facet normal -0.288403 0.647744 0.705161
    outer loop
      vertex -10.1976 31.3849 35
      vertex -16.5 28.5788 35
      vertex -11.5 19.9186 45
    endloop
  endfacet
  facet normal 0.416764 -0.573634 0.705161
    outer loop
      vertex 22.0813 -24.5238 35
      vertex 11.5 -19.9186 45
      vertex 16.5 -28.5788 35
    endloop
  endfacet
  facet normal -0.416771 0.573626 0.705164
    outer loop
      vertex -11.5 19.9186 45
      vertex -22.0813 24.5238 35
      vertex -15.39 17.0923 45
    endloop
  endfacet
  facet normal 0.416764 0.573634 0.705161
    outer loop
      vertex 16.5 28.5788 35
      vertex 11.5 19.9186 45
      vertex 22.0813 24.5238 35
    endloop
  endfacet
  facet normal 0.674341 -0.21911 0.705164
    outer loop
      vertex 32.2789 -6.86108 35
      vertex 21.0115 -9.35494 45
      vertex 30.147 -13.4223 35
    endloop
  endfacet
  facet normal -0.526922 0.474445 0.705163
    outer loop
      vertex -22.0813 24.5238 35
      vertex -26.6976 19.3969 35
      vertex -15.39 17.0923 45
    endloop
  endfacet
  facet normal -0.705161 -0.0741147 0.705163
    outer loop
      vertex -23 0 45
      vertex -32.2789 -6.86108 35
      vertex -22.4974 -4.78197 45
    endloop
  endfacet
  facet normal 0.614052 0.35452 0.705163
    outer loop
      vertex 26.6976 19.3969 35
      vertex 21.0115 9.35494 45
      vertex 30.147 13.4223 35
    endloop
  endfacet
  facet normal 0.288403 0.647744 0.705161
    outer loop
      vertex 16.5 28.5788 35
      vertex 10.1976 31.3849 35
      vertex 11.5 19.9186 45
    endloop
  endfacet
  facet normal 0.526919 0.474451 0.705161
    outer loop
      vertex 26.6976 19.3969 35
      vertex 15.39 17.0923 45
      vertex 18.6074 13.5191 45
    endloop
  endfacet
  facet normal 0.288392 0.647745 0.705164
    outer loop
      vertex 10.1976 31.3849 35
      vertex 7.10739 21.8743 45
      vertex 11.5 19.9186 45
    endloop
  endfacet
  facet normal -0.147413 -0.693554 0.705162
    outer loop
      vertex -2.40415 -22.874 45
      vertex -10.1976 -31.3849 35
      vertex -3.44944 -32.8192 35
    endloop
  endfacet
  facet normal -0.288403 -0.647744 0.705161
    outer loop
      vertex -11.5 -19.9186 45
      vertex -16.5 -28.5788 35
      vertex -10.1976 -31.3849 35
    endloop
  endfacet
  facet normal -0.705162 -0.0741126 0.705162
    outer loop
      vertex -23 0 45
      vertex -33 0 35
      vertex -32.2789 -6.86108 35
    endloop
  endfacet
  facet normal -0.614058 -0.354515 0.705161
    outer loop
      vertex -21.0115 -9.35494 45
      vertex -26.6976 -19.3969 35
      vertex -18.6074 -13.5191 45
    endloop
  endfacet
  facet normal 0.526922 0.474445 0.705163
    outer loop
      vertex 22.0813 24.5238 35
      vertex 15.39 17.0923 45
      vertex 26.6976 19.3969 35
    endloop
  endfacet
  facet normal 0.705161 0.0741147 0.705163
    outer loop
      vertex 32.2789 6.86108 35
      vertex 22.4974 4.78197 45
      vertex 23 0 45
    endloop
  endfacet
  facet normal -0.147413 0.693554 0.705162
    outer loop
      vertex -3.44944 32.8192 35
      vertex -10.1976 31.3849 35
      vertex -2.40415 22.874 45
    endloop
  endfacet
  facet normal 0.147418 -0.693551 0.705163
    outer loop
      vertex 7.10739 -21.8743 45
      vertex 2.40415 -22.874 45
      vertex 10.1976 -31.3849 35
    endloop
  endfacet
  facet normal -0.416764 0.573634 0.705161
    outer loop
      vertex -16.5 28.5788 35
      vertex -22.0813 24.5238 35
      vertex -11.5 19.9186 45
    endloop
  endfacet
  facet normal -0.288392 -0.647745 0.705164
    outer loop
      vertex -7.10739 -21.8743 45
      vertex -11.5 -19.9186 45
      vertex -10.1976 -31.3849 35
    endloop
  endfacet
  facet normal 0.147413 0.693554 0.705162
    outer loop
      vertex 3.44944 32.8192 35
      vertex 2.40415 22.874 45
      vertex 10.1976 31.3849 35
    endloop
  endfacet
  facet normal 0.288392 -0.647745 0.705164
    outer loop
      vertex 11.5 -19.9186 45
      vertex 7.10739 -21.8743 45
      vertex 10.1976 -31.3849 35
    endloop
  endfacet
  facet normal -0.705162 0.0741126 0.705162
    outer loop
      vertex -32.2789 6.86108 35
      vertex -33 0 35
      vertex -23 0 45
    endloop
  endfacet
  facet normal -0.674341 0.21911 0.705164
    outer loop
      vertex -30.147 13.4223 35
      vertex -32.2789 6.86108 35
      vertex -21.0115 9.35494 45
    endloop
  endfacet
  facet normal -0.526919 0.474451 0.705161
    outer loop
      vertex -15.39 17.0923 45
      vertex -26.6976 19.3969 35
      vertex -18.6074 13.5191 45
    endloop
  endfacet
  facet normal 0.288403 -0.647744 0.705161
    outer loop
      vertex 11.5 -19.9186 45
      vertex 10.1976 -31.3849 35
      vertex 16.5 -28.5788 35
    endloop
  endfacet
  facet normal -0.526922 -0.474445 0.705163
    outer loop
      vertex -15.39 -17.0923 45
      vertex -26.6976 -19.3969 35
      vertex -22.0813 -24.5238 35
    endloop
  endfacet
  facet normal 0.67434 0.219114 0.705162
    outer loop
      vertex 32.2789 6.86108 35
      vertex 21.0115 9.35494 45
      vertex 22.4974 4.78197 45
    endloop
  endfacet
  facet normal 0.674341 0.21911 0.705164
    outer loop
      vertex 30.147 13.4223 35
      vertex 21.0115 9.35494 45
      vertex 32.2789 6.86108 35
    endloop
  endfacet
  facet normal -0.288392 0.647745 0.705164
    outer loop
      vertex -10.1976 31.3849 35
      vertex -11.5 19.9186 45
      vertex -7.10739 21.8743 45
    endloop
  endfacet
  facet normal -0.674341 -0.21911 0.705164
    outer loop
      vertex -21.0115 -9.35494 45
      vertex -32.2789 -6.86108 35
      vertex -30.147 -13.4223 35
    endloop
  endfacet
  facet normal 0.614052 -0.35452 0.705163
    outer loop
      vertex 30.147 -13.4223 35
      vertex 21.0115 -9.35494 45
      vertex 26.6976 -19.3969 35
    endloop
  endfacet
  facet normal 0.614058 -0.354515 0.705161
    outer loop
      vertex 21.0115 -9.35494 45
      vertex 18.6074 -13.5191 45
      vertex 26.6976 -19.3969 35
    endloop
  endfacet
  facet normal 0.416771 -0.573626 0.705164
    outer loop
      vertex 15.39 -17.0923 45
      vertex 11.5 -19.9186 45
      vertex 22.0813 -24.5238 35
    endloop
  endfacet
  facet normal -0.67434 -0.219114 0.705162
    outer loop
      vertex -22.4974 -4.78197 45
      vertex -32.2789 -6.86108 35
      vertex -21.0115 -9.35494 45
    endloop
  endfacet
  facet normal -0.614058 0.354515 0.705161
    outer loop
      vertex -18.6074 13.5191 45
      vertex -26.6976 19.3969 35
      vertex -21.0115 9.35494 45
    endloop
  endfacet
  facet normal -0.614052 0.35452 0.705163
    outer loop
      vertex -26.6976 19.3969 35
      vertex -30.147 13.4223 35
      vertex -21.0115 9.35494 45
    endloop
  endfacet
  facet normal -0.526919 -0.474451 0.705161
    outer loop
      vertex -18.6074 -13.5191 45
      vertex -26.6976 -19.3969 35
      vertex -15.39 -17.0923 45
    endloop
  endfacet
  facet normal 0 0.709047 0.705161
    outer loop
      vertex 3.44944 32.8192 35
      vertex -2.40415 22.874 45
      vertex 2.40415 22.874 45
    endloop
  endfacet
  facet normal 0 0.709047 0.705161
    outer loop
      vertex -2.40415 22.874 45
      vertex 3.44944 32.8192 35
      vertex -3.44944 32.8192 35
    endloop
  endfacet
  facet normal 0.147418 0.693551 0.705163
    outer loop
      vertex 10.1976 31.3849 35
      vertex 2.40415 22.874 45
      vertex 7.10739 21.8743 45
    endloop
  endfacet
  facet normal 0.416771 0.573626 0.705164
    outer loop
      vertex 22.0813 24.5238 35
      vertex 11.5 19.9186 45
      vertex 15.39 17.0923 45
    endloop
  endfacet
  facet normal -0.147418 0.693551 0.705163
    outer loop
      vertex -2.40415 22.874 45
      vertex -10.1976 31.3849 35
      vertex -7.10739 21.8743 45
    endloop
  endfacet
  facet normal 0.526919 -0.474451 0.705161
    outer loop
      vertex 18.6074 -13.5191 45
      vertex 15.39 -17.0923 45
      vertex 26.6976 -19.3969 35
    endloop
  endfacet
  facet normal 0.526922 -0.474445 0.705163
    outer loop
      vertex 26.6976 -19.3969 35
      vertex 15.39 -17.0923 45
      vertex 22.0813 -24.5238 35
    endloop
  endfacet
  facet normal 0.67434 -0.219114 0.705162
    outer loop
      vertex 22.4974 -4.78197 45
      vertex 21.0115 -9.35494 45
      vertex 32.2789 -6.86108 35
    endloop
  endfacet
  facet normal 0.705161 -0.0741147 0.705163
    outer loop
      vertex 23 0 45
      vertex 22.4974 -4.78197 45
      vertex 32.2789 -6.86108 35
    endloop
  endfacet
  facet normal 0.147413 -0.693554 0.705162
    outer loop
      vertex 10.1976 -31.3849 35
      vertex 2.40415 -22.874 45
      vertex 3.44944 -32.8192 35
    endloop
  endfacet
  facet normal 0.614058 0.354515 0.705161
    outer loop
      vertex 26.6976 19.3969 35
      vertex 18.6074 13.5191 45
      vertex 21.0115 9.35494 45
    endloop
  endfacet
  facet normal 0 -0.709047 0.705161
    outer loop
      vertex -3.44944 -32.8192 35
      vertex 2.40415 -22.874 45
      vertex -2.40415 -22.874 45
    endloop
  endfacet
  facet normal 0 -0.709047 0.705161
    outer loop
      vertex 2.40415 -22.874 45
      vertex -3.44944 -32.8192 35
      vertex 3.44944 -32.8192 35
    endloop
  endfacet
  facet normal -0.614052 -0.35452 0.705163
    outer loop
      vertex -21.0115 -9.35494 45
      vertex -30.147 -13.4223 35
      vertex -26.6976 -19.3969 35
    endloop
  endfacet
  facet normal -0.67434 0.219114 0.705162
    outer loop
      vertex -21.0115 9.35494 45
      vertex -32.2789 6.86108 35
      vertex -22.4974 4.78197 45
    endloop
  endfacet
  facet normal -0.705161 0.0741147 0.705163
    outer loop
      vertex -22.4974 4.78197 45
      vertex -32.2789 6.86108 35
      vertex -23 0 45
    endloop
  endfacet
  facet normal 0 0 1
    outer loop
      vertex 22.4974 4.78197 45
      vertex 22.4974 -4.78197 45
      vertex 23 0 45
    endloop
  endfacet
  facet normal 0 0 1
    outer loop
      vertex 21.0115 9.35494 45
      vertex 22.4974 -4.78197 45
      vertex 22.4974 4.78197 45
    endloop
  endfacet
  facet normal 0 0 1
    outer loop
      vertex 21.0115 9.35494 45
      vertex 21.0115 -9.35494 45
      vertex 22.4974 -4.78197 45
    endloop
  endfacet
  facet normal 0 0 1
    outer loop
      vertex 18.6074 13.5191 45
      vertex 21.0115 -9.35494 45
      vertex 21.0115 9.35494 45
    endloop
  endfacet
  facet normal 0 0 1
    outer loop
      vertex 18.6074 13.5191 45
      vertex 18.6074 -13.5191 45
      vertex 21.0115 -9.35494 45
    endloop
  endfacet
  facet normal 0 0 1
    outer loop
      vertex 15.39 17.0923 45
      vertex 18.6074 -13.5191 45
      vertex 18.6074 13.5191 45
    endloop
  endfacet
  facet normal 0 0 1
    outer loop
      vertex 15.39 17.0923 45
      vertex 15.39 -17.0923 45
      vertex 18.6074 -13.5191 45
    endloop
  endfacet
  facet normal 0 0 1
    outer loop
      vertex 11.5 19.9186 45
      vertex 15.39 -17.0923 45
      vertex 15.39 17.0923 45
    endloop
  endfacet
  facet normal 0 0 1
    outer loop
      vertex 11.5 19.9186 45
      vertex 11.5 -19.9186 45
      vertex 15.39 -17.0923 45
    endloop
  endfacet
  facet normal 0 0 1
    outer loop
      vertex 7.10739 21.8743 45
      vertex 11.5 -19.9186 45
      vertex 11.5 19.9186 45
    endloop
  endfacet
  facet normal 0 0 1
    outer loop
      vertex 7.10739 21.8743 45
      vertex 7.10739 -21.8743 45
      vertex 11.5 -19.9186 45
    endloop
  endfacet
  facet normal 0 0 1
    outer loop
      vertex 2.40415 22.874 45
      vertex 7.10739 -21.8743 45
      vertex 7.10739 21.8743 45
    endloop
  endfacet
  facet normal 0 0 1
    outer loop
      vertex 2.40415 22.874 45
      vertex 2.40415 -22.874 45
      vertex 7.10739 -21.8743 45
    endloop
  endfacet
  facet normal -0 0 1
    outer loop
      vertex -2.40415 22.874 45
      vertex 2.40415 -22.874 45
      vertex 2.40415 22.874 45
    endloop
  endfacet
  facet normal 0 0 1
    outer loop
      vertex -2.40415 22.874 45
      vertex -2.40415 -22.874 45
      vertex 2.40415 -22.874 45
    endloop
  endfacet
  facet normal -0 0 1
    outer loop
      vertex -7.10739 21.8743 45
      vertex -2.40415 -22.874 45
      vertex -2.40415 22.874 45
    endloop
  endfacet
  facet normal 0 0 1
    outer loop
      vertex -7.10739 21.8743 45
      vertex -7.10739 -21.8743 45
      vertex -2.40415 -22.874 45
    endloop
  endfacet
  facet normal -0 0 1
    outer loop
      vertex -11.5 19.9186 45
      vertex -7.10739 -21.8743 45
      vertex -7.10739 21.8743 45
    endloop
  endfacet
  facet normal 0 0 1
    outer loop
      vertex -11.5 19.9186 45
      vertex -11.5 -19.9186 45
      vertex -7.10739 -21.8743 45
    endloop
  endfacet
  facet normal -0 0 1
    outer loop
      vertex -15.39 17.0923 45
      vertex -11.5 -19.9186 45
      vertex -11.5 19.9186 45
    endloop
  endfacet
  facet normal 0 0 1
    outer loop
      vertex -15.39 17.0923 45
      vertex -15.39 -17.0923 45
      vertex -11.5 -19.9186 45
    endloop
  endfacet
  facet normal -0 0 1
    outer loop
      vertex -18.6074 13.5191 45
      vertex -15.39 -17.0923 45
      vertex -15.39 17.0923 45
    endloop
  endfacet
  facet normal 0 0 1
    outer loop
      vertex -18.6074 13.5191 45
      vertex -18.6074 -13.5191 45
      vertex -15.39 -17.0923 45
    endloop
  endfacet
  facet normal -0 0 1
    outer loop
      vertex -21.0115 9.35494 45
      vertex -18.6074 -13.5191 45
      vertex -18.6074 13.5191 45
    endloop
  endfacet
  facet normal 0 0 1
    outer loop
      vertex -21.0115 9.35494 45
      vertex -21.0115 -9.35494 45
      vertex -18.6074 -13.5191 45
    endloop
  endfacet
  facet normal -0 0 1
    outer loop
      vertex -22.4974 4.78197 45
      vertex -21.0115 -9.35494 45
      vertex -21.0115 9.35494 45
    endloop
  endfacet
  facet normal 0 0 1
    outer loop
      vertex -22.4974 4.78197 45
      vertex -22.4974 -4.78197 45
      vertex -21.0115 -9.35494 45
    endloop
  endfacet
  facet normal 0 -0 1
    outer loop
      vertex -22.4974 -4.78197 45
      vertex -22.4974 4.78197 45
      vertex -23 0 45
    endloop
  endfacet
endsolid OpenSCAD_Model
