solid OpenSCAD_Model
  facet normal -1 0 0
    outer loop
      vertex 8.9 -2.5 8.4
      vertex 8.9 2.5 11.5
      vertex 8.9 2.5 8.4
    endloop
  endfacet
  facet normal -1 -0 0
    outer loop
      vertex 8.9 2.5 11.5
      vertex 8.9 -2.5 8.4
      vertex 8.9 -2.5 11.5
    endloop
  endfacet
  facet normal -0 0 1
    outer loop
      vertex -8.9 2.5 8.4
      vertex 8.9 -2.5 8.4
      vertex 8.9 2.5 8.4
    endloop
  endfacet
  facet normal 0 0 1
    outer loop
      vertex 8.9 -2.5 8.4
      vertex -8.9 2.5 8.4
      vertex -8.9 -2.5 8.4
    endloop
  endfacet
  facet normal 1 -0 0
    outer loop
      vertex -8.9 -2.5 11.5
      vertex -8.9 2.5 8.4
      vertex -8.9 2.5 11.5
    endloop
  endfacet
  facet normal 1 0 0
    outer loop
      vertex -8.9 2.5 8.4
      vertex -8.9 -2.5 11.5
      vertex -8.9 -2.5 8.4
    endloop
  endfacet
  facet normal -0.990468 -0.0858419 -0.107724
    outer loop
      vertex 8.50666 -2.5 -3.44824
      vertex 8.13333 2.5 -4
      vertex 8.56667 -2.5 -4
    endloop
  endfacet
  facet normal -0.990469 -0.0858411 -0.107716
    outer loop
      vertex 8.13333 2.5 -4
      vertex 8.50666 -2.5 -3.44824
      vertex 8.01332 2.5 -2.89649
    endloop
  endfacet
  facet normal 0.904223 -0.0858414 -0.418343
    outer loop
      vertex -7.88519 -2.5 -0.760935
      vertex -7.70758 2.5 -1.40301
      vertex -7.24149 2.5 -0.395585
    endloop
  endfacet
  facet normal 0.904228 -0.0858404 -0.418334
    outer loop
      vertex -7.70758 2.5 -1.40301
      vertex -7.88519 -2.5 -0.760935
      vertex -8.11823 -2.5 -1.26465
    endloop
  endfacet
  facet normal -0.723315 -0.0858407 -0.685162
    outer loop
      vertex 6.81986 -2.5 1.18433
      vertex 5.71153 2.5 1.72795
      vertex 6.47489 2.5 0.922083
    endloop
  endfacet
  facet normal -0.723312 -0.0858397 -0.685165
    outer loop
      vertex 5.71153 2.5 1.72795
      vertex 6.81986 -2.5 1.18433
      vertex 6.43818 -2.5 1.58726
    endloop
  endfacet
  facet normal 0.466705 -0.0858458 0.880237
    outer loop
      vertex -3.75995 -1.00375 -11.5
      vertex -3.11547 2.5 -11.5
      vertex -3.99117 2.5 -11.0357
    endloop
  endfacet
  facet normal -0.559096 -0.0858533 0.824646
    outer loop
      vertex 3.97625 -1.60211 -11.5
      vertex 5.08657 -2.5 -10.8407
      vertex 4.34666 2.5 -10.8218
    endloop
  endfacet
  facet normal -0.559086 -0.0858346 0.824654
    outer loop
      vertex 5.08657 -2.5 -10.8407
      vertex 3.97625 -1.60211 -11.5
      vertex 4.1141 -2.5 -11.5
    endloop
  endfacet
  facet normal -0.559164 -0.0858399 0.824601
    outer loop
      vertex 3.97625 -1.60211 -11.5
      vertex 4.34666 2.5 -10.8218
      vertex 3.80972 2.5 -11.1859
    endloop
  endfacet
  facet normal 0.904224 -0.0858416 -0.418342
    outer loop
      vertex -7.34041 -2.5 0.416578
      vertex -7.24149 2.5 -0.395585
      vertex -6.9691 2.5 0.193171
    endloop
  endfacet
  facet normal 0.904224 -0.0858416 -0.418342
    outer loop
      vertex -7.24149 2.5 -0.395585
      vertex -7.34041 -2.5 0.416578
      vertex -7.88519 -2.5 -0.760935
    endloop
  endfacet
  facet normal -0.559164 -0.0858456 0.824601
    outer loop
      vertex 5.26541 2.5 -10.1989
      vertex 5.08657 -2.5 -10.8407
      vertex 5.54594 -2.5 -10.5292
    endloop
  endfacet
  facet normal -0.559098 -0.0858536 0.824645
    outer loop
      vertex 5.08657 -2.5 -10.8407
      vertex 5.26541 2.5 -10.1989
      vertex 4.34666 2.5 -10.8218
    endloop
  endfacet
  facet normal -0.853697 -0.0858403 0.513647
    outer loop
      vertex 7.48876 -2.5 -8.07261
      vertex 7.38161 2.5 -7.4151
      vertex 6.80934 2.5 -8.36623
    endloop
  endfacet
  facet normal -0.85369 -0.0858416 0.513657
    outer loop
      vertex 7.38161 2.5 -7.4151
      vertex 7.48876 -2.5 -8.07261
      vertex 7.7749 -2.5 -7.59705
    endloop
  endfacet
  facet normal 0.266537 -0.0858394 -0.959995
    outer loop
      vertex -2.63607 -2.5 4.10671
      vertex -3.01046 2.5 3.55568
      vertex -1.94089 2.5 3.85264
    endloop
  endfacet
  facet normal 0.266539 -0.0858392 -0.959994
    outer loop
      vertex -3.01046 2.5 3.55568
      vertex -2.63607 -2.5 4.10671
      vertex -3.17085 -2.5 3.95823
    endloop
  endfacet
  facet normal 0.266545 -0.0858393 -0.959992
    outer loop
      vertex -1.38593 -2.5 4.45381
      vertex -1.94089 2.5 3.85264
      vertex -1.31583 2.5 4.02619
    endloop
  endfacet
  facet normal 0.266541 -0.0858399 -0.959993
    outer loop
      vertex -1.94089 2.5 3.85264
      vertex -1.38593 -2.5 4.45381
      vertex -2.63607 -2.5 4.10671
    endloop
  endfacet
  facet normal 0.973017 -0.0858404 -0.21417
    outer loop
      vertex -8.11823 -2.5 -1.26465
      vertex -7.84703 2.5 -2.03656
      vertex -7.70758 2.5 -1.40301
    endloop
  endfacet
  facet normal 0.973015 -0.0858417 -0.214179
    outer loop
      vertex -7.84703 2.5 -2.03656
      vertex -8.11823 -2.5 -1.26465
      vertex -8.39714 -2.5 -2.53174
    endloop
  endfacet
  facet normal -0.944152 -0.0858398 -0.318132
    outer loop
      vertex 8.36638 -2.5 -2.15842
      vertex 7.73604 2.5 -1.63682
      vertex 7.94318 2.5 -2.25157
    endloop
  endfacet
  facet normal -0.944155 -0.0858413 -0.318122
    outer loop
      vertex 7.73604 2.5 -1.63682
      vertex 8.36638 -2.5 -2.15842
      vertex 7.95211 -2.5 -0.928908
    endloop
  endfacet
  facet normal -0.368767 -0.0858398 -0.92555
    outer loop
      vertex 4.0127 -2.5 3.56875
      vertex 3.20708 2.5 3.42601
      vertex 3.80972 2.5 3.1859
    endloop
  endfacet
  facet normal -0.368774 -0.0858408 -0.925547
    outer loop
      vertex 3.20708 2.5 3.42601
      vertex 4.0127 -2.5 3.56875
      vertex 2.80742 -2.5 4.04898
    endloop
  endfacet
  facet normal -0.723321 -0.0858413 -0.685156
    outer loop
      vertex 6.43818 -2.5 1.58726
      vertex 5.26541 2.5 2.19892
      vertex 5.71153 2.5 1.72795
    endloop
  endfacet
  facet normal -0.723317 -0.08584 -0.68516
    outer loop
      vertex 5.26541 2.5 2.19892
      vertex 6.43818 -2.5 1.58726
      vertex 5.54594 -2.5 2.52919
    endloop
  endfacet
  facet normal -0.723312 -0.0858397 0.685165
    outer loop
      vertex 6.81986 -2.5 -9.18433
      vertex 5.71153 2.5 -9.72795
      vertex 6.43818 -2.5 -9.58726
    endloop
  endfacet
  facet normal -0.723316 -0.0858411 0.685161
    outer loop
      vertex 5.71153 2.5 -9.72795
      vertex 6.81986 -2.5 -9.18433
      vertex 6.47489 2.5 -8.92208
    endloop
  endfacet
  facet normal 0.793154 -0.0858405 -0.602941
    outer loop
      vertex -7.34041 -2.5 0.416578
      vertex -6.57652 2.5 0.709608
      vertex -6.55524 -2.5 1.44945
    endloop
  endfacet
  facet normal 0.793158 -0.0858415 -0.602935
    outer loop
      vertex -6.57652 2.5 0.709608
      vertex -7.34041 -2.5 0.416578
      vertex -6.9691 2.5 0.193171
    endloop
  endfacet
  facet normal 0.644998 -0.0858405 -0.759348
    outer loop
      vertex -5.79635 -2.5 2.2506
      vertex -5.90476 2.5 1.59329
      vertex -5.05875 2.5 2.3119
    endloop
  endfacet
  facet normal 0.644999 -0.0858404 -0.759347
    outer loop
      vertex -5.90476 2.5 1.59329
      vertex -5.79635 -2.5 2.2506
      vertex -6.21936 -2.5 1.89129
    endloop
  endfacet
  facet normal -0.853692 -0.08584 -0.513654
    outer loop
      vertex 7.48876 -2.5 0.072615
      vertex 6.47489 2.5 0.922083
      vertex 6.80934 2.5 0.366228
    endloop
  endfacet
  facet normal -0.853693 -0.0858405 -0.513653
    outer loop
      vertex 6.47489 2.5 0.922083
      vertex 7.48876 -2.5 0.072615
      vertex 6.81986 -2.5 1.18433
    endloop
  endfacet
  facet normal 0.996309 -0.085842 0
    outer loop
      vertex -8.51645 -2.5 -3.07378
      vertex -8.08565 2.5 -4.87937
      vertex -8.08565 2.5 -3.12063
    endloop
  endfacet
  facet normal 0.996309 -0.085842 0
    outer loop
      vertex -8.08565 2.5 -4.87937
      vertex -8.51645 -2.5 -3.07378
      vertex -8.51645 -2.5 -4.92622
    endloop
  endfacet
  facet normal -0.723321 -0.085844 0.685156
    outer loop
      vertex 6.43818 -2.5 -9.58726
      vertex 5.26541 2.5 -10.1989
      vertex 5.54594 -2.5 -10.5292
    endloop
  endfacet
  facet normal -0.723306 -0.0858388 0.685171
    outer loop
      vertex 5.26541 2.5 -10.1989
      vertex 6.43818 -2.5 -9.58726
      vertex 5.71153 2.5 -9.72795
    endloop
  endfacet
  facet normal 0.0539458 -0.0858407 -0.994847
    outer loop
      vertex -1.38593 -2.5 4.45381
      vertex -0.668064 2.5 4.06131
      vertex -0.0904074 -2.5 4.52406
    endloop
  endfacet
  facet normal 0.0539378 -0.0858396 -0.994848
    outer loop
      vertex -0.668064 2.5 4.06131
      vertex -1.38593 -2.5 4.45381
      vertex -1.31583 2.5 4.02619
    endloop
  endfacet
  facet normal -0.161184 -0.085841 -0.983184
    outer loop
      vertex 2.29183 -2.5 4.25441
      vertex 1.53573 2.5 3.94182
      vertex 2.1759 2.5 3.83687
    endloop
  endfacet
  facet normal -0.161184 -0.085841 -0.983184
    outer loop
      vertex 1.53573 2.5 3.94182
      vertex 2.29183 -2.5 4.25441
      vertex 1.01149 -2.5 4.46431
    endloop
  endfacet
  facet normal 0.973016 -0.0858415 0.214177
    outer loop
      vertex -8.11823 -2.5 -6.73535
      vertex -7.84703 2.5 -5.96344
      vertex -8.39714 -2.5 -5.46825
    endloop
  endfacet
  facet normal 0.973017 -0.0858404 0.21417
    outer loop
      vertex -7.84703 2.5 -5.96344
      vertex -8.11823 -2.5 -6.73535
      vertex -7.70758 2.5 -6.59699
    endloop
  endfacet
  facet normal -0.990468 -0.0858403 -0.107723
    outer loop
      vertex 8.36638 -2.5 -2.15842
      vertex 8.01332 2.5 -2.89649
      vertex 8.50666 -2.5 -3.44824
    endloop
  endfacet
  facet normal -0.990468 -0.0858401 -0.107721
    outer loop
      vertex 8.01332 2.5 -2.89649
      vertex 8.36638 -2.5 -2.15842
      vertex 7.94318 2.5 -2.25157
    endloop
  endfacet
  facet normal -0.990469 -0.0858411 0.107716
    outer loop
      vertex 8.50666 -2.5 -4.55176
      vertex 8.13333 2.5 -4
      vertex 8.01332 2.5 -5.10351
    endloop
  endfacet
  facet normal -0.990468 -0.0858419 0.107724
    outer loop
      vertex 8.13333 2.5 -4
      vertex 8.50666 -2.5 -4.55176
      vertex 8.56667 -2.5 -4
    endloop
  endfacet
  facet normal -0.944155 -0.0858412 0.318123
    outer loop
      vertex 8.36638 -2.5 -5.84158
      vertex 7.73604 2.5 -6.36318
      vertex 7.95211 -2.5 -7.07109
    endloop
  endfacet
  facet normal -0.944152 -0.0858398 0.318132
    outer loop
      vertex 7.73604 2.5 -6.36318
      vertex 8.36638 -2.5 -5.84158
      vertex 7.94318 2.5 -5.74843
    endloop
  endfacet
  facet normal 0.466677 -0.0858418 -0.880252
    outer loop
      vertex -4.8075 -2.5 3.09054
      vertex -3.99117 2.5 3.03573
      vertex -3.66121 -2.5 3.69826
    endloop
  endfacet
  facet normal 0.466674 -0.0858413 -0.880254
    outer loop
      vertex -3.99117 2.5 3.03573
      vertex -4.8075 -2.5 3.09054
      vertex -4.56432 2.5 2.73187
    endloop
  endfacet
  facet normal 0.466601 -0.0858599 0.880291
    outer loop
      vertex -4.56432 2.5 -10.7319
      vertex -3.75995 -1.00375 -11.5
      vertex -3.99117 2.5 -11.0357
    endloop
  endfacet
  facet normal 0.466691 -0.0858292 0.880246
    outer loop
      vertex -4.8075 -2.5 -11.0905
      vertex -3.75995 -1.00375 -11.5
      vertex -4.56432 2.5 -10.7319
    endloop
  endfacet
  facet normal 0.466712 -0.0858469 0.880233
    outer loop
      vertex -3.75995 -1.00375 -11.5
      vertex -4.8075 -2.5 -11.0905
      vertex -4.03517 -2.5 -11.5
    endloop
  endfacet
  facet normal -0.85369 -0.0858409 0.513658
    outer loop
      vertex 6.81986 -2.5 -9.18433
      vertex 6.80934 2.5 -8.36623
      vertex 6.47489 2.5 -8.92208
    endloop
  endfacet
  facet normal -0.853694 -0.0858398 0.513651
    outer loop
      vertex 6.80934 2.5 -8.36623
      vertex 6.81986 -2.5 -9.18433
      vertex 7.48876 -2.5 -8.07261
    endloop
  endfacet
  facet normal 0.793153 -0.0858406 -0.602943
    outer loop
      vertex -6.55524 -2.5 1.44945
      vertex -5.90476 2.5 1.59329
      vertex -6.21936 -2.5 1.89129
    endloop
  endfacet
  facet normal 0.793154 -0.0858407 -0.602942
    outer loop
      vertex -5.90476 2.5 1.59329
      vertex -6.55524 -2.5 1.44945
      vertex -6.57652 2.5 0.709608
    endloop
  endfacet
  facet normal 0.79316 -0.0858419 0.602933
    outer loop
      vertex -7.34041 -2.5 -8.41658
      vertex -6.57652 2.5 -8.70961
      vertex -6.9691 2.5 -8.19317
    endloop
  endfacet
  facet normal 0.793154 -0.0858404 0.602942
    outer loop
      vertex -6.57652 2.5 -8.70961
      vertex -7.34041 -2.5 -8.41658
      vertex -6.55524 -2.5 -9.44945
    endloop
  endfacet
  facet normal 0.644994 -0.0858412 -0.759351
    outer loop
      vertex -4.8075 -2.5 3.09054
      vertex -5.05875 2.5 2.3119
      vertex -4.56432 2.5 2.73187
    endloop
  endfacet
  facet normal 0.644998 -0.0858405 -0.759348
    outer loop
      vertex -5.05875 2.5 2.3119
      vertex -4.8075 -2.5 3.09054
      vertex -5.79635 -2.5 2.2506
    endloop
  endfacet
  facet normal -0.944159 -0.0858417 0.318112
    outer loop
      vertex 7.95211 -2.5 -7.07109
      vertex 7.38161 2.5 -7.4151
      vertex 7.7749 -2.5 -7.59705
    endloop
  endfacet
  facet normal -0.944156 -0.0858409 0.31812
    outer loop
      vertex 7.38161 2.5 -7.4151
      vertex 7.95211 -2.5 -7.07109
      vertex 7.73604 2.5 -6.36318
    endloop
  endfacet
  facet normal -0.990468 -0.0858401 0.107721
    outer loop
      vertex 8.36638 -2.5 -5.84158
      vertex 8.01332 2.5 -5.10351
      vertex 7.94318 2.5 -5.74843
    endloop
  endfacet
  facet normal -0.990468 -0.0858403 0.107723
    outer loop
      vertex 8.01332 2.5 -5.10351
      vertex 8.36638 -2.5 -5.84158
      vertex 8.50666 -2.5 -4.55176
    endloop
  endfacet
  facet normal -0.944156 -0.0858411 -0.318121
    outer loop
      vertex 7.95211 -2.5 -0.928908
      vertex 7.38161 2.5 -0.584902
      vertex 7.73604 2.5 -1.63682
    endloop
  endfacet
  facet normal -0.944158 -0.0858419 -0.318113
    outer loop
      vertex 7.38161 2.5 -0.584902
      vertex 7.95211 -2.5 -0.928908
      vertex 7.7749 -2.5 -0.40295
    endloop
  endfacet
  facet normal -0.368772 -0.085841 -0.925548
    outer loop
      vertex 2.1759 2.5 3.83687
      vertex 2.80742 -2.5 4.04898
      vertex 2.29183 -2.5 4.25441
    endloop
  endfacet
  facet normal -0.368772 -0.085841 -0.925548
    outer loop
      vertex 2.80742 -2.5 4.04898
      vertex 2.1759 2.5 3.83687
      vertex 3.20708 2.5 3.42601
    endloop
  endfacet
  facet normal 0.973016 -0.0858421 -0.214175
    outer loop
      vertex -8.39714 -2.5 -2.53174
      vertex -8.08565 2.5 -3.12063
      vertex -7.84703 2.5 -2.03656
    endloop
  endfacet
  facet normal 0.973016 -0.0858419 -0.214173
    outer loop
      vertex -8.08565 2.5 -3.12063
      vertex -8.39714 -2.5 -2.53174
      vertex -8.51645 -2.5 -3.07378
    endloop
  endfacet
  facet normal -0.559115 -0.0858395 -0.824635
    outer loop
      vertex 4.0127 -2.5 3.56875
      vertex 4.34666 2.5 2.82185
      vertex 5.08657 -2.5 2.84065
    endloop
  endfacet
  facet normal -0.559111 -0.0858401 -0.824637
    outer loop
      vertex 4.34666 2.5 2.82185
      vertex 4.0127 -2.5 3.56875
      vertex 3.80972 2.5 3.1859
    endloop
  endfacet
  facet normal -0.559115 -0.0858401 -0.824634
    outer loop
      vertex 5.08657 -2.5 2.84065
      vertex 5.26541 2.5 2.19892
      vertex 5.54594 -2.5 2.52919
    endloop
  endfacet
  facet normal -0.559117 -0.0858399 -0.824633
    outer loop
      vertex 5.26541 2.5 2.19892
      vertex 5.08657 -2.5 2.84065
      vertex 4.34666 2.5 2.82185
    endloop
  endfacet
  facet normal 0.973016 -0.0858419 0.214177
    outer loop
      vertex -8.39714 -2.5 -5.46825
      vertex -8.08565 2.5 -4.87937
      vertex -8.51645 -2.5 -4.92622
    endloop
  endfacet
  facet normal 0.973016 -0.0858417 0.214175
    outer loop
      vertex -8.08565 2.5 -4.87937
      vertex -8.39714 -2.5 -5.46825
      vertex -7.84703 2.5 -5.96344
    endloop
  endfacet
  facet normal 0.466676 -0.0858392 -0.880253
    outer loop
      vertex -3.66121 -2.5 3.69826
      vertex -3.01046 2.5 3.55568
      vertex -3.17085 -2.5 3.95823
    endloop
  endfacet
  facet normal 0.466687 -0.0858404 -0.880247
    outer loop
      vertex -3.01046 2.5 3.55568
      vertex -3.66121 -2.5 3.69826
      vertex -3.99117 2.5 3.03573
    endloop
  endfacet
  facet normal 0.645022 -0.0858303 0.759329
    outer loop
      vertex -5.05875 2.5 -10.3119
      vertex -4.8075 -2.5 -11.0905
      vertex -4.56432 2.5 -10.7319
    endloop
  endfacet
  facet normal 0.64498 -0.0858377 0.759363
    outer loop
      vertex -4.8075 -2.5 -11.0905
      vertex -5.05875 2.5 -10.3119
      vertex -5.79635 -2.5 -10.2506
    endloop
  endfacet
  facet normal 0.904225 -0.0858418 0.41834
    outer loop
      vertex -7.34041 -2.5 -8.41658
      vertex -7.24149 2.5 -7.60441
      vertex -7.88519 -2.5 -7.23906
    endloop
  endfacet
  facet normal 0.904225 -0.0858418 0.41834
    outer loop
      vertex -7.24149 2.5 -7.60441
      vertex -7.34041 -2.5 -8.41658
      vertex -6.9691 2.5 -8.19317
    endloop
  endfacet
  facet normal 0.0539254 -0.0858412 -0.994848
    outer loop
      vertex -0.0904074 -2.5 4.52406
      vertex 0.440329 2.5 4.1214
      vertex 0.463789 -2.5 4.5541
    endloop
  endfacet
  facet normal 0.0539343 -0.0858421 -0.994848
    outer loop
      vertex 0.440329 2.5 4.1214
      vertex -0.0904074 -2.5 4.52406
      vertex -0.668064 2.5 4.06131
    endloop
  endfacet
  facet normal -0.161183 -0.085841 -0.983184
    outer loop
      vertex 0.440329 2.5 4.1214
      vertex 1.01149 -2.5 4.46431
      vertex 0.463789 -2.5 4.5541
    endloop
  endfacet
  facet normal -0.161183 -0.0858411 -0.983184
    outer loop
      vertex 1.01149 -2.5 4.46431
      vertex 0.440329 2.5 4.1214
      vertex 1.53573 2.5 3.94182
    endloop
  endfacet
  facet normal 0.793153 -0.0858406 0.602943
    outer loop
      vertex -6.55524 -2.5 -9.44945
      vertex -5.90476 2.5 -9.59329
      vertex -6.57652 2.5 -8.70961
    endloop
  endfacet
  facet normal 0.793153 -0.0858406 0.602943
    outer loop
      vertex -5.90476 2.5 -9.59329
      vertex -6.55524 -2.5 -9.44945
      vertex -6.21936 -2.5 -9.89129
    endloop
  endfacet
  facet normal 0.644998 -0.0858405 0.759348
    outer loop
      vertex -5.90476 2.5 -9.59329
      vertex -5.79635 -2.5 -10.2506
      vertex -5.05875 2.5 -10.3119
    endloop
  endfacet
  facet normal 0.644999 -0.0858404 0.759347
    outer loop
      vertex -5.79635 -2.5 -10.2506
      vertex -5.90476 2.5 -9.59329
      vertex -6.21936 -2.5 -9.89129
    endloop
  endfacet
  facet normal 0.904226 -0.0858403 0.418338
    outer loop
      vertex -7.88519 -2.5 -7.23906
      vertex -7.70758 2.5 -6.59699
      vertex -8.11823 -2.5 -6.73535
    endloop
  endfacet
  facet normal 0.904223 -0.0858412 0.418345
    outer loop
      vertex -7.70758 2.5 -6.59699
      vertex -7.88519 -2.5 -7.23906
      vertex -7.24149 2.5 -7.60441
    endloop
  endfacet
  facet normal -0.368816 -0.0858505 0.925529
    outer loop
      vertex 3.15961 1.90616 -11.5
      vertex 3.20708 2.5 -11.426
      vertex 3.02138 2.5 -11.5
    endloop
  endfacet
  facet normal -0.368753 -0.0858586 0.925554
    outer loop
      vertex 3.15961 1.90616 -11.5
      vertex 3.80972 2.5 -11.1859
      vertex 3.20708 2.5 -11.426
    endloop
  endfacet
  facet normal -0.368768 -0.0858402 0.925549
    outer loop
      vertex 3.80972 2.5 -11.1859
      vertex 3.15961 1.90616 -11.5
      vertex 3.97625 -1.60211 -11.5
    endloop
  endfacet
  facet normal -0.853693 -0.0858418 -0.513654
    outer loop
      vertex 7.48876 -2.5 0.072615
      vertex 7.38161 2.5 -0.584902
      vertex 7.7749 -2.5 -0.40295
    endloop
  endfacet
  facet normal -0.853697 -0.085841 -0.513647
    outer loop
      vertex 7.38161 2.5 -0.584902
      vertex 7.48876 -2.5 0.072615
      vertex 6.80934 2.5 0.366228
    endloop
  endfacet
  facet normal 1 -0 0
    outer loop
      vertex 11.5 -2.5 11.5
      vertex 11.5 2.5 -11.5
      vertex 11.5 2.5 11.5
    endloop
  endfacet
  facet normal 1 0 0
    outer loop
      vertex 11.5 2.5 -11.5
      vertex 11.5 -2.5 11.5
      vertex 11.5 -2.5 -11.5
    endloop
  endfacet
  facet normal -0 0 1
    outer loop
      vertex -11.5 2.5 11.5
      vertex -8.9 -2.5 11.5
      vertex -8.9 2.5 11.5
    endloop
  endfacet
  facet normal 0 0 1
    outer loop
      vertex -8.9 -2.5 11.5
      vertex -11.5 2.5 11.5
      vertex -11.5 -2.5 11.5
    endloop
  endfacet
  facet normal -0 0 1
    outer loop
      vertex 8.9 2.5 11.5
      vertex 11.5 -2.5 11.5
      vertex 11.5 2.5 11.5
    endloop
  endfacet
  facet normal 0 0 1
    outer loop
      vertex 11.5 -2.5 11.5
      vertex 8.9 2.5 11.5
      vertex 8.9 -2.5 11.5
    endloop
  endfacet
  facet normal 0 0 -1
    outer loop
      vertex 3.97625 -1.60211 -11.5
      vertex 11.5 -2.5 -11.5
      vertex 4.1141 -2.5 -11.5
    endloop
  endfacet
  facet normal 0 0 -1
    outer loop
      vertex 11.5 -2.5 -11.5
      vertex 3.97625 -1.60211 -11.5
      vertex 11.5 2.5 -11.5
    endloop
  endfacet
  facet normal 0 0 -1
    outer loop
      vertex 3.15961 1.90616 -11.5
      vertex 11.5 2.5 -11.5
      vertex 3.97625 -1.60211 -11.5
    endloop
  endfacet
  facet normal -0 0 -1
    outer loop
      vertex 11.5 2.5 -11.5
      vertex 3.15961 1.90616 -11.5
      vertex 3.02138 2.5 -11.5
    endloop
  endfacet
  facet normal 0 0 -1
    outer loop
      vertex -11.5 -2.5 -11.5
      vertex -3.75995 -1.00375 -11.5
      vertex -4.03517 -2.5 -11.5
    endloop
  endfacet
  facet normal 0 0 -1
    outer loop
      vertex -11.5 2.5 -11.5
      vertex -3.75995 -1.00375 -11.5
      vertex -11.5 -2.5 -11.5
    endloop
  endfacet
  facet normal 0 0 -1
    outer loop
      vertex -3.75995 -1.00375 -11.5
      vertex -11.5 2.5 -11.5
      vertex -3.11547 2.5 -11.5
    endloop
  endfacet
  facet normal -1 0 0
    outer loop
      vertex -11.5 -2.5 -11.5
      vertex -11.5 2.5 11.5
      vertex -11.5 2.5 -11.5
    endloop
  endfacet
  facet normal -1 -0 0
    outer loop
      vertex -11.5 2.5 11.5
      vertex -11.5 -2.5 -11.5
      vertex -11.5 -2.5 11.5
    endloop
  endfacet
  facet normal 0 1 0
    outer loop
      vertex 11.5 2.5 11.5
      vertex 8.9 2.5 8.4
      vertex 8.9 2.5 11.5
    endloop
  endfacet
  facet normal 0 1 0
    outer loop
      vertex 8.9 2.5 8.4
      vertex 0.440329 2.5 4.1214
      vertex -8.9 2.5 8.4
    endloop
  endfacet
  facet normal 0 1 0
    outer loop
      vertex 8.9 2.5 8.4
      vertex 1.53573 2.5 3.94182
      vertex 0.440329 2.5 4.1214
    endloop
  endfacet
  facet normal 0 1 0
    outer loop
      vertex 8.9 2.5 8.4
      vertex 2.1759 2.5 3.83687
      vertex 1.53573 2.5 3.94182
    endloop
  endfacet
  facet normal 0 1 0
    outer loop
      vertex 8.9 2.5 8.4
      vertex 3.20708 2.5 3.42601
      vertex 2.1759 2.5 3.83687
    endloop
  endfacet
  facet normal 0 1 0
    outer loop
      vertex 8.9 2.5 8.4
      vertex 3.80972 2.5 3.1859
      vertex 3.20708 2.5 3.42601
    endloop
  endfacet
  facet normal 0 1 0
    outer loop
      vertex 8.9 2.5 8.4
      vertex 4.34666 2.5 2.82185
      vertex 3.80972 2.5 3.1859
    endloop
  endfacet
  facet normal 0 1 0
    outer loop
      vertex 7.73604 2.5 -1.63682
      vertex 8.9 2.5 8.4
      vertex 11.5 2.5 11.5
    endloop
  endfacet
  facet normal 0 1 0
    outer loop
      vertex 8.9 2.5 8.4
      vertex 5.26541 2.5 2.19892
      vertex 4.34666 2.5 2.82185
    endloop
  endfacet
  facet normal 0 1 0
    outer loop
      vertex 8.9 2.5 8.4
      vertex 5.71153 2.5 1.72795
      vertex 5.26541 2.5 2.19892
    endloop
  endfacet
  facet normal 0 1 0
    outer loop
      vertex 8.9 2.5 8.4
      vertex 6.47489 2.5 0.922083
      vertex 5.71153 2.5 1.72795
    endloop
  endfacet
  facet normal 0 1 0
    outer loop
      vertex 8.9 2.5 8.4
      vertex 6.80934 2.5 0.366228
      vertex 6.47489 2.5 0.922083
    endloop
  endfacet
  facet normal 0 1 0
    outer loop
      vertex 8.9 2.5 8.4
      vertex 7.38161 2.5 -0.584902
      vertex 6.80934 2.5 0.366228
    endloop
  endfacet
  facet normal 0 1 0
    outer loop
      vertex 8.9 2.5 8.4
      vertex 7.73604 2.5 -1.63682
      vertex 7.38161 2.5 -0.584902
    endloop
  endfacet
  facet normal 0 1 0
    outer loop
      vertex 11.5 2.5 11.5
      vertex 7.94318 2.5 -2.25157
      vertex 7.73604 2.5 -1.63682
    endloop
  endfacet
  facet normal 0 1 -0
    outer loop
      vertex 11.5 2.5 -11.5
      vertex 7.94318 2.5 -2.25157
      vertex 11.5 2.5 11.5
    endloop
  endfacet
  facet normal 0 1 0
    outer loop
      vertex 7.94318 2.5 -2.25157
      vertex 11.5 2.5 -11.5
      vertex 8.01332 2.5 -2.89649
    endloop
  endfacet
  facet normal 0 1 0
    outer loop
      vertex 8.01332 2.5 -2.89649
      vertex 11.5 2.5 -11.5
      vertex 8.13333 2.5 -4
    endloop
  endfacet
  facet normal 0 1 0
    outer loop
      vertex 8.13333 2.5 -4
      vertex 11.5 2.5 -11.5
      vertex 8.01332 2.5 -5.10351
    endloop
  endfacet
  facet normal 0 1 0
    outer loop
      vertex 8.01332 2.5 -5.10351
      vertex 11.5 2.5 -11.5
      vertex 7.94318 2.5 -5.74843
    endloop
  endfacet
  facet normal 0 1 0
    outer loop
      vertex 11.5 2.5 -11.5
      vertex 7.73604 2.5 -6.36318
      vertex 7.94318 2.5 -5.74843
    endloop
  endfacet
  facet normal 0 1 0
    outer loop
      vertex 11.5 2.5 -11.5
      vertex 7.38161 2.5 -7.4151
      vertex 7.73604 2.5 -6.36318
    endloop
  endfacet
  facet normal 0 1 0
    outer loop
      vertex 11.5 2.5 -11.5
      vertex 6.80934 2.5 -8.36623
      vertex 7.38161 2.5 -7.4151
    endloop
  endfacet
  facet normal 0 1 0
    outer loop
      vertex 11.5 2.5 -11.5
      vertex 6.47489 2.5 -8.92208
      vertex 6.80934 2.5 -8.36623
    endloop
  endfacet
  facet normal 0 1 0
    outer loop
      vertex 11.5 2.5 -11.5
      vertex 5.71153 2.5 -9.72795
      vertex 6.47489 2.5 -8.92208
    endloop
  endfacet
  facet normal 0 1 0
    outer loop
      vertex 11.5 2.5 -11.5
      vertex 5.26541 2.5 -10.1989
      vertex 5.71153 2.5 -9.72795
    endloop
  endfacet
  facet normal 0 1 0
    outer loop
      vertex 11.5 2.5 -11.5
      vertex 4.34666 2.5 -10.8218
      vertex 5.26541 2.5 -10.1989
    endloop
  endfacet
  facet normal 0 1 0
    outer loop
      vertex 11.5 2.5 -11.5
      vertex 3.80972 2.5 -11.1859
      vertex 4.34666 2.5 -10.8218
    endloop
  endfacet
  facet normal 0 1 0
    outer loop
      vertex 11.5 2.5 -11.5
      vertex 3.20708 2.5 -11.426
      vertex 3.80972 2.5 -11.1859
    endloop
  endfacet
  facet normal 0 1 0
    outer loop
      vertex 3.20708 2.5 -11.426
      vertex 11.5 2.5 -11.5
      vertex 3.02138 2.5 -11.5
    endloop
  endfacet
  facet normal 0 1 -0
    outer loop
      vertex -8.9 2.5 8.4
      vertex -11.5 2.5 11.5
      vertex -8.9 2.5 11.5
    endloop
  endfacet
  facet normal 0 1 -0
    outer loop
      vertex -0.668064 2.5 4.06131
      vertex -8.9 2.5 8.4
      vertex 0.440329 2.5 4.1214
    endloop
  endfacet
  facet normal 0 1 -0
    outer loop
      vertex -1.31583 2.5 4.02619
      vertex -8.9 2.5 8.4
      vertex -0.668064 2.5 4.06131
    endloop
  endfacet
  facet normal 0 1 -0
    outer loop
      vertex -1.94089 2.5 3.85264
      vertex -8.9 2.5 8.4
      vertex -1.31583 2.5 4.02619
    endloop
  endfacet
  facet normal 0 1 -0
    outer loop
      vertex -3.01046 2.5 3.55568
      vertex -8.9 2.5 8.4
      vertex -1.94089 2.5 3.85264
    endloop
  endfacet
  facet normal 0 1 -0
    outer loop
      vertex -3.99117 2.5 3.03573
      vertex -8.9 2.5 8.4
      vertex -3.01046 2.5 3.55568
    endloop
  endfacet
  facet normal 0 1 -0
    outer loop
      vertex -4.56432 2.5 2.73187
      vertex -8.9 2.5 8.4
      vertex -3.99117 2.5 3.03573
    endloop
  endfacet
  facet normal 0 1 -0
    outer loop
      vertex -5.05875 2.5 2.3119
      vertex -8.9 2.5 8.4
      vertex -4.56432 2.5 2.73187
    endloop
  endfacet
  facet normal 0 1 -0
    outer loop
      vertex -5.90476 2.5 1.59329
      vertex -8.9 2.5 8.4
      vertex -5.05875 2.5 2.3119
    endloop
  endfacet
  facet normal 0 1 -0
    outer loop
      vertex -6.57652 2.5 0.709608
      vertex -8.9 2.5 8.4
      vertex -5.90476 2.5 1.59329
    endloop
  endfacet
  facet normal 0 1 -0
    outer loop
      vertex -6.9691 2.5 0.193171
      vertex -8.9 2.5 8.4
      vertex -6.57652 2.5 0.709608
    endloop
  endfacet
  facet normal 0 1 -0
    outer loop
      vertex -7.24149 2.5 -0.395585
      vertex -8.9 2.5 8.4
      vertex -6.9691 2.5 0.193171
    endloop
  endfacet
  facet normal 0 1 -0
    outer loop
      vertex -7.70758 2.5 -1.40301
      vertex -8.9 2.5 8.4
      vertex -7.24149 2.5 -0.395585
    endloop
  endfacet
  facet normal 0 1 0
    outer loop
      vertex -8.9 2.5 8.4
      vertex -7.70758 2.5 -1.40301
      vertex -11.5 2.5 11.5
    endloop
  endfacet
  facet normal 0 1 -0
    outer loop
      vertex -7.84703 2.5 -2.03656
      vertex -11.5 2.5 11.5
      vertex -7.70758 2.5 -1.40301
    endloop
  endfacet
  facet normal 0 1 -0
    outer loop
      vertex -8.08565 2.5 -3.12063
      vertex -11.5 2.5 11.5
      vertex -7.84703 2.5 -2.03656
    endloop
  endfacet
  facet normal 0 1 0
    outer loop
      vertex -11.5 2.5 -11.5
      vertex -8.08565 2.5 -3.12063
      vertex -8.08565 2.5 -4.87937
    endloop
  endfacet
  facet normal 0 1 0
    outer loop
      vertex -11.5 2.5 -11.5
      vertex -7.84703 2.5 -5.96344
      vertex -7.70758 2.5 -6.59699
    endloop
  endfacet
  facet normal 0 1 0
    outer loop
      vertex -11.5 2.5 -11.5
      vertex -7.24149 2.5 -7.60441
      vertex -6.9691 2.5 -8.19317
    endloop
  endfacet
  facet normal 0 1 0
    outer loop
      vertex -11.5 2.5 -11.5
      vertex -6.57652 2.5 -8.70961
      vertex -5.90476 2.5 -9.59329
    endloop
  endfacet
  facet normal 0 1 0
    outer loop
      vertex -11.5 2.5 -11.5
      vertex -3.99117 2.5 -11.0357
      vertex -3.11547 2.5 -11.5
    endloop
  endfacet
  facet normal 0 1 0
    outer loop
      vertex -8.08565 2.5 -3.12063
      vertex -11.5 2.5 -11.5
      vertex -11.5 2.5 11.5
    endloop
  endfacet
  facet normal 0 1 0
    outer loop
      vertex -7.84703 2.5 -5.96344
      vertex -11.5 2.5 -11.5
      vertex -8.08565 2.5 -4.87937
    endloop
  endfacet
  facet normal 0 1 0
    outer loop
      vertex -7.24149 2.5 -7.60441
      vertex -11.5 2.5 -11.5
      vertex -7.70758 2.5 -6.59699
    endloop
  endfacet
  facet normal 0 1 0
    outer loop
      vertex -6.57652 2.5 -8.70961
      vertex -11.5 2.5 -11.5
      vertex -6.9691 2.5 -8.19317
    endloop
  endfacet
  facet normal 0 1 0
    outer loop
      vertex -5.05875 2.5 -10.3119
      vertex -11.5 2.5 -11.5
      vertex -5.90476 2.5 -9.59329
    endloop
  endfacet
  facet normal 0 1 0
    outer loop
      vertex -4.56432 2.5 -10.7319
      vertex -11.5 2.5 -11.5
      vertex -5.05875 2.5 -10.3119
    endloop
  endfacet
  facet normal 0 1 0
    outer loop
      vertex -3.99117 2.5 -11.0357
      vertex -11.5 2.5 -11.5
      vertex -4.56432 2.5 -10.7319
    endloop
  endfacet
  facet normal 0 -1 0
    outer loop
      vertex -11.5 -2.5 11.5
      vertex -8.9 -2.5 8.4
      vertex -8.9 -2.5 11.5
    endloop
  endfacet
  facet normal 0 -1 0
    outer loop
      vertex -8.9 -2.5 8.4
      vertex 0.463789 -2.5 4.5541
      vertex 8.9 -2.5 8.4
    endloop
  endfacet
  facet normal 0 -1 0
    outer loop
      vertex -8.9 -2.5 8.4
      vertex -0.0904074 -2.5 4.52406
      vertex 0.463789 -2.5 4.5541
    endloop
  endfacet
  facet normal 0 -1 0
    outer loop
      vertex -8.9 -2.5 8.4
      vertex -1.38593 -2.5 4.45381
      vertex -0.0904074 -2.5 4.52406
    endloop
  endfacet
  facet normal 0 -1 0
    outer loop
      vertex -8.9 -2.5 8.4
      vertex -2.63607 -2.5 4.10671
      vertex -1.38593 -2.5 4.45381
    endloop
  endfacet
  facet normal 0 -1 0
    outer loop
      vertex -8.9 -2.5 8.4
      vertex -3.17085 -2.5 3.95823
      vertex -2.63607 -2.5 4.10671
    endloop
  endfacet
  facet normal 0 -1 0
    outer loop
      vertex -8.9 -2.5 8.4
      vertex -3.66121 -2.5 3.69826
      vertex -3.17085 -2.5 3.95823
    endloop
  endfacet
  facet normal 0 -1 0
    outer loop
      vertex -8.9 -2.5 8.4
      vertex -4.8075 -2.5 3.09054
      vertex -3.66121 -2.5 3.69826
    endloop
  endfacet
  facet normal 0 -1 0
    outer loop
      vertex -8.11823 -2.5 -1.26465
      vertex -8.9 -2.5 8.4
      vertex -11.5 -2.5 11.5
    endloop
  endfacet
  facet normal 0 -1 0
    outer loop
      vertex -8.9 -2.5 8.4
      vertex -5.79635 -2.5 2.2506
      vertex -4.8075 -2.5 3.09054
    endloop
  endfacet
  facet normal 0 -1 0
    outer loop
      vertex -8.9 -2.5 8.4
      vertex -6.21936 -2.5 1.89129
      vertex -5.79635 -2.5 2.2506
    endloop
  endfacet
  facet normal 0 -1 0
    outer loop
      vertex -8.9 -2.5 8.4
      vertex -6.55524 -2.5 1.44945
      vertex -6.21936 -2.5 1.89129
    endloop
  endfacet
  facet normal 0 -1 0
    outer loop
      vertex -8.9 -2.5 8.4
      vertex -7.34041 -2.5 0.416578
      vertex -6.55524 -2.5 1.44945
    endloop
  endfacet
  facet normal 0 -1 0
    outer loop
      vertex -8.9 -2.5 8.4
      vertex -7.88519 -2.5 -0.760935
      vertex -7.34041 -2.5 0.416578
    endloop
  endfacet
  facet normal 0 -1 0
    outer loop
      vertex -8.9 -2.5 8.4
      vertex -8.11823 -2.5 -1.26465
      vertex -7.88519 -2.5 -0.760935
    endloop
  endfacet
  facet normal 0 -1 0
    outer loop
      vertex -11.5 -2.5 11.5
      vertex -8.39714 -2.5 -2.53174
      vertex -8.11823 -2.5 -1.26465
    endloop
  endfacet
  facet normal 0 -1 0
    outer loop
      vertex -11.5 -2.5 11.5
      vertex -8.51645 -2.5 -3.07378
      vertex -8.39714 -2.5 -2.53174
    endloop
  endfacet
  facet normal 0 -1 0
    outer loop
      vertex -11.5 -2.5 -11.5
      vertex -8.51645 -2.5 -3.07378
      vertex -11.5 -2.5 11.5
    endloop
  endfacet
  facet normal 0 -1 0
    outer loop
      vertex -11.5 -2.5 -11.5
      vertex -8.39714 -2.5 -5.46825
      vertex -8.51645 -2.5 -4.92622
    endloop
  endfacet
  facet normal 0 -1 0
    outer loop
      vertex -11.5 -2.5 -11.5
      vertex -5.79635 -2.5 -10.2506
      vertex -6.21936 -2.5 -9.89129
    endloop
  endfacet
  facet normal 0 -1 -0
    outer loop
      vertex -8.51645 -2.5 -3.07378
      vertex -11.5 -2.5 -11.5
      vertex -8.51645 -2.5 -4.92622
    endloop
  endfacet
  facet normal 0 -1 -0
    outer loop
      vertex -8.39714 -2.5 -5.46825
      vertex -11.5 -2.5 -11.5
      vertex -8.11823 -2.5 -6.73535
    endloop
  endfacet
  facet normal 0 -1 0
    outer loop
      vertex -11.5 -2.5 -11.5
      vertex -7.88519 -2.5 -7.23906
      vertex -8.11823 -2.5 -6.73535
    endloop
  endfacet
  facet normal 0 -1 0
    outer loop
      vertex -11.5 -2.5 -11.5
      vertex -7.34041 -2.5 -8.41658
      vertex -7.88519 -2.5 -7.23906
    endloop
  endfacet
  facet normal 0 -1 0
    outer loop
      vertex -11.5 -2.5 -11.5
      vertex -6.55524 -2.5 -9.44945
      vertex -7.34041 -2.5 -8.41658
    endloop
  endfacet
  facet normal 0 -1 0
    outer loop
      vertex -11.5 -2.5 -11.5
      vertex -6.21936 -2.5 -9.89129
      vertex -6.55524 -2.5 -9.44945
    endloop
  endfacet
  facet normal 0 -1 -0
    outer loop
      vertex -5.79635 -2.5 -10.2506
      vertex -11.5 -2.5 -11.5
      vertex -4.8075 -2.5 -11.0905
    endloop
  endfacet
  facet normal 0 -1 -0
    outer loop
      vertex -4.8075 -2.5 -11.0905
      vertex -11.5 -2.5 -11.5
      vertex -4.03517 -2.5 -11.5
    endloop
  endfacet
  facet normal 0 -1 0
    outer loop
      vertex 8.9 -2.5 8.4
      vertex 11.5 -2.5 11.5
      vertex 8.9 -2.5 11.5
    endloop
  endfacet
  facet normal 0 -1 0
    outer loop
      vertex 1.01149 -2.5 4.46431
      vertex 8.9 -2.5 8.4
      vertex 0.463789 -2.5 4.5541
    endloop
  endfacet
  facet normal 0 -1 0
    outer loop
      vertex 2.29183 -2.5 4.25441
      vertex 8.9 -2.5 8.4
      vertex 1.01149 -2.5 4.46431
    endloop
  endfacet
  facet normal 0 -1 0
    outer loop
      vertex 2.80742 -2.5 4.04898
      vertex 8.9 -2.5 8.4
      vertex 2.29183 -2.5 4.25441
    endloop
  endfacet
  facet normal 0 -1 0
    outer loop
      vertex 4.0127 -2.5 3.56875
      vertex 8.9 -2.5 8.4
      vertex 2.80742 -2.5 4.04898
    endloop
  endfacet
  facet normal 0 -1 0
    outer loop
      vertex 5.08657 -2.5 2.84065
      vertex 8.9 -2.5 8.4
      vertex 4.0127 -2.5 3.56875
    endloop
  endfacet
  facet normal 0 -1 0
    outer loop
      vertex 5.54594 -2.5 2.52919
      vertex 8.9 -2.5 8.4
      vertex 5.08657 -2.5 2.84065
    endloop
  endfacet
  facet normal 0 -1 0
    outer loop
      vertex 6.43818 -2.5 1.58726
      vertex 8.9 -2.5 8.4
      vertex 5.54594 -2.5 2.52919
    endloop
  endfacet
  facet normal 0 -1 0
    outer loop
      vertex 6.81986 -2.5 1.18433
      vertex 8.9 -2.5 8.4
      vertex 6.43818 -2.5 1.58726
    endloop
  endfacet
  facet normal 0 -1 0
    outer loop
      vertex 7.48876 -2.5 0.072615
      vertex 8.9 -2.5 8.4
      vertex 6.81986 -2.5 1.18433
    endloop
  endfacet
  facet normal 0 -1 0
    outer loop
      vertex 7.7749 -2.5 -0.40295
      vertex 8.9 -2.5 8.4
      vertex 7.48876 -2.5 0.072615
    endloop
  endfacet
  facet normal 0 -1 0
    outer loop
      vertex 7.95211 -2.5 -0.928908
      vertex 8.9 -2.5 8.4
      vertex 7.7749 -2.5 -0.40295
    endloop
  endfacet
  facet normal 0 -1 -0
    outer loop
      vertex 8.9 -2.5 8.4
      vertex 7.95211 -2.5 -0.928908
      vertex 11.5 -2.5 11.5
    endloop
  endfacet
  facet normal 0 -1 0
    outer loop
      vertex 8.36638 -2.5 -2.15842
      vertex 11.5 -2.5 11.5
      vertex 7.95211 -2.5 -0.928908
    endloop
  endfacet
  facet normal 0 -1 0
    outer loop
      vertex 11.5 -2.5 -11.5
      vertex 8.36638 -2.5 -2.15842
      vertex 8.50666 -2.5 -3.44824
    endloop
  endfacet
  facet normal 0 -1 0
    outer loop
      vertex 11.5 -2.5 -11.5
      vertex 8.50666 -2.5 -3.44824
      vertex 8.56667 -2.5 -4
    endloop
  endfacet
  facet normal 0 -1 0
    outer loop
      vertex 11.5 -2.5 -11.5
      vertex 8.56667 -2.5 -4
      vertex 8.50666 -2.5 -4.55176
    endloop
  endfacet
  facet normal 0 -1 0
    outer loop
      vertex 11.5 -2.5 -11.5
      vertex 8.50666 -2.5 -4.55176
      vertex 8.36638 -2.5 -5.84158
    endloop
  endfacet
  facet normal 0 -1 0
    outer loop
      vertex 11.5 -2.5 -11.5
      vertex 5.08657 -2.5 -10.8407
      vertex 4.1141 -2.5 -11.5
    endloop
  endfacet
  facet normal 0 -1 0
    outer loop
      vertex 8.36638 -2.5 -2.15842
      vertex 11.5 -2.5 -11.5
      vertex 11.5 -2.5 11.5
    endloop
  endfacet
  facet normal 0 -1 0
    outer loop
      vertex 7.95211 -2.5 -7.07109
      vertex 11.5 -2.5 -11.5
      vertex 8.36638 -2.5 -5.84158
    endloop
  endfacet
  facet normal 0 -1 0
    outer loop
      vertex 7.7749 -2.5 -7.59705
      vertex 11.5 -2.5 -11.5
      vertex 7.95211 -2.5 -7.07109
    endloop
  endfacet
  facet normal 0 -1 0
    outer loop
      vertex 7.48876 -2.5 -8.07261
      vertex 11.5 -2.5 -11.5
      vertex 7.7749 -2.5 -7.59705
    endloop
  endfacet
  facet normal 0 -1 0
    outer loop
      vertex 6.81986 -2.5 -9.18433
      vertex 11.5 -2.5 -11.5
      vertex 7.48876 -2.5 -8.07261
    endloop
  endfacet
  facet normal 0 -1 0
    outer loop
      vertex 6.43818 -2.5 -9.58726
      vertex 11.5 -2.5 -11.5
      vertex 6.81986 -2.5 -9.18433
    endloop
  endfacet
  facet normal 0 -1 0
    outer loop
      vertex 5.54594 -2.5 -10.5292
      vertex 11.5 -2.5 -11.5
      vertex 6.43818 -2.5 -9.58726
    endloop
  endfacet
  facet normal 0 -1 0
    outer loop
      vertex 5.08657 -2.5 -10.8407
      vertex 11.5 -2.5 -11.5
      vertex 5.54594 -2.5 -10.5292
    endloop
  endfacet
endsolid OpenSCAD_Model
