solid OpenSCAD_Model
  facet normal 1 -0 0
    outer loop
      vertex 12.5 0 25
      vertex 12.5 80 -25
      vertex 12.5 80 25
    endloop
  endfacet
  facet normal 1 0 0
    outer loop
      vertex 12.5 80 -25
      vertex 12.5 0 25
      vertex 12.5 0 -25
    endloop
  endfacet
  facet normal -0 0 1
    outer loop
      vertex -12.5 80 25
      vertex 12.5 0 25
      vertex 12.5 80 25
    endloop
  endfacet
  facet normal 0 0 1
    outer loop
      vertex 12.5 0 25
      vertex -12.5 80 25
      vertex -12.5 0 25
    endloop
  endfacet
  facet normal 0 0 -1
    outer loop
      vertex -12.5 0 -25
      vertex 12.5 80 -25
      vertex 12.5 0 -25
    endloop
  endfacet
  facet normal -0 0 -1
    outer loop
      vertex 12.5 80 -25
      vertex -12.5 0 -25
      vertex -12.5 80 -25
    endloop
  endfacet
  facet normal -1 0 0
    outer loop
      vertex -12.5 0 -25
      vertex -12.5 80 25
      vertex -12.5 80 -25
    endloop
  endfacet
  facet normal -1 -0 0
    outer loop
      vertex -12.5 80 25
      vertex -12.5 0 -25
      vertex -12.5 0 25
    endloop
  endfacet
  facet normal 0 1 0
    outer loop
      vertex 12.5 80 25
      vertex 0 80 11.5
      vertex -12.5 80 25
    endloop
  endfacet
  facet normal 0 1 0
    outer loop
      vertex 12.5 80 25
      vertex 2.39098 80 11.2487
      vertex 0 80 11.5
    endloop
  endfacet
  facet normal 0 1 0
    outer loop
      vertex 12.5 80 25
      vertex 4.67747 80 10.5058
      vertex 2.39098 80 11.2487
    endloop
  endfacet
  facet normal 0 1 0
    outer loop
      vertex 12.5 80 25
      vertex 6.75953 80 9.30369
      vertex 4.67747 80 10.5058
    endloop
  endfacet
  facet normal 0 1 0
    outer loop
      vertex 12.5 80 25
      vertex 8.54617 80 7.695
      vertex 6.75953 80 9.30369
    endloop
  endfacet
  facet normal 0 1 0
    outer loop
      vertex 12.5 80 25
      vertex 9.95929 80 5.75
      vertex 8.54617 80 7.695
    endloop
  endfacet
  facet normal 0 1 0
    outer loop
      vertex 12.5 80 25
      vertex 10.9371 80 3.55369
      vertex 9.95929 80 5.75
    endloop
  endfacet
  facet normal 0 1 0
    outer loop
      vertex 12.5 80 25
      vertex 11.437 80 1.20208
      vertex 10.9371 80 3.55369
    endloop
  endfacet
  facet normal 0 1 0
    outer loop
      vertex 12.5 80 25
      vertex 11.437 80 -1.20208
      vertex 11.437 80 1.20208
    endloop
  endfacet
  facet normal 0 1 0
    outer loop
      vertex 2.39098 80 -11.2487
      vertex 12.5 80 -25
      vertex 0 80 -11.5
    endloop
  endfacet
  facet normal 0 1 0
    outer loop
      vertex 4.67747 80 -10.5058
      vertex 12.5 80 -25
      vertex 2.39098 80 -11.2487
    endloop
  endfacet
  facet normal 0 1 0
    outer loop
      vertex 6.75953 80 -9.30369
      vertex 12.5 80 -25
      vertex 4.67747 80 -10.5058
    endloop
  endfacet
  facet normal 0 1 0
    outer loop
      vertex 8.54617 80 -7.695
      vertex 12.5 80 -25
      vertex 6.75953 80 -9.30369
    endloop
  endfacet
  facet normal 0 1 0
    outer loop
      vertex 9.95929 80 -5.75
      vertex 12.5 80 -25
      vertex 8.54617 80 -7.695
    endloop
  endfacet
  facet normal 0 1 0
    outer loop
      vertex 10.9371 80 -3.55369
      vertex 12.5 80 -25
      vertex 9.95929 80 -5.75
    endloop
  endfacet
  facet normal 0 1 0
    outer loop
      vertex 11.437 80 -1.20208
      vertex 12.5 80 -25
      vertex 10.9371 80 -3.55369
    endloop
  endfacet
  facet normal 0 1 -0
    outer loop
      vertex 12.5 80 -25
      vertex 11.437 80 -1.20208
      vertex 12.5 80 25
    endloop
  endfacet
  facet normal 0 1 -0
    outer loop
      vertex -2.39098 80 11.2487
      vertex -12.5 80 25
      vertex 0 80 11.5
    endloop
  endfacet
  facet normal 0 1 -0
    outer loop
      vertex -4.67747 80 10.5058
      vertex -12.5 80 25
      vertex -2.39098 80 11.2487
    endloop
  endfacet
  facet normal 0 1 -0
    outer loop
      vertex -6.75953 80 9.30369
      vertex -12.5 80 25
      vertex -4.67747 80 10.5058
    endloop
  endfacet
  facet normal 0 1 -0
    outer loop
      vertex -8.54617 80 7.695
      vertex -12.5 80 25
      vertex -6.75953 80 9.30369
    endloop
  endfacet
  facet normal 0 1 -0
    outer loop
      vertex -9.95929 80 5.75
      vertex -12.5 80 25
      vertex -8.54617 80 7.695
    endloop
  endfacet
  facet normal 0 1 -0
    outer loop
      vertex -10.9371 80 3.55369
      vertex -12.5 80 25
      vertex -9.95929 80 5.75
    endloop
  endfacet
  facet normal 0 1 -0
    outer loop
      vertex -11.437 80 1.20208
      vertex -12.5 80 25
      vertex -10.9371 80 3.55369
    endloop
  endfacet
  facet normal 0 1 -0
    outer loop
      vertex -11.437 80 -1.20208
      vertex -12.5 80 25
      vertex -11.437 80 1.20208
    endloop
  endfacet
  facet normal 0 1 0
    outer loop
      vertex -12.5 80 -25
      vertex 0 80 -11.5
      vertex 12.5 80 -25
    endloop
  endfacet
  facet normal 0 1 0
    outer loop
      vertex 0 80 -11.5
      vertex -12.5 80 -25
      vertex -2.39098 80 -11.2487
    endloop
  endfacet
  facet normal 0 1 0
    outer loop
      vertex -2.39098 80 -11.2487
      vertex -12.5 80 -25
      vertex -4.67747 80 -10.5058
    endloop
  endfacet
  facet normal 0 1 0
    outer loop
      vertex -11.437 80 -1.20208
      vertex -12.5 80 -25
      vertex -12.5 80 25
    endloop
  endfacet
  facet normal 0 1 0
    outer loop
      vertex -10.9371 80 -3.55369
      vertex -12.5 80 -25
      vertex -11.437 80 -1.20208
    endloop
  endfacet
  facet normal 0 1 0
    outer loop
      vertex -9.95929 80 -5.75
      vertex -12.5 80 -25
      vertex -10.9371 80 -3.55369
    endloop
  endfacet
  facet normal 0 1 0
    outer loop
      vertex -8.54617 80 -7.695
      vertex -12.5 80 -25
      vertex -9.95929 80 -5.75
    endloop
  endfacet
  facet normal 0 1 0
    outer loop
      vertex -6.75953 80 -9.30369
      vertex -12.5 80 -25
      vertex -8.54617 80 -7.695
    endloop
  endfacet
  facet normal 0 1 0
    outer loop
      vertex -4.67747 80 -10.5058
      vertex -12.5 80 -25
      vertex -6.75953 80 -9.30369
    endloop
  endfacet
  facet normal 0 -1 0
    outer loop
      vertex -12.5 0 25
      vertex 0 0 11.5
      vertex 12.5 0 25
    endloop
  endfacet
  facet normal 0 -1 0
    outer loop
      vertex -12.5 0 25
      vertex -2.39098 0 11.2487
      vertex 0 0 11.5
    endloop
  endfacet
  facet normal 0 -1 0
    outer loop
      vertex -12.5 0 25
      vertex -4.67747 0 10.5058
      vertex -2.39098 0 11.2487
    endloop
  endfacet
  facet normal 0 -1 0
    outer loop
      vertex -12.5 0 25
      vertex -6.75953 0 9.30369
      vertex -4.67747 0 10.5058
    endloop
  endfacet
  facet normal 0 -1 0
    outer loop
      vertex -12.5 0 25
      vertex -8.54617 0 7.695
      vertex -6.75953 0 9.30369
    endloop
  endfacet
  facet normal 0 -1 0
    outer loop
      vertex -12.5 0 25
      vertex -9.95929 0 5.75
      vertex -8.54617 0 7.695
    endloop
  endfacet
  facet normal 0 -1 0
    outer loop
      vertex -12.5 0 25
      vertex -10.9371 0 3.55369
      vertex -9.95929 0 5.75
    endloop
  endfacet
  facet normal 0 -1 0
    outer loop
      vertex -12.5 0 25
      vertex -11.437 0 1.20208
      vertex -10.9371 0 3.55369
    endloop
  endfacet
  facet normal 0 -1 0
    outer loop
      vertex -12.5 0 25
      vertex -11.437 0 -1.20208
      vertex -11.437 0 1.20208
    endloop
  endfacet
  facet normal 0 -1 -0
    outer loop
      vertex -2.39098 0 -11.2487
      vertex -12.5 0 -25
      vertex 0 0 -11.5
    endloop
  endfacet
  facet normal 0 -1 -0
    outer loop
      vertex -4.67747 0 -10.5058
      vertex -12.5 0 -25
      vertex -2.39098 0 -11.2487
    endloop
  endfacet
  facet normal 0 -1 -0
    outer loop
      vertex -6.75953 0 -9.30369
      vertex -12.5 0 -25
      vertex -4.67747 0 -10.5058
    endloop
  endfacet
  facet normal 0 -1 -0
    outer loop
      vertex -8.54617 0 -7.695
      vertex -12.5 0 -25
      vertex -6.75953 0 -9.30369
    endloop
  endfacet
  facet normal 0 -1 -0
    outer loop
      vertex -9.95929 0 -5.75
      vertex -12.5 0 -25
      vertex -8.54617 0 -7.695
    endloop
  endfacet
  facet normal 0 -1 -0
    outer loop
      vertex -10.9371 0 -3.55369
      vertex -12.5 0 -25
      vertex -9.95929 0 -5.75
    endloop
  endfacet
  facet normal 0 -1 -0
    outer loop
      vertex -11.437 0 -1.20208
      vertex -12.5 0 -25
      vertex -10.9371 0 -3.55369
    endloop
  endfacet
  facet normal 0 -1 0
    outer loop
      vertex -12.5 0 -25
      vertex -11.437 0 -1.20208
      vertex -12.5 0 25
    endloop
  endfacet
  facet normal 0 -1 0
    outer loop
      vertex 2.39098 0 11.2487
      vertex 12.5 0 25
      vertex 0 0 11.5
    endloop
  endfacet
  facet normal 0 -1 0
    outer loop
      vertex 4.67747 0 10.5058
      vertex 12.5 0 25
      vertex 2.39098 0 11.2487
    endloop
  endfacet
  facet normal 0 -1 0
    outer loop
      vertex 6.75953 0 9.30369
      vertex 12.5 0 25
      vertex 4.67747 0 10.5058
    endloop
  endfacet
  facet normal 0 -1 0
    outer loop
      vertex 8.54617 0 7.695
      vertex 12.5 0 25
      vertex 6.75953 0 9.30369
    endloop
  endfacet
  facet normal 0 -1 0
    outer loop
      vertex 9.95929 0 5.75
      vertex 12.5 0 25
      vertex 8.54617 0 7.695
    endloop
  endfacet
  facet normal 0 -1 0
    outer loop
      vertex 10.9371 0 3.55369
      vertex 12.5 0 25
      vertex 9.95929 0 5.75
    endloop
  endfacet
  facet normal 0 -1 0
    outer loop
      vertex 11.437 0 1.20208
      vertex 12.5 0 25
      vertex 10.9371 0 3.55369
    endloop
  endfacet
  facet normal 0 -1 0
    outer loop
      vertex 11.437 0 -1.20208
      vertex 12.5 0 25
      vertex 11.437 0 1.20208
    endloop
  endfacet
  facet normal 0 -1 0
    outer loop
      vertex 12.5 0 -25
      vertex 0 0 -11.5
      vertex -12.5 0 -25
    endloop
  endfacet
  facet normal 0 -1 0
    outer loop
      vertex 0 0 -11.5
      vertex 12.5 0 -25
      vertex 2.39098 0 -11.2487
    endloop
  endfacet
  facet normal 0 -1 0
    outer loop
      vertex 2.39098 0 -11.2487
      vertex 12.5 0 -25
      vertex 4.67747 0 -10.5058
    endloop
  endfacet
  facet normal 0 -1 0
    outer loop
      vertex 11.437 0 -1.20208
      vertex 12.5 0 -25
      vertex 12.5 0 25
    endloop
  endfacet
  facet normal 0 -1 0
    outer loop
      vertex 10.9371 0 -3.55369
      vertex 12.5 0 -25
      vertex 11.437 0 -1.20208
    endloop
  endfacet
  facet normal 0 -1 0
    outer loop
      vertex 9.95929 0 -5.75
      vertex 12.5 0 -25
      vertex 10.9371 0 -3.55369
    endloop
  endfacet
  facet normal 0 -1 0
    outer loop
      vertex 8.54617 0 -7.695
      vertex 12.5 0 -25
      vertex 9.95929 0 -5.75
    endloop
  endfacet
  facet normal 0 -1 0
    outer loop
      vertex 6.75953 0 -9.30369
      vertex 12.5 0 -25
      vertex 8.54617 0 -7.695
    endloop
  endfacet
  facet normal 0 -1 0
    outer loop
      vertex 4.67747 0 -10.5058
      vertex 12.5 0 -25
      vertex 6.75953 0 -9.30369
    endloop
  endfacet
  facet normal 0.309007 0 0.95106
    outer loop
      vertex -4.67747 80 -10.5058
      vertex -2.39098 0 -11.2487
      vertex -2.39098 80 -11.2487
    endloop
  endfacet
  facet normal 0.309007 0 0.95106
    outer loop
      vertex -2.39098 0 -11.2487
      vertex -4.67747 80 -10.5058
      vertex -4.67747 0 -10.5058
    endloop
  endfacet
  facet normal 0.104528 0 0.994522
    outer loop
      vertex -2.39098 80 -11.2487
      vertex 0 0 -11.5
      vertex 0 80 -11.5
    endloop
  endfacet
  facet normal 0.104528 0 0.994522
    outer loop
      vertex 0 0 -11.5
      vertex -2.39098 80 -11.2487
      vertex -2.39098 0 -11.2487
    endloop
  endfacet
  facet normal 0.913553 -0 0.406719
    outer loop
      vertex -10.9371 0 -3.55369
      vertex -9.95929 80 -5.75
      vertex -10.9371 80 -3.55369
    endloop
  endfacet
  facet normal 0.913553 0 0.406719
    outer loop
      vertex -9.95929 80 -5.75
      vertex -10.9371 0 -3.55369
      vertex -9.95929 0 -5.75
    endloop
  endfacet
  facet normal 0.309007 0 -0.95106
    outer loop
      vertex -4.67747 0 10.5058
      vertex -2.39098 80 11.2487
      vertex -2.39098 0 11.2487
    endloop
  endfacet
  facet normal 0.309007 0 -0.95106
    outer loop
      vertex -2.39098 80 11.2487
      vertex -4.67747 0 10.5058
      vertex -4.67747 80 10.5058
    endloop
  endfacet
  facet normal -0.809018 0 0.587784
    outer loop
      vertex 8.54617 0 -7.695
      vertex 9.95929 80 -5.75
      vertex 8.54617 80 -7.695
    endloop
  endfacet
  facet normal -0.809018 0 0.587784
    outer loop
      vertex 9.95929 80 -5.75
      vertex 8.54617 0 -7.695
      vertex 9.95929 0 -5.75
    endloop
  endfacet
  facet normal -0.50001 0 -0.86602
    outer loop
      vertex 4.67747 0 10.5058
      vertex 6.75953 80 9.30369
      vertex 6.75953 0 9.30369
    endloop
  endfacet
  facet normal -0.50001 0 -0.86602
    outer loop
      vertex 6.75953 80 9.30369
      vertex 4.67747 0 10.5058
      vertex 4.67747 80 10.5058
    endloop
  endfacet
  facet normal -0.913553 0 0.406719
    outer loop
      vertex 9.95929 0 -5.75
      vertex 10.9371 80 -3.55369
      vertex 9.95929 80 -5.75
    endloop
  endfacet
  facet normal -0.913553 0 0.406719
    outer loop
      vertex 10.9371 80 -3.55369
      vertex 9.95929 0 -5.75
      vertex 10.9371 0 -3.55369
    endloop
  endfacet
  facet normal -0.978143 0 0.207932
    outer loop
      vertex 10.9371 0 -3.55369
      vertex 11.437 80 -1.20208
      vertex 10.9371 80 -3.55369
    endloop
  endfacet
  facet normal -0.978143 0 0.207932
    outer loop
      vertex 11.437 80 -1.20208
      vertex 10.9371 0 -3.55369
      vertex 11.437 0 -1.20208
    endloop
  endfacet
  facet normal 0.809018 -0 0.587784
    outer loop
      vertex -9.95929 0 -5.75
      vertex -8.54617 80 -7.695
      vertex -9.95929 80 -5.75
    endloop
  endfacet
  facet normal 0.809018 0 0.587784
    outer loop
      vertex -8.54617 80 -7.695
      vertex -9.95929 0 -5.75
      vertex -8.54617 0 -7.695
    endloop
  endfacet
  facet normal 0.809018 0 -0.587784
    outer loop
      vertex -8.54617 0 7.695
      vertex -9.95929 80 5.75
      vertex -8.54617 80 7.695
    endloop
  endfacet
  facet normal 0.809018 0 -0.587784
    outer loop
      vertex -9.95929 80 5.75
      vertex -8.54617 0 7.695
      vertex -9.95929 0 5.75
    endloop
  endfacet
  facet normal -0.309007 0 0.95106
    outer loop
      vertex 2.39098 80 -11.2487
      vertex 4.67747 0 -10.5058
      vertex 4.67747 80 -10.5058
    endloop
  endfacet
  facet normal -0.309007 0 0.95106
    outer loop
      vertex 4.67747 0 -10.5058
      vertex 2.39098 80 -11.2487
      vertex 2.39098 0 -11.2487
    endloop
  endfacet
  facet normal -0.104528 0 0.994522
    outer loop
      vertex 0 80 -11.5
      vertex 2.39098 0 -11.2487
      vertex 2.39098 80 -11.2487
    endloop
  endfacet
  facet normal -0.104528 0 0.994522
    outer loop
      vertex 2.39098 0 -11.2487
      vertex 0 80 -11.5
      vertex 0 0 -11.5
    endloop
  endfacet
  facet normal 0.669129 0 -0.743146
    outer loop
      vertex -8.54617 0 7.695
      vertex -6.75953 80 9.30369
      vertex -6.75953 0 9.30369
    endloop
  endfacet
  facet normal 0.669129 0 -0.743146
    outer loop
      vertex -6.75953 80 9.30369
      vertex -8.54617 0 7.695
      vertex -8.54617 80 7.695
    endloop
  endfacet
  facet normal 1 -0 0
    outer loop
      vertex -11.437 0 1.20208
      vertex -11.437 80 -1.20208
      vertex -11.437 80 1.20208
    endloop
  endfacet
  facet normal 1 0 0
    outer loop
      vertex -11.437 80 -1.20208
      vertex -11.437 0 1.20208
      vertex -11.437 0 -1.20208
    endloop
  endfacet
  facet normal -0.50001 0 0.86602
    outer loop
      vertex 4.67747 80 -10.5058
      vertex 6.75953 0 -9.30369
      vertex 6.75953 80 -9.30369
    endloop
  endfacet
  facet normal -0.50001 0 0.86602
    outer loop
      vertex 6.75953 0 -9.30369
      vertex 4.67747 80 -10.5058
      vertex 4.67747 0 -10.5058
    endloop
  endfacet
  facet normal 0.978143 0 -0.207932
    outer loop
      vertex -10.9371 0 3.55369
      vertex -11.437 80 1.20208
      vertex -10.9371 80 3.55369
    endloop
  endfacet
  facet normal 0.978143 0 -0.207932
    outer loop
      vertex -11.437 80 1.20208
      vertex -10.9371 0 3.55369
      vertex -11.437 0 1.20208
    endloop
  endfacet
  facet normal -0.669129 0 0.743146
    outer loop
      vertex 6.75953 80 -9.30369
      vertex 8.54617 0 -7.695
      vertex 8.54617 80 -7.695
    endloop
  endfacet
  facet normal -0.669129 0 0.743146
    outer loop
      vertex 8.54617 0 -7.695
      vertex 6.75953 80 -9.30369
      vertex 6.75953 0 -9.30369
    endloop
  endfacet
  facet normal -0.913553 0 -0.406719
    outer loop
      vertex 10.9371 0 3.55369
      vertex 9.95929 80 5.75
      vertex 10.9371 80 3.55369
    endloop
  endfacet
  facet normal -0.913553 -0 -0.406719
    outer loop
      vertex 9.95929 80 5.75
      vertex 10.9371 0 3.55369
      vertex 9.95929 0 5.75
    endloop
  endfacet
  facet normal -0.809018 0 -0.587784
    outer loop
      vertex 9.95929 0 5.75
      vertex 8.54617 80 7.695
      vertex 9.95929 80 5.75
    endloop
  endfacet
  facet normal -0.809018 -0 -0.587784
    outer loop
      vertex 8.54617 80 7.695
      vertex 9.95929 0 5.75
      vertex 8.54617 0 7.695
    endloop
  endfacet
  facet normal 0.913553 0 -0.406719
    outer loop
      vertex -9.95929 0 5.75
      vertex -10.9371 80 3.55369
      vertex -9.95929 80 5.75
    endloop
  endfacet
  facet normal 0.913553 0 -0.406719
    outer loop
      vertex -10.9371 80 3.55369
      vertex -9.95929 0 5.75
      vertex -10.9371 0 3.55369
    endloop
  endfacet
  facet normal 0.669129 0 0.743146
    outer loop
      vertex -8.54617 80 -7.695
      vertex -6.75953 0 -9.30369
      vertex -6.75953 80 -9.30369
    endloop
  endfacet
  facet normal 0.669129 0 0.743146
    outer loop
      vertex -6.75953 0 -9.30369
      vertex -8.54617 80 -7.695
      vertex -8.54617 0 -7.695
    endloop
  endfacet
  facet normal 0.104528 0 -0.994522
    outer loop
      vertex -2.39098 0 11.2487
      vertex 0 80 11.5
      vertex 0 0 11.5
    endloop
  endfacet
  facet normal 0.104528 0 -0.994522
    outer loop
      vertex 0 80 11.5
      vertex -2.39098 0 11.2487
      vertex -2.39098 80 11.2487
    endloop
  endfacet
  facet normal -1 0 0
    outer loop
      vertex 11.437 0 -1.20208
      vertex 11.437 80 1.20208
      vertex 11.437 80 -1.20208
    endloop
  endfacet
  facet normal -1 -0 0
    outer loop
      vertex 11.437 80 1.20208
      vertex 11.437 0 -1.20208
      vertex 11.437 0 1.20208
    endloop
  endfacet
  facet normal 0.50001 0 0.86602
    outer loop
      vertex -6.75953 80 -9.30369
      vertex -4.67747 0 -10.5058
      vertex -4.67747 80 -10.5058
    endloop
  endfacet
  facet normal 0.50001 0 0.86602
    outer loop
      vertex -4.67747 0 -10.5058
      vertex -6.75953 80 -9.30369
      vertex -6.75953 0 -9.30369
    endloop
  endfacet
  facet normal -0.978143 0 -0.207932
    outer loop
      vertex 11.437 0 1.20208
      vertex 10.9371 80 3.55369
      vertex 11.437 80 1.20208
    endloop
  endfacet
  facet normal -0.978143 -0 -0.207932
    outer loop
      vertex 10.9371 80 3.55369
      vertex 11.437 0 1.20208
      vertex 10.9371 0 3.55369
    endloop
  endfacet
  facet normal -0.309007 0 -0.95106
    outer loop
      vertex 2.39098 0 11.2487
      vertex 4.67747 80 10.5058
      vertex 4.67747 0 10.5058
    endloop
  endfacet
  facet normal -0.309007 0 -0.95106
    outer loop
      vertex 4.67747 80 10.5058
      vertex 2.39098 0 11.2487
      vertex 2.39098 80 11.2487
    endloop
  endfacet
  facet normal -0.669129 0 -0.743146
    outer loop
      vertex 6.75953 0 9.30369
      vertex 8.54617 80 7.695
      vertex 8.54617 0 7.695
    endloop
  endfacet
  facet normal -0.669129 0 -0.743146
    outer loop
      vertex 8.54617 80 7.695
      vertex 6.75953 0 9.30369
      vertex 6.75953 80 9.30369
    endloop
  endfacet
  facet normal 0.978143 -0 0.207932
    outer loop
      vertex -11.437 0 -1.20208
      vertex -10.9371 80 -3.55369
      vertex -11.437 80 -1.20208
    endloop
  endfacet
  facet normal 0.978143 0 0.207932
    outer loop
      vertex -10.9371 80 -3.55369
      vertex -11.437 0 -1.20208
      vertex -10.9371 0 -3.55369
    endloop
  endfacet
  facet normal -0.104528 0 -0.994522
    outer loop
      vertex 0 0 11.5
      vertex 2.39098 80 11.2487
      vertex 2.39098 0 11.2487
    endloop
  endfacet
  facet normal -0.104528 0 -0.994522
    outer loop
      vertex 2.39098 80 11.2487
      vertex 0 0 11.5
      vertex 0 80 11.5
    endloop
  endfacet
  facet normal 0.50001 0 -0.86602
    outer loop
      vertex -6.75953 0 9.30369
      vertex -4.67747 80 10.5058
      vertex -4.67747 0 10.5058
    endloop
  endfacet
  facet normal 0.50001 0 -0.86602
    outer loop
      vertex -4.67747 80 10.5058
      vertex -6.75953 0 9.30369
      vertex -6.75953 80 9.30369
    endloop
  endfacet
endsolid OpenSCAD_Model
