solid OpenSCAD_Model
  facet normal 1 -0 0
    outer loop
      vertex 12.5 0 25
      vertex 12.5 80 3.37614
      vertex 12.5 80 25
    endloop
  endfacet
  facet normal 1 0 0
    outer loop
      vertex 12.5 80 3.37614
      vertex 12.5 0 25
      vertex 12.5 0 3.37614
    endloop
  endfacet
  facet normal 1 -0 0
    outer loop
      vertex 12.5 0 -3.37614
      vertex 12.5 80 -25
      vertex 12.5 80 -3.37614
    endloop
  endfacet
  facet normal 1 0 0
    outer loop
      vertex 12.5 80 -25
      vertex 12.5 0 -3.37614
      vertex 12.5 0 -25
    endloop
  endfacet
  facet normal -0 0 1
    outer loop
      vertex -12.5 80 25
      vertex 12.5 0 25
      vertex 12.5 80 25
    endloop
  endfacet
  facet normal 0 0 1
    outer loop
      vertex 12.5 0 25
      vertex -12.5 80 25
      vertex -12.5 0 25
    endloop
  endfacet
  facet normal 0 0 -1
    outer loop
      vertex -12.5 0 -25
      vertex 12.5 80 -25
      vertex 12.5 0 -25
    endloop
  endfacet
  facet normal -0 0 -1
    outer loop
      vertex 12.5 80 -25
      vertex -12.5 0 -25
      vertex -12.5 80 -25
    endloop
  endfacet
  facet normal -1 0 0
    outer loop
      vertex -12.5 0 3.37614
      vertex -12.5 80 25
      vertex -12.5 80 3.37614
    endloop
  endfacet
  facet normal -1 -0 0
    outer loop
      vertex -12.5 80 25
      vertex -12.5 0 3.37614
      vertex -12.5 0 25
    endloop
  endfacet
  facet normal -1 0 0
    outer loop
      vertex -12.5 0 -25
      vertex -12.5 80 -3.37614
      vertex -12.5 80 -25
    endloop
  endfacet
  facet normal -1 -0 0
    outer loop
      vertex -12.5 80 -3.37614
      vertex -12.5 0 -25
      vertex -12.5 0 -3.37614
    endloop
  endfacet
  facet normal 0 1 0
    outer loop
      vertex 12.5 80 25
      vertex 0 80 13
      vertex -12.5 80 25
    endloop
  endfacet
  facet normal 0 1 0
    outer loop
      vertex 12.5 80 25
      vertex 2.70285 80 12.7159
      vertex 0 80 13
    endloop
  endfacet
  facet normal 0 1 0
    outer loop
      vertex 12.5 80 25
      vertex 5.28758 80 11.8761
      vertex 2.70285 80 12.7159
    endloop
  endfacet
  facet normal 0 1 0
    outer loop
      vertex 12.5 80 25
      vertex 7.64121 80 10.5172
      vertex 5.28758 80 11.8761
    endloop
  endfacet
  facet normal 0 1 0
    outer loop
      vertex 12.5 80 25
      vertex 9.66088 80 8.6987
      vertex 7.64121 80 10.5172
    endloop
  endfacet
  facet normal 0 1 0
    outer loop
      vertex 12.5 80 25
      vertex 11.2583 80 6.5
      vertex 9.66088 80 8.6987
    endloop
  endfacet
  facet normal 0 1 0
    outer loop
      vertex 12.5 80 25
      vertex 12.3637 80 4.01722
      vertex 11.2583 80 6.5
    endloop
  endfacet
  facet normal -0 1 0
    outer loop
      vertex 12.3637 80 4.01722
      vertex 12.5 80 25
      vertex 12.5 80 3.37614
    endloop
  endfacet
  facet normal 0 1 -0
    outer loop
      vertex -2.70285 80 12.7159
      vertex -12.5 80 25
      vertex 0 80 13
    endloop
  endfacet
  facet normal 0 1 -0
    outer loop
      vertex -5.28758 80 11.8761
      vertex -12.5 80 25
      vertex -2.70285 80 12.7159
    endloop
  endfacet
  facet normal 0 1 -0
    outer loop
      vertex -7.64121 80 10.5172
      vertex -12.5 80 25
      vertex -5.28758 80 11.8761
    endloop
  endfacet
  facet normal 0 1 -0
    outer loop
      vertex -9.66088 80 8.6987
      vertex -12.5 80 25
      vertex -7.64121 80 10.5172
    endloop
  endfacet
  facet normal 0 1 -0
    outer loop
      vertex -11.2583 80 6.5
      vertex -12.5 80 25
      vertex -9.66088 80 8.6987
    endloop
  endfacet
  facet normal 0 1 -0
    outer loop
      vertex -12.3637 80 4.01722
      vertex -12.5 80 25
      vertex -11.2583 80 6.5
    endloop
  endfacet
  facet normal 0 1 0
    outer loop
      vertex -12.5 80 25
      vertex -12.3637 80 4.01722
      vertex -12.5 80 3.37614
    endloop
  endfacet
  facet normal 0 1 0
    outer loop
      vertex 2.70285 80 -12.7159
      vertex 12.5 80 -25
      vertex 0 80 -13
    endloop
  endfacet
  facet normal 0 1 0
    outer loop
      vertex 5.28758 80 -11.8761
      vertex 12.5 80 -25
      vertex 2.70285 80 -12.7159
    endloop
  endfacet
  facet normal 0 1 0
    outer loop
      vertex 7.64121 80 -10.5172
      vertex 12.5 80 -25
      vertex 5.28758 80 -11.8761
    endloop
  endfacet
  facet normal 0 1 0
    outer loop
      vertex 9.66088 80 -8.6987
      vertex 12.5 80 -25
      vertex 7.64121 80 -10.5172
    endloop
  endfacet
  facet normal 0 1 0
    outer loop
      vertex 11.2583 80 -6.5
      vertex 12.5 80 -25
      vertex 9.66088 80 -8.6987
    endloop
  endfacet
  facet normal 0 1 0
    outer loop
      vertex 12.3637 80 -4.01722
      vertex 12.5 80 -25
      vertex 11.2583 80 -6.5
    endloop
  endfacet
  facet normal 0 1 -0
    outer loop
      vertex 12.5 80 -25
      vertex 12.3637 80 -4.01722
      vertex 12.5 80 -3.37614
    endloop
  endfacet
  facet normal 0 1 0
    outer loop
      vertex -12.5 80 -25
      vertex 0 80 -13
      vertex 12.5 80 -25
    endloop
  endfacet
  facet normal 0 1 0
    outer loop
      vertex 0 80 -13
      vertex -12.5 80 -25
      vertex -2.70285 80 -12.7159
    endloop
  endfacet
  facet normal 0 1 0
    outer loop
      vertex -2.70285 80 -12.7159
      vertex -12.5 80 -25
      vertex -5.28758 80 -11.8761
    endloop
  endfacet
  facet normal 0 1 0
    outer loop
      vertex -12.3637 80 -4.01722
      vertex -12.5 80 -25
      vertex -12.5 80 -3.37614
    endloop
  endfacet
  facet normal 0 1 0
    outer loop
      vertex -11.2583 80 -6.5
      vertex -12.5 80 -25
      vertex -12.3637 80 -4.01722
    endloop
  endfacet
  facet normal 0 1 0
    outer loop
      vertex -9.66088 80 -8.6987
      vertex -12.5 80 -25
      vertex -11.2583 80 -6.5
    endloop
  endfacet
  facet normal 0 1 0
    outer loop
      vertex -7.64121 80 -10.5172
      vertex -12.5 80 -25
      vertex -9.66088 80 -8.6987
    endloop
  endfacet
  facet normal 0 1 0
    outer loop
      vertex -5.28758 80 -11.8761
      vertex -12.5 80 -25
      vertex -7.64121 80 -10.5172
    endloop
  endfacet
  facet normal 0 1 0
    outer loop
      vertex 14.5 0 27
      vertex 12.5 0 25
      vertex -14.5 0 27
    endloop
  endfacet
  facet normal 0 1 0
    outer loop
      vertex 14.5 0 27
      vertex 12.5 0 3.37614
      vertex 12.5 0 25
    endloop
  endfacet
  facet normal 0 1 0
    outer loop
      vertex 14.5 0 27
      vertex 12.9288 0 1.35887
      vertex 12.5 0 3.37614
    endloop
  endfacet
  facet normal 0 1 0
    outer loop
      vertex 14.5 0 27
      vertex 12.9288 0 -1.35887
      vertex 12.9288 0 1.35887
    endloop
  endfacet
  facet normal 0 1 0
    outer loop
      vertex 14.5 0 -27
      vertex 12.5 0 -3.37614
      vertex 12.9288 0 -1.35887
    endloop
  endfacet
  facet normal 0 1 -0
    outer loop
      vertex 14.5 0 -27
      vertex 12.9288 0 -1.35887
      vertex 14.5 0 27
    endloop
  endfacet
  facet normal 0 1 0
    outer loop
      vertex 12.5 0 -25
      vertex 14.5 0 -27
      vertex -12.5 0 -25
    endloop
  endfacet
  facet normal 0 1 0
    outer loop
      vertex 12.5 0 -3.37614
      vertex 14.5 0 -27
      vertex 12.5 0 -25
    endloop
  endfacet
  facet normal 0 1 -0
    outer loop
      vertex -12.5 0 25
      vertex -14.5 0 27
      vertex 12.5 0 25
    endloop
  endfacet
  facet normal 0 1 -0
    outer loop
      vertex -12.5 0 3.37614
      vertex -14.5 0 27
      vertex -12.5 0 25
    endloop
  endfacet
  facet normal 0 1 -0
    outer loop
      vertex -12.9288 0 1.35887
      vertex -14.5 0 27
      vertex -12.5 0 3.37614
    endloop
  endfacet
  facet normal 0 1 -0
    outer loop
      vertex -12.9288 0 -1.35887
      vertex -14.5 0 27
      vertex -12.9288 0 1.35887
    endloop
  endfacet
  facet normal 0 1 0
    outer loop
      vertex -14.5 0 -27
      vertex -12.5 0 -3.37614
      vertex -12.5 0 -25
    endloop
  endfacet
  facet normal 0 1 0
    outer loop
      vertex -12.5 0 -3.37614
      vertex -14.5 0 -27
      vertex -12.9288 0 -1.35887
    endloop
  endfacet
  facet normal 0 1 0
    outer loop
      vertex -12.9288 0 -1.35887
      vertex -14.5 0 -27
      vertex -14.5 0 27
    endloop
  endfacet
  facet normal 0 1 0
    outer loop
      vertex -14.5 0 -27
      vertex -12.5 0 -25
      vertex 14.5 0 -27
    endloop
  endfacet
  facet normal 1 -0 0
    outer loop
      vertex 14.5 -2 27
      vertex 14.5 0 -27
      vertex 14.5 0 27
    endloop
  endfacet
  facet normal 1 0 0
    outer loop
      vertex 14.5 0 -27
      vertex 14.5 -2 27
      vertex 14.5 -2 -27
    endloop
  endfacet
  facet normal -0 0 1
    outer loop
      vertex -14.5 0 27
      vertex 14.5 -2 27
      vertex 14.5 0 27
    endloop
  endfacet
  facet normal 0 0 1
    outer loop
      vertex 14.5 -2 27
      vertex -14.5 0 27
      vertex -14.5 -2 27
    endloop
  endfacet
  facet normal 0 0 -1
    outer loop
      vertex -14.5 -2 -27
      vertex 14.5 0 -27
      vertex 14.5 -2 -27
    endloop
  endfacet
  facet normal -0 0 -1
    outer loop
      vertex 14.5 0 -27
      vertex -14.5 -2 -27
      vertex -14.5 0 -27
    endloop
  endfacet
  facet normal -1 0 0
    outer loop
      vertex -14.5 -2 -27
      vertex -14.5 0 27
      vertex -14.5 0 -27
    endloop
  endfacet
  facet normal -1 -0 0
    outer loop
      vertex -14.5 0 27
      vertex -14.5 -2 -27
      vertex -14.5 -2 27
    endloop
  endfacet
  facet normal 0 -1 0
    outer loop
      vertex -14.5 -2 27
      vertex 0 -2 13
      vertex 14.5 -2 27
    endloop
  endfacet
  facet normal 0 -1 0
    outer loop
      vertex -14.5 -2 27
      vertex -2.70285 -2 12.7159
      vertex 0 -2 13
    endloop
  endfacet
  facet normal 0 -1 0
    outer loop
      vertex -14.5 -2 27
      vertex -5.28758 -2 11.8761
      vertex -2.70285 -2 12.7159
    endloop
  endfacet
  facet normal 0 -1 0
    outer loop
      vertex -14.5 -2 27
      vertex -7.64121 -2 10.5172
      vertex -5.28758 -2 11.8761
    endloop
  endfacet
  facet normal 0 -1 0
    outer loop
      vertex -14.5 -2 27
      vertex -9.66088 -2 8.6987
      vertex -7.64121 -2 10.5172
    endloop
  endfacet
  facet normal 0 -1 0
    outer loop
      vertex -14.5 -2 27
      vertex -11.2583 -2 6.5
      vertex -9.66088 -2 8.6987
    endloop
  endfacet
  facet normal 0 -1 0
    outer loop
      vertex -14.5 -2 27
      vertex -12.3637 -2 4.01722
      vertex -11.2583 -2 6.5
    endloop
  endfacet
  facet normal 0 -1 0
    outer loop
      vertex -14.5 -2 27
      vertex -12.9288 -2 1.35887
      vertex -12.3637 -2 4.01722
    endloop
  endfacet
  facet normal 0 -1 0
    outer loop
      vertex -14.5 -2 27
      vertex -12.9288 -2 -1.35887
      vertex -12.9288 -2 1.35887
    endloop
  endfacet
  facet normal 0 -1 -0
    outer loop
      vertex -2.70285 -2 -12.7159
      vertex -14.5 -2 -27
      vertex 0 -2 -13
    endloop
  endfacet
  facet normal 0 -1 -0
    outer loop
      vertex -5.28758 -2 -11.8761
      vertex -14.5 -2 -27
      vertex -2.70285 -2 -12.7159
    endloop
  endfacet
  facet normal 0 -1 -0
    outer loop
      vertex -7.64121 -2 -10.5172
      vertex -14.5 -2 -27
      vertex -5.28758 -2 -11.8761
    endloop
  endfacet
  facet normal 0 -1 -0
    outer loop
      vertex -9.66088 -2 -8.6987
      vertex -14.5 -2 -27
      vertex -7.64121 -2 -10.5172
    endloop
  endfacet
  facet normal 0 -1 -0
    outer loop
      vertex -11.2583 -2 -6.5
      vertex -14.5 -2 -27
      vertex -9.66088 -2 -8.6987
    endloop
  endfacet
  facet normal 0 -1 -0
    outer loop
      vertex -12.3637 -2 -4.01722
      vertex -14.5 -2 -27
      vertex -11.2583 -2 -6.5
    endloop
  endfacet
  facet normal 0 -1 -0
    outer loop
      vertex -12.9288 -2 -1.35887
      vertex -14.5 -2 -27
      vertex -12.3637 -2 -4.01722
    endloop
  endfacet
  facet normal 0 -1 0
    outer loop
      vertex -14.5 -2 -27
      vertex -12.9288 -2 -1.35887
      vertex -14.5 -2 27
    endloop
  endfacet
  facet normal 0 -1 0
    outer loop
      vertex 2.70285 -2 12.7159
      vertex 14.5 -2 27
      vertex 0 -2 13
    endloop
  endfacet
  facet normal 0 -1 0
    outer loop
      vertex 5.28758 -2 11.8761
      vertex 14.5 -2 27
      vertex 2.70285 -2 12.7159
    endloop
  endfacet
  facet normal 0 -1 0
    outer loop
      vertex 7.64121 -2 10.5172
      vertex 14.5 -2 27
      vertex 5.28758 -2 11.8761
    endloop
  endfacet
  facet normal 0 -1 0
    outer loop
      vertex 9.66088 -2 8.6987
      vertex 14.5 -2 27
      vertex 7.64121 -2 10.5172
    endloop
  endfacet
  facet normal 0 -1 0
    outer loop
      vertex 11.2583 -2 6.5
      vertex 14.5 -2 27
      vertex 9.66088 -2 8.6987
    endloop
  endfacet
  facet normal 0 -1 0
    outer loop
      vertex 12.3637 -2 4.01722
      vertex 14.5 -2 27
      vertex 11.2583 -2 6.5
    endloop
  endfacet
  facet normal 0 -1 0
    outer loop
      vertex 12.9288 -2 1.35887
      vertex 14.5 -2 27
      vertex 12.3637 -2 4.01722
    endloop
  endfacet
  facet normal 0 -1 0
    outer loop
      vertex 12.9288 -2 -1.35887
      vertex 14.5 -2 27
      vertex 12.9288 -2 1.35887
    endloop
  endfacet
  facet normal 0 -1 0
    outer loop
      vertex 14.5 -2 -27
      vertex 0 -2 -13
      vertex -14.5 -2 -27
    endloop
  endfacet
  facet normal 0 -1 0
    outer loop
      vertex 0 -2 -13
      vertex 14.5 -2 -27
      vertex 2.70285 -2 -12.7159
    endloop
  endfacet
  facet normal 0 -1 0
    outer loop
      vertex 2.70285 -2 -12.7159
      vertex 14.5 -2 -27
      vertex 5.28758 -2 -11.8761
    endloop
  endfacet
  facet normal 0 -1 0
    outer loop
      vertex 12.9288 -2 -1.35887
      vertex 14.5 -2 -27
      vertex 14.5 -2 27
    endloop
  endfacet
  facet normal 0 -1 0
    outer loop
      vertex 12.3637 -2 -4.01722
      vertex 14.5 -2 -27
      vertex 12.9288 -2 -1.35887
    endloop
  endfacet
  facet normal 0 -1 0
    outer loop
      vertex 11.2583 -2 -6.5
      vertex 14.5 -2 -27
      vertex 12.3637 -2 -4.01722
    endloop
  endfacet
  facet normal 0 -1 0
    outer loop
      vertex 9.66088 -2 -8.6987
      vertex 14.5 -2 -27
      vertex 11.2583 -2 -6.5
    endloop
  endfacet
  facet normal 0 -1 0
    outer loop
      vertex 7.64121 -2 -10.5172
      vertex 14.5 -2 -27
      vertex 9.66088 -2 -8.6987
    endloop
  endfacet
  facet normal 0 -1 0
    outer loop
      vertex 5.28758 -2 -11.8761
      vertex 14.5 -2 -27
      vertex 7.64121 -2 -10.5172
    endloop
  endfacet
  facet normal -0.978137 0 0.207962
    outer loop
      vertex 12.3637 80 -4.01722
      vertex 12.5 0 -3.37614
      vertex 12.5 80 -3.37614
    endloop
  endfacet
  facet normal -0.978137 0 0.207962
    outer loop
      vertex 12.3637 -2 -4.01722
      vertex 12.5 0 -3.37614
      vertex 12.3637 80 -4.01722
    endloop
  endfacet
  facet normal -0.978144 1.08172e-05 0.207929
    outer loop
      vertex 12.9288 -2 -1.35887
      vertex 12.5 0 -3.37614
      vertex 12.3637 -2 -4.01722
    endloop
  endfacet
  facet normal -0.978146 0 0.207919
    outer loop
      vertex 12.5 0 -3.37614
      vertex 12.9288 -2 -1.35887
      vertex 12.9288 0 -1.35887
    endloop
  endfacet
  facet normal -0.669127 0 0.743148
    outer loop
      vertex 7.64121 80 -10.5172
      vertex 9.66088 -2 -8.6987
      vertex 9.66088 80 -8.6987
    endloop
  endfacet
  facet normal -0.669127 0 0.743148
    outer loop
      vertex 9.66088 -2 -8.6987
      vertex 7.64121 80 -10.5172
      vertex 7.64121 -2 -10.5172
    endloop
  endfacet
  facet normal -0.104535 0 -0.994521
    outer loop
      vertex 0 -2 13
      vertex 2.70285 80 12.7159
      vertex 2.70285 -2 12.7159
    endloop
  endfacet
  facet normal -0.104535 0 -0.994521
    outer loop
      vertex 2.70285 80 12.7159
      vertex 0 -2 13
      vertex 0 80 13
    endloop
  endfacet
  facet normal 0.669127 0 0.743148
    outer loop
      vertex -9.66088 80 -8.6987
      vertex -7.64121 -2 -10.5172
      vertex -7.64121 80 -10.5172
    endloop
  endfacet
  facet normal 0.669127 0 0.743148
    outer loop
      vertex -7.64121 -2 -10.5172
      vertex -9.66088 80 -8.6987
      vertex -9.66088 -2 -8.6987
    endloop
  endfacet
  facet normal 0.978137 0 -0.207962
    outer loop
      vertex -12.3637 80 4.01722
      vertex -12.5 0 3.37614
      vertex -12.5 80 3.37614
    endloop
  endfacet
  facet normal 0.978137 0 -0.207962
    outer loop
      vertex -12.3637 -2 4.01722
      vertex -12.5 0 3.37614
      vertex -12.3637 80 4.01722
    endloop
  endfacet
  facet normal 0.978144 1.08172e-05 -0.207929
    outer loop
      vertex -12.9288 -2 1.35887
      vertex -12.5 0 3.37614
      vertex -12.3637 -2 4.01722
    endloop
  endfacet
  facet normal 0.978146 0 -0.207919
    outer loop
      vertex -12.5 0 3.37614
      vertex -12.9288 -2 1.35887
      vertex -12.9288 0 1.35887
    endloop
  endfacet
  facet normal -0.913546 0 0.406735
    outer loop
      vertex 11.2583 -2 -6.5
      vertex 12.3637 80 -4.01722
      vertex 11.2583 80 -6.5
    endloop
  endfacet
  facet normal -0.913546 0 0.406735
    outer loop
      vertex 12.3637 80 -4.01722
      vertex 11.2583 -2 -6.5
      vertex 12.3637 -2 -4.01722
    endloop
  endfacet
  facet normal -0.104535 0 0.994521
    outer loop
      vertex 0 80 -13
      vertex 2.70285 -2 -12.7159
      vertex 2.70285 80 -12.7159
    endloop
  endfacet
  facet normal -0.104535 0 0.994521
    outer loop
      vertex 2.70285 -2 -12.7159
      vertex 0 80 -13
      vertex 0 -2 -13
    endloop
  endfacet
  facet normal 0.500009 0 0.86602
    outer loop
      vertex -7.64121 80 -10.5172
      vertex -5.28758 -2 -11.8761
      vertex -5.28758 80 -11.8761
    endloop
  endfacet
  facet normal 0.500009 0 0.86602
    outer loop
      vertex -5.28758 -2 -11.8761
      vertex -7.64121 80 -10.5172
      vertex -7.64121 -2 -10.5172
    endloop
  endfacet
  facet normal 0.500009 0 -0.86602
    outer loop
      vertex -7.64121 -2 10.5172
      vertex -5.28758 80 11.8761
      vertex -5.28758 -2 11.8761
    endloop
  endfacet
  facet normal 0.500009 0 -0.86602
    outer loop
      vertex -5.28758 80 11.8761
      vertex -7.64121 -2 10.5172
      vertex -7.64121 80 10.5172
    endloop
  endfacet
  facet normal 0.104535 0 0.994521
    outer loop
      vertex -2.70285 80 -12.7159
      vertex 0 -2 -13
      vertex 0 80 -13
    endloop
  endfacet
  facet normal 0.104535 0 0.994521
    outer loop
      vertex 0 -2 -13
      vertex -2.70285 80 -12.7159
      vertex -2.70285 -2 -12.7159
    endloop
  endfacet
  facet normal 0.104535 0 -0.994521
    outer loop
      vertex -2.70285 -2 12.7159
      vertex 0 80 13
      vertex 0 -2 13
    endloop
  endfacet
  facet normal 0.104535 0 -0.994521
    outer loop
      vertex 0 80 13
      vertex -2.70285 -2 12.7159
      vertex -2.70285 80 12.7159
    endloop
  endfacet
  facet normal 0.309007 0 0.95106
    outer loop
      vertex -5.28758 80 -11.8761
      vertex -2.70285 -2 -12.7159
      vertex -2.70285 80 -12.7159
    endloop
  endfacet
  facet normal 0.309007 0 0.95106
    outer loop
      vertex -2.70285 -2 -12.7159
      vertex -5.28758 80 -11.8761
      vertex -5.28758 -2 -11.8761
    endloop
  endfacet
  facet normal 0.809022 0 -0.587778
    outer loop
      vertex -9.66088 -2 8.6987
      vertex -11.2583 80 6.5
      vertex -9.66088 80 8.6987
    endloop
  endfacet
  facet normal 0.809022 0 -0.587778
    outer loop
      vertex -11.2583 80 6.5
      vertex -9.66088 -2 8.6987
      vertex -11.2583 -2 6.5
    endloop
  endfacet
  facet normal -0.669127 0 -0.743148
    outer loop
      vertex 7.64121 -2 10.5172
      vertex 9.66088 80 8.6987
      vertex 9.66088 -2 8.6987
    endloop
  endfacet
  facet normal -0.669127 0 -0.743148
    outer loop
      vertex 9.66088 80 8.6987
      vertex 7.64121 -2 10.5172
      vertex 7.64121 80 10.5172
    endloop
  endfacet
  facet normal -1 0 0
    outer loop
      vertex 12.9288 -2 -1.35887
      vertex 12.9288 0 1.35887
      vertex 12.9288 0 -1.35887
    endloop
  endfacet
  facet normal -1 -0 0
    outer loop
      vertex 12.9288 0 1.35887
      vertex 12.9288 -2 -1.35887
      vertex 12.9288 -2 1.35887
    endloop
  endfacet
  facet normal 0.913546 -0 0.406735
    outer loop
      vertex -12.3637 -2 -4.01722
      vertex -11.2583 80 -6.5
      vertex -12.3637 80 -4.01722
    endloop
  endfacet
  facet normal 0.913546 0 0.406735
    outer loop
      vertex -11.2583 80 -6.5
      vertex -12.3637 -2 -4.01722
      vertex -11.2583 -2 -6.5
    endloop
  endfacet
  facet normal 0.913546 0 -0.406735
    outer loop
      vertex -11.2583 -2 6.5
      vertex -12.3637 80 4.01722
      vertex -11.2583 80 6.5
    endloop
  endfacet
  facet normal 0.913546 0 -0.406735
    outer loop
      vertex -12.3637 80 4.01722
      vertex -11.2583 -2 6.5
      vertex -12.3637 -2 4.01722
    endloop
  endfacet
  facet normal -0.809022 0 0.587778
    outer loop
      vertex 9.66088 -2 -8.6987
      vertex 11.2583 80 -6.5
      vertex 9.66088 80 -8.6987
    endloop
  endfacet
  facet normal -0.809022 0 0.587778
    outer loop
      vertex 11.2583 80 -6.5
      vertex 9.66088 -2 -8.6987
      vertex 11.2583 -2 -6.5
    endloop
  endfacet
  facet normal 0.809022 -0 0.587778
    outer loop
      vertex -11.2583 -2 -6.5
      vertex -9.66088 80 -8.6987
      vertex -11.2583 80 -6.5
    endloop
  endfacet
  facet normal 0.809022 0 0.587778
    outer loop
      vertex -9.66088 80 -8.6987
      vertex -11.2583 -2 -6.5
      vertex -9.66088 -2 -8.6987
    endloop
  endfacet
  facet normal -0.500009 0 0.86602
    outer loop
      vertex 5.28758 80 -11.8761
      vertex 7.64121 -2 -10.5172
      vertex 7.64121 80 -10.5172
    endloop
  endfacet
  facet normal -0.500009 0 0.86602
    outer loop
      vertex 7.64121 -2 -10.5172
      vertex 5.28758 80 -11.8761
      vertex 5.28758 -2 -11.8761
    endloop
  endfacet
  facet normal 0.669127 0 -0.743148
    outer loop
      vertex -9.66088 -2 8.6987
      vertex -7.64121 80 10.5172
      vertex -7.64121 -2 10.5172
    endloop
  endfacet
  facet normal 0.669127 0 -0.743148
    outer loop
      vertex -7.64121 80 10.5172
      vertex -9.66088 -2 8.6987
      vertex -9.66088 80 8.6987
    endloop
  endfacet
  facet normal 0.978146 0 0.207919
    outer loop
      vertex -12.9288 0 -1.35887
      vertex -12.9288 -2 -1.35887
      vertex -12.5 0 -3.37614
    endloop
  endfacet
  facet normal 0.978137 -0 0.207962
    outer loop
      vertex -12.5 0 -3.37614
      vertex -12.3637 80 -4.01722
      vertex -12.5 80 -3.37614
    endloop
  endfacet
  facet normal 0.978137 0 0.207962
    outer loop
      vertex -12.5 0 -3.37614
      vertex -12.3637 -2 -4.01722
      vertex -12.3637 80 -4.01722
    endloop
  endfacet
  facet normal 0.978144 1.08172e-05 0.207929
    outer loop
      vertex -12.3637 -2 -4.01722
      vertex -12.5 0 -3.37614
      vertex -12.9288 -2 -1.35887
    endloop
  endfacet
  facet normal -0.913546 0 -0.406735
    outer loop
      vertex 12.3637 -2 4.01722
      vertex 11.2583 80 6.5
      vertex 12.3637 80 4.01722
    endloop
  endfacet
  facet normal -0.913546 -0 -0.406735
    outer loop
      vertex 11.2583 80 6.5
      vertex 12.3637 -2 4.01722
      vertex 11.2583 -2 6.5
    endloop
  endfacet
  facet normal -0.309007 0 -0.95106
    outer loop
      vertex 2.70285 -2 12.7159
      vertex 5.28758 80 11.8761
      vertex 5.28758 -2 11.8761
    endloop
  endfacet
  facet normal -0.309007 0 -0.95106
    outer loop
      vertex 5.28758 80 11.8761
      vertex 2.70285 -2 12.7159
      vertex 2.70285 80 12.7159
    endloop
  endfacet
  facet normal -0.309007 0 0.95106
    outer loop
      vertex 2.70285 80 -12.7159
      vertex 5.28758 -2 -11.8761
      vertex 5.28758 80 -11.8761
    endloop
  endfacet
  facet normal -0.309007 0 0.95106
    outer loop
      vertex 5.28758 -2 -11.8761
      vertex 2.70285 80 -12.7159
      vertex 2.70285 -2 -12.7159
    endloop
  endfacet
  facet normal -0.500009 0 -0.86602
    outer loop
      vertex 5.28758 -2 11.8761
      vertex 7.64121 80 10.5172
      vertex 7.64121 -2 10.5172
    endloop
  endfacet
  facet normal -0.500009 0 -0.86602
    outer loop
      vertex 7.64121 80 10.5172
      vertex 5.28758 -2 11.8761
      vertex 5.28758 80 11.8761
    endloop
  endfacet
  facet normal -0.809022 0 -0.587778
    outer loop
      vertex 11.2583 -2 6.5
      vertex 9.66088 80 8.6987
      vertex 11.2583 80 6.5
    endloop
  endfacet
  facet normal -0.809022 -0 -0.587778
    outer loop
      vertex 9.66088 80 8.6987
      vertex 11.2583 -2 6.5
      vertex 9.66088 -2 8.6987
    endloop
  endfacet
  facet normal 1 -0 0
    outer loop
      vertex -12.9288 -2 1.35887
      vertex -12.9288 0 -1.35887
      vertex -12.9288 0 1.35887
    endloop
  endfacet
  facet normal 1 0 0
    outer loop
      vertex -12.9288 0 -1.35887
      vertex -12.9288 -2 1.35887
      vertex -12.9288 -2 -1.35887
    endloop
  endfacet
  facet normal -0.978146 -0 -0.207919
    outer loop
      vertex 12.9288 0 1.35887
      vertex 12.9288 -2 1.35887
      vertex 12.5 0 3.37614
    endloop
  endfacet
  facet normal -0.978137 0 -0.207962
    outer loop
      vertex 12.5 0 3.37614
      vertex 12.3637 80 4.01722
      vertex 12.5 80 3.37614
    endloop
  endfacet
  facet normal -0.978137 0 -0.207962
    outer loop
      vertex 12.5 0 3.37614
      vertex 12.3637 -2 4.01722
      vertex 12.3637 80 4.01722
    endloop
  endfacet
  facet normal -0.978144 1.08172e-05 -0.207929
    outer loop
      vertex 12.3637 -2 4.01722
      vertex 12.5 0 3.37614
      vertex 12.9288 -2 1.35887
    endloop
  endfacet
  facet normal 0.309007 0 -0.95106
    outer loop
      vertex -5.28758 -2 11.8761
      vertex -2.70285 80 12.7159
      vertex -2.70285 -2 12.7159
    endloop
  endfacet
  facet normal 0.309007 0 -0.95106
    outer loop
      vertex -2.70285 80 12.7159
      vertex -5.28758 -2 11.8761
      vertex -5.28758 80 11.8761
    endloop
  endfacet
endsolid OpenSCAD_Model
