solid OpenSCAD_Model
  facet normal 1 -0 0
    outer loop
      vertex 50 -5.5 -3
      vertex 50 -1 -21
      vertex 50 -1 -3
    endloop
  endfacet
  facet normal 1 0 0
    outer loop
      vertex 50 -1 -21
      vertex 50 -5.5 -3
      vertex 50 -5.5 -21
    endloop
  endfacet
  facet normal 1 -0 0
    outer loop
      vertex 50 -5.5 21
      vertex 50 -1 3
      vertex 50 -1 21
    endloop
  endfacet
  facet normal 1 0 0
    outer loop
      vertex 50 -1 3
      vertex 50 -5.5 21
      vertex 50 -5.5 3
    endloop
  endfacet
  facet normal -0 0 1
    outer loop
      vertex -47 -1 24
      vertex -19.6667 -5.5 24
      vertex -19.6667 -1 24
    endloop
  endfacet
  facet normal 0 0 1
    outer loop
      vertex -19.6667 -5.5 24
      vertex -47 -1 24
      vertex -47 -5.5 24
    endloop
  endfacet
  facet normal -0 0 1
    outer loop
      vertex -13.6667 -1 24
      vertex 13.6667 -5.5 24
      vertex 13.6667 -1 24
    endloop
  endfacet
  facet normal 0 0 1
    outer loop
      vertex 13.6667 -5.5 24
      vertex -13.6667 -1 24
      vertex -13.6667 -5.5 24
    endloop
  endfacet
  facet normal -0 0 1
    outer loop
      vertex 19.6667 -1 24
      vertex 47 -5.5 24
      vertex 47 -1 24
    endloop
  endfacet
  facet normal 0 0 1
    outer loop
      vertex 47 -5.5 24
      vertex 19.6667 -1 24
      vertex 19.6667 -5.5 24
    endloop
  endfacet
  facet normal 0 0 -1
    outer loop
      vertex -47 -5.5 -24
      vertex -19.6667 -1 -24
      vertex -19.6667 -5.5 -24
    endloop
  endfacet
  facet normal -0 0 -1
    outer loop
      vertex -19.6667 -1 -24
      vertex -47 -5.5 -24
      vertex -47 -1 -24
    endloop
  endfacet
  facet normal 0 0 -1
    outer loop
      vertex -13.6667 -5.5 -24
      vertex 13.6667 -1 -24
      vertex 13.6667 -5.5 -24
    endloop
  endfacet
  facet normal -0 0 -1
    outer loop
      vertex 13.6667 -1 -24
      vertex -13.6667 -5.5 -24
      vertex -13.6667 -1 -24
    endloop
  endfacet
  facet normal 0 0 -1
    outer loop
      vertex 19.6667 -5.5 -24
      vertex 47 -1 -24
      vertex 47 -5.5 -24
    endloop
  endfacet
  facet normal -0 0 -1
    outer loop
      vertex 47 -1 -24
      vertex 19.6667 -5.5 -24
      vertex 19.6667 -1 -24
    endloop
  endfacet
  facet normal -1 0 0
    outer loop
      vertex -50 -5.5 -21
      vertex -50 -1 -3
      vertex -50 -1 -21
    endloop
  endfacet
  facet normal -1 -0 0
    outer loop
      vertex -50 -1 -3
      vertex -50 -5.5 -21
      vertex -50 -5.5 -3
    endloop
  endfacet
  facet normal -1 0 0
    outer loop
      vertex -50 -5.5 3
      vertex -50 -1 21
      vertex -50 -1 3
    endloop
  endfacet
  facet normal -1 -0 0
    outer loop
      vertex -50 -1 21
      vertex -50 -5.5 3
      vertex -50 -5.5 21
    endloop
  endfacet
  facet normal 0 -1 0
    outer loop
      vertex -50 -5.5 -3
      vertex -46.3 -5.5 -14.5
      vertex -47 -5.5 -3
    endloop
  endfacet
  facet normal 0 -1 0
    outer loop
      vertex -47 -5.5 -21
      vertex -46.3 -5.5 -14.5
      vertex -50 -5.5 -21
    endloop
  endfacet
  facet normal 0 -1 0
    outer loop
      vertex -50 -5.5 -21
      vertex -46.3 -5.5 -14.5
      vertex -50 -5.5 -3
    endloop
  endfacet
  facet normal 0 -1 0
    outer loop
      vertex -46.3 -5.5 14.5
      vertex -47 -5.5 21
      vertex -50 -5.5 21
    endloop
  endfacet
  facet normal 0 -1 0
    outer loop
      vertex -47 -5.5 21
      vertex -46.3 -5.5 14.5
      vertex -19.6667 -5.5 21
    endloop
  endfacet
  facet normal 0 -1 -0
    outer loop
      vertex -19.6667 -5.5 21
      vertex -46.3 -5.5 14.5
      vertex -13.6667 -5.5 21
    endloop
  endfacet
  facet normal 0 -1 -0
    outer loop
      vertex -13.6667 -5.5 21
      vertex -46.3 -5.5 14.5
      vertex 13.6667 -5.5 21
    endloop
  endfacet
  facet normal 0 -1 0
    outer loop
      vertex 48.3 -5.5 14.5
      vertex 13.6667 -5.5 21
      vertex -46.3 -5.5 14.5
    endloop
  endfacet
  facet normal 0 -1 0
    outer loop
      vertex 13.6667 -5.5 21
      vertex 48.3 -5.5 14.5
      vertex 19.6667 -5.5 21
    endloop
  endfacet
  facet normal 0 -1 0
    outer loop
      vertex 19.6667 -5.5 21
      vertex 48.3 -5.5 14.5
      vertex 47 -5.5 21
    endloop
  endfacet
  facet normal 0 -1 0
    outer loop
      vertex -50 -5.5 3
      vertex -46.3 -5.5 14.5
      vertex -50 -5.5 21
    endloop
  endfacet
  facet normal 0 -1 0
    outer loop
      vertex -47 -5.5 3
      vertex -46.3 -5.5 14.5
      vertex -50 -5.5 3
    endloop
  endfacet
  facet normal 0 -1 0
    outer loop
      vertex -47 -5.5 -3
      vertex -46.3 -5.5 14.5
      vertex -47 -5.5 3
    endloop
  endfacet
  facet normal 0 -1 -0
    outer loop
      vertex -46.3 -5.5 14.5
      vertex -47 -5.5 -3
      vertex -46.3 -5.5 -14.5
    endloop
  endfacet
  facet normal 0 -1 0
    outer loop
      vertex -47 -5.5 21
      vertex -19.6667 -5.5 24
      vertex -47 -5.5 24
    endloop
  endfacet
  facet normal 0 -1 -0
    outer loop
      vertex -19.6667 -5.5 24
      vertex -47 -5.5 21
      vertex -19.6667 -5.5 21
    endloop
  endfacet
  facet normal 0 -1 0
    outer loop
      vertex -13.6667 -5.5 21
      vertex 13.6667 -5.5 24
      vertex -13.6667 -5.5 24
    endloop
  endfacet
  facet normal 0 -1 -0
    outer loop
      vertex 13.6667 -5.5 24
      vertex -13.6667 -5.5 21
      vertex 13.6667 -5.5 21
    endloop
  endfacet
  facet normal 0 -1 0
    outer loop
      vertex 19.6667 -5.5 21
      vertex 47 -5.5 24
      vertex 19.6667 -5.5 24
    endloop
  endfacet
  facet normal 0 -1 -0
    outer loop
      vertex 47 -5.5 24
      vertex 19.6667 -5.5 21
      vertex 47 -5.5 21
    endloop
  endfacet
  facet normal 0 -1 0
    outer loop
      vertex 47 -5.5 21
      vertex 48.3 -5.5 14.5
      vertex 50 -5.5 21
    endloop
  endfacet
  facet normal 0 -1 0
    outer loop
      vertex 50 -5.5 3
      vertex 48.3 -5.5 14.5
      vertex 48.3 -5.5 3
    endloop
  endfacet
  facet normal 0 -1 0
    outer loop
      vertex 48.3 -5.5 14.5
      vertex 50 -5.5 3
      vertex 50 -5.5 21
    endloop
  endfacet
  facet normal 0 -1 0
    outer loop
      vertex 48.3 -5.5 -14.5
      vertex 50 -5.5 -3
      vertex 48.3 -5.5 -3
    endloop
  endfacet
  facet normal 0 -1 0
    outer loop
      vertex -19.6667 -5.5 -21
      vertex -46.3 -5.5 -14.5
      vertex -47 -5.5 -21
    endloop
  endfacet
  facet normal 0 -1 0
    outer loop
      vertex -13.6667 -5.5 -21
      vertex -46.3 -5.5 -14.5
      vertex -19.6667 -5.5 -21
    endloop
  endfacet
  facet normal 0 -1 0
    outer loop
      vertex 13.6667 -5.5 -21
      vertex -46.3 -5.5 -14.5
      vertex -13.6667 -5.5 -21
    endloop
  endfacet
  facet normal 0 -1 0
    outer loop
      vertex -46.3 -5.5 -14.5
      vertex 13.6667 -5.5 -21
      vertex 48.3 -5.5 -14.5
    endloop
  endfacet
  facet normal 0 -1 0
    outer loop
      vertex 19.6667 -5.5 -21
      vertex 48.3 -5.5 -14.5
      vertex 13.6667 -5.5 -21
    endloop
  endfacet
  facet normal 0 -1 0
    outer loop
      vertex 47 -5.5 -21
      vertex 48.3 -5.5 -14.5
      vertex 19.6667 -5.5 -21
    endloop
  endfacet
  facet normal 0 -1 0
    outer loop
      vertex 48.3 -5.5 -14.5
      vertex 50 -5.5 -21
      vertex 50 -5.5 -3
    endloop
  endfacet
  facet normal 0 -1 0
    outer loop
      vertex 50 -5.5 -21
      vertex 48.3 -5.5 -14.5
      vertex 47 -5.5 -21
    endloop
  endfacet
  facet normal 0 -1 0
    outer loop
      vertex 19.6667 -5.5 -24
      vertex 47 -5.5 -21
      vertex 19.6667 -5.5 -21
    endloop
  endfacet
  facet normal 0 -1 -0
    outer loop
      vertex 47 -5.5 -21
      vertex 19.6667 -5.5 -24
      vertex 47 -5.5 -24
    endloop
  endfacet
  facet normal 0 -1 0
    outer loop
      vertex -13.6667 -5.5 -24
      vertex 13.6667 -5.5 -21
      vertex -13.6667 -5.5 -21
    endloop
  endfacet
  facet normal 0 -1 -0
    outer loop
      vertex 13.6667 -5.5 -21
      vertex -13.6667 -5.5 -24
      vertex 13.6667 -5.5 -24
    endloop
  endfacet
  facet normal 0 -1 0
    outer loop
      vertex -47 -5.5 -24
      vertex -19.6667 -5.5 -21
      vertex -47 -5.5 -21
    endloop
  endfacet
  facet normal 0 -1 -0
    outer loop
      vertex -19.6667 -5.5 -21
      vertex -47 -5.5 -24
      vertex -19.6667 -5.5 -24
    endloop
  endfacet
  facet normal 1 -0 0
    outer loop
      vertex 52.75 -1 -3
      vertex 52.75 7 -21
      vertex 52.75 7 -3
    endloop
  endfacet
  facet normal 1 0 0
    outer loop
      vertex 52.75 7 -21
      vertex 52.75 -1 -3
      vertex 52.75 -1 -21
    endloop
  endfacet
  facet normal 1 -0 0
    outer loop
      vertex 52.75 -1 21
      vertex 52.75 7 3
      vertex 52.75 7 21
    endloop
  endfacet
  facet normal 1 0 0
    outer loop
      vertex 52.75 7 3
      vertex 52.75 -1 21
      vertex 52.75 -1 3
    endloop
  endfacet
  facet normal -0 0 1
    outer loop
      vertex -47 7 26.75
      vertex -19.6667 -1 26.75
      vertex -19.6667 7 26.75
    endloop
  endfacet
  facet normal 0 0 1
    outer loop
      vertex -19.6667 -1 26.75
      vertex -47 7 26.75
      vertex -47 -1 26.75
    endloop
  endfacet
  facet normal -0 0 1
    outer loop
      vertex -13.6667 7 26.75
      vertex 13.6667 -1 26.75
      vertex 13.6667 7 26.75
    endloop
  endfacet
  facet normal 0 0 1
    outer loop
      vertex 13.6667 -1 26.75
      vertex -13.6667 7 26.75
      vertex -13.6667 -1 26.75
    endloop
  endfacet
  facet normal -0 0 1
    outer loop
      vertex 19.6667 7 26.75
      vertex 47 -1 26.75
      vertex 47 7 26.75
    endloop
  endfacet
  facet normal 0 0 1
    outer loop
      vertex 47 -1 26.75
      vertex 19.6667 7 26.75
      vertex 19.6667 -1 26.75
    endloop
  endfacet
  facet normal 0 0 -1
    outer loop
      vertex -47 -1 -26.75
      vertex -19.6667 7 -26.75
      vertex -19.6667 -1 -26.75
    endloop
  endfacet
  facet normal -0 0 -1
    outer loop
      vertex -19.6667 7 -26.75
      vertex -47 -1 -26.75
      vertex -47 7 -26.75
    endloop
  endfacet
  facet normal 0 0 -1
    outer loop
      vertex -13.6667 -1 -26.75
      vertex 13.6667 7 -26.75
      vertex 13.6667 -1 -26.75
    endloop
  endfacet
  facet normal -0 0 -1
    outer loop
      vertex 13.6667 7 -26.75
      vertex -13.6667 -1 -26.75
      vertex -13.6667 7 -26.75
    endloop
  endfacet
  facet normal 0 0 -1
    outer loop
      vertex 19.6667 -1 -26.75
      vertex 47 7 -26.75
      vertex 47 -1 -26.75
    endloop
  endfacet
  facet normal -0 0 -1
    outer loop
      vertex 47 7 -26.75
      vertex 19.6667 -1 -26.75
      vertex 19.6667 7 -26.75
    endloop
  endfacet
  facet normal -1 0 0
    outer loop
      vertex -52.75 -1 -21
      vertex -52.75 7 -3
      vertex -52.75 7 -21
    endloop
  endfacet
  facet normal -1 -0 0
    outer loop
      vertex -52.75 7 -3
      vertex -52.75 -1 -21
      vertex -52.75 -1 -3
    endloop
  endfacet
  facet normal -1 0 0
    outer loop
      vertex -52.75 -1 3
      vertex -52.75 7 21
      vertex -52.75 7 3
    endloop
  endfacet
  facet normal -1 -0 0
    outer loop
      vertex -52.75 7 21
      vertex -52.75 -1 3
      vertex -52.75 -1 21
    endloop
  endfacet
  facet normal 0 1 0
    outer loop
      vertex 52.75 7 -3
      vertex 48.3 7 -14.5
      vertex 48.3 7 -3
    endloop
  endfacet
  facet normal 0 1 0
    outer loop
      vertex 47 7 -21
      vertex 48.3 7 -14.5
      vertex 52.75 7 -21
    endloop
  endfacet
  facet normal 0 1 -0
    outer loop
      vertex 52.75 7 -21
      vertex 48.3 7 -14.5
      vertex 52.75 7 -3
    endloop
  endfacet
  facet normal 0 1 -0
    outer loop
      vertex 48.3 7 14.5
      vertex 47 7 21
      vertex 52.75 7 21
    endloop
  endfacet
  facet normal 0 1 0
    outer loop
      vertex 47 7 21
      vertex 48.3 7 14.5
      vertex 19.6667 7 21
    endloop
  endfacet
  facet normal 0 1 0
    outer loop
      vertex 19.6667 7 21
      vertex 48.3 7 14.5
      vertex 13.6667 7 21
    endloop
  endfacet
  facet normal 0 1 0
    outer loop
      vertex -46.3 7 14.5
      vertex 13.6667 7 21
      vertex 48.3 7 14.5
    endloop
  endfacet
  facet normal 0 1 0
    outer loop
      vertex 13.6667 7 21
      vertex -46.3 7 14.5
      vertex -13.6667 7 21
    endloop
  endfacet
  facet normal 0 1 0
    outer loop
      vertex -13.6667 7 21
      vertex -46.3 7 14.5
      vertex -19.6667 7 21
    endloop
  endfacet
  facet normal 0 1 0
    outer loop
      vertex -19.6667 7 21
      vertex -46.3 7 14.5
      vertex -47 7 21
    endloop
  endfacet
  facet normal 0 1 -0
    outer loop
      vertex 52.75 7 3
      vertex 48.3 7 14.5
      vertex 52.75 7 21
    endloop
  endfacet
  facet normal 0 1 0
    outer loop
      vertex 48.3 7 14.5
      vertex 52.75 7 3
      vertex 48.3 7 3
    endloop
  endfacet
  facet normal 0 1 -0
    outer loop
      vertex 47 7 21
      vertex 19.6667 7 26.75
      vertex 47 7 26.75
    endloop
  endfacet
  facet normal 0 1 0
    outer loop
      vertex 19.6667 7 26.75
      vertex 47 7 21
      vertex 19.6667 7 21
    endloop
  endfacet
  facet normal 0 1 -0
    outer loop
      vertex 13.6667 7 21
      vertex -13.6667 7 26.75
      vertex 13.6667 7 26.75
    endloop
  endfacet
  facet normal 0 1 0
    outer loop
      vertex -13.6667 7 26.75
      vertex 13.6667 7 21
      vertex -13.6667 7 21
    endloop
  endfacet
  facet normal 0 1 -0
    outer loop
      vertex -19.6667 7 21
      vertex -47 7 26.75
      vertex -19.6667 7 26.75
    endloop
  endfacet
  facet normal 0 1 0
    outer loop
      vertex -47 7 26.75
      vertex -19.6667 7 21
      vertex -47 7 21
    endloop
  endfacet
  facet normal 0 1 0
    outer loop
      vertex -47 7 21
      vertex -46.3 7 14.5
      vertex -52.75 7 21
    endloop
  endfacet
  facet normal 0 1 0
    outer loop
      vertex -52.75 7 3
      vertex -46.3 7 14.5
      vertex -47 7 3
    endloop
  endfacet
  facet normal 0 1 0
    outer loop
      vertex -46.3 7 14.5
      vertex -52.75 7 3
      vertex -52.75 7 21
    endloop
  endfacet
  facet normal 0 1 0
    outer loop
      vertex -46.3 7 14.5
      vertex -47 7 -3
      vertex -47 7 3
    endloop
  endfacet
  facet normal 0 1 -0
    outer loop
      vertex -46.3 7 -14.5
      vertex -47 7 -3
      vertex -46.3 7 14.5
    endloop
  endfacet
  facet normal 0 1 0
    outer loop
      vertex -46.3 7 -14.5
      vertex -52.75 7 -3
      vertex -47 7 -3
    endloop
  endfacet
  facet normal 0 1 0
    outer loop
      vertex 19.6667 7 -21
      vertex 48.3 7 -14.5
      vertex 47 7 -21
    endloop
  endfacet
  facet normal 0 1 0
    outer loop
      vertex 13.6667 7 -21
      vertex 48.3 7 -14.5
      vertex 19.6667 7 -21
    endloop
  endfacet
  facet normal 0 1 0
    outer loop
      vertex 48.3 7 -14.5
      vertex 13.6667 7 -21
      vertex -46.3 7 -14.5
    endloop
  endfacet
  facet normal 0 1 -0
    outer loop
      vertex -13.6667 7 -21
      vertex -46.3 7 -14.5
      vertex 13.6667 7 -21
    endloop
  endfacet
  facet normal 0 1 -0
    outer loop
      vertex -19.6667 7 -21
      vertex -46.3 7 -14.5
      vertex -13.6667 7 -21
    endloop
  endfacet
  facet normal 0 1 0
    outer loop
      vertex -47 7 -21
      vertex -46.3 7 -14.5
      vertex -19.6667 7 -21
    endloop
  endfacet
  facet normal 0 1 0
    outer loop
      vertex -52.75 7 -21
      vertex -46.3 7 -14.5
      vertex -47 7 -21
    endloop
  endfacet
  facet normal 0 1 0
    outer loop
      vertex -46.3 7 -14.5
      vertex -52.75 7 -21
      vertex -52.75 7 -3
    endloop
  endfacet
  facet normal 0 1 -0
    outer loop
      vertex -19.6667 7 -26.75
      vertex -47 7 -21
      vertex -19.6667 7 -21
    endloop
  endfacet
  facet normal 0 1 0
    outer loop
      vertex -47 7 -21
      vertex -19.6667 7 -26.75
      vertex -47 7 -26.75
    endloop
  endfacet
  facet normal 0 1 -0
    outer loop
      vertex 13.6667 7 -26.75
      vertex -13.6667 7 -21
      vertex 13.6667 7 -21
    endloop
  endfacet
  facet normal 0 1 0
    outer loop
      vertex -13.6667 7 -21
      vertex 13.6667 7 -26.75
      vertex -13.6667 7 -26.75
    endloop
  endfacet
  facet normal 0 1 -0
    outer loop
      vertex 47 7 -26.75
      vertex 19.6667 7 -21
      vertex 47 7 -21
    endloop
  endfacet
  facet normal 0 1 0
    outer loop
      vertex 19.6667 7 -21
      vertex 47 7 -26.75
      vertex 19.6667 7 -26.75
    endloop
  endfacet
  facet normal 0 -1 0
    outer loop
      vertex -47 -1 -26.75
      vertex -19.6667 -1 -24
      vertex -47 -1 -24
    endloop
  endfacet
  facet normal 0 -1 -0
    outer loop
      vertex -19.6667 -1 -24
      vertex -47 -1 -26.75
      vertex -19.6667 -1 -26.75
    endloop
  endfacet
  facet normal 0 -1 0
    outer loop
      vertex -13.6667 -1 -26.75
      vertex 13.6667 -1 -24
      vertex -13.6667 -1 -24
    endloop
  endfacet
  facet normal 0 -1 -0
    outer loop
      vertex 13.6667 -1 -24
      vertex -13.6667 -1 -26.75
      vertex 13.6667 -1 -26.75
    endloop
  endfacet
  facet normal 0 -1 0
    outer loop
      vertex 19.6667 -1 -26.75
      vertex 47 -1 -24
      vertex 19.6667 -1 -24
    endloop
  endfacet
  facet normal 0 -1 -0
    outer loop
      vertex 47 -1 -24
      vertex 19.6667 -1 -26.75
      vertex 47 -1 -26.75
    endloop
  endfacet
  facet normal 0 -1 0
    outer loop
      vertex -47 -1 24
      vertex -19.6667 -1 26.75
      vertex -47 -1 26.75
    endloop
  endfacet
  facet normal 0 -1 -0
    outer loop
      vertex -19.6667 -1 26.75
      vertex -47 -1 24
      vertex -19.6667 -1 24
    endloop
  endfacet
  facet normal 0 -1 0
    outer loop
      vertex -13.6667 -1 24
      vertex 13.6667 -1 26.75
      vertex -13.6667 -1 26.75
    endloop
  endfacet
  facet normal 0 -1 -0
    outer loop
      vertex 13.6667 -1 26.75
      vertex -13.6667 -1 24
      vertex 13.6667 -1 24
    endloop
  endfacet
  facet normal 0 -1 0
    outer loop
      vertex 19.6667 -1 24
      vertex 47 -1 26.75
      vertex 19.6667 -1 26.75
    endloop
  endfacet
  facet normal 0 -1 -0
    outer loop
      vertex 47 -1 26.75
      vertex 19.6667 -1 24
      vertex 47 -1 24
    endloop
  endfacet
  facet normal 0 -1 0
    outer loop
      vertex -52.75 -1 -21
      vertex -50 -1 -3
      vertex -52.75 -1 -3
    endloop
  endfacet
  facet normal 0 -1 -0
    outer loop
      vertex -50 -1 -3
      vertex -52.75 -1 -21
      vertex -50 -1 -21
    endloop
  endfacet
  facet normal 0 -1 0
    outer loop
      vertex 50 -1 -21
      vertex 52.75 -1 -3
      vertex 50 -1 -3
    endloop
  endfacet
  facet normal 0 -1 -0
    outer loop
      vertex 52.75 -1 -3
      vertex 50 -1 -21
      vertex 52.75 -1 -21
    endloop
  endfacet
  facet normal 0 -1 0
    outer loop
      vertex -52.75 -1 3
      vertex -50 -1 21
      vertex -52.75 -1 21
    endloop
  endfacet
  facet normal 0 -1 -0
    outer loop
      vertex -50 -1 21
      vertex -52.75 -1 3
      vertex -50 -1 3
    endloop
  endfacet
  facet normal 0 -1 0
    outer loop
      vertex 50 -1 3
      vertex 52.75 -1 21
      vertex 50 -1 21
    endloop
  endfacet
  facet normal 0 -1 -0
    outer loop
      vertex 52.75 -1 21
      vertex 50 -1 3
      vertex 52.75 -1 3
    endloop
  endfacet
  facet normal -1 0 0
    outer loop
      vertex -47 -5.5 -3
      vertex -47 7 3
      vertex -47 7 -3
    endloop
  endfacet
  facet normal -1 -0 0
    outer loop
      vertex -47 7 3
      vertex -47 -5.5 -3
      vertex -47 -5.5 3
    endloop
  endfacet
  facet normal 0 0 -1
    outer loop
      vertex -50 -1 3
      vertex -47 -5.5 3
      vertex -50 -5.5 3
    endloop
  endfacet
  facet normal 0 0 -1
    outer loop
      vertex -47 -5.5 3
      vertex -50 -1 3
      vertex -47 7 3
    endloop
  endfacet
  facet normal 0 0 -1
    outer loop
      vertex -52.75 7 3
      vertex -50 -1 3
      vertex -52.75 -1 3
    endloop
  endfacet
  facet normal 0 0 -1
    outer loop
      vertex -50 -1 3
      vertex -52.75 7 3
      vertex -47 7 3
    endloop
  endfacet
  facet normal 0 0 1
    outer loop
      vertex -47 7 -3
      vertex -50 -1 -3
      vertex -47 -5.5 -3
    endloop
  endfacet
  facet normal -0 0 1
    outer loop
      vertex -52.75 7 -3
      vertex -50 -1 -3
      vertex -47 7 -3
    endloop
  endfacet
  facet normal 0 0 1
    outer loop
      vertex -50 -1 -3
      vertex -52.75 7 -3
      vertex -52.75 -1 -3
    endloop
  endfacet
  facet normal 0 0 1
    outer loop
      vertex -47 -5.5 -3
      vertex -50 -1 -3
      vertex -50 -5.5 -3
    endloop
  endfacet
  facet normal 0 0 -1
    outer loop
      vertex 50 -5.5 3
      vertex 48.3 -5.5 3
      vertex 50 -1 3
    endloop
  endfacet
  facet normal 0 0 -1
    outer loop
      vertex 50 -1 3
      vertex 52.75 7 3
      vertex 52.75 -1 3
    endloop
  endfacet
  facet normal 0 0 -1
    outer loop
      vertex 48.3 7 3
      vertex 50 -1 3
      vertex 48.3 -5.5 3
    endloop
  endfacet
  facet normal 0 0 -1
    outer loop
      vertex 50 -1 3
      vertex 48.3 7 3
      vertex 52.75 7 3
    endloop
  endfacet
  facet normal 0 0 1
    outer loop
      vertex 52.75 7 -3
      vertex 50 -1 -3
      vertex 52.75 -1 -3
    endloop
  endfacet
  facet normal -0 0 1
    outer loop
      vertex 48.3 7 -3
      vertex 50 -1 -3
      vertex 52.75 7 -3
    endloop
  endfacet
  facet normal 0 0 1
    outer loop
      vertex 48.3 -5.5 -3
      vertex 50 -1 -3
      vertex 48.3 7 -3
    endloop
  endfacet
  facet normal 0 0 1
    outer loop
      vertex 50 -1 -3
      vertex 48.3 -5.5 -3
      vertex 50 -5.5 -3
    endloop
  endfacet
  facet normal 0 0 1
    outer loop
      vertex 52.75 7 21
      vertex 50 -1 21
      vertex 52.75 -1 21
    endloop
  endfacet
  facet normal -0 0 1
    outer loop
      vertex 47 7 21
      vertex 50 -1 21
      vertex 52.75 7 21
    endloop
  endfacet
  facet normal 0 0 1
    outer loop
      vertex 47 -5.5 21
      vertex 50 -1 21
      vertex 47 7 21
    endloop
  endfacet
  facet normal 0 0 1
    outer loop
      vertex 50 -1 21
      vertex 47 -5.5 21
      vertex 50 -5.5 21
    endloop
  endfacet
  facet normal 1 0 0
    outer loop
      vertex 47 -1 24
      vertex 47 7 26.75
      vertex 47 -1 26.75
    endloop
  endfacet
  facet normal 1 0 0
    outer loop
      vertex 47 7 26.75
      vertex 47 -1 24
      vertex 47 7 21
    endloop
  endfacet
  facet normal 1 0 0
    outer loop
      vertex 47 -5.5 21
      vertex 47 -1 24
      vertex 47 -5.5 24
    endloop
  endfacet
  facet normal 1 0 0
    outer loop
      vertex 47 -1 24
      vertex 47 -5.5 21
      vertex 47 7 21
    endloop
  endfacet
  facet normal -1 0 0
    outer loop
      vertex -47 -1 -24
      vertex -47 7 -26.75
      vertex -47 -1 -26.75
    endloop
  endfacet
  facet normal -1 0 0
    outer loop
      vertex -47 7 -26.75
      vertex -47 -1 -24
      vertex -47 7 -21
    endloop
  endfacet
  facet normal -1 0 0
    outer loop
      vertex -47 -5.5 -21
      vertex -47 -1 -24
      vertex -47 -5.5 -24
    endloop
  endfacet
  facet normal -1 0 0
    outer loop
      vertex -47 -1 -24
      vertex -47 -5.5 -21
      vertex -47 7 -21
    endloop
  endfacet
  facet normal 0 0 -1
    outer loop
      vertex -50 -1 -21
      vertex -47 -5.5 -21
      vertex -50 -5.5 -21
    endloop
  endfacet
  facet normal 0 0 -1
    outer loop
      vertex -47 -5.5 -21
      vertex -50 -1 -21
      vertex -47 7 -21
    endloop
  endfacet
  facet normal 0 0 -1
    outer loop
      vertex -52.75 7 -21
      vertex -50 -1 -21
      vertex -52.75 -1 -21
    endloop
  endfacet
  facet normal 0 0 -1
    outer loop
      vertex -50 -1 -21
      vertex -52.75 7 -21
      vertex -47 7 -21
    endloop
  endfacet
  facet normal 0 0 -1
    outer loop
      vertex 50 -5.5 -21
      vertex 47 -5.5 -21
      vertex 50 -1 -21
    endloop
  endfacet
  facet normal 0 0 -1
    outer loop
      vertex 50 -1 -21
      vertex 52.75 7 -21
      vertex 52.75 -1 -21
    endloop
  endfacet
  facet normal 0 0 -1
    outer loop
      vertex 47 7 -21
      vertex 50 -1 -21
      vertex 47 -5.5 -21
    endloop
  endfacet
  facet normal 0 0 -1
    outer loop
      vertex 50 -1 -21
      vertex 47 7 -21
      vertex 52.75 7 -21
    endloop
  endfacet
  facet normal 1 0 0
    outer loop
      vertex 47 7 -21
      vertex 47 -1 -24
      vertex 47 7 -26.75
    endloop
  endfacet
  facet normal 1 -0 0
    outer loop
      vertex 47 -5.5 -21
      vertex 47 -1 -24
      vertex 47 7 -21
    endloop
  endfacet
  facet normal 1 0 0
    outer loop
      vertex 47 -1 -24
      vertex 47 -5.5 -21
      vertex 47 -5.5 -24
    endloop
  endfacet
  facet normal 1 0 0
    outer loop
      vertex 47 7 -26.75
      vertex 47 -1 -24
      vertex 47 -1 -26.75
    endloop
  endfacet
  facet normal -1 0 0
    outer loop
      vertex -47 7 21
      vertex -47 -1 24
      vertex -47 7 26.75
    endloop
  endfacet
  facet normal -1 0 0
    outer loop
      vertex -47 -5.5 21
      vertex -47 -1 24
      vertex -47 7 21
    endloop
  endfacet
  facet normal -1 -0 0
    outer loop
      vertex -47 -1 24
      vertex -47 -5.5 21
      vertex -47 -5.5 24
    endloop
  endfacet
  facet normal -1 -0 0
    outer loop
      vertex -47 7 26.75
      vertex -47 -1 24
      vertex -47 -1 26.75
    endloop
  endfacet
  facet normal 0 0 1
    outer loop
      vertex -47 7 21
      vertex -50 -1 21
      vertex -47 -5.5 21
    endloop
  endfacet
  facet normal -0 0 1
    outer loop
      vertex -52.75 7 21
      vertex -50 -1 21
      vertex -47 7 21
    endloop
  endfacet
  facet normal 0 0 1
    outer loop
      vertex -50 -1 21
      vertex -52.75 7 21
      vertex -52.75 -1 21
    endloop
  endfacet
  facet normal 0 0 1
    outer loop
      vertex -47 -5.5 21
      vertex -50 -1 21
      vertex -50 -5.5 21
    endloop
  endfacet
  facet normal -1 0 0
    outer loop
      vertex 19.6667 7 21
      vertex 19.6667 -1 24
      vertex 19.6667 7 26.75
    endloop
  endfacet
  facet normal -1 0 0
    outer loop
      vertex 19.6667 -5.5 21
      vertex 19.6667 -1 24
      vertex 19.6667 7 21
    endloop
  endfacet
  facet normal -1 -0 0
    outer loop
      vertex 19.6667 -1 24
      vertex 19.6667 -5.5 21
      vertex 19.6667 -5.5 24
    endloop
  endfacet
  facet normal -1 -0 0
    outer loop
      vertex 19.6667 7 26.75
      vertex 19.6667 -1 24
      vertex 19.6667 -1 26.75
    endloop
  endfacet
  facet normal -0 0 1
    outer loop
      vertex 13.6667 7 21
      vertex 19.6667 -5.5 21
      vertex 19.6667 7 21
    endloop
  endfacet
  facet normal 0 0 1
    outer loop
      vertex 19.6667 -5.5 21
      vertex 13.6667 7 21
      vertex 13.6667 -5.5 21
    endloop
  endfacet
  facet normal 1 0 0
    outer loop
      vertex 13.6667 -1 24
      vertex 13.6667 7 26.75
      vertex 13.6667 -1 26.75
    endloop
  endfacet
  facet normal 1 0 0
    outer loop
      vertex 13.6667 7 26.75
      vertex 13.6667 -1 24
      vertex 13.6667 7 21
    endloop
  endfacet
  facet normal 1 0 0
    outer loop
      vertex 13.6667 -5.5 21
      vertex 13.6667 -1 24
      vertex 13.6667 -5.5 24
    endloop
  endfacet
  facet normal 1 0 0
    outer loop
      vertex 13.6667 -1 24
      vertex 13.6667 -5.5 21
      vertex 13.6667 7 21
    endloop
  endfacet
  facet normal -1 0 0
    outer loop
      vertex -13.6667 7 21
      vertex -13.6667 -1 24
      vertex -13.6667 7 26.75
    endloop
  endfacet
  facet normal -1 0 0
    outer loop
      vertex -13.6667 -5.5 21
      vertex -13.6667 -1 24
      vertex -13.6667 7 21
    endloop
  endfacet
  facet normal -1 -0 0
    outer loop
      vertex -13.6667 -1 24
      vertex -13.6667 -5.5 21
      vertex -13.6667 -5.5 24
    endloop
  endfacet
  facet normal -1 -0 0
    outer loop
      vertex -13.6667 7 26.75
      vertex -13.6667 -1 24
      vertex -13.6667 -1 26.75
    endloop
  endfacet
  facet normal -0 0 1
    outer loop
      vertex -19.6667 7 21
      vertex -13.6667 -5.5 21
      vertex -13.6667 7 21
    endloop
  endfacet
  facet normal 0 0 1
    outer loop
      vertex -13.6667 -5.5 21
      vertex -19.6667 7 21
      vertex -19.6667 -5.5 21
    endloop
  endfacet
  facet normal 1 0 0
    outer loop
      vertex -19.6667 -1 24
      vertex -19.6667 7 26.75
      vertex -19.6667 -1 26.75
    endloop
  endfacet
  facet normal 1 0 0
    outer loop
      vertex -19.6667 7 26.75
      vertex -19.6667 -1 24
      vertex -19.6667 7 21
    endloop
  endfacet
  facet normal 1 0 0
    outer loop
      vertex -19.6667 -5.5 21
      vertex -19.6667 -1 24
      vertex -19.6667 -5.5 24
    endloop
  endfacet
  facet normal 1 0 0
    outer loop
      vertex -19.6667 -1 24
      vertex -19.6667 -5.5 21
      vertex -19.6667 7 21
    endloop
  endfacet
  facet normal -1 0 0
    outer loop
      vertex 19.6667 -1 -24
      vertex 19.6667 7 -26.75
      vertex 19.6667 -1 -26.75
    endloop
  endfacet
  facet normal -1 0 0
    outer loop
      vertex 19.6667 7 -26.75
      vertex 19.6667 -1 -24
      vertex 19.6667 7 -21
    endloop
  endfacet
  facet normal -1 0 0
    outer loop
      vertex 19.6667 -5.5 -21
      vertex 19.6667 -1 -24
      vertex 19.6667 -5.5 -24
    endloop
  endfacet
  facet normal -1 0 0
    outer loop
      vertex 19.6667 -1 -24
      vertex 19.6667 -5.5 -21
      vertex 19.6667 7 -21
    endloop
  endfacet
  facet normal 0 0 -1
    outer loop
      vertex 13.6667 -5.5 -21
      vertex 19.6667 7 -21
      vertex 19.6667 -5.5 -21
    endloop
  endfacet
  facet normal -0 0 -1
    outer loop
      vertex 19.6667 7 -21
      vertex 13.6667 -5.5 -21
      vertex 13.6667 7 -21
    endloop
  endfacet
  facet normal 1 0 0
    outer loop
      vertex 13.6667 7 -21
      vertex 13.6667 -1 -24
      vertex 13.6667 7 -26.75
    endloop
  endfacet
  facet normal 1 -0 0
    outer loop
      vertex 13.6667 -5.5 -21
      vertex 13.6667 -1 -24
      vertex 13.6667 7 -21
    endloop
  endfacet
  facet normal 1 0 0
    outer loop
      vertex 13.6667 -1 -24
      vertex 13.6667 -5.5 -21
      vertex 13.6667 -5.5 -24
    endloop
  endfacet
  facet normal 1 0 0
    outer loop
      vertex 13.6667 7 -26.75
      vertex 13.6667 -1 -24
      vertex 13.6667 -1 -26.75
    endloop
  endfacet
  facet normal -1 0 0
    outer loop
      vertex -13.6667 -1 -24
      vertex -13.6667 7 -26.75
      vertex -13.6667 -1 -26.75
    endloop
  endfacet
  facet normal -1 0 0
    outer loop
      vertex -13.6667 7 -26.75
      vertex -13.6667 -1 -24
      vertex -13.6667 7 -21
    endloop
  endfacet
  facet normal -1 0 0
    outer loop
      vertex -13.6667 -5.5 -21
      vertex -13.6667 -1 -24
      vertex -13.6667 -5.5 -24
    endloop
  endfacet
  facet normal -1 0 0
    outer loop
      vertex -13.6667 -1 -24
      vertex -13.6667 -5.5 -21
      vertex -13.6667 7 -21
    endloop
  endfacet
  facet normal 0 0 -1
    outer loop
      vertex -19.6667 -5.5 -21
      vertex -13.6667 7 -21
      vertex -13.6667 -5.5 -21
    endloop
  endfacet
  facet normal -0 0 -1
    outer loop
      vertex -13.6667 7 -21
      vertex -19.6667 -5.5 -21
      vertex -19.6667 7 -21
    endloop
  endfacet
  facet normal 1 0 0
    outer loop
      vertex -19.6667 7 -21
      vertex -19.6667 -1 -24
      vertex -19.6667 7 -26.75
    endloop
  endfacet
  facet normal 1 -0 0
    outer loop
      vertex -19.6667 -5.5 -21
      vertex -19.6667 -1 -24
      vertex -19.6667 7 -21
    endloop
  endfacet
  facet normal 1 0 0
    outer loop
      vertex -19.6667 -1 -24
      vertex -19.6667 -5.5 -21
      vertex -19.6667 -5.5 -24
    endloop
  endfacet
  facet normal 1 0 0
    outer loop
      vertex -19.6667 7 -26.75
      vertex -19.6667 -1 -24
      vertex -19.6667 -1 -26.75
    endloop
  endfacet
  facet normal -1 0 0
    outer loop
      vertex 48.3 -5.5 -14.5
      vertex 48.3 7 -3
      vertex 48.3 7 -14.5
    endloop
  endfacet
  facet normal -1 -0 0
    outer loop
      vertex 48.3 7 -3
      vertex 48.3 -5.5 -14.5
      vertex 48.3 -5.5 -3
    endloop
  endfacet
  facet normal -1 0 0
    outer loop
      vertex 48.3 -5.5 3
      vertex 48.3 7 14.5
      vertex 48.3 7 3
    endloop
  endfacet
  facet normal -1 -0 0
    outer loop
      vertex 48.3 7 14.5
      vertex 48.3 -5.5 3
      vertex 48.3 -5.5 14.5
    endloop
  endfacet
  facet normal 0 0 -1
    outer loop
      vertex -46.3 -5.5 14.5
      vertex 48.3 7 14.5
      vertex 48.3 -5.5 14.5
    endloop
  endfacet
  facet normal -0 0 -1
    outer loop
      vertex 48.3 7 14.5
      vertex -46.3 -5.5 14.5
      vertex -46.3 7 14.5
    endloop
  endfacet
  facet normal -0 0 1
    outer loop
      vertex -46.3 7 -14.5
      vertex 48.3 -5.5 -14.5
      vertex 48.3 7 -14.5
    endloop
  endfacet
  facet normal 0 0 1
    outer loop
      vertex 48.3 -5.5 -14.5
      vertex -46.3 7 -14.5
      vertex -46.3 -5.5 -14.5
    endloop
  endfacet
  facet normal 1 -0 0
    outer loop
      vertex -46.3 -5.5 14.5
      vertex -46.3 7 -14.5
      vertex -46.3 7 14.5
    endloop
  endfacet
  facet normal 1 0 0
    outer loop
      vertex -46.3 7 -14.5
      vertex -46.3 -5.5 14.5
      vertex -46.3 -5.5 -14.5
    endloop
  endfacet
endsolid OpenSCAD_Model
