solid OpenSCAD_Model
  facet normal -1 0 0
    outer loop
      vertex -40 -5.5 -3
      vertex -40 0.5 3
      vertex -40 0.5 -3
    endloop
  endfacet
  facet normal -1 -0 0
    outer loop
      vertex -40 0.5 3
      vertex -40 -5.5 -3
      vertex -40 -5.5 3
    endloop
  endfacet
  facet normal 0 0 -1
    outer loop
      vertex -43 -5.5 3
      vertex -40 0.5 3
      vertex -40 -5.5 3
    endloop
  endfacet
  facet normal -0 0 -1
    outer loop
      vertex -40 0.5 3
      vertex -43 -5.5 3
      vertex -43 0.5 3
    endloop
  endfacet
  facet normal -0 0 1
    outer loop
      vertex -43 0.5 -3
      vertex -40 -5.5 -3
      vertex -40 0.5 -3
    endloop
  endfacet
  facet normal 0 0 1
    outer loop
      vertex -40 -5.5 -3
      vertex -43 0.5 -3
      vertex -43 -5.5 -3
    endloop
  endfacet
  facet normal 0 0 -1
    outer loop
      vertex 40 -5.5 3
      vertex 43 0.5 3
      vertex 43 -5.5 3
    endloop
  endfacet
  facet normal -0 0 -1
    outer loop
      vertex 43 0.5 3
      vertex 40 -5.5 3
      vertex 40 0.5 3
    endloop
  endfacet
  facet normal -0 0 1
    outer loop
      vertex 40 0.5 -3
      vertex 43 -5.5 -3
      vertex 43 0.5 -3
    endloop
  endfacet
  facet normal 0 0 1
    outer loop
      vertex 43 -5.5 -3
      vertex 40 0.5 -3
      vertex 40 -5.5 -3
    endloop
  endfacet
  facet normal 1 -0 0
    outer loop
      vertex 40 -5.5 3
      vertex 40 0.5 -3
      vertex 40 0.5 3
    endloop
  endfacet
  facet normal 1 0 0
    outer loop
      vertex 40 0.5 -3
      vertex 40 -5.5 3
      vertex 40 -5.5 -3
    endloop
  endfacet
  facet normal -0 0 1
    outer loop
      vertex 40 0.5 17
      vertex 43 -5.5 17
      vertex 43 0.5 17
    endloop
  endfacet
  facet normal 0 0 1
    outer loop
      vertex 43 -5.5 17
      vertex 40 0.5 17
      vertex 40 -5.5 17
    endloop
  endfacet
  facet normal 1 -0 0
    outer loop
      vertex 40 -5.5 20
      vertex 40 0.5 17
      vertex 40 0.5 20
    endloop
  endfacet
  facet normal 1 0 0
    outer loop
      vertex 40 0.5 17
      vertex 40 -5.5 20
      vertex 40 -5.5 17
    endloop
  endfacet
  facet normal -1 0 0
    outer loop
      vertex -40 -5.5 -20
      vertex -40 0.5 -17
      vertex -40 0.5 -20
    endloop
  endfacet
  facet normal -1 -0 0
    outer loop
      vertex -40 0.5 -17
      vertex -40 -5.5 -20
      vertex -40 -5.5 -17
    endloop
  endfacet
  facet normal 0 0 -1
    outer loop
      vertex -43 -5.5 -17
      vertex -40 0.5 -17
      vertex -40 -5.5 -17
    endloop
  endfacet
  facet normal -0 0 -1
    outer loop
      vertex -40 0.5 -17
      vertex -43 -5.5 -17
      vertex -43 0.5 -17
    endloop
  endfacet
  facet normal 0 0 -1
    outer loop
      vertex 40 -5.5 -17
      vertex 43 0.5 -17
      vertex 43 -5.5 -17
    endloop
  endfacet
  facet normal -0 0 -1
    outer loop
      vertex 43 0.5 -17
      vertex 40 -5.5 -17
      vertex 40 0.5 -17
    endloop
  endfacet
  facet normal 1 -0 0
    outer loop
      vertex 40 -5.5 -17
      vertex 40 0.5 -20
      vertex 40 0.5 -17
    endloop
  endfacet
  facet normal 1 0 0
    outer loop
      vertex 40 0.5 -20
      vertex 40 -5.5 -17
      vertex 40 -5.5 -20
    endloop
  endfacet
  facet normal -1 0 0
    outer loop
      vertex -40 -5.5 17
      vertex -40 0.5 20
      vertex -40 0.5 17
    endloop
  endfacet
  facet normal -1 -0 0
    outer loop
      vertex -40 0.5 20
      vertex -40 -5.5 17
      vertex -40 -5.5 20
    endloop
  endfacet
  facet normal -0 0 1
    outer loop
      vertex -43 0.5 17
      vertex -40 -5.5 17
      vertex -40 0.5 17
    endloop
  endfacet
  facet normal 0 0 1
    outer loop
      vertex -40 -5.5 17
      vertex -43 0.5 17
      vertex -43 -5.5 17
    endloop
  endfacet
  facet normal -1 0 0
    outer loop
      vertex 17.3333 -5.5 17
      vertex 17.3333 0.5 20
      vertex 17.3333 0.5 17
    endloop
  endfacet
  facet normal -1 -0 0
    outer loop
      vertex 17.3333 0.5 20
      vertex 17.3333 -5.5 17
      vertex 17.3333 -5.5 20
    endloop
  endfacet
  facet normal -0 0 1
    outer loop
      vertex 11.3333 0.5 17
      vertex 17.3333 -5.5 17
      vertex 17.3333 0.5 17
    endloop
  endfacet
  facet normal 0 0 1
    outer loop
      vertex 17.3333 -5.5 17
      vertex 11.3333 0.5 17
      vertex 11.3333 -5.5 17
    endloop
  endfacet
  facet normal 1 -0 0
    outer loop
      vertex 11.3333 -5.5 20
      vertex 11.3333 0.5 17
      vertex 11.3333 0.5 20
    endloop
  endfacet
  facet normal 1 0 0
    outer loop
      vertex 11.3333 0.5 17
      vertex 11.3333 -5.5 20
      vertex 11.3333 -5.5 17
    endloop
  endfacet
  facet normal -1 0 0
    outer loop
      vertex -11.3333 -5.5 17
      vertex -11.3333 0.5 20
      vertex -11.3333 0.5 17
    endloop
  endfacet
  facet normal -1 -0 0
    outer loop
      vertex -11.3333 0.5 20
      vertex -11.3333 -5.5 17
      vertex -11.3333 -5.5 20
    endloop
  endfacet
  facet normal -0 0 1
    outer loop
      vertex -17.3333 0.5 17
      vertex -11.3333 -5.5 17
      vertex -11.3333 0.5 17
    endloop
  endfacet
  facet normal 0 0 1
    outer loop
      vertex -11.3333 -5.5 17
      vertex -17.3333 0.5 17
      vertex -17.3333 -5.5 17
    endloop
  endfacet
  facet normal 1 -0 0
    outer loop
      vertex -17.3333 -5.5 20
      vertex -17.3333 0.5 17
      vertex -17.3333 0.5 20
    endloop
  endfacet
  facet normal 1 0 0
    outer loop
      vertex -17.3333 0.5 17
      vertex -17.3333 -5.5 20
      vertex -17.3333 -5.5 17
    endloop
  endfacet
  facet normal -1 0 0
    outer loop
      vertex 17.3333 -5.5 -20
      vertex 17.3333 0.5 -17
      vertex 17.3333 0.5 -20
    endloop
  endfacet
  facet normal -1 -0 0
    outer loop
      vertex 17.3333 0.5 -17
      vertex 17.3333 -5.5 -20
      vertex 17.3333 -5.5 -17
    endloop
  endfacet
  facet normal 0 0 -1
    outer loop
      vertex 11.3333 -5.5 -17
      vertex 17.3333 0.5 -17
      vertex 17.3333 -5.5 -17
    endloop
  endfacet
  facet normal -0 0 -1
    outer loop
      vertex 17.3333 0.5 -17
      vertex 11.3333 -5.5 -17
      vertex 11.3333 0.5 -17
    endloop
  endfacet
  facet normal 1 -0 0
    outer loop
      vertex 11.3333 -5.5 -17
      vertex 11.3333 0.5 -20
      vertex 11.3333 0.5 -17
    endloop
  endfacet
  facet normal 1 0 0
    outer loop
      vertex 11.3333 0.5 -20
      vertex 11.3333 -5.5 -17
      vertex 11.3333 -5.5 -20
    endloop
  endfacet
  facet normal -1 0 0
    outer loop
      vertex -11.3333 -5.5 -20
      vertex -11.3333 0.5 -17
      vertex -11.3333 0.5 -20
    endloop
  endfacet
  facet normal -1 -0 0
    outer loop
      vertex -11.3333 0.5 -17
      vertex -11.3333 -5.5 -20
      vertex -11.3333 -5.5 -17
    endloop
  endfacet
  facet normal 0 0 -1
    outer loop
      vertex -17.3333 -5.5 -17
      vertex -11.3333 0.5 -17
      vertex -11.3333 -5.5 -17
    endloop
  endfacet
  facet normal -0 0 -1
    outer loop
      vertex -11.3333 0.5 -17
      vertex -17.3333 -5.5 -17
      vertex -17.3333 0.5 -17
    endloop
  endfacet
  facet normal 1 -0 0
    outer loop
      vertex -17.3333 -5.5 -17
      vertex -17.3333 0.5 -20
      vertex -17.3333 0.5 -17
    endloop
  endfacet
  facet normal 1 0 0
    outer loop
      vertex -17.3333 0.5 -20
      vertex -17.3333 -5.5 -17
      vertex -17.3333 -5.5 -20
    endloop
  endfacet
  facet normal 1 -0 0
    outer loop
      vertex 43 -5.5 -3
      vertex 43 0.5 -17
      vertex 43 0.5 -3
    endloop
  endfacet
  facet normal 1 0 0
    outer loop
      vertex 43 0.5 -17
      vertex 43 -5.5 -3
      vertex 43 -5.5 -17
    endloop
  endfacet
  facet normal 1 -0 0
    outer loop
      vertex 43 -5.5 17
      vertex 43 0.5 3
      vertex 43 0.5 17
    endloop
  endfacet
  facet normal 1 0 0
    outer loop
      vertex 43 0.5 3
      vertex 43 -5.5 17
      vertex 43 -5.5 3
    endloop
  endfacet
  facet normal -0 0 1
    outer loop
      vertex -40 0.5 20
      vertex -17.3333 -5.5 20
      vertex -17.3333 0.5 20
    endloop
  endfacet
  facet normal 0 0 1
    outer loop
      vertex -17.3333 -5.5 20
      vertex -40 0.5 20
      vertex -40 -5.5 20
    endloop
  endfacet
  facet normal -0 0 1
    outer loop
      vertex -11.3333 0.5 20
      vertex 11.3333 -5.5 20
      vertex 11.3333 0.5 20
    endloop
  endfacet
  facet normal 0 0 1
    outer loop
      vertex 11.3333 -5.5 20
      vertex -11.3333 0.5 20
      vertex -11.3333 -5.5 20
    endloop
  endfacet
  facet normal -0 0 1
    outer loop
      vertex 17.3333 0.5 20
      vertex 40 -5.5 20
      vertex 40 0.5 20
    endloop
  endfacet
  facet normal 0 0 1
    outer loop
      vertex 40 -5.5 20
      vertex 17.3333 0.5 20
      vertex 17.3333 -5.5 20
    endloop
  endfacet
  facet normal 0 0 -1
    outer loop
      vertex -40 -5.5 -20
      vertex -17.3333 0.5 -20
      vertex -17.3333 -5.5 -20
    endloop
  endfacet
  facet normal -0 0 -1
    outer loop
      vertex -17.3333 0.5 -20
      vertex -40 -5.5 -20
      vertex -40 0.5 -20
    endloop
  endfacet
  facet normal 0 0 -1
    outer loop
      vertex -11.3333 -5.5 -20
      vertex 11.3333 0.5 -20
      vertex 11.3333 -5.5 -20
    endloop
  endfacet
  facet normal -0 0 -1
    outer loop
      vertex 11.3333 0.5 -20
      vertex -11.3333 -5.5 -20
      vertex -11.3333 0.5 -20
    endloop
  endfacet
  facet normal 0 0 -1
    outer loop
      vertex 17.3333 -5.5 -20
      vertex 40 0.5 -20
      vertex 40 -5.5 -20
    endloop
  endfacet
  facet normal -0 0 -1
    outer loop
      vertex 40 0.5 -20
      vertex 17.3333 -5.5 -20
      vertex 17.3333 0.5 -20
    endloop
  endfacet
  facet normal -1 0 0
    outer loop
      vertex -43 -5.5 -17
      vertex -43 0.5 -3
      vertex -43 0.5 -17
    endloop
  endfacet
  facet normal -1 -0 0
    outer loop
      vertex -43 0.5 -3
      vertex -43 -5.5 -17
      vertex -43 -5.5 -3
    endloop
  endfacet
  facet normal -1 0 0
    outer loop
      vertex -43 -5.5 3
      vertex -43 0.5 17
      vertex -43 0.5 3
    endloop
  endfacet
  facet normal -1 -0 0
    outer loop
      vertex -43 0.5 17
      vertex -43 -5.5 3
      vertex -43 -5.5 17
    endloop
  endfacet
  facet normal 0 -1 0
    outer loop
      vertex 40 -5.5 -20
      vertex 38.5 -5.5 -14
      vertex 17.3333 -5.5 -20
    endloop
  endfacet
  facet normal 0 -1 0
    outer loop
      vertex 38.5 -5.5 -14
      vertex 40 -5.5 -20
      vertex 40 -5.5 -17
    endloop
  endfacet
  facet normal 0 -1 0
    outer loop
      vertex -11.3333 -5.5 -20
      vertex 11.3333 -5.5 -17
      vertex -11.3333 -5.5 -17
    endloop
  endfacet
  facet normal 0 -1 -0
    outer loop
      vertex 11.3333 -5.5 -17
      vertex -11.3333 -5.5 -20
      vertex 11.3333 -5.5 -20
    endloop
  endfacet
  facet normal 0 -1 0
    outer loop
      vertex -17.3333 -5.5 -20
      vertex -33.5 -5.5 -14
      vertex -40 -5.5 -20
    endloop
  endfacet
  facet normal 0 -1 0
    outer loop
      vertex -33.5 -5.5 -14
      vertex -17.3333 -5.5 -20
      vertex -17.3333 -5.5 -17
    endloop
  endfacet
  facet normal 0 -1 0
    outer loop
      vertex -40 -5.5 -17
      vertex -40 -5.5 -3
      vertex -43 -5.5 -3
    endloop
  endfacet
  facet normal 0 -1 0
    outer loop
      vertex -40 -5.5 -3
      vertex -40 -5.5 -17
      vertex -33.5 -5.5 -14
    endloop
  endfacet
  facet normal 0 -1 0
    outer loop
      vertex -40 -5.5 -17
      vertex -43 -5.5 -3
      vertex -43 -5.5 -17
    endloop
  endfacet
  facet normal 0 -1 0
    outer loop
      vertex 38.5 -5.5 14
      vertex 40 -5.5 -3
      vertex 40 -5.5 3
    endloop
  endfacet
  facet normal 0 -1 0
    outer loop
      vertex 38.5 -5.5 -14
      vertex 40 -5.5 -3
      vertex 38.5 -5.5 14
    endloop
  endfacet
  facet normal 0 -1 0
    outer loop
      vertex 38.5 -5.5 -14
      vertex 43 -5.5 -3
      vertex 40 -5.5 -3
    endloop
  endfacet
  facet normal 0 -1 0
    outer loop
      vertex -40 -5.5 -20
      vertex -33.5 -5.5 -14
      vertex -40 -5.5 -17
    endloop
  endfacet
  facet normal 0 -1 0
    outer loop
      vertex -11.3333 -5.5 -17
      vertex -33.5 -5.5 -14
      vertex -17.3333 -5.5 -17
    endloop
  endfacet
  facet normal 0 -1 0
    outer loop
      vertex 11.3333 -5.5 -17
      vertex -33.5 -5.5 -14
      vertex -11.3333 -5.5 -17
    endloop
  endfacet
  facet normal 0 -1 0
    outer loop
      vertex -33.5 -5.5 -14
      vertex 11.3333 -5.5 -17
      vertex 38.5 -5.5 -14
    endloop
  endfacet
  facet normal 0 -1 0
    outer loop
      vertex 17.3333 -5.5 -17
      vertex 38.5 -5.5 -14
      vertex 11.3333 -5.5 -17
    endloop
  endfacet
  facet normal 0 -1 0
    outer loop
      vertex 17.3333 -5.5 -20
      vertex 38.5 -5.5 -14
      vertex 17.3333 -5.5 -17
    endloop
  endfacet
  facet normal 0 -1 0
    outer loop
      vertex 43 -5.5 -17
      vertex 38.5 -5.5 -14
      vertex 40 -5.5 -17
    endloop
  endfacet
  facet normal 0 -1 0
    outer loop
      vertex 38.5 -5.5 -14
      vertex 43 -5.5 -17
      vertex 43 -5.5 -3
    endloop
  endfacet
  facet normal 0 -1 0
    outer loop
      vertex -40 -5.5 3
      vertex -40 -5.5 17
      vertex -43 -5.5 17
    endloop
  endfacet
  facet normal 0 -1 0
    outer loop
      vertex -40 -5.5 17
      vertex -33.5 -5.5 14
      vertex -17.3333 -5.5 17
    endloop
  endfacet
  facet normal 0 -1 -0
    outer loop
      vertex -17.3333 -5.5 17
      vertex -33.5 -5.5 14
      vertex -11.3333 -5.5 17
    endloop
  endfacet
  facet normal 0 -1 -0
    outer loop
      vertex -11.3333 -5.5 17
      vertex -33.5 -5.5 14
      vertex 11.3333 -5.5 17
    endloop
  endfacet
  facet normal 0 -1 0
    outer loop
      vertex 38.5 -5.5 14
      vertex 11.3333 -5.5 17
      vertex -33.5 -5.5 14
    endloop
  endfacet
  facet normal 0 -1 0
    outer loop
      vertex 11.3333 -5.5 17
      vertex 38.5 -5.5 14
      vertex 17.3333 -5.5 17
    endloop
  endfacet
  facet normal 0 -1 0
    outer loop
      vertex 17.3333 -5.5 17
      vertex 38.5 -5.5 14
      vertex 40 -5.5 17
    endloop
  endfacet
  facet normal 0 -1 0
    outer loop
      vertex -40 -5.5 3
      vertex -43 -5.5 17
      vertex -43 -5.5 3
    endloop
  endfacet
  facet normal 0 -1 0
    outer loop
      vertex -40 -5.5 17
      vertex -40 -5.5 3
      vertex -33.5 -5.5 14
    endloop
  endfacet
  facet normal 0 -1 0
    outer loop
      vertex -40 -5.5 -3
      vertex -33.5 -5.5 14
      vertex -40 -5.5 3
    endloop
  endfacet
  facet normal 0 -1 -0
    outer loop
      vertex -33.5 -5.5 14
      vertex -40 -5.5 -3
      vertex -33.5 -5.5 -14
    endloop
  endfacet
  facet normal 0 -1 0
    outer loop
      vertex -40 -5.5 17
      vertex -17.3333 -5.5 20
      vertex -40 -5.5 20
    endloop
  endfacet
  facet normal 0 -1 -0
    outer loop
      vertex -17.3333 -5.5 20
      vertex -40 -5.5 17
      vertex -17.3333 -5.5 17
    endloop
  endfacet
  facet normal 0 -1 0
    outer loop
      vertex -11.3333 -5.5 17
      vertex 11.3333 -5.5 20
      vertex -11.3333 -5.5 20
    endloop
  endfacet
  facet normal 0 -1 -0
    outer loop
      vertex 11.3333 -5.5 20
      vertex -11.3333 -5.5 17
      vertex 11.3333 -5.5 17
    endloop
  endfacet
  facet normal 0 -1 0
    outer loop
      vertex 17.3333 -5.5 17
      vertex 40 -5.5 20
      vertex 17.3333 -5.5 20
    endloop
  endfacet
  facet normal 0 -1 -0
    outer loop
      vertex 40 -5.5 20
      vertex 17.3333 -5.5 17
      vertex 40 -5.5 17
    endloop
  endfacet
  facet normal 0 -1 -0
    outer loop
      vertex 40 -5.5 17
      vertex 38.5 -5.5 14
      vertex 43 -5.5 17
    endloop
  endfacet
  facet normal 0 -1 0
    outer loop
      vertex 43 -5.5 3
      vertex 38.5 -5.5 14
      vertex 40 -5.5 3
    endloop
  endfacet
  facet normal 0 -1 0
    outer loop
      vertex 38.5 -5.5 14
      vertex 43 -5.5 3
      vertex 43 -5.5 17
    endloop
  endfacet
  facet normal 1 -0 0
    outer loop
      vertex 46.5 0.5 23.5
      vertex 46.5 7.5 -23.5
      vertex 46.5 7.5 23.5
    endloop
  endfacet
  facet normal 1 0 0
    outer loop
      vertex 46.5 7.5 -23.5
      vertex 46.5 0.5 23.5
      vertex 46.5 0.5 -23.5
    endloop
  endfacet
  facet normal -0 0 1
    outer loop
      vertex -46.5 7.5 23.5
      vertex 46.5 0.5 23.5
      vertex 46.5 7.5 23.5
    endloop
  endfacet
  facet normal 0 0 1
    outer loop
      vertex 46.5 0.5 23.5
      vertex -46.5 7.5 23.5
      vertex -46.5 0.5 23.5
    endloop
  endfacet
  facet normal 0 0 -1
    outer loop
      vertex -46.5 0.5 -23.5
      vertex 46.5 7.5 -23.5
      vertex 46.5 0.5 -23.5
    endloop
  endfacet
  facet normal -0 0 -1
    outer loop
      vertex 46.5 7.5 -23.5
      vertex -46.5 0.5 -23.5
      vertex -46.5 7.5 -23.5
    endloop
  endfacet
  facet normal -1 0 0
    outer loop
      vertex -46.5 0.5 -23.5
      vertex -46.5 7.5 23.5
      vertex -46.5 7.5 -23.5
    endloop
  endfacet
  facet normal -1 -0 0
    outer loop
      vertex -46.5 7.5 23.5
      vertex -46.5 0.5 -23.5
      vertex -46.5 0.5 23.5
    endloop
  endfacet
  facet normal 0 1 0
    outer loop
      vertex -33.5 7.5 14
      vertex 46.5 7.5 23.5
      vertex 38.5 7.5 14
    endloop
  endfacet
  facet normal 0 1 0
    outer loop
      vertex 46.5 7.5 23.5
      vertex 38.5 7.5 -14
      vertex 38.5 7.5 14
    endloop
  endfacet
  facet normal 0 1 0
    outer loop
      vertex 38.5 7.5 -14
      vertex 46.5 7.5 -23.5
      vertex -33.5 7.5 -14
    endloop
  endfacet
  facet normal 0 1 -0
    outer loop
      vertex 46.5 7.5 -23.5
      vertex 38.5 7.5 -14
      vertex 46.5 7.5 23.5
    endloop
  endfacet
  facet normal 0 1 0
    outer loop
      vertex 46.5 7.5 23.5
      vertex -33.5 7.5 14
      vertex -46.5 7.5 23.5
    endloop
  endfacet
  facet normal 0 1 -0
    outer loop
      vertex -33.5 7.5 -14
      vertex -46.5 7.5 23.5
      vertex -33.5 7.5 14
    endloop
  endfacet
  facet normal 0 1 0
    outer loop
      vertex -33.5 7.5 -14
      vertex -46.5 7.5 -23.5
      vertex -46.5 7.5 23.5
    endloop
  endfacet
  facet normal 0 1 0
    outer loop
      vertex -46.5 7.5 -23.5
      vertex -33.5 7.5 -14
      vertex 46.5 7.5 -23.5
    endloop
  endfacet
  facet normal 0 -1 0
    outer loop
      vertex -17.3333 0.5 -20
      vertex -11.3333 0.5 -17
      vertex -17.3333 0.5 -17
    endloop
  endfacet
  facet normal 0 -1 -0
    outer loop
      vertex -11.3333 0.5 -17
      vertex -17.3333 0.5 -20
      vertex -11.3333 0.5 -20
    endloop
  endfacet
  facet normal 0 -1 0
    outer loop
      vertex 11.3333 0.5 -20
      vertex 17.3333 0.5 -17
      vertex 11.3333 0.5 -17
    endloop
  endfacet
  facet normal 0 -1 -0
    outer loop
      vertex 17.3333 0.5 -17
      vertex 11.3333 0.5 -20
      vertex 17.3333 0.5 -20
    endloop
  endfacet
  facet normal 0 -1 0
    outer loop
      vertex 40 0.5 -17
      vertex 40 0.5 -20
      vertex 43 0.5 -17
    endloop
  endfacet
  facet normal 0 -1 0
    outer loop
      vertex 40 0.5 3
      vertex 40 0.5 -3
      vertex 43 0.5 3
    endloop
  endfacet
  facet normal 0 -1 0
    outer loop
      vertex 11.3333 0.5 17
      vertex 17.3333 0.5 20
      vertex 11.3333 0.5 20
    endloop
  endfacet
  facet normal 0 -1 -0
    outer loop
      vertex 17.3333 0.5 20
      vertex 11.3333 0.5 17
      vertex 17.3333 0.5 17
    endloop
  endfacet
  facet normal 0 -1 0
    outer loop
      vertex -17.3333 0.5 17
      vertex -11.3333 0.5 20
      vertex -17.3333 0.5 20
    endloop
  endfacet
  facet normal 0 -1 -0
    outer loop
      vertex -11.3333 0.5 20
      vertex -17.3333 0.5 17
      vertex -11.3333 0.5 17
    endloop
  endfacet
  facet normal 0 -1 0
    outer loop
      vertex -17.3333 0.5 20
      vertex -46.5 0.5 23.5
      vertex -40 0.5 20
    endloop
  endfacet
  facet normal 0 -1 0
    outer loop
      vertex -46.5 0.5 23.5
      vertex -43 0.5 17
      vertex -40 0.5 20
    endloop
  endfacet
  facet normal 0 -1 0
    outer loop
      vertex -46.5 0.5 23.5
      vertex -43 0.5 3
      vertex -43 0.5 17
    endloop
  endfacet
  facet normal 0 -1 0
    outer loop
      vertex -43 0.5 3
      vertex -43 0.5 -3
      vertex -40 0.5 3
    endloop
  endfacet
  facet normal 0 -1 0
    outer loop
      vertex -46.5 0.5 23.5
      vertex -43 0.5 -3
      vertex -43 0.5 3
    endloop
  endfacet
  facet normal 0 -1 0
    outer loop
      vertex -46.5 0.5 -23.5
      vertex -43 0.5 -3
      vertex -46.5 0.5 23.5
    endloop
  endfacet
  facet normal 0 -1 0
    outer loop
      vertex -43 0.5 -17
      vertex -40 0.5 -20
      vertex -40 0.5 -17
    endloop
  endfacet
  facet normal 0 -1 0
    outer loop
      vertex -46.5 0.5 -23.5
      vertex -17.3333 0.5 -20
      vertex -40 0.5 -20
    endloop
  endfacet
  facet normal 0 -1 -0
    outer loop
      vertex -17.3333 0.5 -20
      vertex -46.5 0.5 -23.5
      vertex -11.3333 0.5 -20
    endloop
  endfacet
  facet normal 0 -1 -0
    outer loop
      vertex -11.3333 0.5 -20
      vertex -46.5 0.5 -23.5
      vertex 11.3333 0.5 -20
    endloop
  endfacet
  facet normal 0 -1 0
    outer loop
      vertex 46.5 0.5 -23.5
      vertex 11.3333 0.5 -20
      vertex -46.5 0.5 -23.5
    endloop
  endfacet
  facet normal 0 -1 0
    outer loop
      vertex 11.3333 0.5 -20
      vertex 46.5 0.5 -23.5
      vertex 17.3333 0.5 -20
    endloop
  endfacet
  facet normal 0 -1 -0
    outer loop
      vertex -43 0.5 -17
      vertex -46.5 0.5 -23.5
      vertex -40 0.5 -20
    endloop
  endfacet
  facet normal 0 -1 -0
    outer loop
      vertex -43 0.5 -3
      vertex -46.5 0.5 -23.5
      vertex -43 0.5 -17
    endloop
  endfacet
  facet normal 0 -1 0
    outer loop
      vertex -11.3333 0.5 20
      vertex -46.5 0.5 23.5
      vertex -17.3333 0.5 20
    endloop
  endfacet
  facet normal 0 -1 0
    outer loop
      vertex -46.5 0.5 23.5
      vertex -11.3333 0.5 20
      vertex 46.5 0.5 23.5
    endloop
  endfacet
  facet normal 0 -1 0
    outer loop
      vertex 11.3333 0.5 20
      vertex 46.5 0.5 23.5
      vertex -11.3333 0.5 20
    endloop
  endfacet
  facet normal 0 -1 0
    outer loop
      vertex 17.3333 0.5 20
      vertex 46.5 0.5 23.5
      vertex 11.3333 0.5 20
    endloop
  endfacet
  facet normal 0 -1 0
    outer loop
      vertex 40 0.5 20
      vertex 46.5 0.5 23.5
      vertex 17.3333 0.5 20
    endloop
  endfacet
  facet normal 0 -1 0
    outer loop
      vertex 43 0.5 17
      vertex 40 0.5 20
      vertex 40 0.5 17
    endloop
  endfacet
  facet normal 0 -1 0
    outer loop
      vertex 40 0.5 20
      vertex 43 0.5 17
      vertex 46.5 0.5 23.5
    endloop
  endfacet
  facet normal 0 -1 0
    outer loop
      vertex 43 0.5 3
      vertex 46.5 0.5 23.5
      vertex 43 0.5 17
    endloop
  endfacet
  facet normal 0 -1 0
    outer loop
      vertex 43 0.5 -3
      vertex 43 0.5 3
      vertex 40 0.5 -3
    endloop
  endfacet
  facet normal 0 -1 0
    outer loop
      vertex 43 0.5 -3
      vertex 46.5 0.5 23.5
      vertex 43 0.5 3
    endloop
  endfacet
  facet normal 0 -1 0
    outer loop
      vertex 46.5 0.5 -23.5
      vertex 43 0.5 -3
      vertex 43 0.5 -17
    endloop
  endfacet
  facet normal 0 -1 0
    outer loop
      vertex 43 0.5 -3
      vertex 46.5 0.5 -23.5
      vertex 46.5 0.5 23.5
    endloop
  endfacet
  facet normal 0 -1 0
    outer loop
      vertex 40 0.5 -20
      vertex 46.5 0.5 -23.5
      vertex 43 0.5 -17
    endloop
  endfacet
  facet normal 0 -1 0
    outer loop
      vertex 17.3333 0.5 -20
      vertex 46.5 0.5 -23.5
      vertex 40 0.5 -20
    endloop
  endfacet
  facet normal 0 -1 -0
    outer loop
      vertex -40 0.5 20
      vertex -43 0.5 17
      vertex -40 0.5 17
    endloop
  endfacet
  facet normal 0 -1 -0
    outer loop
      vertex -40 0.5 3
      vertex -43 0.5 -3
      vertex -40 0.5 -3
    endloop
  endfacet
  facet normal -1 0 0
    outer loop
      vertex 38.5 -5.5 -14
      vertex 38.5 7.5 14
      vertex 38.5 7.5 -14
    endloop
  endfacet
  facet normal -1 -0 0
    outer loop
      vertex 38.5 7.5 14
      vertex 38.5 -5.5 -14
      vertex 38.5 -5.5 14
    endloop
  endfacet
  facet normal 0 0 -1
    outer loop
      vertex -33.5 -5.5 14
      vertex 38.5 7.5 14
      vertex 38.5 -5.5 14
    endloop
  endfacet
  facet normal -0 0 -1
    outer loop
      vertex 38.5 7.5 14
      vertex -33.5 -5.5 14
      vertex -33.5 7.5 14
    endloop
  endfacet
  facet normal -0 0 1
    outer loop
      vertex -33.5 7.5 -14
      vertex 38.5 -5.5 -14
      vertex 38.5 7.5 -14
    endloop
  endfacet
  facet normal 0 0 1
    outer loop
      vertex 38.5 -5.5 -14
      vertex -33.5 7.5 -14
      vertex -33.5 -5.5 -14
    endloop
  endfacet
  facet normal 1 -0 0
    outer loop
      vertex -33.5 -5.5 14
      vertex -33.5 7.5 -14
      vertex -33.5 7.5 14
    endloop
  endfacet
  facet normal 1 0 0
    outer loop
      vertex -33.5 7.5 -14
      vertex -33.5 -5.5 14
      vertex -33.5 -5.5 -14
    endloop
  endfacet
endsolid OpenSCAD_Model
